<?xml version="1.0" encoding="utf-8"?>
<!-- Generator: Adobe Illustrator 23.1.1, SVG Export Plug-In . SVG Version: 6.00 Build 0)  -->
<svg version="1.1" id="Layer_1" xmlns="http://www.w3.org/2000/svg" xmlns:xlink="http://www.w3.org/1999/xlink" x="0px" y="0px"
	 viewBox="0 0 66.1 6.9" style="enable-background:new 0 0 66.1 6.9;" xml:space="preserve">
<style type="text/css">
	.st0{fill:#E52621;}
	.st1{fill:#0F80C3;}
	.st2{fill:#3AAA35;}
	.st3{fill:#FFD518;}
</style>
<g>
	<g>
		<g>
			<path class="st0" d="M13.9,1.1C14,1.1,14,1.1,13.9,1.1c0.1,0,0.2,0,0.2-0.1l0,0l0,0V0.9c0,0,0,0-0.1-0.1h-0.1c0,0-0.1,0-0.1,0.1
				l0,0h-0.1l0,0l0,0l0,0l0,0V1C13.8,1,13.8,1,13.9,1.1C13.8,1.1,13.9,1.1,13.9,1.1L13.9,1.1z"/>
		</g>
	</g>
	<g>
		<g>
			<path class="st0" d="M15.1,2.2c0.1,0,0.1,0,0.2,0c0,0,0.1,0,0.1-0.1V2c0,0,0-0.1-0.1-0.1h-0.1c-0.1,0-0.1,0-0.2,0
				c0,0-0.1,0-0.1,0.1v0.1C15,2.2,15,2.2,15.1,2.2L15.1,2.2L15.1,2.2z"/>
		</g>
	</g>
	<g>
		<g>
			<path class="st0" d="M25.1,3.5c-0.1,0-0.1,0.2,0,0.2C25.3,3.7,25.3,3.5,25.1,3.5L25.1,3.5z"/>
		</g>
	</g>
	<g>
		<g>
			<path class="st0" d="M24.4,3.4C24.4,3.4,24.3,3.4,24.4,3.4C24.3,3.4,24.3,3.4,24.4,3.4L24.4,3.4c-0.1,0-0.1,0-0.2,0.1v0.1
				c0,0,0,0,0.1,0.1h0.1l0,0l0,0c0,0,0,0,0.1-0.1C24.5,3.5,24.5,3.5,24.4,3.4C24.4,3.5,24.4,3.4,24.4,3.4L24.4,3.4z"/>
		</g>
	</g>
	<g>
		<g>
			<path class="st0" d="M23.5,3.2L23.5,3.2c-0.1,0-0.1,0-0.2,0c0,0,0,0-0.1,0.1v0.1c0,0,0,0,0.1,0.1c0,0,0,0,0.1,0h0.1
				c0,0,0,0,0.1-0.1C23.6,3.4,23.6,3.3,23.5,3.2C23.6,3.3,23.6,3.3,23.5,3.2L23.5,3.2z"/>
		</g>
	</g>
	<g>
		<g>
			<path class="st0" d="M22.5,3.2c-0.1,0-0.1,0.2,0,0.2C22.7,3.4,22.7,3.2,22.5,3.2L22.5,3.2z"/>
		</g>
	</g>
	<g>
		<g>
			<path class="st0" d="M21.9,3.1c-0.1,0-0.1,0.2,0,0.2C22.1,3.3,22.1,3.1,21.9,3.1L21.9,3.1z"/>
		</g>
	</g>
	<g>
		<g>
			<path class="st0" d="M21.4,3L21.4,3L21.4,3L21.4,3c-0.1,0-0.1,0-0.2,0.1v0.1l0,0c0,0,0,0,0.1,0h0.1l0,0l0,0
				C21.4,3.2,21.4,3.2,21.4,3C21.5,3.1,21.5,3.1,21.4,3L21.4,3L21.4,3L21.4,3z"/>
		</g>
	</g>
	<g>
		<g>
			<path class="st0" d="M20.7,2.8L20.7,2.8L20.7,2.8L20.7,2.8c-0.1,0-0.1,0-0.2,0.1V3l0,0c0,0,0,0,0.1,0h0.1l0,0l0,0
				C20.7,3,20.7,3,20.7,2.8C20.8,2.9,20.8,2.9,20.7,2.8C20.8,2.8,20.8,2.8,20.7,2.8C20.8,2.8,20.7,2.8,20.7,2.8L20.7,2.8z"/>
		</g>
	</g>
	<g>
		<g>
			<path class="st0" d="M20.1,2.5L20.1,2.5C20,2.4,20,2.4,20.1,2.5L20.1,2.5l-0.2-0.1v0.1v0.1L20,2.7l0,0l0,0h0.1
				C20.1,2.6,20.2,2.6,20.1,2.5C20.2,2.6,20.1,2.5,20.1,2.5L20.1,2.5z"/>
		</g>
	</g>
	<g>
		<g>
			<path class="st0" d="M19.4,2.1c-0.1,0-0.1,0.2,0,0.2C19.5,2.4,19.5,2.1,19.4,2.1L19.4,2.1z"/>
		</g>
	</g>
	<g>
		<g>
			<path class="st0" d="M18.7,2.4L18.7,2.4L18.7,2.4C18.7,2.4,18.6,2.4,18.7,2.4C18.6,2.3,18.6,2.3,18.7,2.4
				C18.6,2.3,18.6,2.3,18.7,2.4l-0.2-0.1h-0.1v0.1v0.1c0.1,0.1,0.2,0.1,0.2,0.2h0.1c0,0,0,0,0.1-0.1C18.8,2.5,18.8,2.5,18.7,2.4
				C18.8,2.4,18.7,2.4,18.7,2.4L18.7,2.4L18.7,2.4z"/>
		</g>
	</g>
	<g>
		<g>
			<path class="st0" d="M12.8,1.8L12.8,1.8C12.8,1.7,12.8,1.7,12.8,1.8L12.8,1.8L12.8,1.8l-0.2-0.1v0.1v0.1l0,0l0,0L12.8,1.8
				C12.7,1.9,12.8,1.9,12.8,1.8C12.8,1.9,12.8,1.8,12.8,1.8L12.8,1.8z"/>
		</g>
	</g>
	<g>
		<g>
			<path class="st0" d="M13.7,1.4L13.7,1.4C13.7,1.3,13.7,1.3,13.7,1.4C13.7,1.3,13.7,1.3,13.7,1.4L13.7,1.4l-0.2-0.1v0.1l0,0l0,0
				l0,0H13.7C13.6,1.5,13.7,1.5,13.7,1.4L13.7,1.4L13.7,1.4z"/>
		</g>
	</g>
	<g>
		<g>
			<path class="st0" d="M9.8,2.5L9.8,2.5l0.1-0.2V2.2H9.8l0,0c0,0,0,0-0.1,0L9.6,2.3v0.1v0.1C9.7,2.6,9.7,2.6,9.8,2.5
				C9.8,2.6,9.8,2.6,9.8,2.5C9.8,2.6,9.8,2.5,9.8,2.5L9.8,2.5z"/>
		</g>
	</g>
	<g>
		<g>
			<path class="st0" d="M47.7,4.4C47.7,4.4,47.7,4.5,47.7,4.4c0.1,0.1,0.1,0.1,0.1,0.1h0.1c0,0,0,0,0.1-0.1V4.3c0,0,0,0,0-0.1
				c0,0,0,0-0.1-0.1h-0.1C47.7,4.3,47.7,4.3,47.7,4.4L47.7,4.4L47.7,4.4z"/>
		</g>
	</g>
	<g>
		<g>
			<path class="st0" d="M47.2,4.6L47.2,4.6c0,0.1,0,0.2,0,0.2s0,0,0.1,0.1h0.1c0,0,0,0,0.1-0.1V4.7V4.6c0,0,0,0-0.1-0.1
				C47.3,4.5,47.3,4.5,47.2,4.6C47.2,4.5,47.2,4.5,47.2,4.6L47.2,4.6z"/>
		</g>
	</g>
	<g>
		<g>
			<path class="st0" d="M48.6,4.3L48.6,4.3C48.6,4.4,48.6,4.4,48.6,4.3C48.6,4.4,48.6,4.4,48.6,4.3L48.6,4.3l0.2,0.1V4.3l0,0l0,0
				l0,0H48.6C48.7,4.2,48.6,4.2,48.6,4.3L48.6,4.3L48.6,4.3z"/>
		</g>
	</g>
	<g>
		<g>
			<path class="st0" d="M49,5.7L49,5.7L49,5.7L49,5.7L49,5.7l0.1,0.1c0.1,0.1,0.1,0.1,0.1,0V5.7c0,0,0-0.1-0.1-0.1l0,0l0,0l0,0l0,0
				l0,0l0,0l0,0l0,0l0,0l0,0l0,0V5.5c0,0,0,0-0.1-0.1C49.1,5.6,49.1,5.6,49,5.7C49,5.6,49,5.7,49,5.7L49,5.7z"/>
		</g>
	</g>
	<g>
		<g>
			<path class="st0" d="M55.6,3.1C55.6,3.1,55.5,3.2,55.6,3.1c-0.1,0-0.1,0.1-0.1,0.1v0.1c0,0,0,0,0.1,0.1l0,0c0,0,0,0,0.1,0
				c0,0,0,0,0.1,0c0,0,0,0,0.1-0.1V3.2C55.7,3.2,55.7,3.1,55.6,3.1C55.7,3.1,55.6,3.1,55.6,3.1L55.6,3.1L55.6,3.1z"/>
		</g>
	</g>
	<g>
		<g>
			<path class="st0" d="M54.9,3.3c-0.1,0-0.1,0.2,0,0.2C55.1,3.5,55.1,3.3,54.9,3.3L54.9,3.3z"/>
		</g>
	</g>
	<g>
		<g>
			<path class="st0" d="M54.6,3.4c-0.1,0-0.1,0.2,0,0.2C54.8,3.6,54.8,3.4,54.6,3.4L54.6,3.4z"/>
		</g>
	</g>
	<g>
		<g>
			<path class="st0" d="M54.2,3.5L54.2,3.5C54.1,3.5,54.1,3.5,54.2,3.5L54.2,3.5l-0.1,0.2h0.1l0,0h0.1V3.6
				C54.3,3.6,54.3,3.6,54.2,3.5C54.3,3.5,54.3,3.5,54.2,3.5L54.2,3.5z"/>
		</g>
	</g>
	<g>
		<g>
			<path class="st0" d="M53.8,3.6h-0.1h-0.1v0.1v0.1c0,0,0,0,0.1,0h0.1h0.1L53.8,3.6C53.9,3.7,53.9,3.6,53.8,3.6L53.8,3.6L53.8,3.6z
				"/>
		</g>
	</g>
	<g>
		<g>
			<path class="st0" d="M53.2,3.6L53.2,3.6L53.2,3.6L53.2,3.6L53.2,3.6l-0.1,0.2h0.1c0,0.1,0,0.1,0,0.1l0,0l0,0V3.8
				C53.4,3.7,53.3,3.7,53.2,3.6C53.3,3.6,53.3,3.6,53.2,3.6L53.2,3.6z"/>
		</g>
	</g>
	<g>
		<g>
			<path class="st0" d="M52.7,3.7C52.7,3.7,52.6,3.7,52.7,3.7C52.6,3.7,52.6,3.8,52.7,3.7c-0.1,0.1-0.2,0.2-0.1,0.2
				c0,0,0,0.1,0.1,0.1l0,0c0,0,0,0,0.1,0l0,0c0,0,0.1,0,0.1-0.1V3.8C52.8,3.8,52.8,3.8,52.7,3.7L52.7,3.7L52.7,3.7L52.7,3.7z"/>
		</g>
	</g>
	<g>
		<g>
			<path class="st0" d="M52.1,3.8C52,3.8,52,4,52.1,4C52.3,4,52.3,3.8,52.1,3.8L52.1,3.8z"/>
		</g>
	</g>
	<g>
		<g>
			<path class="st0" d="M51.6,3.7c-0.1,0-0.1,0.2,0,0.2C51.7,3.9,51.7,3.7,51.6,3.7L51.6,3.7z"/>
		</g>
	</g>
	<g>
		<g>
			<path class="st0" d="M51,3.8C50.9,3.8,50.9,3.8,51,3.8c-0.1,0-0.1,0-0.2,0c0,0,0,0-0.1,0.1V4c0,0,0,0,0.1,0.1h0.1H51
				c0,0,0,0,0.1-0.1C51.1,3.9,51.1,3.9,51,3.8L51,3.8L51,3.8z"/>
		</g>
	</g>
	<g>
		<g>
			<path class="st0" d="M36.5,5.2c-0.1,0-0.1,0.2,0,0.2C36.6,5.4,36.6,5.2,36.5,5.2L36.5,5.2z"/>
		</g>
	</g>
	<g>
		<g>
			<path class="st0" d="M37.8,5.3c-0.1,0-0.1,0.2,0,0.2C37.9,5.5,37.9,5.3,37.8,5.3L37.8,5.3z"/>
		</g>
	</g>
	<g>
		<g>
			<path class="st0" d="M37.3,5.4L37.3,5.4C37.3,5.4,37.3,5.5,37.3,5.4c-0.1,0.1-0.1,0.2-0.1,0.2s0,0.1,0.1,0.1h0.1l0,0
				c0,0,0.1,0,0.1-0.1V5.5C37.5,5.5,37.5,5.5,37.3,5.4C37.4,5.4,37.4,5.4,37.3,5.4L37.3,5.4z"/>
		</g>
	</g>
	<g>
		<g>
			<path class="st0" d="M36.8,5.6L36.8,5.6c-0.1,0-0.1,0-0.1,0.1v0.1c0,0,0,0.1,0.1,0.1h0.1l0,0c0,0,0.1,0,0.1-0.1V5.7
				C36.9,5.6,36.9,5.6,36.8,5.6C36.9,5.6,36.8,5.6,36.8,5.6L36.8,5.6z"/>
		</g>
	</g>
	<g>
		<g>
			<path class="st0" d="M36.3,5.6L36.3,5.6c-0.1,0-0.1,0-0.1,0v0.1v0.1l0,0c0,0,0,0,0.1,0c0,0,0,0,0.1,0h0.1V5.7
				C36.4,5.7,36.4,5.7,36.3,5.6C36.4,5.6,36.4,5.6,36.3,5.6L36.3,5.6L36.3,5.6z"/>
		</g>
	</g>
	<g>
		<g>
			<path class="st0" d="M35.6,5.6c-0.1,0-0.1,0-0.2,0h-0.1v0.1v0.1l0,0c0,0,0,0,0.1,0c0.1,0,0.1,0,0.2,0h0.1L35.6,5.6
				C35.7,5.7,35.7,5.7,35.6,5.6L35.6,5.6L35.6,5.6L35.6,5.6z"/>
		</g>
	</g>
	<g>
		<g>
			<path class="st0" d="M34.8,5.5h-0.1l0,0l0,0c0,0,0,0-0.1,0.1v0.1l0,0c0,0,0,0,0.1,0h0.1l0,0l0,0C34.8,5.7,34.8,5.7,34.8,5.5
				C34.9,5.7,34.9,5.6,34.8,5.5C34.8,5.6,34.8,5.6,34.8,5.5C34.8,5.6,34.8,5.6,34.8,5.5L34.8,5.5z"/>
		</g>
	</g>
	<g>
		<g>
			<path class="st0" d="M34.1,5.4c-0.1,0-0.1,0.2,0,0.2S34.2,5.4,34.1,5.4L34.1,5.4z"/>
		</g>
	</g>
	<g>
		<g>
			<path class="st0" d="M33.3,5.2c-0.1,0-0.1,0.2,0,0.2C33.4,5.4,33.4,5.2,33.3,5.2L33.3,5.2z"/>
		</g>
	</g>
	<g>
		<g>
			<path class="st0" d="M32.6,5.1c-0.1,0-0.1,0.2,0,0.2C32.8,5.3,32.8,5.1,32.6,5.1L32.6,5.1z"/>
		</g>
	</g>
	<g>
		<g>
			<path class="st0" d="M40.4,6.7C40.4,6.7,40.4,6.6,40.4,6.7C40.4,6.6,40.4,6.6,40.4,6.7L40.4,6.7L40.4,6.7l-0.2-0.1v0.1
				c0,0,0,0,0,0.1l0,0l0,0L40.4,6.7C40.3,6.8,40.4,6.8,40.4,6.7L40.4,6.7L40.4,6.7z"/>
		</g>
	</g>
	<g>
		<g>
			<path class="st0" d="M24.9,3.6L24.9,3.6L24.9,3.6C24.9,3.6,24.8,3.6,24.9,3.6C24.8,3.7,24.8,3.7,24.9,3.6l-0.1,0.2h0.1l0,0l0,0
				l0,0V3.6C25,3.7,25,3.7,24.9,3.6C25,3.6,25,3.6,24.9,3.6L24.9,3.6z"/>
		</g>
	</g>
	<g>
		<g>
			<path class="st0" d="M23.7,3.6L23.7,3.6L23.7,3.6C23.6,3.6,23.6,3.6,23.7,3.6C23.6,3.7,23.6,3.7,23.7,3.6l-0.1,0.2h0.1l0,0l0,0
				l0,0V3.6C23.8,3.7,23.8,3.6,23.7,3.6C23.8,3.6,23.7,3.6,23.7,3.6L23.7,3.6z"/>
		</g>
	</g>
	<g>
		<g>
			<path class="st0" d="M59.5,2.7c-0.1,0-0.1,0.2,0,0.2C59.7,3,59.7,2.7,59.5,2.7L59.5,2.7z"/>
		</g>
	</g>
	<g>
		<g>
			<path class="st0" d="M44.3,6L44.3,6C44.3,5.9,44.3,5.9,44.3,6V5.8h-0.1h-0.1l0,0v0.1V6C44.1,6,44.2,6,44.3,6
				C44.2,6,44.2,6,44.3,6L44.3,6z"/>
		</g>
	</g>
	<g>
		<g>
			<path class="st0" d="M47.2,5.4L47.2,5.4c0.1,0,0.1-0.1,0.1-0.1l0,0l0,0V5.2h-0.1h-0.1l0,0l0,0l0,0l0,0l0,0c0,0-0.1,0-0.1,0.1v0.1
				C47,5.4,47.1,5.4,47.2,5.4C47.1,5.4,47.1,5.4,47.2,5.4L47.2,5.4z"/>
		</g>
	</g>
	<g>
		<g>
			<path class="st0" d="M50.9,5.3C51,5.3,51,5.3,50.9,5.3C51,5.2,51,5.2,51,5.2V5.1h-0.1h-0.1l0,0L50.9,5.3L50.9,5.3
				C50.8,5.4,50.8,5.4,50.9,5.3C50.9,5.4,50.9,5.4,50.9,5.3L50.9,5.3z"/>
		</g>
	</g>
	<g>
		<g>
			<path class="st0" d="M45.1,6.3L45.1,6.3C45.2,6.3,45.2,6.3,45.1,6.3C45.2,6.2,45.2,6.2,45.1,6.3l0.1-0.2h-0.1H45l0,0l0,0l0,0v0.1
				C45,6.4,45,6.4,45.1,6.3C45.1,6.4,45.1,6.4,45.1,6.3L45.1,6.3z"/>
		</g>
	</g>
	<g>
		<g>
			<path class="st0" d="M46.6,6c-0.1,0-0.1,0.2,0,0.2C46.7,6.3,46.7,6,46.6,6L46.6,6z"/>
		</g>
	</g>
	<g>
		<g>
			<path class="st0" d="M47,5.8C47.1,5.8,47.1,5.8,47,5.8c0.1,0,0.1-0.1,0.1-0.1V5.6c0,0,0,0-0.1-0.1l0,0c0,0,0,0-0.1,0
				c0,0,0,0-0.1,0c0,0,0,0-0.1,0.1v0.1C46.9,5.8,46.9,5.8,47,5.8L47,5.8L47,5.8L47,5.8z"/>
		</g>
	</g>
	<g>
		<g>
			<path class="st0" d="M45.9,5.3c-0.1,0-0.1,0.2,0,0.2S46,5.3,45.9,5.3L45.9,5.3z"/>
		</g>
	</g>
	<g>
		<g>
			<path class="st0" d="M46.2,5.1C46.2,5.1,46.3,5.1,46.2,5.1C46.3,5.1,46.3,5.1,46.2,5.1C46.3,5,46.3,5,46.3,5V4.9h-0.1h-0.1
				c0,0,0,0-0.1,0.1l0,0l0,0v0.1C46.1,5.2,46.1,5.2,46.2,5.1C46.2,5.2,46.2,5.2,46.2,5.1L46.2,5.1z"/>
		</g>
	</g>
	<g>
		<g>
			<path class="st0" d="M46.6,4.3c-0.1,0-0.1,0.2,0,0.2C46.7,4.5,46.7,4.3,46.6,4.3L46.6,4.3z"/>
		</g>
	</g>
	<g>
		<g>
			<path class="st0" d="M38.1,6.1c-0.1,0-0.1,0.2,0,0.2C38.3,6.3,38.3,6.1,38.1,6.1L38.1,6.1z"/>
		</g>
	</g>
	<g>
		<g>
			<path class="st0" d="M56.7,2.9C56.7,2.8,56.7,2.8,56.7,2.9C56.7,2.8,56.7,2.8,56.7,2.9c0-0.1,0-0.1-0.1-0.2h-0.1l0,0
				c0,0,0,0,0,0.1l0,0v0.1C56.5,2.9,56.5,2.9,56.7,2.9C56.6,2.9,56.6,2.9,56.7,2.9C56.6,2.9,56.6,2.9,56.7,2.9L56.7,2.9L56.7,2.9z"
				/>
		</g>
	</g>
	<g>
		<g>
			<path class="st0" d="M57.2,2.5c-0.1,0-0.1,0.2,0,0.2C57.3,2.7,57.3,2.5,57.2,2.5L57.2,2.5z"/>
		</g>
	</g>
	<g>
		<g>
			<path class="st0" d="M58,2.1c-0.1,0-0.1,0.2,0,0.2C58.2,2.4,58.2,2.1,58,2.1L58,2.1z"/>
		</g>
	</g>
	<g>
		<g>
			<path class="st0" d="M58.6,2.2C58.6,2.2,58.7,2.2,58.6,2.2C58.7,2.2,58.7,2.2,58.6,2.2L58.7,2c0,0,0-0.1-0.1-0.1l0,0
				c0,0,0,0-0.1,0l0,0c0,0-0.1,0-0.1,0.1v0.1C58.5,2.2,58.5,2.2,58.6,2.2L58.6,2.2L58.6,2.2L58.6,2.2z"/>
		</g>
	</g>
	<g>
		<g>
			<path class="st0" d="M59.4,2L59.4,2L59.4,2c0.1-0.1,0.1-0.1,0.1-0.1s0-0.1-0.1-0.1l0,0c0,0,0,0-0.1,0l0,0c0,0-0.1,0-0.1,0.1
				c0,0,0,0,0,0S59.2,2,59.4,2C59.3,2,59.3,2,59.4,2C59.3,2,59.3,2,59.4,2L59.4,2z"/>
		</g>
	</g>
	<g>
		<g>
			<path class="st0" d="M59.8,1.9L59.8,1.9C59.8,1.9,59.9,1.8,59.8,1.9c0.1-0.1,0.1-0.2,0.1-0.2s0-0.1-0.1-0.1l0,0c0,0,0,0-0.1,0
				l0,0c0,0-0.1,0-0.1,0.1v0.1C59.7,1.8,59.7,1.8,59.8,1.9C59.7,1.9,59.7,1.9,59.8,1.9L59.8,1.9L59.8,1.9z"/>
		</g>
	</g>
	<g>
		<g>
			<path class="st0" d="M60.6,1.6L60.6,1.6C60.7,1.6,60.7,1.5,60.6,1.6l0.1-0.2c0,0,0,0-0.1-0.1l0,0c0,0,0,0-0.1,0c0,0,0,0-0.1,0
				c0,0,0,0-0.1,0.1v0.1C60.4,1.6,60.5,1.7,60.6,1.6C60.5,1.7,60.5,1.7,60.6,1.6C60.5,1.7,60.6,1.7,60.6,1.6L60.6,1.6z"/>
		</g>
	</g>
	<g>
		<g>
			<path class="st0" d="M61.2,1.5C61.3,1.5,61.3,1.5,61.2,1.5c0.1,0,0.1,0,0.1-0.1V1.3c0,0,0-0.1-0.1-0.1l0,0c0,0,0,0-0.1,0
				c0,0,0,0-0.1,0c0,0-0.1,0-0.1,0.1v0.1C61.1,1.5,61.1,1.5,61.2,1.5L61.2,1.5L61.2,1.5L61.2,1.5z"/>
		</g>
	</g>
	<g>
		<g>
			<path class="st0" d="M62.1,1.2C62.1,1.2,62.2,1.2,62.1,1.2c0.1,0,0.1,0,0.1-0.1V1c0,0,0,0-0.1-0.1H62c0,0,0,0-0.1,0
				c0,0,0,0-0.1,0.1v0.1C62,1.2,62,1.3,62.1,1.2C62.1,1.3,62.1,1.3,62.1,1.2L62.1,1.2z"/>
		</g>
	</g>
	<g>
		<g>
			<path class="st0" d="M63.1,0.9L63.1,0.9C63.2,0.8,63.2,0.8,63.1,0.9l0.1-0.2c0,0,0-0.1-0.1-0.1H63h-0.1c0,0-0.1,0-0.1,0.1v0.1
				C62.9,0.8,63,0.9,63.1,0.9C63,0.9,63.1,0.9,63.1,0.9L63.1,0.9z"/>
		</g>
	</g>
	<g>
		<g>
			<path class="st0" d="M63.8,0.4c-0.1,0-0.1,0.2,0,0.2C63.9,0.6,63.9,0.4,63.8,0.4L63.8,0.4z"/>
		</g>
	</g>
	<g>
		<g>
			<path class="st0" d="M39.6,5.4c-0.1,0-0.1,0.2,0,0.2C39.8,5.6,39.8,5.4,39.6,5.4L39.6,5.4z"/>
		</g>
	</g>
	<g>
		<g>
			<path class="st0" d="M40.9,5.5H41h0.1V5.4V5.3c0,0,0,0-0.1,0h-0.1h-0.1L40.9,5.5C40.8,5.4,40.8,5.4,40.9,5.5
				C40.8,5.4,40.8,5.5,40.9,5.5L40.9,5.5z"/>
		</g>
	</g>
	<g>
		<g>
			<path class="st0" d="M41.8,5.3L41.8,5.3L41.8,5.3C41.9,5.3,41.9,5.3,41.8,5.3c0.1,0,0.1,0,0.2-0.1V5.1c0,0,0,0-0.1-0.1
				c0,0,0,0-0.1,0l0,0l0,0c0,0,0,0-0.1,0.1C41.7,5.2,41.7,5.2,41.8,5.3C41.7,5.3,41.7,5.3,41.8,5.3L41.8,5.3z"/>
		</g>
	</g>
	<g>
		<g>
			<path class="st0" d="M42.4,5.3c0.1,0,0.1,0,0.2,0h0.1V5.2V5.1h-0.1c-0.1,0-0.1,0-0.2,0h-0.1L42.4,5.3C42.3,5.2,42.3,5.2,42.4,5.3
				L42.4,5.3L42.4,5.3z"/>
		</g>
	</g>
	<g>
		<g>
			<path class="st0" d="M43.4,5.2h0.1h0.1V5.1V5h-0.1h-0.1h-0.1L43.4,5.2C43.3,5.1,43.3,5.2,43.4,5.2C43.3,5.2,43.3,5.2,43.4,5.2
				L43.4,5.2z"/>
		</g>
	</g>
	<g>
		<g>
			<path class="st0" d="M44.2,5.1c0.1,0,0.2,0,0.3,0c0.1,0,0.1-0.1,0.1-0.1c0-0.1-0.1-0.1-0.1-0.1c-0.1,0-0.2,0-0.3,0
				S44.1,5,44.2,5.1C44.1,5.1,44.2,5.1,44.2,5.1L44.2,5.1z"/>
		</g>
	</g>
	<g>
		<g>
			<path class="st0" d="M45.4,4.8c-0.1,0-0.1,0.2,0,0.2C45.6,5,45.6,4.8,45.4,4.8L45.4,4.8z"/>
		</g>
	</g>
	<g>
		<g>
			<path class="st0" d="M25.4,4.3L25.4,4.3C25.4,4.3,25.5,4.2,25.4,4.3C25.5,4.2,25.5,4.2,25.4,4.3c0.1-0.1,0.1-0.2,0-0.2h-0.1l0,0
				c0,0-0.1,0-0.1,0.1v0.1C25.3,4.2,25.3,4.3,25.4,4.3C25.3,4.3,25.4,4.3,25.4,4.3L25.4,4.3z"/>
		</g>
	</g>
	<g>
		<g>
			<path class="st0" d="M26.7,4.5L26.7,4.5C26.8,4.5,26.8,4.5,26.7,4.5L26.7,4.5l0.1-0.2l0,0c0,0,0,0-0.1,0l0,0h-0.1L26.7,4.5
				C26.5,4.4,26.5,4.4,26.7,4.5C26.6,4.5,26.6,4.5,26.7,4.5C26.6,4.5,26.6,4.5,26.7,4.5L26.7,4.5z"/>
		</g>
	</g>
	<g>
		<g>
			<path class="st0" d="M27.2,4.4c-0.1,0-0.1,0.2,0,0.2C27.4,4.6,27.4,4.4,27.2,4.4L27.2,4.4z"/>
		</g>
	</g>
	<g>
		<g>
			<path class="st0" d="M28,4.7L28,4.7C28.1,4.7,28.1,4.7,28,4.7c0.1,0,0.1,0,0.2,0h0.1c0,0,0,0,0.1-0.1V4.5c0,0,0,0-0.1-0.1
				c-0.1,0-0.1,0-0.2,0H28v0.1C27.9,4.6,27.9,4.6,28,4.7L28,4.7L28,4.7z"/>
		</g>
	</g>
	<g>
		<g>
			<path class="st0" d="M28.9,4.8L28.9,4.8C29,4.8,29,4.8,28.9,4.8L28.9,4.8c0.1,0,0.1,0,0.2-0.1V4.6c0,0,0,0-0.1-0.1h-0.1l0,0l0,0
				c0,0,0,0-0.1,0.1C28.8,4.7,28.8,4.8,28.9,4.8C28.8,4.8,28.8,4.8,28.9,4.8L28.9,4.8z"/>
		</g>
	</g>
	<g>
		<g>
			<path class="st0" d="M29.6,4.7c-0.1,0-0.1,0.2,0,0.2C29.8,5,29.8,4.7,29.6,4.7L29.6,4.7z"/>
		</g>
	</g>
	<g>
		<g>
			<path class="st0" d="M30.3,5.1C30.3,5.1,30.4,5.1,30.3,5.1C30.4,5.1,30.4,5.1,30.3,5.1L30.3,5.1c0.1,0,0.1,0,0.2-0.1V4.9
				c0,0,0,0-0.1-0.1h-0.1l0,0l0,0c0,0,0,0-0.1,0.1C30.2,5,30.2,5,30.3,5.1C30.2,5.1,30.3,5.1,30.3,5.1L30.3,5.1z"/>
		</g>
	</g>
	<g>
		<g>
			<path class="st0" d="M31,5.2C31.1,5.3,31.1,5.3,31,5.2c0.1,0.1,0.2,0.1,0.2,0.1l0,0c0,0,0.1,0,0.1-0.1V5.1c0,0,0-0.1-0.1-0.1
				h-0.1l0,0l0,0C31.1,5,31,5,31,5.2C31,5.1,31,5.1,31,5.2L31,5.2L31,5.2z"/>
		</g>
	</g>
	<g>
		<g>
			<path class="st0" d="M31.7,5.2c-0.1,0-0.1,0.2,0,0.2C31.9,5.4,31.9,5.2,31.7,5.2L31.7,5.2z"/>
		</g>
	</g>
	<g>
		<g>
			<path class="st0" d="M32.1,5.5L32.1,5.5L32.1,5.5C32.2,5.4,32.2,5.4,32.1,5.5c0.1-0.1,0.1-0.2,0-0.2H32l0,0c0,0-0.1,0-0.1,0.1
				v0.1C31.9,5.4,32,5.5,32.1,5.5C32,5.5,32,5.5,32.1,5.5L32.1,5.5z"/>
		</g>
	</g>
	<g>
		<g>
			<path class="st0" d="M2.3,2C2.3,2,2.4,2,2.3,2L2.3,2L2.3,2L2.3,2L2.3,2L2.3,2L2.3,2C2.3,2,2.4,2,2.3,2C2.4,2,2.4,1.9,2.3,2
				c0.1-0.1,0.2-0.1,0.1-0.1V1.8H2.3H2.2c0,0,0,0-0.1,0v0.1V2C2.2,2,2.2,2,2.3,2L2.3,2L2.3,2z"/>
		</g>
	</g>
	<g>
		<g>
			<path class="st0" d="M3.1,1.7c0.1,0,0.1,0,0.2,0c0,0,0.1,0,0.1-0.1V1.5c0,0,0-0.1-0.1-0.1H3.2c-0.1,0-0.1,0-0.2,0
				c0,0-0.1,0-0.1,0.1v0.1C3,1.7,3,1.7,3.1,1.7L3.1,1.7L3.1,1.7z"/>
		</g>
	</g>
	<g>
		<g>
			<path class="st0" d="M3.8,1.5L3.8,1.5L3.8,1.5c0.1,0,0.2,0,0.2,0V1.4c0,0,0-0.1-0.1-0.1l0,0H3.8C3.8,1.3,3.7,1.3,3.8,1.5
				C3.7,1.3,3.7,1.4,3.8,1.5C3.7,1.4,3.7,1.5,3.8,1.5L3.8,1.5z"/>
		</g>
	</g>
	<g>
		<g>
			<path class="st0" d="M4.4,1.3L4.4,1.3C4.5,1.3,4.5,1.3,4.4,1.3L4.4,1.3L4.4,1.3l0.1-0.2H4.4c0,0,0,0-0.1,0l0,0l0,0L4.4,1.3
				C4.3,1.2,4.3,1.2,4.4,1.3C4.3,1.3,4.3,1.3,4.4,1.3L4.4,1.3z"/>
		</g>
	</g>
	<g>
		<g>
			<path class="st0" d="M5,1.2C5,1.2,5.1,1.2,5,1.2C5.1,1.2,5.1,1.2,5,1.2L5,1.2L5,1.2L5.1,1H5H4.9l0,0l0,0L5,1.2
				C4.9,1.1,4.9,1.1,5,1.2C5,1.1,5,1.2,5,1.2L5,1.2z"/>
		</g>
	</g>
	<g>
		<g>
			<path class="st0" d="M5.7,1L5.7,1c0.1,0,0.2,0,0.2-0.1V0.8c0,0,0-0.1-0.1-0.1H5.7H5.6c0,0-0.1,0-0.1,0.1v0.1C5.6,1,5.6,1,5.7,1
				C5.7,1.1,5.7,1.1,5.7,1L5.7,1z"/>
		</g>
	</g>
	<g>
		<g>
			<path class="st0" d="M6.3,0.7c-0.1,0-0.1,0.2,0,0.2C6.5,0.9,6.5,0.7,6.3,0.7L6.3,0.7z"/>
		</g>
	</g>
	<g>
		<g>
			<path class="st0" d="M7,0.5c-0.1,0-0.1,0.2,0,0.2C7.1,0.8,7.1,0.5,7,0.5L7,0.5z"/>
		</g>
	</g>
	<g>
		<g>
			<path class="st0" d="M7.5,0.7L7.5,0.7C7.6,0.7,7.6,0.7,7.5,0.7l0.1-0.2c0,0,0-0.1-0.1-0.1H7.4l0,0c0,0-0.1,0-0.1,0.1v0.1
				C7.4,0.6,7.4,0.6,7.5,0.7C7.4,0.7,7.5,0.7,7.5,0.7L7.5,0.7z"/>
		</g>
	</g>
	<g>
		<g>
			<path class="st0" d="M23,3.8L23,3.8L23,3.8l0.1-0.2H23h-0.1l0,0L23,3.8L23,3.8C22.8,3.8,22.8,3.8,23,3.8
				C22.9,3.8,22.9,3.8,23,3.8L23,3.8z"/>
		</g>
	</g>
	<g>
		<g>
			<path class="st0" d="M8.4,0.7L8.4,0.7L8.4,0.7C8.5,0.8,8.5,0.8,8.4,0.7c0.1,0.1,0.2,0.1,0.2,0V0.6l0,0c0,0,0-0.1-0.1-0.1H8.4
				C8.4,0.5,8.4,0.5,8.4,0.7C8.4,0.6,8.4,0.6,8.4,0.7L8.4,0.7z"/>
		</g>
	</g>
	<g>
		<g>
			<path class="st0" d="M9.1,0.6C9,0.6,9,0.8,9.1,0.8C9.3,0.8,9.3,0.6,9.1,0.6L9.1,0.6z"/>
		</g>
	</g>
	<g>
		<g>
			<path class="st0" d="M9.9,0.7c-0.1,0-0.1,0.2,0,0.2C10.1,0.9,10.1,0.7,9.9,0.7L9.9,0.7z"/>
		</g>
	</g>
	<g>
		<g>
			<path class="st0" d="M10.9,1L10.9,1C10.9,1,11,0.9,10.9,1C11,0.9,11,0.9,10.9,1c0.1-0.1,0.1-0.2,0-0.2l0,0c0,0,0,0-0.1,0l0,0
				c0,0-0.1,0-0.1,0.1V1C10.7,0.9,10.8,0.9,10.9,1C10.8,1,10.8,1,10.9,1C10.8,1,10.8,1,10.9,1L10.9,1z"/>
		</g>
	</g>
	<g>
		<g>
			<path class="st0" d="M11.7,1c0.1,0,0.1,0,0.2,0l0,0H12h0.1c0,0,0,0,0.1-0.1c0-0.1,0-0.1-0.1-0.1s-0.2,0-0.3,0l0,0l0,0L11.7,1
				C11.6,0.9,11.6,0.9,11.7,1C11.6,1,11.7,1,11.7,1L11.7,1z"/>
		</g>
	</g>
	<g>
		<g>
			<path class="st0" d="M12.5,1.1L12.5,1.1h0.2V1V0.9h-0.1h-0.1h-0.1L12.5,1.1C12.4,1,12.4,1,12.5,1.1L12.5,1.1L12.5,1.1z"/>
		</g>
	</g>
	<g>
		<g>
			<path class="st0" d="M13.4,1.1c0.1,0,0.1,0,0.2,0l0,0l0,0l0,0l0,0c0,0,0,0,0.1-0.1V0.9c0,0,0,0-0.1-0.1c-0.1,0-0.1,0-0.2,0l0,0
				l0,0v0.1C13.3,1,13.3,1,13.4,1.1L13.4,1.1L13.4,1.1z"/>
		</g>
	</g>
	<g>
		<g>
			<path class="st0" d="M21,2.6L21,2.6C21,2.5,21,2.5,21,2.6L21,2.6l-0.2-0.1l0,0c0,0,0,0,0,0.1c0,0,0,0,0,0.1v0.1h0.1
				C20.9,2.8,20.9,2.7,21,2.6C21,2.7,21,2.7,21,2.6C21,2.7,21,2.7,21,2.6L21,2.6z"/>
		</g>
	</g>
	<g>
		<g>
			<path class="st0" d="M21.5,4.6C21.5,4.6,21.5,4.5,21.5,4.6c-0.1-0.1-0.1-0.1-0.2-0.2h-0.1c0,0,0,0-0.1,0.1l0,0c0,0,0,0,0,0.1
				c0,0,0,0.1,0.1,0.1c0,0,0,0,0.1,0.1h0.1C21.4,4.8,21.5,4.7,21.5,4.6C21.5,4.7,21.5,4.7,21.5,4.6C21.5,4.7,21.5,4.6,21.5,4.6
				L21.5,4.6z"/>
		</g>
	</g>
	<g>
		<g>
			<path class="st0" d="M20,3.9c-0.1,0-0.1,0.2,0,0.2C20.1,4.1,20.1,3.9,20,3.9L20,3.9z"/>
		</g>
	</g>
	<g>
		<g>
			<path class="st0" d="M25.6,6.7C25.6,6.7,25.6,6.6,25.6,6.7C25.6,6.6,25.6,6.6,25.6,6.7L25.6,6.7c0-0.1,0-0.1-0.1-0.2h-0.1l0,0
				c0,0,0,0,0,0.1c0,0,0,0,0,0.1l0,0l0,0C25.4,6.7,25.4,6.7,25.6,6.7C25.5,6.8,25.6,6.8,25.6,6.7L25.6,6.7L25.6,6.7L25.6,6.7z"/>
		</g>
	</g>
	<g>
		<g>
			<path class="st0" d="M10.7,1.2c-0.1,0-0.1,0.2,0,0.2C10.8,1.5,10.8,1.2,10.7,1.2L10.7,1.2z"/>
		</g>
	</g>
	<g>
		<g>
			<path class="st0" d="M7.3,1.1c-0.1,0-0.1,0.2,0,0.2C7.5,1.3,7.5,1.1,7.3,1.1L7.3,1.1z"/>
		</g>
	</g>
	<g>
		<g>
			<path class="st0" d="M6.5,3.3c-0.1,0-0.1,0.2,0,0.2C6.6,3.5,6.6,3.3,6.5,3.3L6.5,3.3z"/>
		</g>
	</g>
	<g>
		<g>
			<path class="st1" d="M14.3,1.4c-0.1,0-0.1,0.2,0,0.2C14.4,1.6,14.4,1.4,14.3,1.4L14.3,1.4z"/>
		</g>
	</g>
	<g>
		<g>
			<path class="st1" d="M8.3,1.2L8.3,1.2C8.3,1.1,8.3,1.1,8.3,1.2c0-0.1,0-0.1-0.1-0.2H8.1c0,0,0,0-0.1,0.1l0,0v0.1c0,0,0,0,0.1,0.1
				C8.2,1.3,8.2,1.3,8.3,1.2L8.3,1.2L8.3,1.2z"/>
		</g>
	</g>
	<g>
		<g>
			<path class="st1" d="M11.3,2.6c-0.1,0-0.1,0.2,0,0.2C11.4,2.8,11.4,2.6,11.3,2.6L11.3,2.6z"/>
		</g>
	</g>
	<g>
		<g>
			<path class="st1" d="M19.8,3.1L19.8,3.1C19.9,3.1,19.9,3,19.8,3.1C19.9,3,19.9,3,19.8,3.1c0.1-0.1,0.1-0.2,0-0.2h-0.1l0,0l0,0
				C19.7,2.9,19.7,2.9,19.8,3.1L19.8,3.1L19.8,3.1C19.7,3,19.7,3.1,19.8,3.1C19.7,3.2,19.7,3.2,19.8,3.1C19.8,3.2,19.8,3.2,19.8,3.1
				C19.8,3.2,19.8,3.1,19.8,3.1L19.8,3.1z"/>
		</g>
	</g>
	<g>
		<g>
			<path class="st1" d="M18.4,2L18.4,2c-0.1,0-0.1,0-0.2,0c0,0,0,0-0.1,0.1v0.1c0,0,0,0,0.1,0.1h0.1h0.1c0,0,0,0,0.1-0.1
				C18.5,2.1,18.5,2.1,18.4,2C18.5,2,18.5,2,18.4,2L18.4,2z"/>
		</g>
	</g>
	<g>
		<g>
			<path class="st1" d="M19.6,3.1L19.6,3.1L19.6,3.1C19.6,3,19.6,3,19.6,3.1c0-0.1,0-0.2-0.1-0.2h-0.1c0,0-0.1,0-0.1,0.1l0,0l0,0
				l0,0c0,0,0,0.1,0.1,0.1C19.5,3.2,19.5,3.2,19.6,3.1C19.6,3.2,19.6,3.2,19.6,3.1L19.6,3.1z"/>
		</g>
	</g>
	<g>
		<g>
			<path class="st1" d="M16.8,1.7L16.8,1.7C16.8,1.6,16.8,1.6,16.8,1.7c0-0.1,0-0.1-0.1-0.2h-0.1c0,0,0,0-0.1,0.1c0,0,0,0,0,0.1v0.1
				c0,0,0,0,0.1,0.1C16.7,1.8,16.7,1.8,16.8,1.7C16.8,1.8,16.8,1.7,16.8,1.7L16.8,1.7z"/>
		</g>
	</g>
	<g>
		<g>
			<path class="st1" d="M18.4,3.2c-0.1,0-0.1,0.2,0,0.2S18.5,3.2,18.4,3.2L18.4,3.2z"/>
		</g>
	</g>
	<g>
		<g>
			<path class="st1" d="M8.3,0.3c-0.1,0-0.1,0.2,0,0.2C8.4,0.5,8.4,0.3,8.3,0.3L8.3,0.3z"/>
		</g>
	</g>
	<g>
		<g>
			<path class="st1" d="M9.1,0.6C9,0.6,9,0.8,9.1,0.8C9.3,0.8,9.3,0.6,9.1,0.6L9.1,0.6z"/>
		</g>
	</g>
	<g>
		<g>
			<path class="st1" d="M9.6,0.3c-0.1,0-0.1,0.2,0,0.2S9.7,0.3,9.6,0.3L9.6,0.3z"/>
		</g>
	</g>
	<g>
		<g>
			<path class="st1" d="M9.8,1L9.8,1C9.8,0.9,9.9,0.9,9.8,1C9.9,0.9,9.9,0.9,9.8,1c0.1-0.1,0.1-0.2,0-0.2l0,0c0,0,0,0-0.1,0l0,0
				c0,0-0.1,0-0.1,0.1V1C9.6,0.9,9.7,0.9,9.8,1C9.7,1,9.7,1,9.8,1C9.7,1,9.8,1,9.8,1L9.8,1z"/>
		</g>
	</g>
	<g>
		<g>
			<path class="st1" d="M10.3,0.7c-0.1,0-0.1,0.2,0,0.2C10.4,0.9,10.4,0.7,10.3,0.7L10.3,0.7z"/>
		</g>
	</g>
	<g>
		<g>
			<path class="st1" d="M10.6,0.8c0,0.1,0,0.1,0.1,0.2h0.1h0.1V0.9V0.8l0,0l0,0l0,0l0,0l0,0l0,0l0,0l0,0l0,0V0.7c0,0,0,0-0.1-0.1
				C10.7,0.7,10.7,0.7,10.6,0.8C10.6,0.7,10.6,0.8,10.6,0.8L10.6,0.8z"/>
		</g>
	</g>
	<g>
		<g>
			<path class="st1" d="M11.5,0.9C11.6,0.9,11.6,0.9,11.5,0.9C11.6,0.8,11.6,0.8,11.5,0.9L11.5,0.9l0.1-0.2c0,0,0,0-0.1-0.1h-0.1
				c0,0-0.1,0-0.1,0.1l0,0l0,0v0.1C11.4,0.9,11.4,0.9,11.5,0.9L11.5,0.9L11.5,0.9z"/>
		</g>
	</g>
	<g>
		<g>
			<path class="st1" d="M11.7,1C11.8,1,11.8,1,11.7,1C11.8,1,11.8,1,11.7,1l0.1-0.2c0,0,0-0.1-0.1-0.1l0,0c0,0,0,0-0.1,0
				c0,0,0,0-0.1,0c0,0-0.1,0-0.1,0.1v0.1C11.6,0.9,11.6,1,11.7,1L11.7,1L11.7,1L11.7,1z"/>
		</g>
	</g>
	<g>
		<g>
			<path class="st1" d="M12.3,0.8c-0.1,0-0.1,0.2,0,0.2C12.4,1,12.4,0.8,12.3,0.8L12.3,0.8z"/>
		</g>
	</g>
	<g>
		<g>
			<path class="st1" d="M12.7,0.9C12.7,1,12.7,1,12.7,0.9C12.8,1,12.8,1,12.8,1.1h0.1H13V1l0,0c0,0,0,0,0-0.1l0,0l0,0V0.8l0,0l0,0
				c0,0,0-0.1-0.1-0.1h-0.1C12.8,0.8,12.7,0.8,12.7,0.9L12.7,0.9L12.7,0.9z"/>
		</g>
	</g>
	<g>
		<g>
			<path class="st1" d="M13.5,0.7c-0.1,0-0.1,0.2,0,0.2C13.6,1,13.6,0.7,13.5,0.7L13.5,0.7z"/>
		</g>
	</g>
	<g>
		<g>
			<path class="st1" d="M13.9,0.9c-0.1,0-0.1,0.2,0,0.2C14.1,1.1,14.1,0.9,13.9,0.9L13.9,0.9z"/>
		</g>
	</g>
	<g>
		<g>
			<path class="st1" d="M29.9,6.2L29.9,6.2C30,6.1,30,6.1,29.9,6.2L30,6h-0.1h-0.1c0,0,0,0-0.1,0.1c0,0,0,0,0,0.1v0.1
				C29.7,6.3,29.8,6.3,29.9,6.2C29.8,6.3,29.9,6.3,29.9,6.2L29.9,6.2z"/>
		</g>
	</g>
	<g>
		<g>
			<path class="st1" d="M22.3,4.5L22.3,4.5c0-0.1,0-0.2,0-0.2s0,0-0.1-0.1h-0.1c0,0,0,0-0.1,0.1v0.1v0.1c0,0,0,0,0.1,0.1
				C22.2,4.6,22.2,4.6,22.3,4.5C22.3,4.6,22.3,4.6,22.3,4.5L22.3,4.5z"/>
		</g>
	</g>
	<g>
		<g>
			<path class="st1" d="M27.2,5.4C27.2,5.4,27.2,5.5,27.2,5.4C27.2,5.5,27.1,5.5,27.2,5.4C27.1,5.5,27.1,5.5,27.2,5.4l-0.1,0.2h0.1
				h0.1l0,0l0,0l0,0L27.2,5.4C27.3,5.4,27.3,5.4,27.2,5.4C27.3,5.4,27.2,5.4,27.2,5.4L27.2,5.4z"/>
		</g>
	</g>
	<g>
		<g>
			<path class="st1" d="M28.2,5.4c-0.1,0-0.1,0.2,0,0.2C28.4,5.6,28.4,5.4,28.2,5.4L28.2,5.4z"/>
		</g>
	</g>
	<g>
		<g>
			<path class="st1" d="M24.8,3.8L24.8,3.8c-0.1-0.1-0.1-0.1-0.2,0c0,0-0.1,0-0.1,0.1V4c0,0,0,0.1,0.1,0.1c0,0,0,0,0.1,0h0.1
				c0,0,0.1,0,0.1-0.1C24.9,3.9,24.9,3.9,24.8,3.8C24.9,3.9,24.9,3.8,24.8,3.8L24.8,3.8z"/>
		</g>
	</g>
	<g>
		<g>
			<path class="st1" d="M24.3,3.7C24.3,3.7,24.3,3.6,24.3,3.7c0-0.1,0-0.2,0-0.2l0,0l0,0h-0.1h-0.1v0.1c0,0,0,0,0,0.1l0,0
				c0,0,0,0,0,0.1l0,0l0,0l0,0l0,0c0,0,0,0.1,0.1,0.1C24.1,3.7,24.2,3.7,24.3,3.7C24.2,3.7,24.2,3.7,24.3,3.7L24.3,3.7z"/>
		</g>
	</g>
	<g>
		<g>
			<path class="st1" d="M23,3.3L23,3.3L23,3.3L23,3.3L23,3.3L23,3.3L23,3.3L23,3.3L23,3.3L23,3.3L23,3.3C23,3.3,23,3.2,23,3.3
				c-0.1-0.1-0.1-0.1-0.2-0.1c0,0-0.1,0-0.1,0.1l0,0c0,0,0,0,0,0.1l0,0l0,0l0,0c0,0,0,0,0.1,0l0,0l0,0l0,0c0,0,0,0,0.1-0.1
				C23.1,3.4,23.1,3.4,23,3.3C23.1,3.3,23.1,3.3,23,3.3C23.1,3.3,23,3.3,23,3.3L23,3.3z"/>
		</g>
	</g>
	<g>
		<g>
			<path class="st1" d="M22.6,3.3L22.6,3.3L22.6,3.3L22.6,3.3L22.6,3.3l-0.2-0.1v0.1v0.1l0,0l0,0L22.6,3.3
				C22.5,3.4,22.5,3.4,22.6,3.3C22.6,3.4,22.6,3.3,22.6,3.3L22.6,3.3z"/>
		</g>
	</g>
	<g>
		<g>
			<path class="st1" d="M22.2,3.2C22.1,3.1,22.1,3.1,22.2,3.2C22.1,3.1,22.1,3.1,22.2,3.2L22,3.1v0.1l0,0c0,0,0,0,0,0.1l0,0
				L22.2,3.2L22.2,3.2C22.2,3.3,22.2,3.3,22.2,3.2L22.2,3.2L22.2,3.2L22.2,3.2z"/>
		</g>
	</g>
	<g>
		<g>
			<path class="st1" d="M21.9,3.3c0-0.1,0-0.2,0-0.2s0-0.1-0.1-0.1h-0.1c0,0-0.1,0-0.1,0.1l0,0c0,0,0,0,0,0.1s0,0.2,0,0.2
				s0,0.1,0.1,0.1h0.1C21.9,3.4,21.9,3.4,21.9,3.3C21.9,3.4,21.9,3.4,21.9,3.3L21.9,3.3L21.9,3.3z"/>
		</g>
	</g>
	<g>
		<g>
			<path class="st1" d="M21.2,2.9L21.2,2.9c0.1-0.1,0.1-0.2,0.1-0.2l0,0l0,0h-0.1C21.2,2.7,21.2,2.7,21.2,2.9L21.2,2.9L21.2,2.9
				L21.2,2.9L21.2,2.9L21.2,2.9L21.2,2.9L21.2,2.9L21.2,2.9L21.2,2.9L21.2,2.9L21.2,2.9L21.2,2.9L21.2,2.9L21.2,2.9
				c-0.1,0-0.1,0-0.2,0.1v0.1C21,2.9,21.1,2.9,21.2,2.9C21.1,3,21.1,3,21.2,2.9L21.2,2.9z"/>
		</g>
	</g>
	<g>
		<g>
			<path class="st1" d="M20.4,2.9C20.5,2.9,20.5,2.9,20.4,2.9c0.1-0.1,0.1-0.1,0.2-0.2c0,0,0,0,0-0.1l0,0l0,0c0,0,0-0.1-0.1-0.1
				h-0.1c0,0-0.1,0-0.1,0.1l0,0l0,0l0,0l0,0c0,0,0,0-0.1,0l0,0l0,0c0,0-0.1,0-0.1,0.1v0.1C20.2,2.9,20.2,2.9,20.4,2.9
				C20.3,2.9,20.3,2.9,20.4,2.9L20.4,2.9z"/>
		</g>
	</g>
	<g>
		<g>
			<path class="st1" d="M20.2,2.3c-0.1,0-0.2,0-0.2,0h-0.1v0.1v0.1l0,0c0,0,0,0,0.1,0s0.2,0,0.2,0h0.1L20.2,2.3
				C20.3,2.4,20.3,2.4,20.2,2.3L20.2,2.3L20.2,2.3z"/>
		</g>
	</g>
	<g>
		<g>
			<path class="st1" d="M19.2,3C19.2,3,19.1,2.9,19.2,3C19.1,2.9,19.1,2.9,19.2,3C19.1,2.9,19.1,2.9,19.2,3
				c-0.1-0.1-0.1-0.1-0.2-0.1h-0.1V3v0.1L19,3.2h0.1C19.1,3.2,19.2,3.2,19.2,3C19.2,3.1,19.2,3.1,19.2,3L19.2,3L19.2,3z"/>
		</g>
	</g>
	<g>
		<g>
			<path class="st1" d="M17.6,2.2C17.6,2.1,17.6,2.1,17.6,2.2C17.6,2.1,17.5,2.1,17.6,2.2c-0.1-0.1-0.1-0.1-0.2-0.1c0,0,0,0-0.1,0.1
				v0.1l0,0c0,0,0,0,0.1,0.1h0.1C17.6,2.3,17.6,2.3,17.6,2.2L17.6,2.2L17.6,2.2z"/>
		</g>
	</g>
	<g>
		<g>
			<path class="st1" d="M18.2,2.1L18.2,2.1C18.2,2,18.2,2,18.2,2.1C18.2,2,18.2,2,18.2,2.1c0-0.2,0-0.2-0.1-0.2H18
				c0,0-0.1,0-0.1,0.1c0,0,0,0,0,0.1l0,0l0,0c0,0,0,0.1,0.1,0.1C18,2.2,18.1,2.2,18.2,2.1C18.1,2.2,18.2,2.1,18.2,2.1L18.2,2.1z"/>
		</g>
	</g>
	<g>
		<g>
			<path class="st1" d="M6.2,1.7C6.2,1.6,6.2,1.6,6.2,1.7C6.2,1.6,6.2,1.6,6.2,1.7L6,1.6c0,0-0.1,0-0.1,0.1v0.1l0,0
				c0,0,0,0.1,0.1,0.1h0.1C6.2,1.8,6.2,1.8,6.2,1.7L6.2,1.7L6.2,1.7z"/>
		</g>
	</g>
	<g>
		<g>
			<path class="st1" d="M13.7,2.6C13.6,2.5,13.6,2.5,13.7,2.6C13.6,2.5,13.6,2.5,13.7,2.6l-0.2-0.1c0,0,0,0-0.1,0.1v0.1
				c0,0,0,0.1,0.1,0.1c0,0,0,0,0.1,0.1h0.1C13.6,2.7,13.7,2.7,13.7,2.6L13.7,2.6L13.7,2.6z"/>
		</g>
	</g>
	<g>
		<g>
			<path class="st1" d="M3.4,2c0.1,0,0.1-0.1,0.2-0.2V1.7c0,0,0,0-0.1-0.1H3.4c0,0,0,0-0.1,0.1l0,0l0,0l0,0l0,0l0,0l0,0l0,0
				c0,0,0,0-0.1,0.1v0.1C3.2,2,3.3,2,3.4,2C3.3,2,3.4,2,3.4,2L3.4,2z"/>
		</g>
	</g>
	<g>
		<g>
			<path class="st1" d="M15.3,1.5C15.3,1.5,15.3,1.4,15.3,1.5c-0.1-0.1-0.1-0.1-0.2-0.2H15c0,0,0,0-0.1,0.1v0.1c0,0,0,0.1,0.1,0.1
				c0,0,0,0,0.1,0.1h0.1C15.3,1.6,15.3,1.6,15.3,1.5L15.3,1.5L15.3,1.5z"/>
		</g>
	</g>
	<g>
		<g>
			<path class="st1" d="M15.6,1.1c-0.1,0-0.1,0.2,0,0.2C15.7,1.4,15.7,1.1,15.6,1.1L15.6,1.1z"/>
		</g>
	</g>
	<g>
		<g>
			<path class="st1" d="M15.7,1.5C15.7,1.5,15.6,1.5,15.7,1.5C15.6,1.5,15.6,1.5,15.7,1.5C15.6,1.4,15.6,1.4,15.7,1.5l-0.2-0.1v0.1
				v0.1l0,0l0,0l0,0L15.7,1.5C15.7,1.7,15.7,1.6,15.7,1.5C15.7,1.6,15.7,1.6,15.7,1.5L15.7,1.5z"/>
		</g>
	</g>
	<g>
		<g>
			<path class="st1" d="M14.8,1.4c-0.1,0-0.1,0.2,0,0.2C15,1.6,15,1.4,14.8,1.4L14.8,1.4z"/>
		</g>
	</g>
	<g>
		<g>
			<path class="st1" d="M14.6,2.1L14.6,2.1C14.6,2,14.6,2,14.6,2.1C14.6,2,14.6,2,14.6,2.1L14.6,2.1L14.4,2v0.1l0,0l0,0l0,0H14.6
				C14.5,2.2,14.6,2.2,14.6,2.1C14.6,2.2,14.6,2.1,14.6,2.1L14.6,2.1z"/>
		</g>
	</g>
	<g>
		<g>
			<path class="st1" d="M21.7,3.5L21.7,3.5L21.7,3.5c0-0.1,0-0.1,0-0.2V3.2c0,0,0,0-0.1-0.1h-0.1l0,0c0,0,0,0,0,0.1s0,0.1,0,0.2v0.1
				H21.7C21.6,3.7,21.7,3.7,21.7,3.5C21.7,3.6,21.7,3.6,21.7,3.5L21.7,3.5z"/>
		</g>
	</g>
	<g>
		<g>
			<path class="st1" d="M14.4,2.5L14.4,2.5C14.4,2.4,14.4,2.4,14.4,2.5l-0.2-0.1c0,0-0.1,0-0.1,0.1v0.1l0,0c0,0,0,0.1,0.1,0.1h0.1
				C14.4,2.7,14.4,2.7,14.4,2.5C14.4,2.6,14.4,2.6,14.4,2.5L14.4,2.5z"/>
		</g>
	</g>
	<g>
		<g>
			<path class="st1" d="M32.5,5.5L32.5,5.5h0.2c0,0,0.1,0,0.1-0.1V5.3c0,0,0-0.1-0.1-0.1l0,0c0,0,0,0-0.1,0l0,0l0,0
				c-0.1,0-0.1,0-0.2,0l0,0l0,0h-0.1c0,0,0,0-0.1,0.1C32.5,5.4,32.5,5.4,32.5,5.5L32.5,5.5L32.5,5.5z"/>
		</g>
	</g>
	<g>
		<g>
			<path class="st1" d="M2.4,1.7c0.1,0,0.1,0.1,0.2,0.1h0.1c0,0,0,0,0.1-0.1V1.6c0,0,0,0-0.1-0.1c0,0,0,0-0.1,0l0,0c0,0,0,0-0.1,0
				H2.4C2.4,1.5,2.3,1.5,2.4,1.7C2.3,1.6,2.3,1.6,2.4,1.7C2.3,1.7,2.4,1.7,2.4,1.7L2.4,1.7z"/>
		</g>
	</g>
	<g>
		<g>
			<path class="st1" d="M3.4,1.6c0-0.1,0-0.1,0-0.2V1.3c0,0,0,0-0.1-0.1H3.2c0,0,0,0-0.1,0.1c0,0.1,0,0.1,0,0.2v0.1c0,0,0,0,0.1,0.1
				C3.3,1.7,3.3,1.7,3.4,1.6C3.3,1.7,3.4,1.7,3.4,1.6L3.4,1.6z"/>
		</g>
	</g>
	<g>
		<g>
			<path class="st1" d="M3.6,1.4L3.6,1.4C3.7,1.5,3.7,1.5,3.6,1.4l0.2,0.1V1.4l0,0c0,0,0,0,0-0.1l0,0L3.6,1.4L3.6,1.4
				C3.6,1.2,3.6,1.3,3.6,1.4C3.6,1.3,3.6,1.3,3.6,1.4L3.6,1.4L3.6,1.4z"/>
		</g>
	</g>
	<g>
		<g>
			<path class="st1" d="M4.1,1.4L4.1,1.4h0.2c0,0,0,0,0.1-0.1V1.2c0,0,0,0-0.1-0.1H4.2H4.1c0,0,0,0-0.1,0.1C4,1.2,4,1.3,4.1,1.4
				C4.1,1.3,4.1,1.4,4.1,1.4L4.1,1.4z"/>
		</g>
	</g>
	<g>
		<g>
			<path class="st1" d="M4.4,1.1C4.5,1.1,4.5,1.2,4.4,1.1C4.5,1.2,4.5,1.2,4.4,1.1l0.2,0.1V1.1l0,0c0,0,0,0,0-0.1c0,0,0,0-0.1-0.1
				H4.4H4.3C4.4,1,4.4,1,4.4,1.1C4.4,1,4.4,1.1,4.4,1.1L4.4,1.1L4.4,1.1z"/>
		</g>
	</g>
	<g>
		<g>
			<path class="st1" d="M5.2,1.2L5.2,1.2V1c0,0,0,0-0.1-0.1H5l0,0c0,0,0,0,0,0.1v0.1v0.1C5,1.2,5,1.2,5.2,1.2
				C5.1,1.3,5.1,1.3,5.2,1.2C5.1,1.3,5.2,1.3,5.2,1.2L5.2,1.2L5.2,1.2z"/>
		</g>
	</g>
	<g>
		<g>
			<path class="st1" d="M5.4,0.9C5.4,0.9,5.5,0.9,5.4,0.9L5.6,1c0,0,0.1,0,0.1-0.1V0.8l0,0l0,0c0,0-0.1,0-0.1-0.1H5.5
				C5.5,0.7,5.4,0.7,5.4,0.9C5.3,0.8,5.3,0.8,5.4,0.9C5.3,0.8,5.3,0.8,5.4,0.9C5.3,0.9,5.3,0.9,5.4,0.9L5.4,0.9z"/>
		</g>
	</g>
	<g>
		<g>
			<path class="st1" d="M6.2,0.9L6.2,0.9L6.2,0.9C6.2,0.8,6.2,0.8,6.2,0.9c0-0.1,0-0.2-0.1-0.2H6l0,0l0,0c0,0,0,0,0,0.1l0,0l0,0
				C6,0.8,6,0.9,6.2,0.9C6,1,6.1,1,6.2,0.9C6.1,1,6.1,1,6.2,0.9C6.2,1,6.2,1,6.2,0.9L6.2,0.9z"/>
		</g>
	</g>
	<g>
		<g>
			<path class="st1" d="M6.4,0.9C6.4,0.9,6.5,0.9,6.4,0.9c0.1,0,0.1,0,0.2,0V0.8V0.7c0,0,0,0-0.1,0H6.4H6.3L6.4,0.9
				C6.3,0.8,6.3,0.8,6.4,0.9L6.4,0.9L6.4,0.9z"/>
		</g>
	</g>
	<g>
		<g>
			<path class="st1" d="M7.1,0.6C7,0.6,7,0.8,7.1,0.8C7.3,0.8,7.3,0.6,7.1,0.6L7.1,0.6z"/>
		</g>
	</g>
	<g>
		<g>
			<path class="st1" d="M7.6,0.6c-0.1,0-0.1,0.2,0,0.2C7.7,0.8,7.7,0.6,7.6,0.6L7.6,0.6z"/>
		</g>
	</g>
	<g>
		<g>
			<path class="st1" d="M25.4,3.9L25.4,3.9C25.5,4,25.5,4,25.6,4.1h0.1c0,0,0,0,0.1-0.1V3.9l-0.1-0.1c0,0,0,0-0.1-0.1h-0.1
				C25.4,3.8,25.4,3.8,25.4,3.9L25.4,3.9L25.4,3.9z"/>
		</g>
	</g>
	<g>
		<g>
			<path class="st1" d="M26,4.3C26.1,4.3,26.1,4.3,26,4.3c0.1-0.1,0.2-0.1,0.2-0.1V4.1h-0.1l0,0c0,0,0,0-0.1,0c0,0-0.1,0-0.1,0.1
				L26,4.3L26,4.3C25.9,4.3,25.9,4.4,26,4.3C26,4.4,26,4.4,26,4.3L26,4.3L26,4.3z"/>
		</g>
	</g>
	<g>
		<g>
			<path class="st1" d="M26.5,4.2C26.6,4.2,26.6,4.2,26.5,4.2c0.1,0,0.1,0,0.2,0V4.1V4l0,0c0,0,0,0-0.1,0c0,0,0,0-0.1,0h-0.1
				L26.5,4.2C26.4,4.1,26.4,4.2,26.5,4.2L26.5,4.2L26.5,4.2L26.5,4.2z"/>
		</g>
	</g>
	<g>
		<g>
			<path class="st1" d="M27.1,4.3c-0.1,0-0.1,0.2,0,0.2S27.2,4.3,27.1,4.3L27.1,4.3z"/>
		</g>
	</g>
	<g>
		<g>
			<path class="st1" d="M27.6,4.5L27.6,4.5C27.6,4.5,27.6,4.6,27.6,4.5c0.1,0.1,0.1,0.1,0.2,0.1c0,0,0,0,0.1-0.1l0,0c0,0,0,0,0-0.1
				l0,0c0,0,0,0-0.1-0.1h-0.1C27.6,4.3,27.5,4.4,27.6,4.5C27.5,4.4,27.5,4.4,27.6,4.5C27.5,4.4,27.5,4.5,27.6,4.5L27.6,4.5z"/>
		</g>
	</g>
	<g>
		<g>
			<path class="st1" d="M27.9,4.8C27.9,4.7,28,4.7,27.9,4.8C28,4.7,28,4.7,28,4.6c0,0,0-0.1-0.1-0.1h-0.1c0,0-0.1,0-0.1,0.1
				c0,0,0,0.1-0.1,0.1v0.1c0,0,0,0.1,0.1,0.1C27.8,4.8,27.8,4.8,27.9,4.8L27.9,4.8L27.9,4.8z"/>
		</g>
	</g>
	<g>
		<g>
			<path class="st1" d="M28.5,4.2c-0.1,0-0.1,0.2,0,0.2C28.6,4.5,28.6,4.2,28.5,4.2L28.5,4.2z"/>
		</g>
	</g>
	<g>
		<g>
			<path class="st1" d="M28.9,4.8c0.1,0,0.1,0,0.2-0.1l0,0l0,0V4.6c0,0,0-0.1-0.1-0.1h-0.1c-0.1,0-0.1,0-0.2,0.1l0,0l0,0v0.1
				C28.7,4.8,28.7,4.8,28.9,4.8C28.8,4.9,28.8,4.9,28.9,4.8L28.9,4.8z"/>
		</g>
	</g>
	<g>
		<g>
			<path class="st1" d="M29.5,4.9C29.5,4.9,29.6,4.9,29.5,4.9C29.6,4.8,29.6,4.8,29.5,4.9l0.1-0.2c0,0,0,0-0.1-0.1h-0.1h-0.1
				c0,0,0,0-0.1,0.1v0.1C29.4,4.9,29.4,4.9,29.5,4.9L29.5,4.9L29.5,4.9z"/>
		</g>
	</g>
	<g>
		<g>
			<path class="st1" d="M30,4.7c-0.1,0-0.1,0.2,0,0.2C30.2,4.9,30.2,4.7,30,4.7L30,4.7z"/>
		</g>
	</g>
	<g>
		<g>
			<path class="st1" d="M30.3,5.2L30.3,5.2C30.4,5.2,30.4,5.2,30.3,5.2c0.1,0,0.1,0,0.2-0.1V5l0,0c0,0,0,0-0.1,0l0,0h-0.1
				C30.3,5,30.3,5,30.3,5.2C30.2,5.1,30.2,5.1,30.3,5.2C30.2,5.2,30.2,5.2,30.3,5.2C30.2,5.2,30.2,5.2,30.3,5.2L30.3,5.2z"/>
		</g>
	</g>
	<g>
		<g>
			<path class="st1" d="M30.9,4.8c-0.1,0-0.1,0.2,0,0.2C31,5.1,31,4.8,30.9,4.8L30.9,4.8z"/>
		</g>
	</g>
	<g>
		<g>
			<path class="st1" d="M31.4,4.9c-0.1,0-0.1,0.2,0,0.2S31.5,4.9,31.4,4.9L31.4,4.9z"/>
		</g>
	</g>
	<g>
		<g>
			<path class="st1" d="M31.8,5.3C31.9,5.3,31.9,5.3,31.8,5.3C31.9,5.3,31.9,5.3,31.8,5.3L31.8,5.3l0.1-0.2c0,0,0-0.1-0.1-0.1h-0.1
				h-0.1l0,0l0,0v0.1C31.7,5.3,31.7,5.3,31.8,5.3L31.8,5.3L31.8,5.3z"/>
		</g>
	</g>
	<g>
		<g>
			<path class="st1" d="M32.1,5.3L32.1,5.3C32.2,5.3,32.2,5.3,32.1,5.3C32.2,5.2,32.2,5.2,32.1,5.3c0.1-0.1,0.1-0.1,0-0.2H32l0,0
				c0,0,0,0-0.1,0.1v0.1C32,5.3,32,5.4,32.1,5.3C32.1,5.4,32.1,5.4,32.1,5.3L32.1,5.3z"/>
		</g>
	</g>
	<g>
		<g>
			<path class="st1" d="M32.4,5.2c-0.1,0-0.1,0.2,0,0.2C32.6,5.5,32.6,5.2,32.4,5.2L32.4,5.2z"/>
		</g>
	</g>
	<g>
		<g>
			<path class="st1" d="M38.9,6.5c0.1,0,0.1,0,0.2,0h0.1V6.4V6.3h-0.1c-0.1,0-0.1,0-0.2,0h-0.1L38.9,6.5C38.8,6.4,38.8,6.4,38.9,6.5
				C38.8,6.5,38.8,6.5,38.9,6.5L38.9,6.5z"/>
		</g>
	</g>
	<g>
		<g>
			<path class="st1" d="M38.5,5.2c-0.1,0-0.1,0.2,0,0.2C38.7,5.4,38.7,5.2,38.5,5.2L38.5,5.2z"/>
		</g>
	</g>
	<g>
		<g>
			<path class="st1" d="M32.7,5C32.7,5.1,32.7,5.1,32.7,5C32.7,5.1,32.7,5.1,32.7,5C32.8,5,32.8,5,32.7,5c0.1,0,0.2,0,0.2-0.1V4.8
				c0,0,0-0.1-0.1-0.1c0,0,0,0-0.1,0l0,0l0,0c0,0-0.1,0-0.1,0.1S32.6,4.9,32.7,5C32.6,5,32.6,5,32.7,5L32.7,5z"/>
		</g>
	</g>
	<g>
		<g>
			<path class="st1" d="M33.3,5.4C33.3,5.4,33.3,5.5,33.3,5.4C33.3,5.5,33.3,5.5,33.3,5.4C33.4,5.4,33.4,5.4,33.3,5.4L33.3,5.4
				c0.1,0,0.2,0,0.2-0.1V5.2c0,0,0-0.1-0.1-0.1h-0.1l0,0l0,0l0,0l0,0l0,0h-0.1c0,0,0,0-0.1,0.1C33.2,5.3,33.2,5.4,33.3,5.4
				C33.2,5.4,33.2,5.4,33.3,5.4L33.3,5.4z"/>
		</g>
	</g>
	<g>
		<g>
			<path class="st1" d="M33.9,5.6C33.9,5.5,34,5.5,33.9,5.6C34,5.5,34,5.5,33.9,5.6C34,5.5,34,5.4,34,5.4s0,0-0.1-0.1h-0.1l0,0
				c0,0,0,0-0.1,0.1v0.1C33.8,5.5,33.8,5.6,33.9,5.6L33.9,5.6L33.9,5.6z"/>
		</g>
	</g>
	<g>
		<g>
			<path class="st1" d="M34.6,5.7C34.6,5.7,34.7,5.7,34.6,5.7C34.7,5.7,34.7,5.7,34.6,5.7L34.6,5.7l0.1-0.2c0,0,0,0-0.1,0
				c0,0,0,0-0.1,0h-0.1v0.1C34.5,5.6,34.5,5.6,34.6,5.7L34.6,5.7L34.6,5.7z"/>
		</g>
	</g>
	<g>
		<g>
			<path class="st1" d="M35.1,5.8C35.2,5.8,35.2,5.8,35.1,5.8C35.2,5.8,35.2,5.8,35.1,5.8C35.2,5.8,35.2,5.8,35.1,5.8L35.1,5.8
				L35.1,5.8L35.1,5.8L35.1,5.8c0.1-0.1,0.1-0.1,0-0.2H35l0,0l0,0l0,0l0,0l0,0h-0.1v0.1C35,5.8,35,5.8,35.1,5.8L35.1,5.8L35.1,5.8z"
				/>
		</g>
	</g>
	<g>
		<g>
			<path class="st1" d="M35.7,5.7L35.7,5.7c0.1-0.1,0.1-0.1,0.1-0.1V5.5h-0.1h-0.1l0,0L35.7,5.7L35.7,5.7
				C35.5,5.7,35.5,5.8,35.7,5.7C35.6,5.8,35.6,5.7,35.7,5.7L35.7,5.7z"/>
		</g>
	</g>
	<g>
		<g>
			<path class="st1" d="M36.3,5.9C36.3,5.9,36.4,5.8,36.3,5.9c0.1-0.1,0.1-0.1,0.1-0.1V5.7c0,0,0,0-0.1-0.1h-0.1c0,0,0,0-0.1,0.1
				l0,0l0,0l0,0l0,0l0,0l0,0l0,0c0,0,0,0-0.1,0.1v0.1C36.2,5.9,36.2,5.9,36.3,5.9L36.3,5.9L36.3,5.9z"/>
		</g>
	</g>
	<g>
		<g>
			<path class="st1" d="M36.9,5.8L36.9,5.8L36.9,5.8c0-0.1,0-0.1-0.1-0.2h-0.1c0,0,0,0-0.1,0.1l0,0v0.1c0,0,0,0,0.1,0.1
				C36.8,5.9,36.8,5.9,36.9,5.8C36.8,5.8,36.9,5.8,36.9,5.8L36.9,5.8z"/>
		</g>
	</g>
	<g>
		<g>
			<path class="st1" d="M36.1,5.6L36.1,5.6C36.1,5.5,36.1,5.5,36.1,5.6c0-0.1,0-0.1-0.1-0.2h-0.1c0,0,0,0-0.1,0.1l0,0v0.1
				c0,0,0,0,0.1,0.1C36,5.7,36,5.7,36.1,5.6L36.1,5.6L36.1,5.6z"/>
		</g>
	</g>
	<g>
		<g>
			<path class="st1" d="M36.8,5.7C36.9,5.7,36.9,5.7,36.8,5.7C36.9,5.6,36.9,5.6,36.8,5.7l0.1-0.2h-0.1h-0.1c0,0,0,0-0.1,0.1v0.1
				v0.1C36.7,5.7,36.7,5.7,36.8,5.7L36.8,5.7L36.8,5.7z"/>
		</g>
	</g>
	<g>
		<g>
			<path class="st1" d="M37.8,5.6L37.8,5.6V5.4c0,0,0,0-0.1-0.1h-0.1c0,0,0,0-0.1,0.1v0.1v0.1c0,0,0,0,0.1,0.1
				C37.7,5.7,37.8,5.7,37.8,5.6L37.8,5.6L37.8,5.6z"/>
		</g>
	</g>
	<g>
		<g>
			<path class="st1" d="M32,6L32,6c-0.1-0.1-0.1-0.1-0.2-0.2h-0.1c0,0,0,0-0.1,0.1V6l0.1,0.1c0,0,0,0,0.1,0.1h0.1
				C32,6.2,32,6.1,32,6C32,6.1,32,6,32,6L32,6z"/>
		</g>
	</g>
	<g>
		<g>
			<path class="st1" d="M38.8,5.6C38.9,5.6,38.9,5.6,38.8,5.6C38.9,5.5,38.9,5.5,38.8,5.6c0.1-0.1,0.1-0.2,0.1-0.2s0,0-0.1-0.1h-0.1
				l0,0c0,0,0,0-0.1,0.1v0.1C38.7,5.6,38.7,5.6,38.8,5.6L38.8,5.6L38.8,5.6z"/>
		</g>
	</g>
	<g>
		<g>
			<path class="st1" d="M51.2,3.9C51.2,3.9,51.3,3.9,51.2,3.9C51.3,3.9,51.3,3.8,51.2,3.9c0.1-0.1,0.1-0.1,0.1-0.2c0,0,0,0-0.1-0.1
				l0,0c0,0,0,0-0.1,0l0,0c0,0,0,0-0.1,0.1v0.1C51.1,3.9,51.1,3.9,51.2,3.9L51.2,3.9L51.2,3.9L51.2,3.9z"/>
		</g>
	</g>
	<g>
		<g>
			<path class="st1" d="M55.7,2.9L55.7,2.9C55.6,2.9,55.6,2.9,55.7,2.9C55.6,2.9,55.6,2.9,55.7,2.9h-0.2V3v0.1l0,0l0,0l0,0h0.1
				C55.7,3.1,55.7,3,55.7,2.9C55.7,3,55.7,2.9,55.7,2.9L55.7,2.9z"/>
		</g>
	</g>
	<g>
		<g>
			<path class="st1" d="M54.9,3.2c-0.1,0-0.1,0.2,0,0.2C55.1,3.4,55.1,3.2,54.9,3.2L54.9,3.2z"/>
		</g>
	</g>
	<g>
		<g>
			<path class="st1" d="M54.4,3C54.4,3,54.3,3.1,54.4,3C54.3,3,54.3,3.1,54.4,3l-0.1,0.2c0,0,0,0,0.1,0.1h0.1c0,0,0,0,0.1,0
				c0,0,0,0,0.1-0.1V3.1C54.5,3.1,54.5,3,54.4,3L54.4,3L54.4,3z"/>
		</g>
	</g>
	<g>
		<g>
			<path class="st1" d="M53.7,3.5L53.7,3.5L53.7,3.5c0,0.1,0,0.1,0.1,0.2h0.1l0,0c0,0,0,0,0-0.1l0,0V3.5c0,0,0,0-0.1-0.1
				C53.8,3.4,53.7,3.4,53.7,3.5L53.7,3.5L53.7,3.5L53.7,3.5z"/>
		</g>
	</g>
	<g>
		<g>
			<path class="st1" d="M53.2,4l0.1-0.1l0,0l0,0V3.8h-0.1h-0.1L53,3.9l0,0l0,0V4C53.1,4.1,53.1,4.1,53.2,4C53.2,4.1,53.2,4.1,53.2,4
				L53.2,4z"/>
		</g>
	</g>
	<g>
		<g>
			<path class="st1" d="M52.7,3.5c-0.1,0-0.1,0.2,0,0.2C52.9,3.7,52.9,3.5,52.7,3.5L52.7,3.5z"/>
		</g>
	</g>
	<g>
		<g>
			<path class="st1" d="M49.5,4.2C49.5,4.1,49.5,4.1,49.5,4.2c-0.1-0.1-0.1-0.1-0.2-0.1h-0.1c0,0,0,0-0.1,0.1v0.1c0,0,0,0,0.1,0.1
				c0,0,0,0,0.1,0l0,0c0,0,0,0,0.1,0l0,0l0,0l0,0l0,0h0.1C49.5,4.3,49.5,4.3,49.5,4.2L49.5,4.2L49.5,4.2z"/>
		</g>
	</g>
	<g>
		<g>
			<path class="st1" d="M34.8,5.2L34.8,5.2L34.8,5.2L34.8,5.2l-0.1-0.1h-0.1v0.1v0.1l0,0l0,0h0.1C34.7,5.4,34.7,5.3,34.8,5.2
				C34.8,5.3,34.8,5.3,34.8,5.2L34.8,5.2z"/>
		</g>
	</g>
	<g>
		<g>
			<path class="st1" d="M49.1,4.2c-0.1,0-0.1,0.2,0,0.2C49.3,4.4,49.3,4.2,49.1,4.2L49.1,4.2z"/>
		</g>
	</g>
	<g>
		<g>
			<path class="st1" d="M50.1,3.9c-0.1,0-0.1,0.2,0,0.2C50.2,4.2,50.2,3.9,50.1,3.9L50.1,3.9z"/>
		</g>
	</g>
	<g>
		<g>
			<path class="st1" d="M41.9,5.9c0.1,0,0.2,0,0.2,0s0,0,0.1-0.1V5.7c0,0,0,0-0.1-0.1l0,0c0,0,0,0-0.1,0l0,0l0,0
				c-0.1,0-0.2,0.1-0.2,0.1s-0.1,0-0.1,0.1v0.1C41.8,5.9,41.8,6,41.9,5.9L41.9,5.9z"/>
		</g>
	</g>
	<g>
		<g>
			<path class="st1" d="M57.5,3.4C57.5,3.3,57.5,3.3,57.5,3.4c-0.1-0.1-0.1-0.1-0.1-0.1l0,0c0,0-0.1,0-0.1,0.1v0.1l0,0l0,0
				c0,0,0,0,0.1,0.1l0,0l0,0C57.4,3.6,57.5,3.6,57.5,3.4C57.6,3.5,57.6,3.5,57.5,3.4C57.6,3.4,57.6,3.4,57.5,3.4
				C57.6,3.4,57.6,3.4,57.5,3.4L57.5,3.4z"/>
		</g>
	</g>
	<g>
		<g>
			<path class="st1" d="M47.1,4.7c-0.1,0-0.1,0.2,0,0.2C47.3,4.9,47.3,4.7,47.1,4.7L47.1,4.7z"/>
		</g>
	</g>
	<g>
		<g>
			<path class="st1" d="M43.5,5.6L43.5,5.6L43.5,5.6L43.5,5.6c0-0.1,0-0.1-0.1-0.2h-0.1l0,0c0,0,0,0,0,0.1v0.1l0,0l0,0
				C43.3,5.6,43.3,5.6,43.5,5.6C43.3,5.7,43.4,5.7,43.5,5.6C43.4,5.7,43.4,5.7,43.5,5.6C43.4,5.7,43.5,5.7,43.5,5.6L43.5,5.6z"/>
		</g>
	</g>
	<g>
		<g>
			<path class="st1" d="M44.5,5.4C44.5,5.4,44.5,5.3,44.5,5.4C44.5,5.3,44.5,5.3,44.5,5.4c0-0.1-0.1-0.1-0.1-0.1h-0.1
				c0,0-0.1,0-0.1,0.1v0.1l0,0l0,0l0,0h0.1C44.5,5.5,44.5,5.5,44.5,5.4C44.5,5.4,44.6,5.4,44.5,5.4L44.5,5.4z"/>
		</g>
	</g>
	<g>
		<g>
			<path class="st1" d="M45.4,5.6L45.4,5.6L45.4,5.6L45.4,5.6L45.4,5.6L45.4,5.6L45.4,5.6L45.4,5.6C45.4,5.6,45.4,5.5,45.4,5.6
				C45.3,5.5,45.3,5.5,45.4,5.6l-0.2-0.1c0,0,0,0,0,0.1v0.1l0,0l0,0l0,0l0,0L45.4,5.6C45.5,5.8,45.5,5.7,45.4,5.6
				C45.5,5.7,45.5,5.6,45.4,5.6L45.4,5.6z"/>
		</g>
	</g>
	<g>
		<g>
			<path class="st1" d="M45.9,5.2C45.9,5.2,45.8,5.2,45.9,5.2C45.8,5.2,45.9,5.2,45.9,5.2C45.8,5.2,45.8,5.2,45.9,5.2
				C45.8,5.2,45.8,5.2,45.9,5.2C45.8,5.1,45.8,5.1,45.9,5.2C45.8,5.1,45.8,5.1,45.9,5.2C45.8,5.1,45.8,5.1,45.9,5.2
				C45.8,5.1,45.8,5,45.7,5h-0.1c0,0-0.1,0-0.1,0.1v0.1v0.1c0,0,0,0,0,0.1l0.1,0.1h0.1c0,0,0.1,0,0.1-0.1
				C45.9,5.3,45.9,5.3,45.9,5.2C45.9,5.3,45.9,5.3,45.9,5.2L45.9,5.2L45.9,5.2z"/>
		</g>
	</g>
	<g>
		<g>
			<path class="st1" d="M45.8,4.6c-0.1,0-0.1,0.2,0,0.2C45.9,4.9,45.9,4.6,45.8,4.6L45.8,4.6z"/>
		</g>
	</g>
	<g>
		<g>
			<path class="st1" d="M46.3,4.5c-0.1,0-0.1,0.2,0,0.2C46.4,4.8,46.4,4.5,46.3,4.5L46.3,4.5z"/>
		</g>
	</g>
	<g>
		<g>
			<path class="st1" d="M53,4.4L53,4.4L53,4.4c0-0.1,0-0.2-0.1-0.2h-0.1c0,0-0.1,0-0.1,0.1l0,0v0.1c0,0,0,0.1,0.1,0.1
				C52.9,4.5,52.9,4.5,53,4.4C53,4.5,53,4.5,53,4.4L53,4.4z"/>
		</g>
	</g>
	<g>
		<g>
			<path class="st1" d="M48.4,4.3c-0.1,0-0.1,0.2,0,0.2C48.6,4.6,48.6,4.3,48.4,4.3L48.4,4.3z"/>
		</g>
	</g>
	<g>
		<g>
			<path class="st1" d="M57,3L57,3C57,2.9,57,2.9,57,3c0-0.1,0-0.1-0.1-0.2h-0.1l0,0c0,0,0,0,0,0.1c0,0,0,0,0,0.1v0.1
				c0,0,0,0,0.1,0.1C56.9,3.1,56.9,3.1,57,3L57,3L57,3L57,3z"/>
		</g>
	</g>
	<g>
		<g>
			<path class="st1" d="M57.9,2.7L57.9,2.7L58,2.6V2.5h-0.1h-0.1l0,0C57.8,2.5,57.8,2.5,57.9,2.7L57.9,2.7
				C57.7,2.7,57.8,2.8,57.9,2.7C57.8,2.8,57.9,2.7,57.9,2.7L57.9,2.7z"/>
		</g>
	</g>
	<g>
		<g>
			<path class="st1" d="M58,2.2c-0.1,0-0.1,0.2,0,0.2C58.1,2.4,58.1,2.2,58,2.2L58,2.2z"/>
		</g>
	</g>
	<g>
		<g>
			<path class="st1" d="M58.8,2.3L58.8,2.3c0.1,0,0.1,0,0.2-0.1V2.1c0,0,0,0-0.1-0.1l0,0c0,0,0,0-0.1,0h-0.1c0,0,0,0-0.1,0.1v0.1
				C58.6,2.2,58.7,2.3,58.8,2.3C58.7,2.3,58.7,2.3,58.8,2.3C58.7,2.3,58.8,2.3,58.8,2.3L58.8,2.3z"/>
		</g>
	</g>
	<g>
		<g>
			<path class="st1" d="M56.3,3.9L56.3,3.9L56.3,3.9L56.3,3.9L56.3,3.9L56.3,3.9L56.3,3.9C56.2,3.9,56.2,3.9,56.3,3.9
				C56.2,3.9,56.2,3.9,56.3,3.9C56.2,3.9,56.2,3.9,56.3,3.9C56.2,3.9,56.2,3.9,56.3,3.9C56.2,3.9,56.2,3.9,56.3,3.9
				C56.2,3.9,56.2,3.9,56.3,3.9C56.2,3.9,56.2,3.9,56.3,3.9C56.2,3.9,56.2,3.9,56.3,3.9C56.2,3.9,56.2,3.9,56.3,3.9
				c-0.1,0-0.1,0-0.1,0l0,0C56.2,3.9,56.2,3.9,56.3,3.9C56.2,3.9,56.2,3.9,56.3,3.9L56.3,3.9C56.3,3.8,56.3,3.8,56.3,3.9
				C56.4,3.8,56.3,3.8,56.3,3.9L56.3,3.9L56.3,3.9L56.3,3.9L56.3,3.9l-0.1-0.1c-0.1,0-0.1,0.1-0.1,0.2l0,0l0,0h0.1
				C56.2,4,56.2,4,56.3,3.9L56.3,3.9L56.3,3.9z"/>
		</g>
	</g>
	<g>
		<g>
			<path class="st1" d="M59.8,1.9C59.8,1.9,59.9,1.8,59.8,1.9C59.9,1.9,59.9,1.8,59.8,1.9l0.1-0.2c0,0,0,0-0.1-0.1h-0.1
				c0,0,0,0-0.1,0c0,0,0,0-0.1,0.1v0.1C59.7,1.9,59.7,1.9,59.8,1.9L59.8,1.9L59.8,1.9z"/>
		</g>
	</g>
	<g>
		<g>
			<path class="st1" d="M59.9,2.7L59.9,2.7L59.9,2.7L59.9,2.7L59.9,2.7C59.9,2.7,60,2.7,59.9,2.7C60,2.7,59.9,2.7,59.9,2.7L59.9,2.7
				C60,2.7,60,2.6,59.9,2.7C59.9,2.6,59.9,2.6,59.9,2.7V2.5h-0.1h-0.1c0,0,0,0.1-0.1,0.1v0.1l0,0l0,0h0.1
				C59.9,2.8,59.9,2.8,59.9,2.7C59.9,2.8,59.9,2.7,59.9,2.7L59.9,2.7z"/>
		</g>
	</g>
	<g>
		<g>
			<path class="st1" d="M61.2,1.2c-0.1,0-0.1,0.2,0,0.2C61.3,1.4,61.3,1.2,61.2,1.2L61.2,1.2z"/>
		</g>
	</g>
	<g>
		<g>
			<path class="st1" d="M61.9,1.3L61.9,1.3C61.9,1.2,61.9,1.2,61.9,1.3c0-0.1,0-0.2-0.1-0.2h-0.1c0,0-0.1,0-0.1,0.1l0,0v0.1
				c0,0,0,0.1,0.1,0.1C61.7,1.4,61.8,1.4,61.9,1.3C61.8,1.4,61.9,1.4,61.9,1.3L61.9,1.3z"/>
		</g>
	</g>
	<g>
		<g>
			<path class="st1" d="M62.3,1L62.3,1L62.3,1l0.1-0.2h-0.1h-0.1l0,0c0,0,0,0,0,0.1V1C62.1,1,62.2,1,62.3,1C62.2,1,62.2,1,62.3,1
				L62.3,1z"/>
		</g>
	</g>
	<g>
		<g>
			<path class="st1" d="M62.7,0.9C62.7,0.9,62.8,0.9,62.7,0.9c0.1,0,0.1,0,0.1,0V0.8V0.7l0,0c0,0,0,0-0.1,0l0,0h-0.1L62.7,0.9
				C62.6,0.9,62.6,0.9,62.7,0.9L62.7,0.9L62.7,0.9L62.7,0.9z"/>
		</g>
	</g>
	<g>
		<g>
			<path class="st1" d="M63.4,0.7L63.4,0.7L63.4,0.7L63.4,0.7L63.4,0.7L63.4,0.7L63.4,0.7L63.4,0.7L63.4,0.7L63.4,0.7L63.4,0.7
				L63.4,0.7C63.5,0.7,63.5,0.7,63.4,0.7C63.5,0.6,63.4,0.6,63.4,0.7c0-0.1,0-0.1-0.1-0.2h-0.1l-0.1,0.1v0.1l0,0l0,0
				c0,0,0,0.1,0.1,0.1L63.4,0.7C63.4,0.8,63.4,0.8,63.4,0.7C63.4,0.7,63.5,0.7,63.4,0.7L63.4,0.7z"/>
		</g>
	</g>
	<g>
		<g>
			<path class="st1" d="M63.7,0.6L63.7,0.6h0.1c0,0,0.1,0,0.1-0.1V0.4c0,0,0-0.1-0.1-0.1l0,0h-0.1c0,0-0.1,0-0.1,0.1
				S63.6,0.5,63.7,0.6C63.6,0.6,63.7,0.6,63.7,0.6L63.7,0.6z"/>
		</g>
	</g>
	<g>
		<g>
			<path class="st1" d="M45.4,5.1L45.4,5.1L45.4,5.1C45.4,5,45.4,5,45.4,5.1C45.4,5,45.4,5,45.4,5.1C45.4,5,45.4,5,45.4,5.1
				C45.5,5,45.5,5,45.5,5l0,0V4.9h-0.1h-0.1c-0.1,0-0.1,0-0.1,0V5v0.1C45.2,5.1,45.2,5.1,45.4,5.1C45.3,5.2,45.3,5.2,45.4,5.1
				C45.3,5.1,45.3,5.1,45.4,5.1L45.4,5.1L45.4,5.1z"/>
		</g>
	</g>
	<g>
		<g>
			<path class="st1" d="M44.9,4.8L44.9,4.8C44.9,4.8,44.9,4.7,44.9,4.8C44.8,4.7,44.8,4.7,44.9,4.8l-0.2-0.1c0,0,0,0,0,0.1l0,0v0.1
				L44.9,4.8C44.8,4.9,44.9,4.9,44.9,4.8C44.9,4.9,44.9,4.8,44.9,4.8L44.9,4.8z"/>
		</g>
	</g>
	<g>
		<g>
			<path class="st1" d="M44.2,4.9L44.2,4.9C44.1,4.9,44.1,4.9,44.2,4.9L44.2,4.9L44.2,4.9l-0.1,0.2h0.1c0,0,0,0,0.1,0l0,0l0,0V5
				C44.3,4.9,44.3,4.9,44.2,4.9C44.3,4.9,44.3,4.9,44.2,4.9L44.2,4.9z"/>
		</g>
	</g>
	<g>
		<g>
			<path class="st1" d="M43.6,5L43.6,5L43.6,5c-0.1-0.1-0.1-0.1-0.1-0.1h-0.1V5v0.1c0,0,0,0,0.1,0l0,0l0,0L43.6,5
				C43.7,5.2,43.7,5.2,43.6,5C43.7,5.1,43.7,5.1,43.6,5L43.6,5z"/>
		</g>
	</g>
	<g>
		<g>
			<path class="st1" d="M42.6,5L42.6,5L42.6,5C42.6,5.1,42.6,5.1,42.6,5c0,0.1,0,0.2,0.1,0.2h0.1l0,0l0,0l0,0l0,0l0,0
				C42.8,5.2,42.8,5.1,42.6,5C42.7,4.9,42.7,4.9,42.6,5C42.7,4.9,42.6,4.9,42.6,5L42.6,5L42.6,5z"/>
		</g>
	</g>
	<g>
		<g>
			<path class="st1" d="M42.3,5.1C42.2,5.1,42.2,5.1,42.3,5.1C42.2,5,42.2,5,42.1,5c0,0-0.1,0-0.1,0.1v0.1c0,0,0,0.1,0.1,0.1h0.1
				h0.1C42.3,5.3,42.4,5.3,42.3,5.1C42.3,5.2,42.3,5.2,42.3,5.1L42.3,5.1L42.3,5.1z"/>
		</g>
	</g>
	<g>
		<g>
			<path class="st1" d="M41.7,5.1L41.7,5.1C41.6,5.1,41.6,5.1,41.7,5.1C41.6,5.1,41.6,5.1,41.7,5.1c-0.1,0-0.1,0-0.2,0v0.1v0.1l0,0
				l0,0l0,0h0.1C41.7,5.3,41.7,5.2,41.7,5.1C41.7,5.2,41.7,5.2,41.7,5.1L41.7,5.1z"/>
		</g>
	</g>
	<g>
		<g>
			<path class="st1" d="M40.8,5C40.8,5.1,40.8,5.1,40.8,5c-0.1,0.1-0.1,0.1-0.1,0.1v0.1h0.1h0.1l0,0C40.9,5.2,40.9,5.2,40.8,5
				L40.8,5C40.9,5,40.9,5,40.8,5L40.8,5L40.8,5z"/>
		</g>
	</g>
	<g>
		<g>
			<path class="st1" d="M40.2,5.2C40.1,5.2,40.1,5.2,40.2,5.2C40.1,5.3,40.1,5.3,40.2,5.2c-0.1,0.1-0.1,0.2-0.1,0.2s0,0,0.1,0.1h0.1
				l0,0c0,0,0,0,0.1-0.1V5.3C40.3,5.2,40.3,5.2,40.2,5.2L40.2,5.2L40.2,5.2z"/>
		</g>
	</g>
	<g>
		<g>
			<path class="st1" d="M39.7,5.2L39.7,5.2c-0.1,0-0.1,0-0.2,0.1v0.1c0,0,0,0.1,0.1,0.1h0.1h0.1c0,0,0.1,0,0.1-0.1V5.3
				C39.9,5.3,39.9,5.2,39.7,5.2C39.8,5.2,39.8,5.2,39.7,5.2L39.7,5.2z"/>
		</g>
	</g>
	<g>
		<g>
			<path class="st1" d="M34,5.2c-0.1,0-0.1,0.2,0,0.2C34.2,5.4,34.2,5.2,34,5.2L34,5.2z"/>
		</g>
	</g>
	<g>
		<g>
			<path class="st1" d="M56.1,3c0.1,0,0.1,0.1,0.2,0.1h0.1c0,0,0.1,0,0.1-0.1V2.9c0,0,0-0.1-0.1-0.1c-0.1,0.1-0.1,0-0.2,0h-0.1
				c0,0-0.1,0-0.1,0.1C56.1,2.8,56.1,2.9,56.1,3C56.1,2.9,56.1,3,56.1,3L56.1,3z"/>
		</g>
	</g>
	<g>
		<g>
			<path class="st1" d="M48,4.3C47.9,4.4,47.9,4.4,48,4.3C47.9,4.4,47.9,4.4,48,4.3c-0.1,0.1-0.1,0.1-0.1,0.2c0,0,0,0.1,0.1,0.1h0.1
				l0,0c0,0,0.1,0,0.1-0.1V4.4C48.1,4.4,48.1,4.4,48,4.3L48,4.3L48,4.3z"/>
		</g>
	</g>
	<g>
		<g>
			<path class="st1" d="M47,4.5C47,4.6,47,4.6,47,4.5C47,4.6,47,4.6,47,4.5c0,0.1,0,0.2,0.1,0.2h0.1c0,0,0.1,0,0.1-0.1l0,0V4.5
				c0,0,0-0.1-0.1-0.1C47.2,4.5,47.1,4.5,47,4.5C47.1,4.5,47.1,4.5,47,4.5L47,4.5z"/>
		</g>
	</g>
	<g>
		<g>
			<path class="st1" d="M52.6,3.7C52.6,3.7,52.7,3.8,52.6,3.7c0.1,0,0.1,0,0.2,0c0,0,0,0,0.1-0.1V3.5c0,0,0,0-0.1-0.1h-0.1h-0.1
				c0,0,0,0-0.1,0.1C52.5,3.6,52.5,3.7,52.6,3.7C52.5,3.7,52.6,3.7,52.6,3.7L52.6,3.7z"/>
		</g>
	</g>
	<g>
		<g>
			<path class="st1" d="M50.9,4.1c-0.1,0-0.1,0.2,0,0.2C51.1,4.3,51.1,4.1,50.9,4.1L50.9,4.1z"/>
		</g>
	</g>
	<g>
		<g>
			<path class="st1" d="M48.9,5.9c-0.1,0-0.1,0.2,0,0.2C49.1,6.2,49.1,5.9,48.9,5.9L48.9,5.9z"/>
		</g>
	</g>
	<g>
		<g>
			<path class="st1" d="M55.9,2.7c-0.1,0-0.1,0.2,0,0.2C56,2.9,56,2.7,55.9,2.7L55.9,2.7z"/>
		</g>
	</g>
	<g>
		<g>
			<path class="st0" d="M10,1.2C9.9,1.2,9.9,1.2,10,1.2C9.9,1.2,9.9,1.2,10,1.2C9.9,1.3,9.8,1.3,9.7,1.3l0,0c0,0,0,0-0.1,0
				S9.5,1.4,9.5,1.4c0,0.1,0.1,0.1,0.1,0.1c0.1,0,0.3,0,0.4-0.1C10.1,1.4,10.1,1.3,10,1.2C10.1,1.2,10,1.1,10,1.2L10,1.2z"/>
		</g>
	</g>
	<g>
		<g>
			<path class="st0" d="M12,1.2C12,1.3,12,1.3,12,1.2l0.2,0.1h0.1V1.2V1.1l0,0l0,0c0,0,0,0,0-0.1l0,0l0,0c0,0,0-0.1-0.1-0.1h-0.1
				C12,1,12,1.1,12,1.2C11.9,1.1,11.9,1.1,12,1.2L12,1.2z"/>
		</g>
	</g>
	<g>
		<g>
			<path class="st0" d="M11.2,1.4c-0.1,0-0.1,0.2,0,0.2C11.4,1.6,11.4,1.4,11.2,1.4L11.2,1.4z"/>
		</g>
	</g>
	<g>
		<g>
			<path class="st0" d="M14.4,4.2L14.4,4.2C14.4,4.2,14.4,4.3,14.4,4.2C14.4,4.3,14.4,4.3,14.4,4.2L14.4,4.2l0.2,0.1V4.2
				c0,0,0,0,0-0.1l0,0l0,0L14.4,4.2C14.5,4.1,14.5,4.1,14.4,4.2C14.4,4.1,14.4,4.1,14.4,4.2L14.4,4.2z"/>
		</g>
	</g>
	<g>
		<g>
			<path class="st0" d="M15.2,3.5L15.2,3.5L15.2,3.5L15.2,3.5L15,3.4v0.1v0.1l0.1,0.1l0,0l0,0h0.1C15.2,3.6,15.3,3.6,15.2,3.5
				C15.3,3.6,15.2,3.5,15.2,3.5L15.2,3.5z"/>
		</g>
	</g>
	<g>
		<g>
			<path class="st0" d="M14.9,1.1L14.9,1.1C14.9,1.1,14.9,1,14.9,1.1C14.9,1,14.9,1,14.9,1.1L14.9,1.1L14.7,1v0.1l0,0l0,0l0,0H14.9
				C14.8,1.2,14.9,1.2,14.9,1.1C14.9,1.2,14.9,1.1,14.9,1.1L14.9,1.1z"/>
		</g>
	</g>
	<g>
		<g>
			<path class="st0" d="M18.5,2.1L18.5,2.1C18.6,2.1,18.6,2.1,18.5,2.1c0.1,0,0.2,0,0.2-0.1V1.9c0,0,0-0.1-0.1-0.1l0,0h-0.1
				c0,0-0.1,0-0.1,0.1S18.4,2,18.5,2.1L18.5,2.1L18.5,2.1z"/>
		</g>
	</g>
	<g>
		<g>
			<path class="st0" d="M18.9,2.3C18.9,2.4,18.9,2.4,18.9,2.3C18.9,2.4,18.9,2.4,18.9,2.3c0,0.1,0,0.1,0.1,0.2h0.1c0,0,0,0,0.1-0.1
				c0,0,0,0,0-0.1V2.2c0,0,0,0-0.1-0.1C19,2.3,19,2.3,18.9,2.3L18.9,2.3L18.9,2.3z"/>
		</g>
	</g>
	<g>
		<g>
			<path class="st0" d="M17.1,1.8L17.1,1.8L17.1,1.8C17,1.8,17,1.8,17.1,1.8l-0.2-0.1c0,0-0.1,0-0.1,0.1v0.1c0,0,0,0.1,0.1,0.1
				s0.1,0.1,0.2,0.1h0.1c0,0,0,0,0.1-0.1C17.2,1.9,17.2,1.9,17.1,1.8C17.2,1.8,17.2,1.8,17.1,1.8L17.1,1.8z"/>
		</g>
	</g>
	<g>
		<g>
			<path class="st0" d="M17.5,1.8C17.5,1.8,17.4,1.8,17.5,1.8C17.4,1.8,17.4,1.8,17.5,1.8L17.4,2c0,0,0,0.1,0.1,0.1l0,0
				c0,0,0,0,0.1,0c0,0,0,0,0.1,0c0,0,0.1,0,0.1-0.1V1.9C17.6,1.8,17.6,1.8,17.5,1.8C17.6,1.8,17.5,1.8,17.5,1.8
				C17.5,1.7,17.5,1.7,17.5,1.8L17.5,1.8z"/>
		</g>
	</g>
	<g>
		<g>
			<path class="st0" d="M11.1,0.9C11.1,1,11.2,1,11.1,0.9c0.1,0.2,0.1,0.2,0.2,0.2c0,0,0.1,0,0.1-0.1V0.9c0,0,0-0.1-0.1-0.1l0,0l0,0
				l0,0l0,0l0,0l0,0l0,0c0,0,0-0.1-0.1-0.1h-0.1C11.2,0.8,11.1,0.8,11.1,0.9L11.1,0.9L11.1,0.9z"/>
		</g>
	</g>
	<g>
		<g>
			<path class="st0" d="M11.2,0.6C11.2,0.5,11.2,0.5,11.2,0.6C11.2,0.5,11.2,0.5,11.2,0.6C11.1,0.5,11.1,0.5,11.2,0.6L11,0.5v0.1
				v0.1L11.2,0.6L11.2,0.6L11.2,0.6L11.2,0.6L11.2,0.6L11.2,0.6L11.2,0.6L11.2,0.6L11.2,0.6L11.2,0.6L11.2,0.6L11.2,0.6L11.2,0.6
				C11.2,0.7,11.2,0.7,11.2,0.6C11.3,0.6,11.3,0.6,11.2,0.6C11.3,0.6,11.2,0.6,11.2,0.6L11.2,0.6z"/>
		</g>
	</g>
	<g>
		<g>
			<path class="st0" d="M10.7,0.5L10.7,0.5c-0.1,0-0.1,0-0.2,0v0.1v0.1c0,0,0,0,0.1,0h0.1h0.1L10.7,0.5C10.8,0.6,10.8,0.6,10.7,0.5
				C10.8,0.5,10.8,0.5,10.7,0.5L10.7,0.5z"/>
		</g>
	</g>
	<g>
		<g>
			<path class="st0" d="M9.8,0.5L9.8,0.5L9.7,0.7v0.1h0.1l0,0c0,0,0,0,0.1,0L10,0.7V0.6V0.5C9.9,0.5,9.9,0.5,9.8,0.5
				C9.9,0.5,9.9,0.5,9.8,0.5L9.8,0.5L9.8,0.5z"/>
		</g>
	</g>
	<g>
		<g>
			<path class="st0" d="M9.5,0.7L9.5,0.7V0.5H9.4H9.3v0.1v0.1v0.1L9.5,0.7C9.4,0.9,9.4,0.8,9.5,0.7C9.5,0.8,9.5,0.8,9.5,0.7L9.5,0.7
				z"/>
		</g>
	</g>
	<g>
		<g>
			<path class="st0" d="M9,0.7C9,0.6,9,0.6,9,0.7C9,0.6,9,0.6,9,0.7L9,0.7c0-0.1,0-0.2-0.1-0.2H8.8c0,0-0.1,0-0.1,0.1v0.1l0,0l0,0
				c0,0,0,0.1,0.1,0.1C8.9,0.7,8.9,0.7,9,0.7L9,0.7L9,0.7z"/>
		</g>
	</g>
	<g>
		<g>
			<path class="st0" d="M8.2,0.6c-0.1,0-0.1,0.2,0,0.2C8.4,0.8,8.4,0.6,8.2,0.6L8.2,0.6z"/>
		</g>
	</g>
	<g>
		<g>
			<path class="st0" d="M23.9,3.4c-0.1,0-0.1,0.2,0,0.2C24,3.7,24,3.4,23.9,3.4L23.9,3.4z"/>
		</g>
	</g>
	<g>
		<g>
			<path class="st0" d="M24.6,4.3c0.1,0,0.1,0,0.2,0h0.1V4.2V4.1c0,0,0,0-0.1,0s-0.1,0-0.2,0h-0.1L24.6,4.3
				C24.4,4.3,24.5,4.3,24.6,4.3C24.5,4.3,24.5,4.3,24.6,4.3L24.6,4.3z"/>
		</g>
	</g>
	<g>
		<g>
			<path class="st0" d="M25.1,3.7C25.1,3.7,25.1,3.8,25.1,3.7C25,3.8,25,3.8,25,3.9c0,0,0,0.1,0.1,0.1h0.1c0-0.1,0-0.1,0-0.1
				s0,0,0-0.1L25.1,3.7C25.2,3.7,25.2,3.6,25.1,3.7C25.2,3.7,25.2,3.6,25.1,3.7L25.1,3.7L25.1,3.7z"/>
		</g>
	</g>
	<g>
		<g>
			<path class="st0" d="M23.1,4.2L23.1,4.2L23.1,4.2L23.1,4.2C23,4.3,23,4.3,23.1,4.2L23,4.4c0,0,0,0,0.1,0.1l0,0c0,0,0,0,0.1,0
				l0.1-0.1V4.3V4.2C23.3,4.2,23.3,4.2,23.1,4.2C23.2,4.2,23.2,4.2,23.1,4.2L23.1,4.2z"/>
		</g>
	</g>
	<g>
		<g>
			<path class="st0" d="M24.3,3.7L24.3,3.7C24.2,3.7,24.2,3.7,24.3,3.7L24.3,3.7L24.3,3.7l-0.1,0.2c0,0,0,0,0,0s0,0,0.1,0l0,0l0,0
				V3.8C24.4,3.7,24.4,3.7,24.3,3.7C24.4,3.7,24.3,3.7,24.3,3.7L24.3,3.7z"/>
		</g>
	</g>
	<g>
		<g>
			<path class="st0" d="M12.1,0.6c-0.1,0-0.1,0.2,0,0.2C12.2,0.8,12.2,0.6,12.1,0.6L12.1,0.6z"/>
		</g>
	</g>
	<g>
		<g>
			<path class="st0" d="M13.4,0.7C13.4,0.7,13.3,0.7,13.4,0.7C13.3,0.7,13.3,0.7,13.4,0.7c-0.1,0-0.2,0-0.2,0.1v0.1c0-0.1,0,0,0,0
				l0,0h0.1C13.3,0.9,13.4,0.9,13.4,0.7C13.4,0.8,13.4,0.8,13.4,0.7L13.4,0.7L13.4,0.7z"/>
		</g>
	</g>
	<g>
		<g>
			<path class="st0" d="M25.9,4.8L25.9,4.8C25.8,4.8,25.8,4.8,25.9,4.8C25.8,4.8,25.8,4.8,25.9,4.8C25.8,4.8,25.8,4.8,25.9,4.8
				L25.9,4.8c-0.1,0-0.1,0-0.2,0.1V5c0,0,0,0,0.1,0.1h0.1l0,0l0,0V5C26,4.9,26,4.9,25.9,4.8C26,4.9,26,4.9,25.9,4.8
				C26,4.8,25.9,4.8,25.9,4.8L25.9,4.8z"/>
		</g>
	</g>
	<g>
		<g>
			<path class="st0" d="M6.7,0.7c0.1,0,0.1-0.1,0.2-0.2V0.4V0.3H6.8H6.7L6.6,0.4l0,0l0,0l0,0l0,0v0.1C6.6,0.7,6.6,0.7,6.7,0.7
				L6.7,0.7L6.7,0.7z"/>
		</g>
	</g>
	<g>
		<g>
			<path class="st0" d="M5.6,1L5.6,1L5.6,1L5.6,1L5.6,1L5.6,1L5.6,1C5.5,0.9,5.5,0.9,5.4,0.9c0,0-0.1,0-0.1,0.1v0.1c0,0,0,0,0,0.1
				l0,0c0,0,0,0,0.1,0h0.1C5.6,1.2,5.6,1.1,5.6,1C5.6,1.1,5.6,1,5.6,1L5.6,1z"/>
		</g>
	</g>
	<g>
		<g>
			<path class="st0" d="M2.8,1.4L2.8,1.4C2.8,1.5,2.8,1.5,2.8,1.4L2.8,1.4c0,0.1,0,0.1,0.1,0.2H3l0,0c0,0,0,0,0-0.1c0,0,0,0,0-0.1
				l0,0l0,0C3,1.4,3,1.4,2.8,1.4C2.9,1.3,2.9,1.3,2.8,1.4C2.8,1.3,2.8,1.3,2.8,1.4L2.8,1.4L2.8,1.4z"/>
		</g>
	</g>
	<g>
		<g>
			<path class="st0" d="M2.2,1.8L2.2,1.8L2.2,1.8C2.2,1.8,2.3,1.8,2.2,1.8C2.3,1.7,2.3,1.7,2.2,1.8l0.1-0.2H2.2l0,0l0,0l0,0V1.8
				C2.1,1.7,2.1,1.7,2.2,1.8C2.1,1.8,2.1,1.8,2.2,1.8L2.2,1.8z"/>
		</g>
	</g>
	<g>
		<g>
			<path class="st0" d="M28.7,4.8L28.7,4.8c0-0.1,0-0.1,0-0.2c0,0,0,0-0.1-0.1h-0.1c0,0,0,0-0.1,0.1c0,0,0,0,0,0.1v0.1
				c0,0,0,0,0.1,0.1C28.5,4.9,28.6,4.9,28.7,4.8C28.6,4.8,28.7,4.8,28.7,4.8L28.7,4.8z"/>
		</g>
	</g>
	<g>
		<g>
			<path class="st0" d="M29.4,4.8L29.4,4.8C29.5,4.8,29.5,4.8,29.4,4.8C29.5,4.7,29.5,4.7,29.4,4.8c0.1-0.1,0.1-0.2,0-0.2h-0.1l0,0
				c0,0-0.1,0-0.1,0.1v0.1C29.3,4.8,29.3,4.8,29.4,4.8L29.4,4.8L29.4,4.8z"/>
		</g>
	</g>
	<g>
		<g>
			<path class="st0" d="M30.4,4.9C30.4,4.9,30.5,4.9,30.4,4.9L30.6,5c0,0,0.1,0,0.1-0.1V4.8c0,0,0-0.1-0.1-0.1c0,0-0.1,0-0.1-0.1
				h-0.1c0,0-0.1,0-0.1,0.1C30.4,4.8,30.4,4.8,30.4,4.9L30.4,4.9L30.4,4.9z"/>
		</g>
	</g>
	<g>
		<g>
			<path class="st0" d="M32.4,5.2L32.4,5.2L32.4,5.2L32.4,5.2L32.4,5.2L32.4,5.2L32.4,5.2C32.4,5.2,32.5,5.2,32.4,5.2
				C32.5,5.2,32.5,5.2,32.4,5.2C32.5,5.2,32.5,5.2,32.4,5.2C32.5,5.2,32.5,5.2,32.4,5.2L32.5,5c0,0,0-0.1-0.1-0.1l0,0c0,0,0,0-0.1,0
				c0,0,0,0-0.1,0l0,0c0,0,0,0-0.1,0l0,0l0,0l0,0l0,0c0,0,0,0,0.1,0.1C32.3,5.3,32.4,5.3,32.4,5.2C32.4,5.3,32.4,5.2,32.4,5.2
				L32.4,5.2L32.4,5.2z"/>
		</g>
	</g>
	<g>
		<g>
			<path class="st0" d="M26.1,4.1L26.1,4.1L26.1,4.1c0.1-0.1,0.1-0.2,0.1-0.2s0,0-0.1-0.1H26l0,0c0,0,0,0-0.1,0.1V4
				C25.9,4.1,25.9,4.1,26.1,4.1C26,4.1,26,4.1,26.1,4.1L26.1,4.1z"/>
		</g>
	</g>
	<g>
		<g>
			<path class="st0" d="M26.4,4.4L26.4,4.4C26.5,4.4,26.5,4.4,26.4,4.4c0.1-0.1,0-0.2,0-0.2h-0.1l0,0c0,0,0,0-0.1,0l0,0v0.1v0.1
				C26.3,4.4,26.3,4.5,26.4,4.4C26.4,4.5,26.4,4.5,26.4,4.4C26.4,4.5,26.4,4.4,26.4,4.4L26.4,4.4z"/>
		</g>
	</g>
	<g>
		<g>
			<path class="st0" d="M27.1,4.2L27.1,4.2C27.1,4.2,27.1,4.3,27.1,4.2C27.1,4.3,27.1,4.3,27.1,4.2C27.1,4.3,27.1,4.3,27.1,4.2
				C27.1,4.3,27.1,4.3,27.1,4.2C27.1,4.3,27.1,4.3,27.1,4.2C27.1,4.3,27.1,4.3,27.1,4.2C27.1,4.3,27.1,4.3,27.1,4.2
				C27.1,4.3,27.1,4.3,27.1,4.2C27.1,4.3,27.1,4.2,27.1,4.2C27.1,4.1,27.1,4.1,27.1,4.2L27.1,4.2l-0.2-0.1c0,0,0,0.1-0.1,0.1
				c0,0,0,0,0,0.1c0,0,0,0,0,0.1c0,0,0,0.1,0.1,0.1H27C27,4.4,27,4.4,27.1,4.2C27.1,4.3,27.1,4.3,27.1,4.2L27.1,4.2z"/>
		</g>
	</g>
	<g>
		<g>
			<path class="st0" d="M27.6,4.2L27.6,4.2L27.6,4.2L27.6,4.2C27.6,4.1,27.5,4.1,27.6,4.2l-0.2-0.1c0,0-0.1,0-0.1,0.1v0.1v0.1
				c0,0,0,0,0.1,0.1h0.1C27.6,4.4,27.6,4.4,27.6,4.2C27.6,4.3,27.6,4.3,27.6,4.2L27.6,4.2z"/>
		</g>
	</g>
	<g>
		<g>
			<path class="st0" d="M28.1,4.5L28.1,4.5L28.1,4.5C28.2,4.5,28.2,4.5,28.1,4.5C28.2,4.5,28.2,4.5,28.1,4.5
				C28.2,4.5,28.2,4.5,28.1,4.5c0.1-0.1,0.1-0.1,0.2-0.1V4.3c0,0,0-0.1-0.1-0.1h-0.1c-0.1,0-0.1,0.1-0.2,0.1v0.1v0.1
				C28,4.5,28,4.5,28.1,4.5L28.1,4.5L28.1,4.5z"/>
		</g>
	</g>
	<g>
		<g>
			<path class="st0" d="M49.1,4.7L49.1,4.7L49.1,4.7L49.1,4.7C49,4.6,49,4.6,49,4.6h-0.1c0,0,0,0-0.1,0.1l0,0c0,0,0,0,0,0.1
				c0,0,0,0.1,0.1,0.1H49h0.1C49.2,4.8,49.2,4.8,49.1,4.7C49.2,4.8,49.2,4.8,49.1,4.7C49.2,4.7,49.1,4.7,49.1,4.7L49.1,4.7z"/>
		</g>
	</g>
	<g>
		<g>
			<path class="st0" d="M45,4.8C45,4.8,44.9,4.8,45,4.8l-0.2-0.1c0,0-0.1,0-0.1,0.1v0.1c0,0,0,0.1,0.1,0.1c0,0,0.1,0,0.1,0.1H45
				c0,0,0.1,0,0.1-0.1C45.1,5,45.1,4.9,45,4.8C45,4.9,45,4.9,45,4.8L45,4.8z"/>
		</g>
	</g>
	<g>
		<g>
			<path class="st0" d="M44.5,4.7L44.5,4.7L44.5,4.7L44.5,4.7L44.5,4.7L44.5,4.7C44.4,4.7,44.4,4.7,44.5,4.7c-0.1,0-0.2,0-0.2,0.1
				v0.1c0,0,0,0.1,0.1,0.1c0,0,0.1,0,0.2,0h0.1V4.9C44.6,4.8,44.6,4.8,44.5,4.7C44.6,4.7,44.6,4.7,44.5,4.7
				C44.6,4.7,44.5,4.7,44.5,4.7L44.5,4.7z"/>
		</g>
	</g>
	<g>
		<g>
			<path class="st0" d="M43.4,4.8L43.4,4.8c-0.1,0.1-0.1,0.1-0.2,0.2v0.1c0,0,0,0,0.1,0.1h0.1l0.1-0.1c0,0,0,0,0.1-0.1V4.9
				C43.5,4.8,43.5,4.8,43.4,4.8C43.5,4.8,43.4,4.8,43.4,4.8L43.4,4.8z"/>
		</g>
	</g>
	<g>
		<g>
			<path class="st0" d="M43,5.1L43,5.1C43,5.1,42.9,5,43,5.1C42.9,5,42.9,5,43,5.1L42.8,5c0,0,0,0-0.1,0.1v0.1c0,0,0,0,0,0.1l0,0
				l0,0h0.1C43,5.3,43,5.2,43,5.1C43,5.2,43,5.1,43,5.1L43,5.1z"/>
		</g>
	</g>
	<g>
		<g>
			<path class="st0" d="M42,4.9c-0.1,0-0.2,0-0.2,0s-0.1,0-0.1,0.1v0.1c0,0,0,0.1,0.1,0.1l0,0c0,0,0,0,0.1,0l0,0l0,0
				c0.1,0,0.1,0,0.2,0h0.1V5.1C42.1,5,42.1,4.9,42,4.9L42,4.9L42,4.9z"/>
		</g>
	</g>
	<g>
		<g>
			<path class="st0" d="M41.2,5c-0.1,0-0.1,0-0.2,0l0,0h-0.1h-0.1v0.1c0,0.1,0.1,0.1,0.1,0.1c0.1,0,0.2,0,0.3,0
				C41.2,5.2,41.3,5.2,41.2,5L41.2,5C41.3,5.1,41.3,5.1,41.2,5C41.3,5,41.2,5,41.2,5L41.2,5z"/>
		</g>
	</g>
	<g>
		<g>
			<path class="st0" d="M40.4,5C40.4,5,40.3,5.1,40.4,5C40.3,5.1,40.3,5.1,40.4,5c-0.1,0.1-0.1,0.1-0.1,0.2l0,0l0,0c0,0,0,0,0.1,0.1
				h0.1l0,0c0,0,0,0,0-0.1l0,0l0,0c0,0,0,0,0-0.1l0,0c0,0,0,0,0.1-0.1l0,0l0,0l0,0l0,0V4.9C40.5,5,40.5,5,40.4,5
				C40.5,5,40.4,5,40.4,5L40.4,5z"/>
		</g>
	</g>
	<g>
		<g>
			<path class="st0" d="M33.3,5.1C33.3,5.1,33.2,5.1,33.3,5.1C33.2,5,33.2,5,33.1,5H33c0,0,0,0-0.1,0.1v0.1c0,0,0,0.1,0.1,0.1
				c0,0,0,0,0.1,0.1h0.1C33.3,5.2,33.3,5.2,33.3,5.1C33.3,5.2,33.3,5.1,33.3,5.1L33.3,5.1z"/>
		</g>
	</g>
	<g>
		<g>
			<path class="st0" d="M39.2,5.7C39.2,5.6,39.2,5.6,39.2,5.7C39.2,5.6,39.2,5.6,39.2,5.7C39.2,5.6,39.2,5.6,39.2,5.7
				C39.2,5.6,39.2,5.6,39.2,5.7C39.2,5.6,39.2,5.6,39.2,5.7C39.2,5.6,39.2,5.6,39.2,5.7c0-0.1,0-0.2-0.1-0.2H39c0,0-0.1,0-0.1,0.1
				v0.1l0,0c0,0,0,0,0,0.1v0.1H39C39.1,5.8,39.1,5.8,39.2,5.7C39.1,5.7,39.2,5.7,39.2,5.7L39.2,5.7z"/>
		</g>
	</g>
	<g>
		<g>
			<path class="st0" d="M60.1,1.8c0.1,0,0.1,0,0.2,0l0,0l0,0c0,0,0,0,0.1-0.1V1.6l0,0c0,0,0,0-0.1,0c-0.1,0-0.1,0-0.2,0H60
				c0,0,0,0-0.1,0.1C60,1.7,60,1.7,60.1,1.8L60.1,1.8L60.1,1.8z"/>
		</g>
	</g>
	<g>
		<g>
			<path class="st0" d="M59,2L59,2C59,2.1,59.1,2.1,59,2l0.2,0.1c0,0,0,0,0.1-0.1V1.9c-0.1,0-0.1,0-0.1,0s0,0-0.1-0.1H59
				C59,1.8,59,1.9,59,2C58.9,1.9,58.9,2,59,2L59,2z"/>
		</g>
	</g>
	<g>
		<g>
			<path class="st0" d="M58.4,2.3C58.4,2.3,58.4,2.2,58.4,2.3c0-0.1,0-0.1,0-0.2c0,0,0,0-0.1-0.1h-0.1c0,0,0,0-0.1,0.1v0.1v0.1
				c0,0,0,0,0.1,0.1C58.3,2.4,58.3,2.4,58.4,2.3L58.4,2.3L58.4,2.3z"/>
		</g>
	</g>
	<g>
		<g>
			<path class="st0" d="M57.7,2.5c-0.1,0-0.1-0.1-0.2-0.1h-0.1c0,0-0.1,0-0.1,0.1v0.1c0,0,0,0.1,0.1,0.1c0.1,0,0.1,0.1,0.2,0.1h0.1
				c0,0,0.1,0,0.1-0.1C57.7,2.6,57.7,2.6,57.7,2.5C57.7,2.6,57.7,2.5,57.7,2.5L57.7,2.5z"/>
		</g>
	</g>
	<g>
		<g>
			<path class="st0" d="M56.9,2.6L56.9,2.6L56.9,2.6L56.9,2.6L56.9,2.6C56.9,2.6,56.9,2.5,56.9,2.6C56.8,2.5,56.8,2.5,56.9,2.6
				l-0.2-0.1c0,0,0,0-0.1,0.1l0,0c0,0,0,0,0,0.1s0.1,0.1,0.1,0.1h0.1C56.8,2.8,56.9,2.8,56.9,2.6C57,2.7,57,2.7,56.9,2.6
				C57,2.6,57,2.6,56.9,2.6C57,2.6,56.9,2.6,56.9,2.6L56.9,2.6z"/>
		</g>
	</g>
	<g>
		<g>
			<path class="st0" d="M61,1.7h-0.1l0,0l0,0C60.9,1.7,60.9,1.8,61,1.7L61,1.7L61,1.7L61,1.7L61,1.7L61,1.7L61,1.7L61,1.7
				C61,1.8,61.1,1.8,61,1.7C61.1,1.7,61.1,1.7,61,1.7L61,1.7z"/>
		</g>
	</g>
	<g>
		<g>
			<path class="st0" d="M30.3,5.7L30.3,5.7v0.2c0,0,0,0,0.1,0.1h0.1c0,0,0,0,0.1-0.1l0,0c0,0,0,0,0-0.1l0,0l0,0V5.7l0,0l0,0V5.6
				h-0.1C30.4,5.6,30.4,5.6,30.3,5.7C30.3,5.6,30.3,5.7,30.3,5.7L30.3,5.7z"/>
		</g>
	</g>
	<g>
		<g>
			<path class="st0" d="M62.4,1C62.4,1.1,62.4,1.1,62.4,1C62.4,1.1,62.4,1.1,62.4,1c0,0.1,0.1,0.1,0.1,0.1h0.1c0,0,0.1,0,0.1-0.1
				V0.9l0,0l0,0l0,0h-0.1C62.5,0.9,62.4,0.9,62.4,1L62.4,1L62.4,1z"/>
		</g>
	</g>
	<g>
		<g>
			<path class="st0" d="M64.1,0.4L64.1,0.4V0.2c0,0,0,0-0.1-0.1h-0.1c0,0,0,0-0.1,0.1v0.1v0.1c0,0,0,0,0.1,0.1
				C64,0.5,64,0.5,64.1,0.4C64.1,0.5,64.1,0.4,64.1,0.4L64.1,0.4z"/>
		</g>
	</g>
	<g>
		<g>
			<path class="st0" d="M36,5.3C36,5.2,35.9,5.2,36,5.3C35.9,5.2,35.9,5.2,36,5.3l-0.2-0.1v0.1v0.1c0,0,0,0,0.1,0.1H36h0.1
				C36,5.4,36,5.4,36,5.3L36,5.3L36,5.3z"/>
		</g>
	</g>
	<g>
		<g>
			<path class="st0" d="M46.8,4.4h-0.1h-0.1c0,0,0,0-0.1,0.1v0.1c0,0,0,0,0.1,0.1h0.1h0.1c0,0,0,0,0.1-0.1
				C46.9,4.5,46.8,4.4,46.8,4.4L46.8,4.4L46.8,4.4z"/>
		</g>
	</g>
	<g>
		<g>
			<path class="st0" d="M47,4.8c-0.1,0-0.1,0-0.2,0h-0.1v0.1V5c0,0,0,0,0.1,0c0.1,0,0.1,0,0.2,0l0,0l0,0V4.8
				C47.1,4.9,47.1,4.9,47,4.8C47.1,4.8,47.1,4.8,47,4.8L47,4.8z"/>
		</g>
	</g>
	<g>
		<g>
			<path class="st0" d="M47,5.4C46.9,5.4,46.9,5.4,47,5.4C46.9,5.4,46.9,5.4,47,5.4C46.9,5.4,46.9,5.5,47,5.4
				c-0.1,0.1-0.2,0.1-0.2,0.2v0.1c0,0,0,0.1,0.1,0.1l0,0c0,0,0,0,0.1,0h0.1c0,0,0.1,0,0.1-0.1c0,0,0,0,0.1-0.1V5.5
				C47.1,5.4,47.1,5.4,47,5.4L47,5.4L47,5.4z"/>
		</g>
	</g>
	<g>
		<g>
			<path class="st0" d="M48.5,6c0.1,0,0.1-0.1,0.2-0.1V5.8V5.7h-0.1h-0.1l-0.1,0.1l0,0l0,0l0,0l0,0L48.5,6C48.4,6,48.4,6,48.5,6
				L48.5,6L48.5,6z"/>
		</g>
	</g>
	<g>
		<g>
			<path class="st0" d="M48.8,5.4L48.8,5.4c0.1-0.1,0.1-0.1,0.1-0.1l0,0V5.2c0,0,0,0-0.1-0.1h-0.1h-0.1l0,0l0,0v0.1
				C48.6,5.4,48.6,5.4,48.8,5.4C48.7,5.5,48.7,5.5,48.8,5.4C48.7,5.5,48.7,5.5,48.8,5.4L48.8,5.4z"/>
		</g>
	</g>
	<g>
		<g>
			<path class="st0" d="M55.5,2.7L55.5,2.7c-0.1,0-0.1,0-0.1,0s0,0-0.1,0.1v0.1c0,0,0,0,0.1,0.1l0,0h0.1c0,0,0,0,0.1-0.1
				C55.6,2.8,55.6,2.8,55.5,2.7C55.6,2.8,55.5,2.7,55.5,2.7L55.5,2.7z"/>
		</g>
	</g>
	<g>
		<g>
			<path class="st0" d="M55.2,3c-0.1,0-0.1,0.2,0,0.2C55.4,3.2,55.4,3,55.2,3L55.2,3z"/>
		</g>
	</g>
	<g>
		<g>
			<path class="st0" d="M53.2,3.3L53.2,3.3C53.1,3.3,53.1,3.3,53.2,3.3L53.2,3.3l-0.1,0.2l0,0c0,0,0,0,0.1,0l0,0h0.1V3.4
				C53.4,3.4,53.3,3.3,53.2,3.3C53.3,3.3,53.3,3.3,53.2,3.3C53.3,3.3,53.3,3.3,53.2,3.3L53.2,3.3z"/>
		</g>
	</g>
	<g>
		<g>
			<path class="st0" d="M46,4.8L46,4.8L46,4.8C46,4.8,45.9,4.8,46,4.8c-0.1,0-0.2,0-0.2,0v0.1V5c0,0,0,0,0.1,0C46,5,46,5,46.1,5
				c0,0,0.1,0,0.1-0.1V4.8C46.1,4.9,46.1,4.8,46,4.8C46.1,4.8,46,4.8,46,4.8L46,4.8L46,4.8z"/>
		</g>
	</g>
	<g>
		<g>
			<path class="st0" d="M45.6,5.3L45.6,5.3c-0.1,0-0.1,0-0.1,0s0,0-0.1,0.1v0.1l0,0c0,0,0,0,0.1,0c0,0,0,0,0.1,0h0.1
				c0,0,0,0,0.1-0.1C45.7,5.4,45.7,5.4,45.6,5.3C45.7,5.3,45.7,5.3,45.6,5.3C45.7,5.3,45.6,5.3,45.6,5.3L45.6,5.3z"/>
		</g>
	</g>
	<g>
		<g>
			<path class="st0" d="M44.1,5.3C44,5.3,44,5.3,44.1,5.3c-0.1,0-0.1,0-0.1,0l0,0c0,0,0,0-0.1,0.1v0.1c0,0,0,0,0.1,0.1
				c0,0,0,0,0.1,0l0,0l0,0c0,0,0,0,0.1-0.1C44.1,5.4,44.1,5.3,44.1,5.3L44.1,5.3L44.1,5.3z"/>
		</g>
	</g>
	<g>
		<g>
			<path class="st0" d="M46.2,6.1C46.2,6,46.2,6,46.2,6.1C46.1,6.1,46.1,6.1,46.2,6.1L46.2,6.1L46.2,6.1l-0.1,0.2l0,0c0,0,0,0,0.1,0
				h0.1l0,0l0,0V6.2C46.3,6.1,46.3,6.1,46.2,6.1C46.3,6.1,46.3,6.1,46.2,6.1C46.3,6.1,46.2,6.1,46.2,6.1L46.2,6.1z"/>
		</g>
	</g>
	<g>
		<g>
			<path class="st0" d="M40.7,5.9L40.7,5.9L40.7,5.9L40.7,5.9L40.7,5.9h-0.2h-0.1V6v0.1c0,0,0,0,0.1,0c0.1,0,0.2,0,0.4-0.1
				c0,0,0,0,0.1-0.1V5.8C40.9,5.9,40.9,5.9,40.7,5.9C40.8,5.9,40.8,5.9,40.7,5.9L40.7,5.9z"/>
		</g>
	</g>
	<g>
		<g>
			<path class="st0" d="M42.3,6L42.3,6v0.2c0,0,0,0.1,0.1,0.1h0.1c0,0,0.1,0,0.1-0.1l0,0c0,0,0,0,0-0.1l0,0l0,0V6l0,0l0,0V5.9
				c0,0,0,0-0.1-0.1C42.4,5.9,42.4,5.9,42.3,6C42.3,5.9,42.3,6,42.3,6L42.3,6z"/>
		</g>
	</g>
	<g>
		<g>
			<path class="st0" d="M58.8,3.3L58.8,3.3c-0.1-0.1-0.1-0.1-0.2-0.1c0,0-0.1,0-0.1,0.1v0.1c0,0,0,0.1,0.1,0.1h0.1h0.1
				C58.8,3.5,58.9,3.5,58.8,3.3C58.9,3.5,58.9,3.4,58.8,3.3C58.9,3.4,58.9,3.3,58.8,3.3L58.8,3.3z"/>
		</g>
	</g>
	<g>
		<g>
			<path class="st0" d="M38.2,5.3L38.2,5.3C38.1,5.2,38.1,5.2,38.2,5.3L38,5.2c0,0,0,0-0.1,0.1v0.1c0,0,0,0.1,0.1,0.1
				c0,0,0,0,0.1,0.1h0.1C38.2,5.5,38.2,5.4,38.2,5.3C38.2,5.4,38.2,5.4,38.2,5.3L38.2,5.3z"/>
		</g>
	</g>
	<g>
		<g>
			<path class="st0" d="M35.2,5.4c0,0,0-0.1-0.1-0.1H35h-0.1v0.1v0.1l0,0l0,0l0,0l0,0l0,0c0,0,0,0.1,0.1,0.1h0.1
				C35.1,5.5,35.1,5.5,35.2,5.4C35.2,5.5,35.2,5.4,35.2,5.4L35.2,5.4z"/>
		</g>
	</g>
	<g>
		<g>
			<path class="st0" d="M34.4,5.5c0-0.1,0-0.1,0-0.2V5.2h-0.1h-0.1v0.1c0,0.1,0,0.1,0,0.2v0.1L34.4,5.5C34.4,5.6,34.4,5.6,34.4,5.5
				C34.4,5.6,34.4,5.5,34.4,5.5L34.4,5.5z"/>
		</g>
	</g>
	<g>
		<g>
			<path class="st0" d="M7.2,0.3c-0.1,0-0.1,0.2,0,0.2C7.4,0.5,7.4,0.3,7.2,0.3L7.2,0.3z"/>
		</g>
	</g>
	<g>
		<g>
			<path class="st2" d="M10.2,1.5L10.2,1.5C10.3,1.6,10.3,1.6,10.2,1.5l0.2,0.1V1.5V1.4l0,0L10.2,1.5L10.2,1.5
				C10.2,1.3,10.2,1.3,10.2,1.5C10.2,1.4,10.2,1.4,10.2,1.5L10.2,1.5z"/>
		</g>
	</g>
	<g>
		<g>
			<path class="st2" d="M8.3,1.6C8.3,1.6,8.2,1.6,8.3,1.6C8.2,1.6,8.2,1.6,8.3,1.6L8.3,1.6c-0.1,0-0.1,0-0.2,0.1v0.1l0,0
				c0,0,0,0,0.1,0c0,0,0,0,0.1,0l0,0l0,0C8.3,1.8,8.3,1.8,8.3,1.6C8.4,1.8,8.4,1.7,8.3,1.6C8.4,1.7,8.3,1.7,8.3,1.6
				C8.3,1.7,8.3,1.6,8.3,1.6L8.3,1.6z"/>
		</g>
	</g>
	<g>
		<g>
			<path class="st2" d="M16.1,1.4C16.1,1.4,16.1,1.3,16.1,1.4C16.1,1.3,16.1,1.3,16.1,1.4L16.1,1.4L16.1,1.4l-0.2-0.1v0.1
				c0,0,0,0,0,0.1l0,0l0,0L16.1,1.4C16.1,1.5,16.1,1.5,16.1,1.4L16.1,1.4L16.1,1.4z"/>
		</g>
	</g>
	<g>
		<g>
			<path class="st2" d="M16.3,2.1L16.3,2.1L16.3,2.1c0-0.1,0-0.2-0.1-0.2h-0.1c0,0-0.1,0-0.1,0.1l0,0v0.1c0,0,0,0.1,0.1,0.1
				C16.2,2.2,16.2,2.2,16.3,2.1C16.3,2.2,16.3,2.2,16.3,2.1L16.3,2.1z"/>
		</g>
	</g>
	<g>
		<g>
			<path class="st2" d="M18.2,2.5L18.2,2.5C18.1,2.5,18.2,2.5,18.2,2.5c-0.1,0-0.1-0.1-0.2-0.1h-0.1c0,0-0.1,0-0.1,0.1v0.1
				c0,0,0,0.1,0.1,0.1c0.1,0.1,0.2,0.1,0.3,0.1h0.1c0,0,0,0,0.1-0.1C18.3,2.6,18.3,2.6,18.2,2.5L18.2,2.5L18.2,2.5L18.2,2.5z"/>
		</g>
	</g>
	<g>
		<g>
			<path class="st2" d="M5.2,1.8C5.2,1.8,5.2,1.7,5.2,1.8l0.1-0.2c0,0,0-0.1-0.1-0.1H5.1c0,0-0.1,0-0.1,0.1c0,0,0,0.1-0.1,0.1v0.1
				c0,0,0,0.1,0.1,0.1C5.1,1.8,5.1,1.8,5.2,1.8L5.2,1.8L5.2,1.8z"/>
		</g>
	</g>
	<g>
		<g>
			<path class="st2" d="M13.8,1.9c-0.1,0-0.1,0.2,0,0.2C13.9,2.1,13.9,1.9,13.8,1.9L13.8,1.9z"/>
		</g>
	</g>
	<g>
		<g>
			<path class="st2" d="M18.4,3.2c0-0.1,0.1-0.1,0.1-0.2l0,0l0,0l0,0l0,0V2.9h-0.1h-0.1c0,0.1-0.1,0.1-0.1,0.2l0,0l0,0
				C18.2,3.1,18.2,3.2,18.4,3.2C18.3,3.3,18.3,3.3,18.4,3.2C18.4,3.3,18.4,3.3,18.4,3.2L18.4,3.2z"/>
		</g>
	</g>
	<g>
		<g>
			<path class="st2" d="M17.1,1.5c-0.1,0-0.1,0.2,0,0.2C17.3,1.8,17.3,1.5,17.1,1.5L17.1,1.5z"/>
		</g>
	</g>
	<g>
		<g>
			<path class="st2" d="M50.1,4.7L50.1,4.7C50,4.7,50,4.8,50.1,4.7c0,0.1,0,0.2,0,0.2h0.1l0,0l0,0V4.8L50.1,4.7
				C50.2,4.7,50.2,4.7,50.1,4.7L50.1,4.7L50.1,4.7z"/>
		</g>
	</g>
	<g>
		<g>
			<path class="st2" d="M20,2.2C19.9,2.2,19.9,2.2,20,2.2C19.9,2.2,19.9,2.2,20,2.2c-0.1,0-0.1,0-0.2,0.1v0.1c0,0,0,0,0.1,0.1l0,0
				H20c0,0,0,0,0.1-0.1C20,2.3,20,2.3,20,2.2C20,2.3,20,2.2,20,2.2L20,2.2z"/>
		</g>
	</g>
	<g>
		<g>
			<path class="st2" d="M17.9,2.8c-0.1,0-0.1,0.2,0,0.2C18.1,3.1,18.1,2.8,17.9,2.8L17.9,2.8z"/>
		</g>
	</g>
	<g>
		<g>
			<path class="st2" d="M19.7,2.4C19.6,2.4,19.6,2.5,19.7,2.4C19.8,2.5,19.8,2.4,19.7,2.4L19.7,2.4z"/>
		</g>
	</g>
	<g>
		<g>
			<path class="st2" d="M21.2,3.1C21.2,3.1,21.2,3,21.2,3.1C21.2,3,21.2,3,21.2,3.1C21.1,3,21.1,3,21,3c0,0,0,0-0.1,0.1v0.1l0,0
				c0,0,0,0,0.1,0.1h0.1C21.2,3.2,21.2,3.2,21.2,3.1C21.3,3.1,21.3,3.1,21.2,3.1L21.2,3.1z"/>
		</g>
	</g>
	<g>
		<g>
			<path class="st2" d="M22.2,3.3c-0.1,0-0.1,0.2,0,0.2C22.4,3.5,22.4,3.3,22.2,3.3L22.2,3.3z"/>
		</g>
	</g>
	<g>
		<g>
			<path class="st2" d="M23.4,3.5c-0.1,0-0.1,0.2,0,0.2C23.6,3.7,23.6,3.5,23.4,3.5L23.4,3.5z"/>
		</g>
	</g>
	<g>
		<g>
			<path class="st2" d="M24.6,3.6c-0.1,0-0.1,0.2,0,0.2S24.7,3.6,24.6,3.6L24.6,3.6z"/>
		</g>
	</g>
	<g>
		<g>
			<path class="st2" d="M23,5C23,5,23,4.9,23,5c0.1-0.1,0.1-0.1,0.1-0.1V4.8H23h-0.1l0,0L23,5L23,5C22.8,5,22.9,5,23,5
				C22.9,5,23,5,23,5L23,5z"/>
		</g>
	</g>
	<g>
		<g>
			<path class="st2" d="M9.6,0.9L9.6,0.9L9.6,0.9L9.6,0.9L9.6,0.9c0.1-0.1,0.1-0.2,0-0.2H9.5H9.4l0,0l0,0v0.1
				C9.5,0.9,9.5,0.9,9.6,0.9C9.5,0.9,9.6,0.9,9.6,0.9L9.6,0.9z"/>
		</g>
	</g>
	<g>
		<g>
			<path class="st2" d="M8.5,0.6C8.5,0.6,8.6,0.6,8.5,0.6C8.6,0.6,8.6,0.6,8.5,0.6c0.1,0,0.2,0,0.2-0.1V0.4c0,0,0-0.1-0.1-0.1
				c0,0,0,0-0.1,0H8.4c0,0-0.1,0-0.1,0.1C8.5,0.5,8.5,0.5,8.5,0.6L8.5,0.6L8.5,0.6z"/>
		</g>
	</g>
	<g>
		<g>
			<path class="st2" d="M11.1,0.8C11.1,0.8,11.1,0.7,11.1,0.8C11.2,0.7,11.1,0.7,11.1,0.8C11.2,0.8,11.2,0.8,11.1,0.8h0.2V0.7V0.6
				h-0.1c-0.1,0-0.1,0-0.2,0c0,0-0.1,0-0.1,0.1v0.1C10.9,0.7,11,0.7,11.1,0.8C11,0.8,11,0.8,11.1,0.8L11.1,0.8z"/>
		</g>
	</g>
	<g>
		<g>
			<path class="st2" d="M12.2,0.8C12.2,0.8,12.3,0.8,12.2,0.8c0.1,0,0.2,0,0.2,0V0.7V0.6c0,0,0,0-0.1,0h-0.1h-0.1L12.2,0.8
				C12.1,0.7,12.1,0.8,12.2,0.8C12.1,0.8,12.2,0.8,12.2,0.8L12.2,0.8z"/>
		</g>
	</g>
	<g>
		<g>
			<path class="st2" d="M13.3,1.2C13.3,1.2,13.4,1.2,13.3,1.2C13.4,1.2,13.4,1.2,13.3,1.2L13.3,1.2L13.4,1c0,0,0,0-0.1,0l0,0h-0.1
				L13.3,1.2C13.2,1.1,13.2,1.1,13.3,1.2L13.3,1.2L13.3,1.2z"/>
		</g>
	</g>
	<g>
		<g>
			<path class="st2" d="M34,5.9L34,5.9L34,5.9L34,5.9L34,5.9L34,5.9L34,5.9L34,5.9C34,5.9,34,5.8,34,5.9c0-0.1,0-0.1,0-0.1h-0.1
				c0,0-0.1,0-0.1,0.1c0,0,0,0,0,0.1l0,0l0,0c0,0,0,0.1,0.1,0.1H34C33.9,6,34,6,34,5.9L34,5.9L34,5.9z"/>
		</g>
	</g>
	<g>
		<g>
			<path class="st2" d="M22.1,3.8c-0.1,0-0.1,0-0.2,0l0,0l0,0c0,0,0,0-0.1,0.1V4l0,0c0,0,0,0,0.1,0s0.1,0,0.2,0l0,0l0,0
				C22.1,4,22.1,4,22.1,3.8C22.2,3.9,22.2,3.9,22.1,3.8C22.1,3.9,22.1,3.8,22.1,3.8L22.1,3.8L22.1,3.8z"/>
		</g>
	</g>
	<g>
		<g>
			<path class="st2" d="M25.7,4.3C25.8,4.3,25.8,4.3,25.7,4.3C25.8,4.3,25.8,4.3,25.7,4.3C25.8,4.2,25.8,4.2,25.7,4.3l0.1-0.2h-0.1
				h-0.1C25.6,4.1,25.6,4.1,25.7,4.3L25.7,4.3L25.7,4.3L25.7,4.3C25.6,4.4,25.6,4.4,25.7,4.3C25.7,4.4,25.7,4.4,25.7,4.3L25.7,4.3z"
				/>
		</g>
	</g>
	<g>
		<g>
			<path class="st2" d="M27,4.5C27,4.5,27.1,4.5,27,4.5c0.1-0.1,0.1-0.1,0.2-0.2V4.2c0,0,0,0-0.1-0.1H27c0,0-0.1,0-0.1,0.1
				c0,0,0,0-0.1,0.1v0.1C26.8,4.5,26.9,4.5,27,4.5C26.9,4.5,27,4.5,27,4.5L27,4.5z"/>
		</g>
	</g>
	<g>
		<g>
			<path class="st2" d="M28.5,4.9L28.5,4.9C28.5,4.8,28.5,4.8,28.5,4.9c0.1-0.1,0.1-0.1,0.1-0.2c0,0,0,0-0.1-0.1h-0.1l0,0
				c0,0,0,0-0.1,0.1v0.1C28.3,4.8,28.3,4.9,28.5,4.9C28.4,4.9,28.4,4.9,28.5,4.9L28.5,4.9z"/>
		</g>
	</g>
	<g>
		<g>
			<path class="st2" d="M29.5,4.7L29.5,4.7C29.6,4.7,29.6,4.7,29.5,4.7L29.5,4.7l0.1-0.2h-0.1l0,0h-0.1L29.5,4.7
				C29.4,4.6,29.4,4.6,29.5,4.7C29.4,4.7,29.4,4.7,29.5,4.7L29.5,4.7z"/>
		</g>
	</g>
	<g>
		<g>
			<path class="st2" d="M30.7,5.1C30.7,5.1,30.8,5.2,30.7,5.1C30.8,5.1,30.8,5.1,30.7,5.1L30.7,5.1c0.1,0,0.2,0,0.2-0.1V4.9
				c0,0,0-0.1-0.1-0.1c0,0,0,0-0.1,0l0,0l0,0c0,0-0.1,0-0.1,0.1C30.7,5,30.7,5,30.7,5.1L30.7,5.1L30.7,5.1z"/>
		</g>
	</g>
	<g>
		<g>
			<path class="st2" d="M31.7,5.5L31.7,5.5c0.1,0,0.1,0,0.2,0V5.4V5.3h-0.1h-0.1h-0.1L31.7,5.5C31.6,5.4,31.6,5.5,31.7,5.5
				C31.6,5.5,31.6,5.5,31.7,5.5L31.7,5.5z"/>
		</g>
	</g>
	<g>
		<g>
			<path class="st2" d="M32.4,5.2L32.4,5.2c0.1,0,0.1-0.1,0.2-0.1V5c0,0,0-0.1-0.1-0.1h-0.1h-0.1c0,0-0.1,0-0.1,0.1v0.1
				C32.2,5.2,32.3,5.2,32.4,5.2C32.3,5.2,32.3,5.3,32.4,5.2L32.4,5.2z"/>
		</g>
	</g>
	<g>
		<g>
			<path class="st2" d="M7.9,0.6C7.9,0.5,7.8,0.5,7.9,0.6L7.9,0.6L7.9,0.6L7.7,0.5v0.1v0.1l0,0l0,0l0,0l0,0l0,0c0,0,0,0.1,0.1,0.1
				h0.1C7.9,0.7,7.9,0.7,7.9,0.6C7.9,0.7,7.9,0.6,7.9,0.6L7.9,0.6z"/>
		</g>
	</g>
	<g>
		<g>
			<path class="st2" d="M6.9,0.7c-0.1,0-0.1,0-0.2,0H6.6c0,0,0,0-0.1,0.1v0.1c0,0,0,0,0.1,0.1c0.1,0,0.1,0,0.2,0h0.1
				c0,0,0,0,0.1-0.1C6.9,0.8,6.9,0.7,6.9,0.7L6.9,0.7L6.9,0.7z"/>
		</g>
	</g>
	<g>
		<g>
			<path class="st2" d="M6.1,0.5C6,0.5,6,0.7,6.1,0.7C6.2,0.7,6.2,0.5,6.1,0.5L6.1,0.5z"/>
		</g>
	</g>
	<g>
		<g>
			<path class="st2" d="M4.9,0.8L4.9,0.8C4.9,0.9,4.9,0.9,4.9,0.8C4.8,0.9,4.8,0.9,4.8,0.9V1c0,0,0,0,0.1,0.1H5c0,0,0,0,0.1,0l0,0
				l0,0V1C5.1,0.8,5,0.8,4.9,0.8C5,0.8,5,0.8,4.9,0.8L4.9,0.8z"/>
		</g>
	</g>
	<g>
		<g>
			<path class="st2" d="M3.8,1.1L3.8,1.1L3.8,1.1L3.8,1.1c-0.1,0-0.1,0-0.2,0c0,0,0,0-0.1,0.1v0.1c0,0,0,0,0.1,0.1h0.1h0.1V1.3
				C4,1.2,4,1.1,3.8,1.1C3.9,1.1,3.9,1.1,3.8,1.1L3.8,1.1z"/>
		</g>
	</g>
	<g>
		<g>
			<path class="st2" d="M2.9,1.5C2.8,1.5,2.8,1.5,2.9,1.5C2.8,1.5,2.8,1.5,2.9,1.5C2.8,1.5,2.8,1.5,2.9,1.5C2.8,1.6,2.8,1.6,2.9,1.5
				c-0.1,0.1-0.1,0.2,0,0.2H3l0,0l0,0l0,0L2.9,1.5C3,1.5,3,1.5,2.9,1.5L2.9,1.5L2.9,1.5z"/>
		</g>
	</g>
	<g>
		<g>
			<path class="st2" d="M35.6,6.1c-0.1,0-0.1,0.2,0,0.2C35.7,6.3,35.7,6.1,35.6,6.1L35.6,6.1z"/>
		</g>
	</g>
	<g>
		<g>
			<path class="st2" d="M32.5,5.2C32.6,5.2,32.6,5.2,32.5,5.2C32.6,5.2,32.6,5.2,32.5,5.2C32.6,5.2,32.6,5.2,32.5,5.2L32.5,5.2
				L32.6,5h-0.1l0,0l0,0l0,0V5.2C32.4,5.1,32.4,5.1,32.5,5.2C32.5,5.1,32.5,5.2,32.5,5.2L32.5,5.2z"/>
		</g>
	</g>
	<g>
		<g>
			<path class="st2" d="M33.9,5.4c-0.1,0-0.1,0.2,0,0.2S34,5.4,33.9,5.4L33.9,5.4z"/>
		</g>
	</g>
	<g>
		<g>
			<path class="st2" d="M27.5,4.8L27.5,4.8L27.5,4.8C27.5,4.8,27.4,4.8,27.5,4.8c-0.1,0-0.2,0-0.2,0v0.1V5h0.1c0.1,0,0.1,0,0.2,0
				c0,0,0.1,0,0.1-0.1V4.8C27.7,4.9,27.6,4.8,27.5,4.8C27.6,4.8,27.6,4.8,27.5,4.8L27.5,4.8z"/>
		</g>
	</g>
	<g>
		<g>
			<path class="st2" d="M20.3,3.3c-0.1,0-0.1,0-0.2-0.1H20c0,0,0,0-0.1,0.1v0.1l0,0c0,0,0,0,0.1,0s0.1,0,0.2,0.1h0.1
				C20.3,3.5,20.3,3.5,20.3,3.3C20.4,3.4,20.4,3.4,20.3,3.3C20.4,3.4,20.4,3.4,20.3,3.3L20.3,3.3L20.3,3.3z"/>
		</g>
	</g>
	<g>
		<g>
			<path class="st2" d="M63.4,1.1L63.4,1.1C63.4,1.1,63.3,1.2,63.4,1.1C63.3,1.2,63.3,1.2,63.4,1.1c-0.1,0.1-0.1,0.2-0.1,0.2
				s0,0,0.1,0.1h0.1l0,0l0,0l0,0V1.3C63.5,1.1,63.5,1.1,63.4,1.1C63.5,1.1,63.4,1.1,63.4,1.1L63.4,1.1z"/>
		</g>
	</g>
	<g>
		<g>
			<path class="st2" d="M62.2,1c-0.1,0-0.1,0.2,0,0.2C62.3,1.2,62.3,1,62.2,1L62.2,1z"/>
		</g>
	</g>
	<g>
		<g>
			<path class="st2" d="M62.1,1.4c-0.1,0-0.1,0.2,0,0.2S62.2,1.4,62.1,1.4L62.1,1.4z"/>
		</g>
	</g>
	<g>
		<g>
			<path class="st2" d="M60.4,1.5c-0.1,0-0.1,0.2,0,0.2C60.6,1.7,60.6,1.5,60.4,1.5L60.4,1.5z"/>
		</g>
	</g>
	<g>
		<g>
			<path class="st2" d="M60.1,1.8C60,1.8,60,2,60.1,2C60.3,2,60.3,1.8,60.1,1.8L60.1,1.8z"/>
		</g>
	</g>
	<g>
		<g>
			<path class="st2" d="M59.1,1.8C59.1,1.8,59,1.8,59.1,1.8C59,1.9,59,1.9,59.1,1.8L59,2c0,0,0,0,0.1,0.1h0.1c0,0,0,0,0.1,0
				c0,0,0,0,0.1-0.1C59.2,1.9,59.2,1.9,59.1,1.8C59.2,1.8,59.2,1.8,59.1,1.8L59.1,1.8L59.1,1.8z"/>
		</g>
	</g>
	<g>
		<g>
			<path class="st2" d="M58.4,2.2C58.4,2.2,58.3,2.2,58.4,2.2C58.3,2.2,58.3,2.3,58.4,2.2c-0.1,0.1-0.1,0.2-0.1,0.2s0,0,0.1,0.1l0,0
				c0,0,0,0,0.1,0l0,0c0,0,0,0,0.1-0.1V2.3C58.5,2.2,58.5,2.2,58.4,2.2C58.5,2.2,58.4,2.2,58.4,2.2L58.4,2.2L58.4,2.2z"/>
		</g>
	</g>
	<g>
		<g>
			<path class="st2" d="M57.7,2.3C57.6,2.3,57.6,2.3,57.7,2.3C57.6,2.3,57.6,2.3,57.7,2.3L57.7,2.3l-0.1,0.2h0.1c0,0,0,0,0.1,0h0.1
				V2.4C57.8,2.4,57.8,2.3,57.7,2.3L57.7,2.3L57.7,2.3z"/>
		</g>
	</g>
	<g>
		<g>
			<path class="st2" d="M56.9,2.6C56.9,2.6,56.8,2.6,56.9,2.6c-0.1,0.1-0.1,0.1-0.2,0.2v0.1c0,0,0,0,0.1,0.1h0.1c0,0,0.1,0,0.1-0.1
				c0,0,0,0,0.1-0.1V2.7C57,2.6,57,2.6,56.9,2.6L56.9,2.6L56.9,2.6z"/>
		</g>
	</g>
	<g>
		<g>
			<path class="st2" d="M37.1,5.3c-0.1,0-0.1,0.2,0,0.2C37.2,5.5,37.2,5.3,37.1,5.3L37.1,5.3z"/>
		</g>
	</g>
	<g>
		<g>
			<path class="st2" d="M34.8,5.5c0-0.1,0-0.2-0.1-0.3h-0.1h-0.1v0.1v0.1l0,0l0,0c0,0,0,0,0,0.1l0,0c0,0,0,0,0,0.1l0,0l0,0v0.1h0.1
				C34.7,5.6,34.8,5.6,34.8,5.5C34.8,5.6,34.8,5.6,34.8,5.5L34.8,5.5z"/>
		</g>
	</g>
	<g>
		<g>
			<path class="st2" d="M35.5,5.6L35.5,5.6C35.5,5.5,35.5,5.5,35.5,5.6c0-0.1,0-0.2-0.1-0.2h-0.1c0,0-0.1,0-0.1,0.1l0,0v0.1
				c0,0,0,0.1,0.1,0.1C35.4,5.7,35.4,5.7,35.5,5.6C35.5,5.7,35.5,5.7,35.5,5.6L35.5,5.6z"/>
		</g>
	</g>
	<g>
		<g>
			<path class="st2" d="M36.4,5.7c0.1,0,0.1,0,0.2-0.1c0,0,0,0,0.1-0.1V5.4c0,0,0,0-0.1-0.1h-0.1h-0.1l0,0c0,0,0,0-0.1,0
				c0,0-0.1,0-0.1,0.1v0.1C36.3,5.7,36.3,5.7,36.4,5.7L36.4,5.7L36.4,5.7z"/>
		</g>
	</g>
	<g>
		<g>
			<path class="st2" d="M37.5,5.6L37.5,5.6C37.6,5.6,37.6,5.6,37.5,5.6c0.1-0.1,0.1-0.1,0.1-0.1s0-0.1-0.1-0.1h-0.1l0,0
				c0,0-0.1,0-0.1,0.1v0.1C37.4,5.6,37.4,5.6,37.5,5.6C37.4,5.6,37.5,5.6,37.5,5.6L37.5,5.6z"/>
		</g>
	</g>
	<g>
		<g>
			<path class="st2" d="M38.2,5.6L38.2,5.6c0.1,0,0.1,0,0.1-0.1V5.4c0,0,0-0.1-0.1-0.1h-0.1c0,0,0,0-0.1,0c0,0-0.1,0-0.1,0.1v0.1
				C38.1,5.6,38.1,5.6,38.2,5.6C38.1,5.6,38.2,5.6,38.2,5.6L38.2,5.6z"/>
		</g>
	</g>
	<g>
		<g>
			<path class="st2" d="M50.4,4.2C50.4,4.2,50.5,4.2,50.4,4.2c0.1,0,0.1,0,0.2,0V4.1V4h-0.1h-0.1h-0.1v0.1
				C50.3,4.1,50.3,4.1,50.4,4.2C50.3,4.1,50.4,4.2,50.4,4.2L50.4,4.2z"/>
		</g>
	</g>
	<g>
		<g>
			<path class="st2" d="M51.2,3.9c-0.1,0-0.1,0.2,0,0.2C51.4,4.1,51.4,3.9,51.2,3.9L51.2,3.9z"/>
		</g>
	</g>
	<g>
		<g>
			<path class="st2" d="M52.3,4.1L52.3,4.1L52.3,4.1l0.1-0.2h-0.1h-0.1l0,0c0,0,0,0,0,0.1v0.1C52.1,4.2,52.2,4.2,52.3,4.1
				C52.2,4.2,52.3,4.2,52.3,4.1L52.3,4.1z"/>
		</g>
	</g>
	<g>
		<g>
			<path class="st2" d="M53.5,3.8C53.5,3.7,53.5,3.7,53.5,3.8C53.6,3.7,53.6,3.7,53.5,3.8l0.1-0.2h-0.1h-0.1l0,0l0,0c0,0,0,0-0.1,0
				l0,0l0,0v0.1C53.3,3.7,53.3,3.8,53.5,3.8C53.4,3.8,53.4,3.8,53.5,3.8C53.4,3.8,53.4,3.8,53.5,3.8L53.5,3.8z"/>
		</g>
	</g>
	<g>
		<g>
			<path class="st2" d="M54.1,3.4c-0.1,0-0.1,0.2,0,0.2C54.3,3.6,54.3,3.4,54.1,3.4L54.1,3.4z"/>
		</g>
	</g>
	<g>
		<g>
			<path class="st2" d="M55,3.7c0.1,0,0.1,0,0.2,0c0,0,0,0,0.1-0.1V3.5c0,0,0,0-0.1-0.1h-0.1l0,0l0,0c0,0,0,0-0.1,0l0,0l0,0h-0.1
				v0.1C54.9,3.6,54.9,3.7,55,3.7L55,3.7L55,3.7z"/>
		</g>
	</g>
	<g>
		<g>
			<path class="st2" d="M55.8,3.1L55.8,3.1c0-0.1,0-0.1-0.1-0.1h-0.1c0,0-0.1,0-0.1,0.1l0,0c0,0,0,0,0,0.1c0,0,0,0,0,0.1
				c0,0,0,0.1,0.1,0.1h0.1C55.8,3.3,55.8,3.2,55.8,3.1C55.8,3.2,55.8,3.2,55.8,3.1C55.9,3.2,55.9,3.1,55.8,3.1L55.8,3.1z"/>
		</g>
	</g>
	<g>
		<g>
			<path class="st2" d="M47.5,4.6C47.5,4.5,47.4,4.5,47.5,4.6C47.4,4.5,47.4,4.5,47.5,4.6C47.4,4.6,47.4,4.6,47.5,4.6l-0.2-0.1
				c0,0-0.1,0-0.1,0.1v0.1l0,0l0,0c0,0,0.1,0,0.1,0.1h0.1l0,0l0,0C47.4,4.8,47.4,4.8,47.5,4.6C47.6,4.7,47.6,4.6,47.5,4.6
				C47.6,4.6,47.5,4.6,47.5,4.6L47.5,4.6z"/>
		</g>
	</g>
	<g>
		<g>
			<path class="st2" d="M50.2,4.3L50.2,4.3L50.2,4.3L50.2,4.3L50.2,4.3c0-0.1,0.1-0.1,0.1-0.1C50.2,4.2,50.2,4.2,50.2,4.3
				c0.1-0.1,0.1-0.1,0.1-0.1s0,0,0.1-0.1V4c0,0,0,0-0.1-0.1h-0.1C50.1,4,50,4,50,4.2v0.1C50,4.3,50,4.3,50.2,4.3
				C50.1,4.4,50.1,4.4,50.2,4.3C50.1,4.4,50.2,4.3,50.2,4.3L50.2,4.3z"/>
		</g>
	</g>
	<g>
		<g>
			<path class="st2" d="M47.9,4.9L47.9,4.9C47.8,4.8,47.8,4.8,47.9,4.9l-0.2-0.1c0,0-0.1,0-0.1,0.1V5c0,0,0,0.1,0.1,0.1l0,0l0,0l0,0
				l0,0l0,0l0,0l0,0h0.1C47.9,5,47.9,5,47.9,4.9C48,5,48,4.9,47.9,4.9L47.9,4.9z"/>
		</g>
	</g>
	<g>
		<g>
			<path class="st2" d="M47.1,4.5L47.1,4.5C47.1,4.4,47.1,4.4,47.1,4.5c0-0.1,0-0.1-0.1-0.2h-0.1l0,0c0,0,0,0,0,0.1l0,0v0.1
				c0,0,0,0,0.1,0.1C47,4.6,47,4.6,47.1,4.5C47.1,4.6,47.1,4.6,47.1,4.5C47.1,4.6,47.1,4.5,47.1,4.5L47.1,4.5z"/>
		</g>
	</g>
	<g>
		<g>
			<path class="st2" d="M48,4.2c-0.1,0-0.1,0.2,0,0.2C48.1,4.5,48.1,4.2,48,4.2L48,4.2z"/>
		</g>
	</g>
	<g>
		<g>
			<path class="st2" d="M46.3,5.4L46.3,5.4C46.2,5.5,46.2,5.5,46.3,5.4c-0.1,0.1-0.1,0.2-0.1,0.2s0,0,0.1,0.1h0.1l0,0
				c0,0,0,0,0.1-0.1V5.5C46.4,5.5,46.4,5.4,46.3,5.4L46.3,5.4L46.3,5.4z"/>
		</g>
	</g>
	<g>
		<g>
			<path class="st2" d="M45.6,5.4c-0.1,0-0.1,0.2,0,0.2C45.7,5.7,45.7,5.4,45.6,5.4L45.6,5.4z"/>
		</g>
	</g>
	<g>
		<g>
			<path class="st2" d="M46.3,6.1c-0.1,0-0.1,0.2,0,0.2C46.5,6.3,46.5,6.1,46.3,6.1L46.3,6.1z"/>
		</g>
	</g>
	<g>
		<g>
			<path class="st2" d="M46.9,4.9L46.9,4.9L46.9,4.9c-0.1,0.1-0.1,0.2-0.1,0.2s0,0,0.1,0.1H47l0,0c0,0,0,0,0.1-0.1V5
				C47.1,4.9,47.1,4.9,46.9,4.9C47,4.9,47,4.9,46.9,4.9L46.9,4.9z"/>
		</g>
	</g>
	<g>
		<g>
			<path class="st2" d="M38.7,5.6c-0.1,0-0.1,0.2,0,0.2C38.9,5.8,38.9,5.6,38.7,5.6L38.7,5.6z"/>
		</g>
	</g>
	<g>
		<g>
			<path class="st2" d="M57.1,2.8C57.1,2.8,57.2,2.8,57.1,2.8C57.2,2.7,57.2,2.7,57.1,2.8C57.1,2.7,57.1,2.7,57.1,2.8
				c0-0.1,0-0.2-0.1-0.2h-0.1l0,0l0,0l0,0l0,0l0,0c0,0,0,0.1,0.1,0.1C57,2.8,57,2.8,57.1,2.8L57.1,2.8L57.1,2.8L57.1,2.8z"/>
		</g>
	</g>
	<g>
		<g>
			<path class="st3" d="M17.8,2.1L17.8,2.1C17.8,2,17.8,2,17.8,2.1L17.8,2.1L17.6,2c0,0,0,0,0,0.1c0,0,0,0,0,0.1v0.1h0.1
				C17.8,2.2,17.8,2.2,17.8,2.1C17.8,2.2,17.8,2.2,17.8,2.1L17.8,2.1z"/>
		</g>
	</g>
	<g>
		<g>
			<path class="st3" d="M8.5,0.8c0.1,0,0.1,0,0.2,0h0.1V0.7V0.6l0,0c0,0,0,0-0.1,0s-0.1,0-0.2,0H8.4L8.5,0.8
				C8.4,0.7,8.4,0.7,8.5,0.8C8.4,0.7,8.4,0.7,8.5,0.8C8.4,0.7,8.4,0.8,8.5,0.8L8.5,0.8z"/>
		</g>
	</g>
	<g>
		<g>
			<path class="st3" d="M11.2,1L11.2,1C11.3,1,11.3,1,11.2,1l0.1-0.2c0,0,0-0.1-0.1-0.1l0,0c0,0,0,0-0.1,0c0,0,0,0-0.1,0
				c0,0-0.1,0-0.1,0.1v0.1C11.1,0.9,11.1,1,11.2,1C11.1,1,11.1,1,11.2,1L11.2,1L11.2,1z"/>
		</g>
	</g>
	<g>
		<g>
			<path class="st3" d="M13,1.1L13,1.1C13.1,1.1,13.1,1.1,13,1.1C13.1,1,13.1,1,13,1.1c0.1-0.1,0.1-0.2,0-0.2l0,0c0,0,0,0-0.1,0l0,0
				c0,0-0.1,0-0.1,0.1v0.1C12.9,1.1,12.9,1.1,13,1.1C12.9,1.1,12.9,1.1,13,1.1L13,1.1L13,1.1z"/>
		</g>
	</g>
	<g>
		<g>
			<path class="st3" d="M26,4.8c-0.1,0-0.1,0.2,0,0.2C26.2,5.1,26.2,4.8,26,4.8L26,4.8z"/>
		</g>
	</g>
	<g>
		<g>
			<path class="st3" d="M17.3,4.4c-0.1,0-0.1,0.2,0,0.2C17.5,4.6,17.5,4.4,17.3,4.4L17.3,4.4z"/>
		</g>
	</g>
	<g>
		<g>
			<path class="st3" d="M29.6,5.6c-0.1,0-0.1,0.2,0,0.2C29.7,5.8,29.7,5.6,29.6,5.6L29.6,5.6z"/>
		</g>
	</g>
	<g>
		<g>
			<path class="st3" d="M31.7,4.9c-0.1,0-0.1,0.2,0,0.2S31.8,4.9,31.7,4.9L31.7,4.9z"/>
		</g>
	</g>
	<g>
		<g>
			<path class="st3" d="M30.3,4.7c-0.1,0-0.1,0.2,0,0.2C30.5,4.9,30.5,4.7,30.3,4.7L30.3,4.7z"/>
		</g>
	</g>
	<g>
		<g>
			<path class="st3" d="M28.6,4.6c-0.1,0-0.1,0.2,0,0.2C28.8,4.8,28.8,4.6,28.6,4.6L28.6,4.6z"/>
		</g>
	</g>
	<g>
		<g>
			<path class="st3" d="M27.4,4.4c-0.1,0-0.1,0.2,0,0.2S27.5,4.4,27.4,4.4L27.4,4.4z"/>
		</g>
	</g>
	<g>
		<g>
			<path class="st3" d="M26.3,4.5c-0.1,0-0.1,0.2,0,0.2C26.4,4.7,26.4,4.5,26.3,4.5L26.3,4.5z"/>
		</g>
	</g>
	<g>
		<g>
			<path class="st3" d="M6.4,0.6c-0.2,0-0.2,0.3,0,0.3C6.5,0.9,6.5,0.6,6.4,0.6L6.4,0.6z"/>
		</g>
	</g>
	<g>
		<g>
			<path class="st3" d="M5,0.8L5,0.8L5,0.8c-0.1,0-0.2,0-0.2,0.1V1c0,0,0,0.1,0.1,0.1l0,0H5c0,0,0.1,0,0.1-0.1C5,0.9,5,0.9,5,0.8
				L5,0.8L5,0.8z"/>
		</g>
	</g>
	<g>
		<g>
			<path class="st3" d="M3.3,1.5c-0.1,0-0.1,0.2,0,0.2C3.5,1.7,3.5,1.5,3.3,1.5L3.3,1.5z"/>
		</g>
	</g>
	<g>
		<g>
			<path class="st3" d="M13.1,1.3L13.1,1.3C13,1.2,13,1.2,13.1,1.3l-0.2-0.1c0,0,0,0-0.1,0.1l0,0c0,0,0,0,0,0.1v0.1c0,0,0,0,0.1,0.1
				H13C13.1,1.5,13.1,1.5,13.1,1.3C13.1,1.4,13.1,1.4,13.1,1.3C13.1,1.4,13.1,1.4,13.1,1.3L13.1,1.3z"/>
		</g>
	</g>
	<g>
		<g>
			<path class="st3" d="M11.3,2.6C11.4,2.5,11.4,2.5,11.3,2.6C11.4,2.5,11.4,2.5,11.3,2.6L11.3,2.6c0.1-0.1,0.1-0.2,0-0.2h-0.1l0,0
				l0,0c0,0,0,0.1-0.1,0.1l0,0l0,0C11.1,2.5,11.1,2.6,11.3,2.6C11.2,2.6,11.2,2.6,11.3,2.6L11.3,2.6L11.3,2.6L11.3,2.6z"/>
		</g>
	</g>
	<g>
		<g>
			<path class="st3" d="M52.3,3.6C52.3,3.6,52.3,3.5,52.3,3.6c-0.1-0.1-0.1-0.1-0.1-0.1h-0.1v0.1l0,0c0,0,0,0,0,0.1
				c0,0,0,0.1,0.1,0.1h0.1h0.1C52.3,3.7,52.4,3.7,52.3,3.6C52.4,3.7,52.3,3.6,52.3,3.6L52.3,3.6L52.3,3.6z"/>
		</g>
	</g>
	<g>
		<g>
			<path class="st3" d="M54.9,3.2c-0.1,0-0.1,0.2,0,0.2C55.1,3.4,55.1,3.2,54.9,3.2L54.9,3.2z"/>
		</g>
	</g>
	<g>
		<g>
			<path class="st3" d="M40.7,5.6c-0.1,0-0.1,0.2,0,0.2C40.8,5.8,40.8,5.6,40.7,5.6L40.7,5.6z"/>
		</g>
	</g>
	<g>
		<g>
			<path class="st3" d="M44.4,5.6L44.4,5.6L44.4,5.6C44.4,5.6,44.4,5.7,44.4,5.6C44.4,5.7,44.4,5.7,44.4,5.6
				C44.4,5.7,44.3,5.7,44.4,5.6C44.4,5.7,44.4,5.7,44.4,5.6C44.3,5.7,44.3,5.7,44.4,5.6L44.4,5.6l-0.2,0.1l0,0l0,0h-0.1v0.1v0.1h0.1
				h0.1c0.1,0,0.1,0,0.1-0.1c0.1-0.1,0.1-0.1,0.1-0.2V5.5c0,0,0,0-0.1-0.1C44.5,5.5,44.5,5.5,44.4,5.6C44.5,5.5,44.4,5.6,44.4,5.6
				L44.4,5.6z"/>
		</g>
	</g>
	<g>
		<g>
			<path class="st3" d="M43.1,5.9L43.1,5.9c-0.1,0-0.1,0-0.1,0V6v0.1h0.1l0,0h0.1L43.1,5.9C43.2,6,43.2,6,43.1,5.9L43.1,5.9
				L43.1,5.9z"/>
		</g>
	</g>
	<g>
		<g>
			<path class="st3" d="M41.9,5c-0.1,0-0.1,0.2,0,0.2C42.1,5.3,42.1,5,41.9,5L41.9,5z"/>
		</g>
	</g>
	<g>
		<g>
			<path class="st3" d="M40.4,5.2c-0.1,0-0.1,0.2,0,0.2C40.5,5.5,40.5,5.2,40.4,5.2L40.4,5.2z"/>
		</g>
	</g>
	<g>
		<g>
			<path class="st3" d="M39.8,5.7c-0.1,0-0.1,0.2,0,0.2C39.9,5.9,39.9,5.7,39.8,5.7L39.8,5.7z"/>
		</g>
	</g>
	<g>
		<g>
			<path class="st3" d="M58.6,2.1L58.6,2.1C58.7,2.1,58.7,2,58.6,2.1c0-0.1,0-0.2,0-0.2h-0.1h-0.1l0,0c0,0,0,0,0,0.1v0.1
				C58.5,2.1,58.5,2.1,58.6,2.1L58.6,2.1L58.6,2.1z"/>
		</g>
	</g>
	<g>
		<g>
			<path class="st3" d="M59.8,1.4c-0.1,0-0.1,0.2,0,0.2C60,1.7,60,1.4,59.8,1.4L59.8,1.4z"/>
		</g>
	</g>
	<g>
		<g>
			<path class="st3" d="M61,2.3c-0.1,0-0.1,0.2,0,0.2C61.1,2.5,61.1,2.3,61,2.3L61,2.3z"/>
		</g>
	</g>
	<g>
		<g>
			<path class="st3" d="M62.1,1.1L62.1,1.1h0.2V1V0.9h-0.1h-0.1H62L62.1,1.1C62,1,62,1,62.1,1.1C62,1,62.1,1.1,62.1,1.1L62.1,1.1z"
				/>
		</g>
	</g>
	<g>
		<g>
			<path class="st3" d="M29.6,5.5L29.6,5.5C29.7,5.5,29.7,5.5,29.6,5.5c0.1,0,0.2,0,0.2-0.1V5.3c0,0,0-0.1-0.1-0.1l0,0h-0.1
				c0,0-0.1,0-0.1,0.1C29.5,5.4,29.5,5.4,29.6,5.5C29.5,5.4,29.6,5.5,29.6,5.5L29.6,5.5z"/>
		</g>
	</g>
	<g>
		<g>
			<path class="st3" d="M53.2,4.8c0,0,0-0.1,0.1-0.1V4.6c0,0,0-0.1-0.1-0.1h-0.1c0,0-0.1,0-0.1,0.1c0,0,0,0.1-0.1,0.1v0.1
				c0,0,0,0.1,0.1,0.1C53.1,4.9,53.1,4.9,53.2,4.8C53.2,4.9,53.2,4.9,53.2,4.8L53.2,4.8z"/>
		</g>
	</g>
	<g>
		<g>
			<path class="st3" d="M55.1,4c-0.1,0-0.1,0.2,0,0.2C55.2,4.2,55.2,4,55.1,4L55.1,4z"/>
		</g>
	</g>
	<g>
		<g>
			<path class="st3" d="M47,5.6c-0.1,0-0.1,0.2,0,0.2C47.2,5.9,47.2,5.6,47,5.6L47,5.6z"/>
		</g>
	</g>
	<g>
		<g>
			<path class="st3" d="M46.4,5.2L46.4,5.2l0.1-0.1V5h-0.1h-0.1l0,0L46.4,5.2L46.4,5.2C46.2,5.2,46.3,5.2,46.4,5.2
				C46.3,5.2,46.3,5.2,46.4,5.2L46.4,5.2z"/>
		</g>
	</g>
	<g>
		<g>
			<path class="st3" d="M51.2,4.2c-0.1,0-0.1,0.2,0,0.2C51.3,4.5,51.3,4.2,51.2,4.2L51.2,4.2z"/>
		</g>
	</g>
	<g>
		<g>
			<path class="st3" d="M49.7,3.9c-0.1,0-0.1,0.2,0,0.2C49.9,4.2,49.9,3.9,49.7,3.9L49.7,3.9z"/>
		</g>
	</g>
	<g>
		<g>
			<path class="st3" d="M37.1,5.6L37,5.5h-0.1c0,0-0.1,0-0.1,0.1v0.1c0,0,0,0.1,0.1,0.1L37,5.9h0.1c0,0,0.1,0,0.1-0.1
				C37.2,5.7,37.2,5.7,37.1,5.6C37.2,5.7,37.1,5.6,37.1,5.6L37.1,5.6z"/>
		</g>
	</g>
	<g>
		<g>
			<path class="st3" d="M35.7,5.4c0,0-0.1,0-0.1-0.1h-0.1c0,0-0.1,0-0.1,0.1v0.1c0,0,0,0.1,0.1,0.1c0,0,0.1,0,0.1,0.1h0.1
				c0,0,0.1,0,0.1-0.1S35.8,5.5,35.7,5.4L35.7,5.4L35.7,5.4z"/>
		</g>
	</g>
	<g>
		<g>
			<path class="st3" d="M33.7,5.2c-0.1,0-0.1,0.2,0,0.2C33.8,5.5,33.8,5.2,33.7,5.2L33.7,5.2z"/>
		</g>
	</g>
	<g>
		<g>
			<path class="st3" d="M39.3,5.2c-0.1,0-0.1,0.2,0,0.2C39.4,5.5,39.4,5.2,39.3,5.2L39.3,5.2z"/>
		</g>
	</g>
	<g>
		<g>
			<path class="st3" d="M23.5,3.9L23.5,3.9L23.5,3.9c-0.1,0-0.2,0-0.3,0l0,0l0,0c-0.1,0-0.1,0-0.1,0.1c0,0.1,0,0.1,0.1,0.1
				s0.3,0,0.4,0c0,0,0.1,0,0.1-0.1V3.9C23.6,3.9,23.6,3.9,23.5,3.9C23.6,3.9,23.5,3.9,23.5,3.9L23.5,3.9z"/>
		</g>
	</g>
	<g>
		<g>
			<path class="st3" d="M23.2,3.3c-0.1,0-0.1,0.2,0,0.2C23.3,3.5,23.3,3.3,23.2,3.3L23.2,3.3z"/>
		</g>
	</g>
	<g>
		<g>
			<path class="st3" d="M20.8,3.2L20.8,3.2C20.7,3.2,20.7,3.2,20.8,3.2c-0.1,0-0.2,0-0.2,0.1v0.1c0,0,0,0.1,0.1,0.1c0,0,0,0,0.1,0
				h0.1c0,0,0.1,0,0.1-0.1C20.9,3.3,20.9,3.3,20.8,3.2C20.9,3.2,20.8,3.2,20.8,3.2L20.8,3.2z"/>
		</g>
	</g>
	<g>
		<g>
			<path class="st3" d="M19.5,2.4L19.5,2.4C19.4,2.3,19.4,2.3,19.5,2.4c-0.1-0.1-0.1-0.1-0.2-0.1c0,0,0,0-0.1,0.1v0.1l0,0
				c0,0,0,0,0.1,0.1h0.1C19.4,2.5,19.5,2.5,19.5,2.4C19.5,2.5,19.5,2.4,19.5,2.4L19.5,2.4z"/>
		</g>
	</g>
	<g>
		<g>
			<path class="st3" d="M16.2,1.6c-0.1,0-0.1,0.2,0,0.2C16.3,1.8,16.3,1.6,16.2,1.6L16.2,1.6z"/>
		</g>
	</g>
	<g>
		<g>
			<path class="st3" d="M12.6,0.6C12.6,0.6,12.5,0.6,12.6,0.6C12.5,0.6,12.5,0.6,12.6,0.6c-0.1,0-0.2,0-0.2,0.1v0.1
				c0,0,0,0.1,0.1,0.1l0,0h0.1c0,0,0.1,0,0.1-0.1C12.6,0.8,12.6,0.7,12.6,0.6C12.6,0.7,12.6,0.7,12.6,0.6L12.6,0.6z"/>
		</g>
	</g>
</g>
</svg>
