<?xml version="1.0" encoding="utf-8"?>
<!-- Generator: Adobe Illustrator 23.1.1, SVG Export Plug-In . SVG Version: 6.00 Build 0)  -->
<svg version="1.1" id="Layer_1" xmlns="http://www.w3.org/2000/svg" xmlns:xlink="http://www.w3.org/1999/xlink" x="0px" y="0px"
	 viewBox="0 0 54 38" style="enable-background:new 0 0 54 38;" xml:space="preserve">
<style type="text/css">
	.st0{fill:#0F80C3;}
	.st1{fill:#E52621;}
	.st2{fill:#3AAA35;}
	.st3{fill:#FFD518;}
</style>
<g>
	<path class="st0" d="M32.2,34.3c0.3,0,0.5,0.1,0.7,0.2c-0.1-0.1-0.3-0.1-0.4-0.2c0.2,0.1,0.4,0.2,0.6,0.4c-0.1-0.1-0.2-0.2-0.4-0.3
		c0.1,0.1,0.2,0.2,0.3,0.3c0.2,0.2,0.4,0.3,0.6,0.4c0.2,0.1,0.4,0.2,0.7,0.2c0.2,0,0.5,0,0.7-0.2c0.2-0.1,0.4-0.2,0.6-0.4
		c0.1-0.1,0.2-0.2,0.3-0.4c0.2-0.3,0.2-0.6,0.2-0.9c0-0.2,0-0.3-0.1-0.5c-0.1-0.3-0.2-0.6-0.5-0.8c-0.2-0.2-0.5-0.4-0.7-0.6
		c-0.1-0.1-0.3-0.2-0.4-0.3c-0.1-0.1-0.3-0.1-0.4-0.2c-0.1-0.1-0.3-0.1-0.4-0.2c-0.2-0.1-0.3-0.1-0.5-0.1c-0.2-0.1-0.5-0.1-0.7,0
		c-0.2,0-0.5,0.1-0.7,0.2c-0.2,0.1-0.4,0.3-0.5,0.5c-0.2,0.2-0.3,0.4-0.3,0.6c0,0.2,0,0.3-0.1,0.5c0,0.3,0.1,0.6,0.2,0.9
		c0.1,0.1,0.2,0.2,0.3,0.4C31.7,34,31.9,34.2,32.2,34.3L32.2,34.3z"/>
</g>
<g>
	<path class="st0" d="M30.6,27.4c0,0.3,0,0.5,0,0.8c0,0.2,0,0.5,0.2,0.7c0.1,0.2,0.2,0.4,0.4,0.6c0.2,0.2,0.4,0.3,0.6,0.4
		c0.2,0.1,0.4,0.2,0.7,0.2c0.2,0,0.3,0,0.5-0.1c0.3-0.1,0.6-0.2,0.8-0.5c0.1-0.1,0.2-0.2,0.3-0.4c0.2-0.3,0.2-0.6,0.2-0.9
		c0-0.3,0-0.5,0-0.8c0-0.2,0-0.5-0.2-0.7c-0.1-0.2-0.2-0.4-0.4-0.6c-0.2-0.2-0.4-0.3-0.6-0.4c-0.2-0.1-0.4-0.2-0.7-0.2
		c-0.2,0-0.3,0-0.5,0.1c-0.3,0.1-0.6,0.2-0.8,0.5c-0.1,0.1-0.2,0.2-0.3,0.4C30.7,26.8,30.6,27.1,30.6,27.4L30.6,27.4z"/>
</g>
<g>
	<path class="st1" d="M41.5,28.7c-0.1,0.1-0.1,0.2-0.2,0.3c0.1-0.1,0.2-0.2,0.3-0.4c-0.1,0.2-0.3,0.3-0.5,0.4
		C41.3,29,41.4,28.9,41.5,28.7c0,0.1-0.1,0.1-0.1,0.2c-0.2,0.1-0.4,0.3-0.5,0.5c-0.2,0.2-0.3,0.4-0.3,0.6c-0.1,0.2-0.1,0.5,0,0.7
		c0,0.2,0.1,0.5,0.2,0.7c0.1,0.1,0.2,0.2,0.3,0.4c0.2,0.2,0.5,0.4,0.8,0.5c0.2,0,0.3,0,0.5,0.1c0.3,0,0.6-0.1,0.9-0.2
		c0,0,0.1-0.1,0.1-0.1c0.2-0.1,0.3-0.2,0.5-0.4c0.1-0.1,0.1-0.1,0.2-0.2c0.2-0.2,0.3-0.4,0.5-0.6c0.1-0.1,0.1-0.2,0.2-0.2
		c0.1-0.2,0.2-0.4,0.2-0.7c0.1-0.2,0-0.5,0-0.7c-0.1-0.2-0.2-0.4-0.3-0.6c-0.1-0.2-0.3-0.4-0.5-0.5c-0.1-0.1-0.3-0.1-0.4-0.2
		c-0.3-0.1-0.6-0.1-1,0c-0.1,0.1-0.3,0.1-0.4,0.2C41.9,28.3,41.7,28.5,41.5,28.7L41.5,28.7z"/>
</g>
<g>
	<path class="st1" d="M48.2,28c-0.2,0.8-0.4,1.6-0.6,2.4c-0.1,0.5-0.1,1,0.2,1.4c0.1,0.2,0.3,0.4,0.5,0.5c0.2,0.2,0.4,0.3,0.6,0.3
		c0.5,0.1,1,0.1,1.4-0.2c0.4-0.3,0.7-0.6,0.8-1.1c0.2-0.8,0.4-1.6,0.6-2.4c0.1-0.5,0.1-1-0.2-1.4c-0.1-0.2-0.3-0.4-0.5-0.5
		c-0.2-0.2-0.4-0.3-0.6-0.3c-0.5-0.1-1-0.1-1.4,0.2C48.7,27.2,48.3,27.5,48.2,28L48.2,28z"/>
</g>
<g>
	<path class="st2" d="M42.2,24.6c0,0.3-0.1,0.6-0.2,0.9c0.1-0.1,0.1-0.3,0.2-0.4c-0.1,0.3-0.3,0.6-0.5,0.9c0.1-0.1,0.2-0.2,0.3-0.4
		c-0.2,0.3-0.5,0.6-0.8,0.8c0.1-0.1,0.2-0.2,0.4-0.3c0,0-0.1,0.1-0.1,0.1c-0.2,0.1-0.4,0.3-0.5,0.5c-0.2,0.2-0.3,0.4-0.3,0.6
		c-0.1,0.2-0.1,0.5,0,0.7c0,0.2,0.1,0.5,0.2,0.7c0.2,0.4,0.6,0.7,1.1,0.8c0.4,0.1,1,0.1,1.4-0.2c0.4-0.3,0.7-0.5,1-0.8
		c0.3-0.3,0.6-0.7,0.8-1c0.2-0.4,0.4-0.7,0.5-1.1c0.1-0.3,0.2-0.5,0.2-0.8c0.1-0.2,0.1-0.5,0-0.7c0-0.2-0.1-0.5-0.2-0.7
		c-0.2-0.4-0.6-0.7-1.1-0.8c-0.5-0.1-1-0.1-1.4,0.2C42.7,23.7,42.3,24.1,42.2,24.6L42.2,24.6z"/>
</g>
<g>
	<path class="st3" d="M38.1,29.6c-0.6,0.4-1.2,0.7-1.7,1.1c-0.2,0.1-0.4,0.3-0.5,0.5c-0.2,0.2-0.3,0.4-0.3,0.6
		c-0.1,0.2-0.1,0.5,0,0.7c0,0.2,0.1,0.5,0.2,0.7c0.1,0.1,0.2,0.2,0.3,0.4c0.2,0.2,0.5,0.4,0.8,0.5c0.2,0,0.3,0,0.5,0.1
		c0.3,0,0.6-0.1,0.9-0.2c0.6-0.4,1.2-0.7,1.7-1.1c0.2-0.1,0.4-0.3,0.5-0.5c0.2-0.2,0.3-0.4,0.3-0.6c0.1-0.2,0.1-0.5,0-0.7
		c0-0.2-0.1-0.5-0.2-0.7c-0.1-0.1-0.2-0.2-0.3-0.4c-0.2-0.2-0.5-0.4-0.8-0.5c-0.2,0-0.3,0-0.5-0.1C38.7,29.4,38.4,29.5,38.1,29.6
		L38.1,29.6z"/>
</g>
<g>
	<path class="st1" d="M48.1,22.6c-0.8,0-1.5-0.1-2.3-0.1c-0.2,0-0.5,0-0.7,0.2c-0.2,0.1-0.4,0.2-0.6,0.4c-0.2,0.2-0.3,0.4-0.4,0.6
		c-0.1,0.2-0.2,0.4-0.2,0.7c0,0.5,0.2,0.9,0.5,1.3c0.1,0.1,0.2,0.2,0.4,0.3c0.3,0.2,0.6,0.2,0.9,0.2c0.8,0,1.5,0.1,2.3,0.1
		c0.2,0,0.5,0,0.7-0.2c0.2-0.1,0.4-0.2,0.6-0.4c0.2-0.2,0.3-0.4,0.4-0.6c0.1-0.2,0.2-0.4,0.2-0.7c0-0.5-0.2-0.9-0.5-1.3
		c-0.1-0.1-0.2-0.2-0.4-0.3C48.7,22.7,48.4,22.6,48.1,22.6L48.1,22.6z"/>
</g>
<g>
	<path class="st0" d="M39.5,36.2c0.3,0,0.6,0.1,0.8,0.1c0.2,0.1,0.5,0.1,0.7,0c0.2,0,0.5-0.1,0.7-0.2c0.2-0.1,0.4-0.3,0.5-0.5
		c0.2-0.2,0.3-0.4,0.3-0.6c0-0.2,0-0.3,0.1-0.5c0-0.3-0.1-0.6-0.2-0.9c-0.1-0.1-0.2-0.2-0.3-0.4c-0.2-0.2-0.5-0.4-0.8-0.5
		c-0.3,0-0.6-0.1-0.8-0.1c-0.2-0.1-0.5-0.1-0.7,0c-0.2,0-0.5,0.1-0.7,0.2c-0.2,0.1-0.4,0.3-0.5,0.5c-0.2,0.2-0.3,0.4-0.3,0.6
		c0,0.2,0,0.3-0.1,0.5c0,0.3,0.1,0.6,0.2,0.9c0.1,0.1,0.2,0.2,0.3,0.4C38.9,36,39.2,36.1,39.5,36.2L39.5,36.2z"/>
</g>
<g>
	<path class="st0" d="M36.9,11.2c0.2,0.3,0.4,0.6,0.6,0.8c0.1,0.2,0.3,0.4,0.5,0.5c0.2,0.2,0.4,0.3,0.6,0.3c0.2,0.1,0.5,0.1,0.7,0
		c0.2,0,0.5-0.1,0.7-0.2c0.1-0.1,0.2-0.2,0.4-0.3c0.2-0.2,0.4-0.5,0.5-0.8c0-0.2,0-0.3,0.1-0.5c0-0.3-0.1-0.6-0.2-0.9
		c-0.2-0.3-0.4-0.6-0.6-0.8c-0.1-0.2-0.3-0.4-0.5-0.5c-0.2-0.2-0.4-0.3-0.6-0.3c-0.2-0.1-0.5-0.1-0.7,0c-0.2,0-0.5,0.1-0.7,0.2
		c-0.1,0.1-0.2,0.2-0.4,0.3c-0.2,0.2-0.4,0.5-0.5,0.8c0,0.2,0,0.3-0.1,0.5C36.6,10.6,36.7,10.9,36.9,11.2L36.9,11.2z"/>
</g>
<g>
	<path class="st0" d="M45.8,33c0,0.3,0,0.5,0,0.8c0,0.2,0,0.5,0.2,0.7c0.1,0.2,0.2,0.4,0.4,0.6c0.2,0.2,0.4,0.3,0.6,0.4
		c0.2,0.1,0.4,0.2,0.7,0.2c0.2,0,0.3,0,0.5-0.1c0.3-0.1,0.6-0.2,0.8-0.5c0.1-0.1,0.2-0.2,0.3-0.4c0.2-0.3,0.2-0.6,0.2-0.9
		c0-0.3,0-0.5,0-0.8c0-0.2,0-0.5-0.2-0.7c-0.1-0.2-0.2-0.4-0.4-0.6c-0.2-0.2-0.4-0.3-0.6-0.4c-0.2-0.1-0.4-0.2-0.7-0.2
		c-0.2,0-0.3,0-0.5,0.1c-0.3,0.1-0.6,0.2-0.8,0.5c-0.1,0.1-0.2,0.2-0.3,0.4C45.9,32.4,45.8,32.7,45.8,33L45.8,33z"/>
</g>
<g>
	<path class="st0" d="M45.6,28.7c-0.2,0.6-0.4,1.2-0.5,1.8C45,30.7,45,31,45,31.2c0,0.2,0.1,0.5,0.2,0.7c0.1,0.2,0.3,0.4,0.5,0.5
		c0.2,0.2,0.4,0.3,0.6,0.3c0.2,0,0.3,0,0.5,0.1c0.3,0,0.6-0.1,0.9-0.2c0.1-0.1,0.2-0.2,0.4-0.3c0.2-0.2,0.4-0.5,0.5-0.8
		c0.2-0.6,0.4-1.2,0.5-1.8c0.1-0.2,0.1-0.5,0-0.7c0-0.2-0.1-0.5-0.2-0.7c-0.1-0.2-0.3-0.4-0.5-0.5c-0.2-0.2-0.4-0.3-0.6-0.3
		c-0.2,0-0.3,0-0.5-0.1c-0.3,0-0.6,0.1-0.9,0.2c-0.1,0.1-0.2,0.2-0.4,0.3C45.8,28.2,45.7,28.4,45.6,28.7L45.6,28.7z"/>
</g>
<g>
	<path class="st1" d="M32.9,8c-0.2,0.8-0.4,1.6-0.6,2.4c-0.1,0.5-0.1,1,0.2,1.4c0.1,0.2,0.3,0.4,0.5,0.5c0.2,0.2,0.4,0.3,0.6,0.3
		c0.5,0.1,1,0.1,1.4-0.2c0.4-0.3,0.7-0.6,0.8-1.1c0.2-0.8,0.4-1.6,0.6-2.4c0.1-0.5,0.1-1-0.2-1.4c-0.1-0.2-0.3-0.4-0.5-0.5
		c-0.2-0.2-0.4-0.3-0.6-0.3c-0.5-0.1-1-0.1-1.4,0.2C33.4,7.2,33,7.5,32.9,8L32.9,8z"/>
</g>
<g>
	<path class="st2" d="M37.3,8.1c2.4,0,2.4-3.7,0-3.7C34.9,4.4,34.9,8.1,37.3,8.1L37.3,8.1z"/>
</g>
<g>
	<path class="st2" d="M33.4,23.2c-0.2-0.2-0.5-0.4-0.7-0.7c0.1,0.1,0.2,0.2,0.3,0.4c-0.2-0.3-0.4-0.6-0.5-0.9
		c0.1,0.1,0.1,0.3,0.2,0.4c-0.2-0.4-0.3-0.8-0.3-1.2c0,0.2,0,0.3,0.1,0.5c0,0,0-0.1,0-0.1c0-0.2,0-0.5-0.2-0.7
		c-0.1-0.2-0.2-0.4-0.4-0.6c-0.3-0.3-0.8-0.5-1.3-0.5c-0.5,0-0.9,0.2-1.3,0.5c-0.1,0.1-0.2,0.2-0.3,0.4c-0.2,0.3-0.2,0.6-0.2,0.9
		c0.1,0.4,0.1,0.9,0.2,1.3c0.1,0.4,0.3,0.8,0.5,1.2c0.2,0.4,0.5,0.7,0.7,1c0.2,0.2,0.4,0.4,0.6,0.6c0.2,0.2,0.4,0.3,0.6,0.4
		c0.2,0.1,0.4,0.2,0.7,0.2c0.4,0,1-0.2,1.3-0.5c0.3-0.3,0.5-0.8,0.5-1.3C33.9,24,33.8,23.5,33.4,23.2L33.4,23.2z"/>
</g>
<g>
	<path class="st2" d="M42.4,21.6c0.1,0.2,0.1,0.4,0.2,0.5c0.1,0.2,0.2,0.4,0.3,0.6c0.1,0.2,0.3,0.4,0.5,0.5c0.2,0.1,0.4,0.2,0.7,0.2
		c0.2,0.1,0.5,0,0.7,0c0.1-0.1,0.3-0.1,0.4-0.2c0.3-0.2,0.5-0.4,0.6-0.6c0.1-0.1,0.1-0.3,0.2-0.4c0.1-0.3,0.1-0.6,0-1
		C46,21,46,20.8,45.9,20.6c-0.1-0.2-0.2-0.4-0.3-0.6c-0.1-0.2-0.3-0.4-0.5-0.5c-0.2-0.1-0.4-0.2-0.7-0.2c-0.2-0.1-0.5,0-0.7,0
		c-0.1,0.1-0.3,0.1-0.4,0.2c-0.3,0.2-0.5,0.4-0.6,0.6c-0.1,0.1-0.1,0.3-0.2,0.4C42.3,20.9,42.3,21.2,42.4,21.6L42.4,21.6z"/>
</g>
<g>
	<path class="st3" d="M44.2,32.8c-0.6,0.3-1.3,0.5-1.9,0.8c-0.2,0.1-0.4,0.2-0.6,0.3c-0.2,0.1-0.4,0.3-0.5,0.5
		c-0.1,0.2-0.2,0.4-0.2,0.7c-0.1,0.2,0,0.5,0,0.7c0.1,0.4,0.4,0.9,0.8,1.1c0.1,0.1,0.3,0.1,0.4,0.2c0.3,0.1,0.6,0.1,1,0
		c0.6-0.3,1.3-0.5,1.9-0.8c0.2-0.1,0.4-0.2,0.6-0.3c0.2-0.1,0.4-0.3,0.5-0.5c0.1-0.2,0.2-0.4,0.2-0.7c0.1-0.2,0-0.5,0-0.7
		c-0.1-0.4-0.4-0.9-0.8-1.1c-0.1-0.1-0.3-0.1-0.4-0.2C44.8,32.8,44.5,32.8,44.2,32.8L44.2,32.8z"/>
</g>
<g>
	<path class="st1" d="M48.5,18.1C47.8,18,47,18,46.2,18c-0.2,0-0.5,0-0.7,0.2c-0.2,0.1-0.4,0.2-0.6,0.4c-0.2,0.2-0.3,0.4-0.4,0.6
		c-0.1,0.2-0.2,0.4-0.2,0.7c0,0.5,0.2,0.9,0.5,1.3c0.1,0.1,0.2,0.2,0.4,0.3c0.3,0.2,0.6,0.2,0.9,0.2c0.8,0,1.5,0.1,2.3,0.1
		c0.2,0,0.5,0,0.7-0.2c0.2-0.1,0.4-0.2,0.6-0.4c0.2-0.2,0.3-0.4,0.4-0.6c0.1-0.2,0.2-0.4,0.2-0.7c0-0.5-0.2-0.9-0.5-1.3
		c-0.1-0.1-0.2-0.2-0.4-0.3C49.1,18.2,48.8,18.1,48.5,18.1L48.5,18.1z"/>
</g>
<g>
	<path class="st0" d="M48.5,24.9c0.3,0,0.6,0.1,0.8,0.1c0.2,0.1,0.5,0.1,0.7,0c0.2,0,0.5-0.1,0.7-0.2c0.2-0.1,0.4-0.3,0.5-0.5
		c0.2-0.2,0.3-0.4,0.3-0.6c0-0.2,0-0.3,0.1-0.5c0-0.3-0.1-0.6-0.2-0.9c-0.1-0.1-0.2-0.2-0.3-0.4c-0.2-0.2-0.5-0.4-0.8-0.5
		c-0.3,0-0.6-0.1-0.8-0.1c-0.2-0.1-0.5-0.1-0.7,0c-0.2,0-0.5,0.1-0.7,0.2c-0.2,0.1-0.4,0.3-0.5,0.5c-0.2,0.2-0.3,0.4-0.3,0.6
		c0,0.2,0,0.3-0.1,0.5c0,0.3,0.1,0.6,0.2,0.9c0.1,0.1,0.2,0.2,0.3,0.4C48,24.7,48.2,24.8,48.5,24.9L48.5,24.9z"/>
</g>
<g>
	<path class="st0" d="M42.9,17.8c0.3,0,0.5,0.1,0.7,0.2c-0.1-0.1-0.3-0.1-0.4-0.2c0.2,0.1,0.4,0.2,0.6,0.4c-0.1-0.1-0.2-0.2-0.4-0.3
		c0.1,0.1,0.2,0.2,0.3,0.3c0.2,0.2,0.4,0.3,0.6,0.4c0.2,0.1,0.4,0.2,0.7,0.2c0.2,0,0.5,0,0.7-0.2c0.2-0.1,0.4-0.2,0.6-0.4
		c0.1-0.1,0.2-0.2,0.3-0.4c0.2-0.3,0.2-0.6,0.2-0.9c0-0.2,0-0.3-0.1-0.5c-0.1-0.3-0.2-0.6-0.5-0.8c-0.2-0.2-0.5-0.4-0.7-0.6
		c-0.1-0.1-0.3-0.2-0.4-0.3c-0.1-0.1-0.3-0.1-0.4-0.2c-0.1-0.1-0.3-0.1-0.4-0.2c-0.2-0.1-0.3-0.1-0.5-0.1c-0.2-0.1-0.5-0.1-0.7,0
		c-0.2,0-0.5,0.1-0.7,0.2c-0.2,0.1-0.4,0.3-0.5,0.5c-0.2,0.2-0.3,0.4-0.3,0.6c0,0.2,0,0.3-0.1,0.5c0,0.3,0.1,0.6,0.2,0.9
		c0.1,0.1,0.2,0.2,0.3,0.4C42.3,17.6,42.6,17.7,42.9,17.8L42.9,17.8z"/>
</g>
<g>
	<path class="st0" d="M40.2,7.6c0.2,0.3,0.4,0.6,0.6,0.8c0.1,0.2,0.3,0.4,0.5,0.5c0.2,0.2,0.4,0.3,0.6,0.3c0.2,0.1,0.5,0.1,0.7,0
		c0.2,0,0.5-0.1,0.7-0.2C43.4,9,43.5,9,43.7,8.9c0.2-0.2,0.4-0.5,0.5-0.8c0-0.2,0-0.3,0.1-0.5c0-0.3-0.1-0.6-0.2-0.9
		c-0.2-0.3-0.4-0.6-0.6-0.8c-0.1-0.2-0.3-0.4-0.5-0.5c-0.2-0.2-0.4-0.3-0.6-0.3c-0.2-0.1-0.5-0.1-0.7,0c-0.2,0-0.5,0.1-0.7,0.2
		c-0.1,0.1-0.2,0.2-0.4,0.3C40.3,5.7,40.1,6,40,6.3c0,0.2,0,0.3-0.1,0.5C40,7.1,40.1,7.4,40.2,7.6L40.2,7.6z"/>
</g>
<g>
	<path class="st1" d="M37,12.8c0,0,0,0.1-0.1,0.1c0.1-0.1,0.1-0.3,0.2-0.4c-0.1,0.2-0.2,0.4-0.3,0.5c0.1-0.1,0.2-0.2,0.3-0.4
		c-0.1,0.1-0.2,0.2-0.3,0.3c-0.2,0.2-0.3,0.4-0.4,0.6c-0.1,0.2-0.2,0.4-0.2,0.7c0,0.2,0,0.5,0.2,0.7c0.1,0.2,0.2,0.4,0.4,0.6
		c0.1,0.1,0.2,0.2,0.4,0.3c0.3,0.2,0.6,0.2,0.9,0.2c0.2,0,0.3,0,0.5-0.1c0.3-0.1,0.6-0.2,0.8-0.5c0.1-0.1,0.1-0.1,0.2-0.2
		c0.2-0.2,0.3-0.4,0.4-0.6c0.1-0.1,0.1-0.2,0.1-0.2c0.1-0.1,0.1-0.2,0.1-0.3c0-0.1,0.1-0.2,0.1-0.3c0.1-0.2,0.1-0.5,0-0.7
		c0-0.2-0.1-0.5-0.2-0.7c-0.1-0.2-0.3-0.4-0.5-0.5c-0.2-0.2-0.4-0.3-0.6-0.3c-0.2,0-0.3,0-0.5-0.1c-0.3,0-0.6,0.1-0.9,0.2
		c-0.1,0.1-0.2,0.2-0.4,0.3C37.2,12.3,37.1,12.5,37,12.8L37,12.8z"/>
</g>
<g>
	<path class="st1" d="M38.2,22.9c-0.2,0.8-0.4,1.6-0.6,2.4c-0.1,0.5-0.1,1,0.2,1.4c0.1,0.2,0.3,0.4,0.5,0.5c0.2,0.2,0.4,0.3,0.6,0.3
		c0.5,0.1,1,0.1,1.4-0.2c0.4-0.3,0.7-0.6,0.8-1.1c0.2-0.8,0.4-1.6,0.6-2.4c0.1-0.5,0.1-1-0.2-1.4c-0.1-0.2-0.3-0.4-0.5-0.5
		c-0.2-0.2-0.4-0.3-0.6-0.3c-0.5-0.1-1-0.1-1.4,0.2C38.6,22,38.3,22.4,38.2,22.9L38.2,22.9z"/>
</g>
<g>
	<path class="st2" d="M39.8,17.2c2.4,0,2.4-3.7,0-3.7C37.4,13.6,37.4,17.2,39.8,17.2L39.8,17.2z"/>
</g>
<g>
	<path class="st2" d="M37.7,20.9c0.1,0.2,0.1,0.4,0.2,0.5c0.1,0.2,0.2,0.4,0.3,0.6c0.1,0.2,0.3,0.4,0.5,0.5c0.2,0.1,0.4,0.2,0.7,0.2
		c0.2,0.1,0.5,0,0.7,0c0.1-0.1,0.3-0.1,0.4-0.2c0.3-0.2,0.5-0.4,0.6-0.6c0.1-0.1,0.1-0.3,0.2-0.4c0.1-0.3,0.1-0.6,0-1
		c-0.1-0.2-0.1-0.4-0.2-0.5c-0.1-0.2-0.2-0.4-0.3-0.6c-0.1-0.2-0.3-0.4-0.5-0.5c-0.2-0.1-0.4-0.2-0.7-0.2c-0.2-0.1-0.5,0-0.7,0
		c-0.1,0.1-0.3,0.1-0.4,0.2c-0.3,0.2-0.5,0.4-0.6,0.6c-0.1,0.1-0.1,0.3-0.2,0.4C37.7,20.3,37.7,20.6,37.7,20.9L37.7,20.9z"/>
</g>
<g>
	<path class="st3" d="M35.8,14.7c-0.6,0.3-1.3,0.5-1.9,0.8c-0.2,0.1-0.4,0.2-0.6,0.3c-0.2,0.1-0.4,0.3-0.5,0.5
		c-0.1,0.2-0.2,0.4-0.2,0.7c-0.1,0.2,0,0.5,0,0.7c0.1,0.4,0.4,0.9,0.8,1.1c0.1,0.1,0.3,0.1,0.4,0.2c0.3,0.1,0.6,0.1,1,0
		c0.6-0.3,1.3-0.5,1.9-0.8c0.2-0.1,0.4-0.2,0.6-0.3c0.2-0.1,0.4-0.3,0.5-0.5c0.1-0.2,0.2-0.4,0.2-0.7c0.1-0.2,0-0.5,0-0.7
		c-0.1-0.4-0.4-0.9-0.8-1.1c-0.1-0.1-0.3-0.1-0.4-0.2C36.4,14.6,36.1,14.6,35.8,14.7L35.8,14.7z"/>
</g>
<g>
	<path class="st0" d="M36.3,24c0.3,0,0.6,0,0.8,0c0.2,0,0.5,0,0.7-0.2c0.2-0.1,0.4-0.2,0.6-0.4c0.2-0.2,0.3-0.4,0.4-0.6
		c0.1-0.2,0.2-0.4,0.2-0.7c0-0.2,0-0.3-0.1-0.5c-0.1-0.3-0.2-0.6-0.5-0.8c-0.1-0.1-0.2-0.2-0.4-0.3c-0.3-0.2-0.6-0.2-0.9-0.2
		c-0.3,0-0.6,0-0.8,0c-0.2,0-0.5,0-0.7,0.2c-0.2,0.1-0.4,0.2-0.6,0.4c-0.2,0.2-0.3,0.4-0.4,0.6c-0.1,0.2-0.2,0.4-0.2,0.7
		c0,0.2,0,0.3,0.1,0.5c0.1,0.3,0.2,0.6,0.5,0.8c0.1,0.1,0.2,0.2,0.4,0.3C35.7,23.9,36,24,36.3,24L36.3,24z"/>
</g>
<g>
	<path class="st0" d="M31.5,15.5c0.3,0.2,0.5,0.5,0.8,0.7c0.2,0.2,0.4,0.3,0.6,0.4c0.2,0.1,0.4,0.2,0.7,0.2c0.2,0,0.5,0,0.7-0.2
		c0.2-0.1,0.4-0.2,0.6-0.4c0.1-0.1,0.2-0.2,0.3-0.4c0.2-0.3,0.2-0.6,0.2-0.9c0-0.2,0-0.3-0.1-0.5c-0.1-0.3-0.2-0.6-0.5-0.8
		c-0.3-0.2-0.5-0.5-0.8-0.7c-0.2-0.2-0.4-0.3-0.6-0.4c-0.2-0.1-0.4-0.2-0.7-0.2c-0.2,0-0.5,0-0.7,0.2c-0.2,0.1-0.4,0.2-0.6,0.4
		c-0.1,0.1-0.2,0.2-0.3,0.4c-0.2,0.3-0.2,0.6-0.2,0.9c0,0.2,0,0.3,0.1,0.5C31.2,15,31.3,15.3,31.5,15.5L31.5,15.5z"/>
</g>
<g>
	<path class="st0" d="M41.8,3.1c0,0.3,0,0.5,0.1,0.8c0,0.2,0,0.5,0.1,0.7c0.1,0.2,0.2,0.4,0.4,0.6c0.2,0.2,0.3,0.3,0.6,0.4
		c0.2,0.1,0.4,0.2,0.7,0.1c0.2,0,0.3,0,0.5-0.1c0.3-0.1,0.5-0.2,0.8-0.4c0.1-0.1,0.2-0.2,0.3-0.3c0.2-0.3,0.2-0.6,0.2-0.9
		c0-0.3,0-0.5-0.1-0.8c0-0.2,0-0.5-0.1-0.7C45,2.2,44.9,2,44.8,1.9c-0.2-0.2-0.3-0.3-0.6-0.4c-0.2-0.1-0.4-0.2-0.7-0.1
		c-0.2,0-0.3,0-0.5,0.1c-0.3,0.1-0.5,0.2-0.8,0.4c-0.1,0.1-0.2,0.2-0.3,0.3C41.9,2.5,41.8,2.8,41.8,3.1L41.8,3.1z"/>
</g>
<g>
	<path class="st1" d="M32.4,17.9c-0.4,0.3-0.7,0.5-1.1,0.8c-0.2,0.1-0.4,0.3-0.5,0.5c-0.2,0.2-0.3,0.4-0.3,0.6
		c-0.1,0.2-0.1,0.5,0,0.7c0,0.2,0.1,0.5,0.2,0.7c0.1,0.1,0.2,0.2,0.3,0.4c0.2,0.2,0.5,0.4,0.8,0.5c0.2,0,0.3,0,0.5,0.1
		c0.3,0,0.6-0.1,0.9-0.2c0.4-0.3,0.7-0.5,1.1-0.8c0.2-0.1,0.4-0.3,0.5-0.5c0.2-0.2,0.3-0.4,0.3-0.6c0.1-0.2,0.1-0.5,0-0.7
		c0-0.2-0.1-0.5-0.2-0.7c-0.1-0.1-0.2-0.2-0.3-0.4c-0.2-0.2-0.5-0.4-0.8-0.5c-0.2,0-0.3,0-0.5-0.1C33,17.7,32.7,17.8,32.4,17.9
		L32.4,17.9z"/>
</g>
<g>
	<path class="st1" d="M38.9,2.3c-0.1,0.1-0.1,0.2-0.2,0.3c0.1-0.1,0.2-0.2,0.3-0.4c-0.1,0.2-0.3,0.3-0.5,0.4
		C38.6,2.6,38.7,2.5,38.9,2.3c0,0.1-0.1,0.1-0.1,0.2c-0.2,0.1-0.4,0.3-0.5,0.5c-0.2,0.2-0.3,0.4-0.3,0.6c-0.1,0.2-0.1,0.5,0,0.7
		c0,0.2,0.1,0.5,0.2,0.7c0.1,0.1,0.2,0.2,0.3,0.4c0.2,0.2,0.5,0.4,0.8,0.5c0.2,0,0.3,0,0.5,0.1c0.3,0,0.6-0.1,0.9-0.2
		c0,0,0.1-0.1,0.1-0.1c0.2-0.1,0.3-0.2,0.5-0.4C41.2,5.1,41.3,5,41.3,5c0.2-0.2,0.3-0.4,0.5-0.6c0.1-0.1,0.1-0.2,0.2-0.2
		c0.1-0.2,0.2-0.4,0.2-0.7c0.1-0.2,0-0.5,0-0.7c-0.1-0.2-0.2-0.4-0.3-0.6c-0.1-0.2-0.3-0.4-0.5-0.5c-0.1-0.1-0.3-0.1-0.4-0.2
		c-0.3-0.1-0.6-0.1-1,0c-0.1,0.1-0.3,0.1-0.4,0.2C39.2,1.9,39,2.1,38.9,2.3L38.9,2.3z"/>
</g>
<g>
	<path class="st2" d="M50.4,5.3c2.4,0,2.4-3.7,0-3.7C48,1.7,48,5.3,50.4,5.3L50.4,5.3z"/>
</g>
<g>
	<path class="st2" d="M35,27.2c0,0.3-0.1,0.6-0.2,0.9c0.1-0.1,0.1-0.3,0.2-0.4c-0.1,0.3-0.3,0.6-0.5,0.9c0.1-0.1,0.2-0.2,0.3-0.4
		c-0.2,0.3-0.5,0.6-0.8,0.8c0.1-0.1,0.2-0.2,0.4-0.3c0,0-0.1,0.1-0.1,0.1c-0.2,0.1-0.4,0.3-0.5,0.5c-0.2,0.2-0.3,0.4-0.3,0.6
		c-0.1,0.2-0.1,0.5,0,0.7c0,0.2,0.1,0.5,0.2,0.7c0.2,0.4,0.6,0.7,1.1,0.8c0.4,0.1,1,0.1,1.4-0.2c0.4-0.3,0.7-0.5,1-0.8
		c0.3-0.3,0.6-0.7,0.8-1c0.2-0.4,0.4-0.7,0.5-1.1c0.1-0.3,0.2-0.5,0.2-0.8c0.1-0.2,0.1-0.5,0-0.7c0-0.2-0.1-0.5-0.2-0.7
		c-0.2-0.4-0.6-0.7-1.1-0.8c-0.5-0.1-1-0.1-1.4,0.2C35.4,26.3,35.1,26.7,35,27.2L35,27.2z"/>
</g>
<g>
	<path class="st2" d="M33.5,34.3c0.1,0.2,0.1,0.4,0.2,0.5c0.1,0.2,0.2,0.4,0.3,0.6c0.1,0.2,0.3,0.4,0.5,0.5c0.2,0.1,0.4,0.2,0.7,0.2
		c0.2,0.1,0.5,0,0.7,0c0.1-0.1,0.3-0.1,0.4-0.2c0.3-0.2,0.5-0.4,0.6-0.6c0.1-0.1,0.1-0.3,0.2-0.4c0.1-0.3,0.1-0.6,0-1
		c-0.1-0.2-0.1-0.4-0.2-0.5c-0.1-0.2-0.2-0.4-0.3-0.6c-0.1-0.2-0.3-0.4-0.5-0.5c-0.2-0.1-0.4-0.2-0.7-0.2c-0.2-0.1-0.5,0-0.7,0
		c-0.1,0.1-0.3,0.1-0.4,0.2c-0.3,0.2-0.5,0.4-0.6,0.6c-0.1,0.1-0.1,0.3-0.2,0.4C33.4,33.7,33.4,34,33.5,34.3L33.5,34.3z"/>
</g>
<g>
	<path class="st1" d="M46.8,1.4c-0.4,0.3-0.7,0.5-1.1,0.8c-0.2,0.1-0.4,0.3-0.5,0.5C45,2.8,44.9,3,44.8,3.2c-0.1,0.2-0.1,0.5,0,0.7
		c0,0.2,0.1,0.5,0.2,0.7c0.1,0.1,0.2,0.2,0.3,0.4c0.2,0.2,0.5,0.4,0.8,0.5c0.2,0,0.3,0,0.5,0.1c0.3,0,0.6-0.1,0.9-0.2
		c0.4-0.3,0.7-0.5,1.1-0.8c0.2-0.1,0.4-0.3,0.5-0.5c0.2-0.2,0.3-0.4,0.3-0.6c0.1-0.2,0.1-0.5,0-0.7c0-0.2-0.1-0.5-0.2-0.7
		c-0.1-0.1-0.2-0.2-0.3-0.4c-0.2-0.2-0.5-0.4-0.8-0.5c-0.2,0-0.3,0-0.5-0.1C47.3,1.1,47,1.2,46.8,1.4L46.8,1.4z"/>
</g>
<g>
	<path class="st0" d="M5.3,34.3c0.3,0,0.5,0.1,0.7,0.2c-0.1-0.1-0.3-0.1-0.4-0.2c0.2,0.1,0.4,0.2,0.6,0.4c-0.1-0.1-0.2-0.2-0.4-0.3
		c0.1,0.1,0.2,0.2,0.3,0.3c0.2,0.2,0.4,0.3,0.6,0.4c0.2,0.1,0.4,0.2,0.7,0.2c0.2,0,0.5,0,0.7-0.2c0.2-0.1,0.4-0.2,0.6-0.4
		c0.1-0.1,0.2-0.2,0.3-0.4c0.2-0.3,0.2-0.6,0.2-0.9c0-0.2,0-0.3-0.1-0.5c-0.1-0.3-0.2-0.6-0.5-0.8c-0.2-0.2-0.5-0.4-0.7-0.6
		c-0.1-0.1-0.3-0.2-0.4-0.3c-0.1-0.1-0.3-0.1-0.4-0.2c-0.1-0.1-0.3-0.1-0.4-0.2c-0.2-0.1-0.3-0.1-0.5-0.1c-0.2-0.1-0.5-0.1-0.7,0
		c-0.2,0-0.5,0.1-0.7,0.2c-0.2,0.1-0.4,0.3-0.5,0.5c-0.2,0.2-0.3,0.4-0.3,0.6c0,0.2,0,0.3-0.1,0.5c0,0.3,0.1,0.6,0.2,0.9
		c0.1,0.1,0.2,0.2,0.3,0.4C4.7,34,5,34.2,5.3,34.3L5.3,34.3z"/>
</g>
<g>
	<path class="st0" d="M21.6,27.4c0,0.3,0,0.5,0,0.8c0,0.2,0,0.5,0.2,0.7c0.1,0.2,0.2,0.4,0.4,0.6c0.2,0.2,0.4,0.3,0.6,0.4
		C23,30,23.2,30,23.4,30c0.2,0,0.3,0,0.5-0.1c0.3-0.1,0.6-0.2,0.8-0.5c0.1-0.1,0.2-0.2,0.3-0.4c0.2-0.3,0.2-0.6,0.2-0.9
		c0-0.3,0-0.5,0-0.8c0-0.2,0-0.5-0.2-0.7c-0.1-0.2-0.2-0.4-0.4-0.6c-0.2-0.2-0.4-0.3-0.6-0.4c-0.2-0.1-0.4-0.2-0.7-0.2
		c-0.2,0-0.3,0-0.5,0.1c-0.3,0.1-0.6,0.2-0.8,0.5c-0.1,0.1-0.2,0.2-0.3,0.4C21.7,26.8,21.6,27.1,21.6,27.4L21.6,27.4z"/>
</g>
<g>
	<path class="st1" d="M14.6,28.7c-0.1,0.1-0.1,0.2-0.2,0.3c0.1-0.1,0.2-0.2,0.3-0.4c-0.1,0.2-0.3,0.3-0.5,0.4
		C14.3,29,14.5,28.9,14.6,28.7c0,0.1-0.1,0.1-0.1,0.2c-0.2,0.1-0.4,0.3-0.5,0.5c-0.2,0.2-0.3,0.4-0.3,0.6c-0.1,0.2-0.1,0.5,0,0.7
		c0,0.2,0.1,0.5,0.2,0.7c0.1,0.1,0.2,0.2,0.3,0.4c0.2,0.2,0.5,0.4,0.8,0.5c0.2,0,0.3,0,0.5,0.1c0.3,0,0.6-0.1,0.9-0.2
		c0,0,0.1-0.1,0.1-0.1c0.2-0.1,0.3-0.2,0.5-0.4c0.1-0.1,0.1-0.1,0.2-0.2c0.2-0.2,0.3-0.4,0.5-0.6c0.1-0.1,0.1-0.2,0.2-0.2
		c0.1-0.2,0.2-0.4,0.2-0.7c0.1-0.2,0-0.5,0-0.7c-0.1-0.2-0.2-0.4-0.3-0.6c-0.1-0.2-0.3-0.4-0.5-0.5c-0.1-0.1-0.3-0.1-0.4-0.2
		c-0.3-0.1-0.6-0.1-1,0c-0.1,0.1-0.3,0.1-0.4,0.2C14.9,28.3,14.7,28.5,14.6,28.7L14.6,28.7z"/>
</g>
<g>
	<path class="st1" d="M3,26.8c-0.2,0.8-0.4,1.6-0.6,2.4c-0.1,0.5-0.1,1,0.2,1.4C2.7,30.8,2.8,31,3,31.1c0.2,0.2,0.4,0.3,0.6,0.3
		c0.5,0.1,1,0.1,1.4-0.2c0.4-0.3,0.7-0.6,0.8-1.1c0.2-0.8,0.4-1.6,0.6-2.4c0.1-0.5,0.1-1-0.2-1.4C6.2,26.2,6,26,5.8,25.9
		c-0.2-0.2-0.4-0.3-0.6-0.3c-0.5-0.1-1-0.1-1.4,0.2C3.4,26,3.1,26.3,3,26.8L3,26.8z"/>
</g>
<g>
	<path class="st2" d="M15.3,24.6c0,0.3-0.1,0.6-0.2,0.9c0.1-0.1,0.1-0.3,0.2-0.4c-0.1,0.3-0.3,0.6-0.5,0.9c0.1-0.1,0.2-0.2,0.3-0.4
		c-0.2,0.3-0.5,0.6-0.8,0.8c0.1-0.1,0.2-0.2,0.4-0.3c0,0-0.1,0.1-0.1,0.1c-0.2,0.1-0.4,0.3-0.5,0.5c-0.2,0.2-0.3,0.4-0.3,0.6
		c-0.1,0.2-0.1,0.5,0,0.7c0,0.2,0.1,0.5,0.2,0.7c0.2,0.4,0.6,0.7,1.1,0.8c0.4,0.1,1,0.1,1.4-0.2c0.4-0.3,0.7-0.5,1-0.8
		c0.3-0.3,0.6-0.7,0.8-1c0.2-0.4,0.4-0.7,0.5-1.1c0.1-0.3,0.2-0.5,0.2-0.8c0.1-0.2,0.1-0.5,0-0.7c0-0.2-0.1-0.5-0.2-0.7
		c-0.2-0.4-0.6-0.7-1.1-0.8c-0.5-0.1-1-0.1-1.4,0.2C15.7,23.7,15.3,24.1,15.3,24.6L15.3,24.6z"/>
</g>
<g>
	<path class="st3" d="M9.3,27.6c-0.6,0.4-1.2,0.7-1.7,1.1c-0.2,0.1-0.4,0.3-0.5,0.5c-0.2,0.2-0.3,0.4-0.3,0.6
		c-0.1,0.2-0.1,0.5,0,0.7c0,0.2,0.1,0.5,0.2,0.7c0.1,0.1,0.2,0.2,0.3,0.4C7.4,31.7,7.7,31.9,8,32c0.2,0,0.3,0,0.5,0.1
		c0.3,0,0.6-0.1,0.9-0.2c0.6-0.4,1.2-0.7,1.7-1.1c0.2-0.1,0.4-0.3,0.5-0.5c0.2-0.2,0.3-0.4,0.3-0.6c0.1-0.2,0.1-0.5,0-0.7
		c0-0.2-0.1-0.5-0.2-0.7c-0.1-0.1-0.2-0.2-0.3-0.4c-0.2-0.2-0.5-0.4-0.8-0.5c-0.2,0-0.3,0-0.5-0.1C9.9,27.4,9.6,27.4,9.3,27.6
		L9.3,27.6z"/>
</g>
<g>
	<path class="st1" d="M21.2,22.6c-0.8,0-1.5-0.1-2.3-0.1c-0.2,0-0.5,0-0.7,0.2c-0.2,0.1-0.4,0.2-0.6,0.4c-0.2,0.2-0.3,0.4-0.4,0.6
		c-0.1,0.2-0.2,0.4-0.2,0.7c0,0.5,0.2,0.9,0.5,1.3c0.1,0.1,0.2,0.2,0.4,0.3c0.3,0.2,0.6,0.2,0.9,0.2c0.8,0,1.5,0.1,2.3,0.1
		c0.2,0,0.5,0,0.7-0.2c0.2-0.1,0.4-0.2,0.6-0.4c0.2-0.2,0.3-0.4,0.4-0.6c0.1-0.2,0.2-0.4,0.2-0.7c0-0.5-0.2-0.9-0.5-1.3
		c-0.1-0.1-0.2-0.2-0.4-0.3C21.8,22.7,21.5,22.6,21.2,22.6L21.2,22.6z"/>
</g>
<g>
	<path class="st0" d="M16.1,36.6c0.3,0,0.6,0.1,0.8,0.1c0.2,0.1,0.5,0.1,0.7,0c0.2,0,0.5-0.1,0.7-0.2c0.2-0.1,0.4-0.3,0.5-0.5
		c0.2-0.2,0.3-0.4,0.3-0.6c0-0.2,0-0.3,0.1-0.5c0-0.3-0.1-0.6-0.2-0.9c-0.1-0.1-0.2-0.2-0.3-0.4c-0.2-0.2-0.5-0.4-0.8-0.5
		c-0.3,0-0.6-0.1-0.8-0.1c-0.2-0.1-0.5-0.1-0.7,0c-0.2,0-0.5,0.1-0.7,0.2c-0.2,0.1-0.4,0.3-0.5,0.5c-0.2,0.2-0.3,0.4-0.3,0.6
		c0,0.2,0,0.3-0.1,0.5c0,0.3,0.1,0.6,0.2,0.9c0.1,0.1,0.2,0.2,0.3,0.4C15.5,36.4,15.8,36.5,16.1,36.6L16.1,36.6z"/>
</g>
<g>
	<path class="st0" d="M9.9,11.2c0.2,0.3,0.4,0.6,0.6,0.8c0.1,0.2,0.3,0.4,0.5,0.5c0.2,0.2,0.4,0.3,0.6,0.3c0.2,0.1,0.5,0.1,0.7,0
		c0.2,0,0.5-0.1,0.7-0.2c0.1-0.1,0.2-0.2,0.4-0.3c0.2-0.2,0.4-0.5,0.5-0.8c0-0.2,0-0.3,0.1-0.5c0-0.3-0.1-0.6-0.2-0.9
		c-0.2-0.3-0.4-0.6-0.6-0.8c-0.1-0.2-0.3-0.4-0.5-0.5c-0.2-0.2-0.4-0.3-0.6-0.3c-0.2-0.1-0.5-0.1-0.7,0c-0.2,0-0.5,0.1-0.7,0.2
		c-0.1,0.1-0.2,0.2-0.4,0.3C10,9.2,9.8,9.5,9.7,9.8c0,0.2,0,0.3-0.1,0.5C9.7,10.6,9.8,10.9,9.9,11.2L9.9,11.2z"/>
</g>
<g>
	<path class="st0" d="M18.9,33c0,0.3,0,0.5,0,0.8c0,0.2,0,0.5,0.2,0.7c0.1,0.2,0.2,0.4,0.4,0.6c0.2,0.2,0.4,0.3,0.6,0.4
		c0.2,0.1,0.4,0.2,0.7,0.2c0.2,0,0.3,0,0.5-0.1c0.3-0.1,0.6-0.2,0.8-0.5c0.1-0.1,0.2-0.2,0.3-0.4c0.2-0.3,0.2-0.6,0.2-0.9
		c0-0.3,0-0.5,0-0.8c0-0.2,0-0.5-0.2-0.7c-0.1-0.2-0.2-0.4-0.4-0.6c-0.2-0.2-0.4-0.3-0.6-0.4c-0.2-0.1-0.4-0.2-0.7-0.2
		c-0.2,0-0.3,0-0.5,0.1c-0.3,0.1-0.6,0.2-0.8,0.5c-0.1,0.1-0.2,0.2-0.3,0.4C19,32.4,18.9,32.7,18.9,33L18.9,33z"/>
</g>
<g>
	<path class="st0" d="M18.7,28.7c-0.2,0.6-0.4,1.2-0.5,1.8c-0.1,0.2-0.1,0.5,0,0.7c0,0.2,0.1,0.5,0.2,0.7c0.1,0.2,0.3,0.4,0.5,0.5
		c0.2,0.2,0.4,0.3,0.6,0.3c0.2,0,0.3,0,0.5,0.1c0.3,0,0.6-0.1,0.9-0.2c0.1-0.1,0.2-0.2,0.4-0.3c0.2-0.2,0.4-0.5,0.5-0.8
		c0.2-0.6,0.4-1.2,0.5-1.8c0.1-0.2,0.1-0.5,0-0.7c0-0.2-0.1-0.5-0.2-0.7c-0.1-0.2-0.3-0.4-0.5-0.5c-0.2-0.2-0.4-0.3-0.6-0.3
		c-0.2,0-0.3,0-0.5-0.1c-0.3,0-0.6,0.1-0.9,0.2c-0.1,0.1-0.2,0.2-0.4,0.3C18.9,28.2,18.8,28.4,18.7,28.7L18.7,28.7z"/>
</g>
<g>
	<path class="st1" d="M6,8c-0.2,0.8-0.4,1.6-0.6,2.4c-0.1,0.5-0.1,1,0.2,1.4C5.7,12,5.8,12.2,6,12.3c0.2,0.2,0.4,0.3,0.6,0.3
		c0.5,0.1,1,0.1,1.4-0.2c0.4-0.3,0.7-0.6,0.8-1.1C9,10.6,9.2,9.8,9.4,9c0.1-0.5,0.1-1-0.2-1.4C9.2,7.4,9,7.2,8.8,7.1
		C8.6,6.9,8.4,6.8,8.2,6.7c-0.5-0.1-1-0.1-1.4,0.2C6.4,7.2,6.1,7.5,6,8L6,8z"/>
</g>
<g>
	<path class="st2" d="M10.3,8.1c2.4,0,2.4-3.7,0-3.7C8,4.4,8,8.1,10.3,8.1L10.3,8.1z"/>
</g>
<g>
	<path class="st2" d="M6.4,23.2C6.2,23,6,22.8,5.8,22.5c0.1,0.1,0.2,0.2,0.3,0.4c-0.2-0.3-0.4-0.6-0.5-0.9c0.1,0.1,0.1,0.3,0.2,0.4
		c-0.2-0.4-0.3-0.8-0.3-1.2c0,0.2,0,0.3,0.1,0.5c0,0,0-0.1,0-0.1c0-0.2,0-0.5-0.2-0.7c-0.1-0.2-0.2-0.4-0.4-0.6
		c-0.3-0.3-0.8-0.5-1.3-0.5c-0.5,0-0.9,0.2-1.3,0.5c-0.1,0.1-0.2,0.2-0.3,0.4c-0.2,0.3-0.2,0.6-0.2,0.9c0.1,0.4,0.1,0.9,0.2,1.3
		c0.1,0.4,0.3,0.8,0.5,1.2c0.2,0.4,0.5,0.7,0.7,1c0.2,0.2,0.4,0.4,0.6,0.6c0.2,0.2,0.4,0.3,0.6,0.4c0.2,0.1,0.4,0.2,0.7,0.2
		c0.4,0,1-0.2,1.3-0.5C6.8,25.4,7,24.9,7,24.5C7,24,6.8,23.5,6.4,23.2L6.4,23.2z"/>
</g>
<g>
	<path class="st2" d="M15.5,21.6c0.1,0.2,0.1,0.4,0.2,0.5c0.1,0.2,0.2,0.4,0.3,0.6c0.1,0.2,0.3,0.4,0.5,0.5c0.2,0.1,0.4,0.2,0.7,0.2
		c0.2,0.1,0.5,0,0.7,0c0.1-0.1,0.3-0.1,0.4-0.2c0.3-0.2,0.5-0.4,0.6-0.6c0.1-0.1,0.1-0.3,0.2-0.4c0.1-0.3,0.1-0.6,0-1
		C19.1,21,19,20.8,19,20.6c-0.1-0.2-0.2-0.4-0.3-0.6c-0.1-0.2-0.3-0.4-0.5-0.5c-0.2-0.1-0.4-0.2-0.7-0.2c-0.2-0.1-0.5,0-0.7,0
		c-0.1,0.1-0.3,0.1-0.4,0.2c-0.3,0.2-0.5,0.4-0.6,0.6c-0.1,0.1-0.1,0.3-0.2,0.4C15.4,20.9,15.4,21.2,15.5,21.6L15.5,21.6z"/>
</g>
<g>
	<path class="st3" d="M15.2,18.2c-0.6,0.3-1.3,0.5-1.9,0.8c-0.2,0.1-0.4,0.2-0.6,0.3c-0.2,0.1-0.4,0.3-0.5,0.5
		C12.1,20,12,20.2,12,20.4c-0.1,0.2,0,0.5,0,0.7c0.1,0.4,0.4,0.9,0.8,1.1c0.1,0.1,0.3,0.1,0.4,0.2c0.3,0.1,0.6,0.1,1,0
		c0.6-0.3,1.3-0.5,1.9-0.8c0.2-0.1,0.4-0.2,0.6-0.3c0.2-0.1,0.4-0.3,0.5-0.5c0.1-0.2,0.2-0.4,0.2-0.7c0.1-0.2,0-0.5,0-0.7
		c-0.1-0.4-0.4-0.9-0.8-1.1c-0.1-0.1-0.3-0.1-0.4-0.2C15.8,18.1,15.5,18.1,15.2,18.2L15.2,18.2z"/>
</g>
<g>
	<path class="st1" d="M11.5,22.6c-0.8,0-1.5-0.1-2.3-0.1c-0.2,0-0.5,0-0.7,0.2c-0.2,0.1-0.4,0.2-0.6,0.4c-0.2,0.2-0.3,0.4-0.4,0.6
		c-0.1,0.2-0.2,0.4-0.2,0.7c0,0.5,0.2,0.9,0.5,1.3c0.1,0.1,0.2,0.2,0.4,0.3c0.3,0.2,0.6,0.2,0.9,0.2c0.8,0,1.5,0.1,2.3,0.1
		c0.2,0,0.5,0,0.7-0.2c0.2-0.1,0.4-0.2,0.6-0.4c0.2-0.2,0.3-0.4,0.4-0.6c0.1-0.2,0.2-0.4,0.2-0.7c0-0.5-0.2-0.9-0.5-1.3
		c-0.1-0.1-0.2-0.2-0.4-0.3C12.1,22.7,11.8,22.6,11.5,22.6L11.5,22.6z"/>
</g>
<g>
	<path class="st0" d="M21.6,24.9c0.3,0,0.6,0.1,0.8,0.1c0.2,0.1,0.5,0.1,0.7,0c0.2,0,0.5-0.1,0.7-0.2c0.2-0.1,0.4-0.3,0.5-0.5
		c0.2-0.2,0.3-0.4,0.3-0.6c0-0.2,0-0.3,0.1-0.5c0-0.3-0.1-0.6-0.2-0.9c-0.1-0.1-0.2-0.2-0.3-0.4c-0.2-0.2-0.5-0.4-0.8-0.5
		c-0.3,0-0.6-0.1-0.8-0.1c-0.2-0.1-0.5-0.1-0.7,0c-0.2,0-0.5,0.1-0.7,0.2c-0.2,0.1-0.4,0.3-0.5,0.5c-0.2,0.2-0.3,0.4-0.3,0.6
		c0,0.2,0,0.3-0.1,0.5c0,0.3,0.1,0.6,0.2,0.9c0.1,0.1,0.2,0.2,0.3,0.4C21,24.7,21.3,24.8,21.6,24.9L21.6,24.9z"/>
</g>
<g>
	<path class="st0" d="M15.9,17.8c0.3,0,0.5,0.1,0.7,0.2c-0.1-0.1-0.3-0.1-0.4-0.2c0.2,0.1,0.4,0.2,0.6,0.4c-0.1-0.1-0.2-0.2-0.4-0.3
		c0.1,0.1,0.2,0.2,0.3,0.3c0.2,0.2,0.4,0.3,0.6,0.4c0.2,0.1,0.4,0.2,0.7,0.2c0.2,0,0.5,0,0.7-0.2c0.2-0.1,0.4-0.2,0.6-0.4
		c0.1-0.1,0.2-0.2,0.3-0.4c0.2-0.3,0.2-0.6,0.2-0.9c0-0.2,0-0.3-0.1-0.5c-0.1-0.3-0.2-0.6-0.5-0.8c-0.2-0.2-0.5-0.4-0.7-0.6
		c-0.1-0.1-0.3-0.2-0.4-0.3c-0.1-0.1-0.3-0.1-0.4-0.2c-0.1-0.1-0.3-0.1-0.4-0.2c-0.2-0.1-0.3-0.1-0.5-0.1c-0.2-0.1-0.5-0.1-0.7,0
		c-0.2,0-0.5,0.1-0.7,0.2c-0.2,0.1-0.4,0.3-0.5,0.5c-0.2,0.2-0.3,0.4-0.3,0.6c0,0.2,0,0.3-0.1,0.5c0,0.3,0.1,0.6,0.2,0.9
		c0.1,0.1,0.2,0.2,0.3,0.4C15.4,17.6,15.6,17.7,15.9,17.8L15.9,17.8z"/>
</g>
<g>
	<path class="st0" d="M11.1,10.2c0.2,0.3,0.4,0.6,0.6,0.8c0.1,0.2,0.3,0.4,0.5,0.5c0.2,0.2,0.4,0.3,0.6,0.3c0.2,0.1,0.5,0.1,0.7,0
		c0.2,0,0.5-0.1,0.7-0.2c0.1-0.1,0.2-0.2,0.4-0.3c0.2-0.2,0.4-0.5,0.5-0.8c0-0.2,0-0.3,0.1-0.5c0-0.3-0.1-0.6-0.2-0.9
		c-0.2-0.3-0.4-0.6-0.6-0.8c-0.1-0.2-0.3-0.4-0.5-0.5c-0.2-0.2-0.4-0.3-0.6-0.3c-0.2-0.1-0.5-0.1-0.7,0c-0.2,0-0.5,0.1-0.7,0.2
		c-0.1,0.1-0.2,0.2-0.4,0.3c-0.2,0.2-0.4,0.5-0.5,0.8c0,0.2,0,0.3-0.1,0.5C10.8,9.6,10.9,9.9,11.1,10.2L11.1,10.2z"/>
</g>
<g>
	<path class="st1" d="M10.1,12.8c0,0,0,0.1-0.1,0.1c0.1-0.1,0.1-0.3,0.2-0.4c-0.1,0.2-0.2,0.4-0.3,0.5c0.1-0.1,0.2-0.2,0.3-0.4
		c-0.1,0.1-0.2,0.2-0.3,0.3c-0.2,0.2-0.3,0.4-0.4,0.6c-0.1,0.2-0.2,0.4-0.2,0.7c0,0.2,0,0.5,0.2,0.7c0.1,0.2,0.2,0.4,0.4,0.6
		c0.1,0.1,0.2,0.2,0.4,0.3c0.3,0.2,0.6,0.2,0.9,0.2c0.2,0,0.3,0,0.5-0.1c0.3-0.1,0.6-0.2,0.8-0.5c0.1-0.1,0.1-0.1,0.2-0.2
		c0.2-0.2,0.3-0.4,0.4-0.6c0.1-0.1,0.1-0.2,0.1-0.2c0.1-0.1,0.1-0.2,0.1-0.3c0-0.1,0.1-0.2,0.1-0.3c0.1-0.2,0.1-0.5,0-0.7
		c0-0.2-0.1-0.5-0.2-0.7c-0.1-0.2-0.3-0.4-0.5-0.5c-0.2-0.2-0.4-0.3-0.6-0.3c-0.2,0-0.3,0-0.5-0.1c-0.3,0-0.6,0.1-0.9,0.2
		c-0.1,0.1-0.2,0.2-0.4,0.3C10.3,12.3,10.1,12.5,10.1,12.8L10.1,12.8z"/>
</g>
<g>
	<path class="st1" d="M11.2,22.9c-0.2,0.8-0.4,1.6-0.6,2.4c-0.1,0.5-0.1,1,0.2,1.4c0.1,0.2,0.3,0.4,0.5,0.5c0.2,0.2,0.4,0.3,0.6,0.3
		c0.5,0.1,1,0.1,1.4-0.2c0.4-0.3,0.7-0.6,0.8-1.1c0.2-0.8,0.4-1.6,0.6-2.4c0.1-0.5,0.1-1-0.2-1.4c-0.1-0.2-0.3-0.4-0.5-0.5
		c-0.2-0.2-0.4-0.3-0.6-0.3c-0.5-0.1-1-0.1-1.4,0.2C11.7,22,11.3,22.4,11.2,22.9L11.2,22.9z"/>
</g>
<g>
	<path class="st2" d="M12.9,17.2c2.4,0,2.4-3.7,0-3.7C10.5,13.6,10.5,17.2,12.9,17.2L12.9,17.2z"/>
</g>
<g>
	<path class="st2" d="M19.3,19.7c0.1,0.2,0.1,0.4,0.2,0.5c0.1,0.2,0.2,0.4,0.3,0.6c0.1,0.2,0.3,0.4,0.5,0.5c0.2,0.1,0.4,0.2,0.7,0.2
		c0.2,0.1,0.5,0,0.7,0c0.1-0.1,0.3-0.1,0.4-0.2c0.3-0.2,0.5-0.4,0.6-0.6c0.1-0.1,0.1-0.3,0.2-0.4c0.1-0.3,0.1-0.6,0-1
		c-0.1-0.2-0.1-0.4-0.2-0.5c-0.1-0.2-0.2-0.4-0.3-0.6c-0.1-0.2-0.3-0.4-0.5-0.5c-0.2-0.1-0.4-0.2-0.7-0.2c-0.2-0.1-0.5,0-0.7,0
		c-0.1,0.1-0.3,0.1-0.4,0.2c-0.3,0.2-0.5,0.4-0.6,0.6c-0.1,0.1-0.1,0.3-0.2,0.4C19.2,19,19.2,19.4,19.3,19.7L19.3,19.7z"/>
</g>
<g>
	<path class="st3" d="M8.9,14.7c-0.6,0.3-1.3,0.5-1.9,0.8c-0.2,0.1-0.4,0.2-0.6,0.3c-0.2,0.1-0.4,0.3-0.5,0.5
		c-0.1,0.2-0.2,0.4-0.2,0.7c-0.1,0.2,0,0.5,0,0.7c0.1,0.4,0.4,0.9,0.8,1.1c0.1,0.1,0.3,0.1,0.4,0.2c0.3,0.1,0.6,0.1,1,0
		c0.6-0.3,1.3-0.5,1.9-0.8c0.2-0.1,0.4-0.2,0.6-0.3c0.2-0.1,0.4-0.3,0.5-0.5c0.1-0.2,0.2-0.4,0.2-0.7c0.1-0.2,0-0.5,0-0.7
		c-0.1-0.4-0.4-0.9-0.8-1.1c-0.1-0.1-0.3-0.1-0.4-0.2C9.5,14.6,9.2,14.6,8.9,14.7L8.9,14.7z"/>
</g>
<g>
	<path class="st0" d="M9.4,24c0.3,0,0.6,0,0.8,0c0.2,0,0.5,0,0.7-0.2c0.2-0.1,0.4-0.2,0.6-0.4c0.2-0.2,0.3-0.4,0.4-0.6
		c0.1-0.2,0.2-0.4,0.2-0.7c0-0.2,0-0.3-0.1-0.5c-0.1-0.3-0.2-0.6-0.5-0.8c-0.1-0.1-0.2-0.2-0.4-0.3c-0.3-0.2-0.6-0.2-0.9-0.2
		c-0.3,0-0.6,0-0.8,0c-0.2,0-0.5,0-0.7,0.2c-0.2,0.1-0.4,0.2-0.6,0.4c-0.2,0.2-0.3,0.4-0.4,0.6c-0.1,0.2-0.2,0.4-0.2,0.7
		c0,0.2,0,0.3,0.1,0.5c0.1,0.3,0.2,0.6,0.5,0.8c0.1,0.1,0.2,0.2,0.4,0.3C8.7,23.9,9,24,9.4,24L9.4,24z"/>
</g>
<g>
	<path class="st0" d="M4.6,15.5c0.3,0.2,0.5,0.5,0.8,0.7c0.2,0.2,0.4,0.3,0.6,0.4c0.2,0.1,0.4,0.2,0.7,0.2c0.2,0,0.5,0,0.7-0.2
		c0.2-0.1,0.4-0.2,0.6-0.4C8,16.1,8.1,16,8.2,15.9c0.2-0.3,0.2-0.6,0.2-0.9c0-0.2,0-0.3-0.1-0.5c-0.1-0.3-0.2-0.6-0.5-0.8
		c-0.3-0.2-0.5-0.5-0.8-0.7c-0.2-0.2-0.4-0.3-0.6-0.4c-0.2-0.1-0.4-0.2-0.7-0.2c-0.2,0-0.5,0-0.7,0.2C5,12.7,4.8,12.8,4.6,13
		c-0.1,0.1-0.2,0.2-0.3,0.4c-0.2,0.3-0.2,0.6-0.2,0.9c0,0.2,0,0.3,0.1,0.5C4.2,15,4.4,15.3,4.6,15.5L4.6,15.5z"/>
</g>
<g>
	<path class="st0" d="M14.9,3.1c0,0.3,0,0.5,0.1,0.8c0,0.2,0,0.5,0.1,0.7c0.1,0.2,0.2,0.4,0.4,0.6c0.2,0.2,0.3,0.3,0.6,0.4
		c0.2,0.1,0.4,0.2,0.7,0.1c0.2,0,0.3,0,0.5-0.1c0.3-0.1,0.5-0.2,0.8-0.4c0.1-0.1,0.2-0.2,0.3-0.3c0.2-0.3,0.2-0.6,0.2-0.9
		c0-0.3,0-0.5-0.1-0.8c0-0.2,0-0.5-0.1-0.7C18.1,2.2,18,2,17.8,1.9c-0.2-0.2-0.3-0.3-0.6-0.4c-0.2-0.1-0.4-0.2-0.7-0.1
		c-0.2,0-0.3,0-0.5,0.1c-0.3,0.1-0.5,0.2-0.8,0.4c-0.1,0.1-0.2,0.2-0.3,0.3C15,2.5,14.9,2.8,14.9,3.1L14.9,3.1z"/>
</g>
<g>
	<path class="st1" d="M5.5,17.9c-0.4,0.3-0.7,0.5-1.1,0.8C4.2,18.8,4,19,3.9,19.2c-0.2,0.2-0.3,0.4-0.3,0.6c-0.1,0.2-0.1,0.5,0,0.7
		c0,0.2,0.1,0.5,0.2,0.7c0.1,0.1,0.2,0.2,0.3,0.4c0.2,0.2,0.5,0.4,0.8,0.5c0.2,0,0.3,0,0.5,0.1c0.3,0,0.6-0.1,0.9-0.2
		C6.6,21.6,7,21.3,7.3,21c0.2-0.1,0.4-0.3,0.5-0.5C8,20.4,8.1,20.2,8.1,20c0.1-0.2,0.1-0.5,0-0.7c0-0.2-0.1-0.5-0.2-0.7
		c-0.1-0.1-0.2-0.2-0.3-0.4c-0.2-0.2-0.5-0.4-0.8-0.5c-0.2,0-0.3,0-0.5-0.1C6.1,17.7,5.8,17.8,5.5,17.9L5.5,17.9z"/>
</g>
<g>
	<path class="st1" d="M18.7,2.4c-0.1,0.1-0.1,0.2-0.2,0.3c0.1-0.1,0.2-0.2,0.3-0.4c-0.1,0.2-0.3,0.3-0.5,0.4
		C18.5,2.6,18.6,2.6,18.7,2.4c0,0.1-0.1,0.1-0.1,0.2c-0.2,0.1-0.4,0.3-0.5,0.5c-0.2,0.2-0.3,0.4-0.3,0.6c-0.1,0.2-0.1,0.5,0,0.7
		c0,0.2,0.1,0.5,0.2,0.7c0.1,0.1,0.2,0.2,0.3,0.4c0.2,0.2,0.5,0.4,0.8,0.5c0.2,0,0.3,0,0.5,0.1c0.3,0,0.6-0.1,0.9-0.2
		c0,0,0.1-0.1,0.1-0.1c0.2-0.1,0.3-0.2,0.5-0.4C21,5.2,21.1,5.1,21.2,5c0.2-0.2,0.3-0.4,0.5-0.6c0.1-0.1,0.1-0.2,0.2-0.2
		C21.9,4,22,3.8,22,3.5c0.1-0.2,0-0.5,0-0.7c-0.1-0.2-0.2-0.4-0.3-0.6c-0.1-0.2-0.3-0.4-0.5-0.5c-0.1-0.1-0.3-0.1-0.4-0.2
		c-0.3-0.1-0.6-0.1-1,0c-0.1,0.1-0.3,0.1-0.4,0.2C19.1,1.9,18.8,2.1,18.7,2.4L18.7,2.4z"/>
</g>
<g>
	<path class="st2" d="M23.4,5.3c2.4,0,2.4-3.7,0-3.7C21.1,1.7,21.1,5.3,23.4,5.3L23.4,5.3z"/>
</g>
<g>
	<path class="st2" d="M11.2,32c0,0.3-0.1,0.6-0.2,0.9c0.1-0.1,0.1-0.3,0.2-0.4c-0.1,0.3-0.3,0.6-0.5,0.9c0.1-0.1,0.2-0.2,0.3-0.4
		c-0.2,0.3-0.5,0.6-0.8,0.8c0.1-0.1,0.2-0.2,0.4-0.3c0,0-0.1,0.1-0.1,0.1c-0.2,0.1-0.4,0.3-0.5,0.5c-0.2,0.2-0.3,0.4-0.3,0.6
		c-0.1,0.2-0.1,0.5,0,0.7c0,0.2,0.1,0.5,0.2,0.7c0.2,0.4,0.6,0.7,1.1,0.8c0.4,0.1,1,0.1,1.4-0.2c0.4-0.3,0.7-0.5,1-0.8
		c0.3-0.3,0.6-0.7,0.8-1c0.2-0.4,0.4-0.7,0.5-1.1c0.1-0.3,0.2-0.5,0.2-0.8c0.1-0.2,0.1-0.5,0-0.7c0-0.2-0.1-0.5-0.2-0.7
		c-0.2-0.4-0.6-0.7-1.1-0.8c-0.5-0.1-1-0.1-1.4,0.2C11.7,31.2,11.3,31.5,11.2,32L11.2,32z"/>
</g>
<g>
	<path class="st2" d="M6.5,34.3c0.1,0.2,0.1,0.4,0.2,0.5c0.1,0.2,0.2,0.4,0.3,0.6c0.1,0.2,0.3,0.4,0.5,0.5c0.2,0.1,0.4,0.2,0.7,0.2
		c0.2,0.1,0.5,0,0.7,0C9.1,36,9.2,36,9.4,35.9c0.3-0.2,0.5-0.4,0.6-0.6c0.1-0.1,0.1-0.3,0.2-0.4c0.1-0.3,0.1-0.6,0-1
		c-0.1-0.2-0.1-0.4-0.2-0.5c-0.1-0.2-0.2-0.4-0.3-0.6c-0.1-0.2-0.3-0.4-0.5-0.5c-0.2-0.1-0.4-0.2-0.7-0.2c-0.2-0.1-0.5,0-0.7,0
		c-0.1,0.1-0.3,0.1-0.4,0.2c-0.3,0.2-0.5,0.4-0.6,0.6c-0.1,0.1-0.1,0.3-0.2,0.4C6.5,33.7,6.5,34,6.5,34.3L6.5,34.3z"/>
</g>
<g>
	<path class="st1" d="M14.9,5.2c-0.4,0.3-0.7,0.5-1.1,0.8c-0.2,0.1-0.4,0.3-0.5,0.5C13.1,6.6,13,6.8,13,7.1c-0.1,0.2-0.1,0.5,0,0.7
		c0,0.2,0.1,0.5,0.2,0.7c0.1,0.1,0.2,0.2,0.3,0.4c0.2,0.2,0.5,0.4,0.8,0.5c0.2,0,0.3,0,0.5,0.1c0.3,0,0.6-0.1,0.9-0.2
		c0.4-0.3,0.7-0.5,1.1-0.8c0.2-0.1,0.4-0.3,0.5-0.5c0.2-0.2,0.3-0.4,0.3-0.6c0.1-0.2,0.1-0.5,0-0.7c0-0.2-0.1-0.5-0.2-0.7
		c-0.1-0.1-0.2-0.2-0.3-0.4c-0.2-0.2-0.5-0.4-0.8-0.5c-0.2,0-0.3,0-0.5-0.1C15.5,5,15.1,5,14.9,5.2L14.9,5.2z"/>
</g>
</svg>
