<?xml version="1.0" encoding="utf-8"?>
<!-- Generator: Adobe Illustrator 24.0.0, SVG Export Plug-In . SVG Version: 6.00 Build 0)  -->
<svg version="1.1" xmlns="http://www.w3.org/2000/svg" xmlns:xlink="http://www.w3.org/1999/xlink" x="0px" y="0px"
	 viewBox="0 0 1140 740" style="enable-background:new 0 0 1140 740;" xml:space="preserve">
<style type="text/css">
	.st0{fill:url(#SVGID_1_);}
	.st1{fill:url(#SVGID_2_);}
	.st2{fill:url(#SVGID_3_);}
	.st3{fill:url(#SVGID_4_);}
	.st4{fill:url(#SVGID_5_);}
	.st5{fill:url(#SVGID_6_);}
	.st6{fill:url(#SVGID_7_);}
	.st7{fill:url(#SVGID_8_);}
	.st8{fill:url(#SVGID_9_);}
	.st9{fill:url(#SVGID_10_);}
	.st10{fill:url(#SVGID_11_);}
	.st11{fill:url(#SVGID_12_);}
	.st12{fill:url(#SVGID_13_);}
	.st13{fill:url(#SVGID_14_);}
	.st14{fill:url(#SVGID_15_);}
	.st15{fill:url(#SVGID_16_);}
	.st16{fill:url(#SVGID_17_);}
	.st17{fill:url(#SVGID_18_);}
	.st18{fill:url(#SVGID_19_);}
	.st19{fill:#575756;}
	.st20{fill:#1D70B7;}
	.st21{fill:none;}
	.st22{font-family:'CooperHewitt-Semibold';}
	.st23{font-size:18.2238px;}
	.st24{fill:#94C356;}
	.st25{fill:#585857;}
	.st26{fill:#1D1D1B;}
	.st27{fill:#E5332A;}
	.st28{fill:#FFFFFF;stroke:#575756;stroke-width:1.6435;stroke-miterlimit:10;}
	.st29{fill:#FFFFFF;stroke:#575756;stroke-width:1.6304;stroke-miterlimit:10;}
	.st30{opacity:0.8;fill:url(#SVGID_20_);}
	.st31{fill:#FFFFFF;}
	.st32{opacity:0.8;fill:url(#SVGID_21_);}
	.st33{fill:#92D5F6;}
	.st34{fill:#499FD4;}
	.st35{fill:url(#SVGID_22_);}
	.st36{fill:#27348B;}
</style>
<g id="M3">
	<g>
		<g>
			<linearGradient id="SVGID_1_" gradientUnits="userSpaceOnUse" x1="453.4885" y1="558.8589" x2="713.871" y2="558.8589">
				<stop  offset="0" style="stop-color:#BCE4FA"/>
				<stop  offset="1" style="stop-color:#83D0F5"/>
			</linearGradient>
			<path class="st0" d="M469.1,599.2c3.8-11.3-5-22.5-10.1-33.3c-7-14.7-7.2-32.3-1.4-47.5c5.8-15.2,17.4-28,31.5-36.1
				c9.3-5.3,19.8-8.8,27.8-15.9c8-7.1,12.6-17.1,19.1-25.6c6.4-8.5,16.2-16,26.8-14.5c15.4,2.2,22.8,21.4,37.6,26.2
				c13.1,4.2,26.7-4.4,40.5-4.8c9.1-0.2,17.9,3.2,25.8,7.7c5.8,3.4,11.5,7.5,15,13.3c5.8,9.3,5.2,21,5.3,32
				c0.1,14.5,1.6,29.4,8.4,42.2c6.4,12,17.5,22.4,18.4,36.1c0.8,11.5-6,21.9-12.6,31.4c-11.6,16.9-23.2,33.7-34.8,50.6
				c-4.6,6.7-9.3,13.5-15.5,18.9c-6.2,5.3-14.2,9.1-22.3,8.5c-7.8-0.5-14.8-4.9-21.9-8.2c-7.1-3.3-15.6-5.6-22.6-2.2
				c-6.3,3.1-10.1,10.2-16.7,12.7c-6.5,2.5-13.9-0.4-19.5-4.6c-5.6-4.2-10.1-9.7-15.9-13.6c-8.8-6-19.7-7.9-30.3-7.7
				c-8.2,0.1-16.7,1.4-24.3-1.7c-11.1-4.6-16.8-17.6-16.5-29.6S464,610.1,469.1,599.2"/>
		</g>
		<g>
			<linearGradient id="SVGID_2_" gradientUnits="userSpaceOnUse" x1="512.8586" y1="608.6703" x2="643.9327" y2="532.9946">
				<stop  offset="1.068535e-02" style="stop-color:#67B4E5"/>
				<stop  offset="0.3538" style="stop-color:#35A8E0"/>
				<stop  offset="1" style="stop-color:#0080C8"/>
			</linearGradient>
			<path class="st1" d="M549.8,558.1c-2.6-11.4-5.3-16.7-13-16.4c-9.5,0.3-18.7,9.9-23.4,17.3c-5.6,8.7-8.3,19.4-7.2,29.7
				c1.8,18,14.3,34.2,30.6,42c8.6,4.1,18.7,6.1,27.8,3.3c9.1-2.8,16.9-11.1,17.2-20.6c0.2-5.8-2.1-12.5,1.7-16.9
				c2.2-2.5,5.7-3.3,9-3.3c3.3,0.1,6.6,0.9,9.9,1c13.2,0.6,24.6-9.1,33.1-19.3c5.1-6.1,10-12.9,11.1-20.8c2.4-16-9.2-34-19.3-45.4
				c-3.1-3.5-6.6-6.8-10.8-8.7c-12.3-5.3-22.8,6.4-26.5,17c-2.6,7.4-3.4,15.2-5.1,22.8c-1.8,7.6-4.7,15.3-10.7,20.4
				C567.5,566,554.5,567.3,549.8,558.1"/>
		</g>
		<g>
			<g>
				<linearGradient id="SVGID_3_" gradientUnits="userSpaceOnUse" x1="493.946" y1="516.8779" x2="511.66" y2="516.8779">
					<stop  offset="1.068535e-02" style="stop-color:#67B4E5"/>
					<stop  offset="0.3538" style="stop-color:#35A8E0"/>
					<stop  offset="1" style="stop-color:#0080C8"/>
				</linearGradient>
				<path class="st2" d="M502.8,525.7c4.6,0,9.1-4.1,8.8-8.8c-0.2-4.8-3.9-8.8-8.8-8.8c-4.6,0-9.1,4.1-8.8,8.8
					C494.2,521.7,497.8,525.7,502.8,525.7L502.8,525.7z"/>
			</g>
		</g>
		<g>
			<g>
				<linearGradient id="SVGID_4_" gradientUnits="userSpaceOnUse" x1="551.1329" y1="527.1855" x2="559.9602" y2="511.8963">
					<stop  offset="1.068535e-02" style="stop-color:#67B4E5"/>
					<stop  offset="0.3538" style="stop-color:#35A8E0"/>
					<stop  offset="1" style="stop-color:#0080C8"/>
				</linearGradient>
				<path class="st3" d="M555.5,528.4c4.6,0,9.1-4.1,8.8-8.8c-0.2-4.8-3.9-8.8-8.8-8.8c-4.6,0-9.1,4.1-8.8,8.8
					C546.9,524.3,550.6,528.4,555.5,528.4L555.5,528.4z"/>
			</g>
		</g>
		<g>
			<g>
				<linearGradient id="SVGID_5_" gradientUnits="userSpaceOnUse" x1="547.4993" y1="473.0989" x2="565.2133" y2="473.0989">
					<stop  offset="1.068535e-02" style="stop-color:#67B4E5"/>
					<stop  offset="0.3538" style="stop-color:#35A8E0"/>
					<stop  offset="1" style="stop-color:#0080C8"/>
				</linearGradient>
				<path class="st4" d="M556.4,481.9c4.6,0,9.1-4.1,8.8-8.8c-0.2-4.8-3.9-8.8-8.8-8.8c-4.6,0-9.1,4.1-8.8,8.8
					C547.7,477.9,551.4,481.9,556.4,481.9L556.4,481.9z"/>
			</g>
		</g>
		<g>
			<g>
				<linearGradient id="SVGID_6_" gradientUnits="userSpaceOnUse" x1="586.082" y1="477.6873" x2="603.796" y2="477.6873">
					<stop  offset="1.068535e-02" style="stop-color:#67B4E5"/>
					<stop  offset="0.3538" style="stop-color:#35A8E0"/>
					<stop  offset="1" style="stop-color:#0080C8"/>
				</linearGradient>
				<path class="st5" d="M594.9,486.5c4.6,0,9.1-4.1,8.8-8.8c-0.2-4.8-3.9-8.8-8.8-8.8c-4.6,0-9.1,4.1-8.8,8.8
					C586.3,482.5,590,486.5,594.9,486.5L594.9,486.5z"/>
			</g>
		</g>
		<g>
			<g>
				<linearGradient id="SVGID_7_" gradientUnits="userSpaceOnUse" x1="487.8099" y1="647.0981" x2="505.5239" y2="647.0981">
					<stop  offset="1.068535e-02" style="stop-color:#67B4E5"/>
					<stop  offset="0.3538" style="stop-color:#35A8E0"/>
					<stop  offset="1" style="stop-color:#0080C8"/>
				</linearGradient>
				<path class="st6" d="M496.7,655.9c4.6,0,9.1-4.1,8.8-8.8c-0.2-4.8-3.9-8.8-8.8-8.8c-4.6,0-9.1,4.1-8.8,8.8
					C488,651.9,491.7,655.9,496.7,655.9L496.7,655.9z"/>
			</g>
		</g>
		<g>
			<g>
				<linearGradient id="SVGID_8_" gradientUnits="userSpaceOnUse" x1="586.0851" y1="652.9562" x2="603.7991" y2="652.9562">
					<stop  offset="1.068535e-02" style="stop-color:#67B4E5"/>
					<stop  offset="0.3538" style="stop-color:#35A8E0"/>
					<stop  offset="1" style="stop-color:#0080C8"/>
				</linearGradient>
				<path class="st7" d="M594.9,661.8c4.6,0,9.1-4.1,8.8-8.8c-0.2-4.8-3.9-8.8-8.8-8.8c-4.6,0-9.1,4.1-8.8,8.8
					C586.3,657.8,590,661.8,594.9,661.8L594.9,661.8z"/>
			</g>
		</g>
		<g>
			<g>
				<linearGradient id="SVGID_9_" gradientUnits="userSpaceOnUse" x1="619.4353" y1="662.0944" x2="637.1493" y2="662.0944">
					<stop  offset="1.068535e-02" style="stop-color:#67B4E5"/>
					<stop  offset="0.3538" style="stop-color:#35A8E0"/>
					<stop  offset="1" style="stop-color:#0080C8"/>
				</linearGradient>
				<path class="st8" d="M628.3,670.9c4.6,0,9.1-4.1,8.8-8.8c-0.2-4.8-3.9-8.8-8.8-8.8c-4.6,0-9.1,4.1-8.8,8.8
					C619.7,666.9,623.3,670.9,628.3,670.9L628.3,670.9z"/>
			</g>
		</g>
		<g>
			<g>
				<linearGradient id="SVGID_10_" gradientUnits="userSpaceOnUse" x1="603.7402" y1="617.6249" x2="621.4542" y2="617.6249">
					<stop  offset="1.068535e-02" style="stop-color:#67B4E5"/>
					<stop  offset="0.3538" style="stop-color:#35A8E0"/>
					<stop  offset="1" style="stop-color:#0080C8"/>
				</linearGradient>
				<path class="st9" d="M612.6,626.5c4.6,0,9.1-4.1,8.8-8.8c-0.2-4.8-3.9-8.8-8.8-8.8c-4.6,0-9.1,4.1-8.8,8.8
					C604,622.4,607.6,626.5,612.6,626.5L612.6,626.5z"/>
			</g>
		</g>
		<g>
			<g>
				<linearGradient id="SVGID_11_" gradientUnits="userSpaceOnUse" x1="659.981" y1="603.8917" x2="677.695" y2="603.8917">
					<stop  offset="1.068535e-02" style="stop-color:#67B4E5"/>
					<stop  offset="0.3538" style="stop-color:#35A8E0"/>
					<stop  offset="1" style="stop-color:#0080C8"/>
				</linearGradient>
				<path class="st10" d="M668.8,612.7c4.6,0,9.1-4.1,8.8-8.8c-0.2-4.8-3.9-8.8-8.8-8.8c-4.6,0-9.1,4.1-8.8,8.8
					C660.2,608.7,663.9,612.7,668.8,612.7L668.8,612.7z"/>
			</g>
		</g>
		<g>
			<g>
				<linearGradient id="SVGID_12_" gradientUnits="userSpaceOnUse" x1="535.2279" y1="656.5076" x2="548.7526" y2="656.5076">
					<stop  offset="1.068535e-02" style="stop-color:#67B4E5"/>
					<stop  offset="0.3538" style="stop-color:#35A8E0"/>
					<stop  offset="1" style="stop-color:#0080C8"/>
				</linearGradient>
				<path class="st11" d="M542,663.3c3.5,0,6.9-3.1,6.8-6.8c-0.2-3.7-3-6.8-6.8-6.8c-3.5,0-6.9,3.1-6.8,6.8
					C535.4,660.2,538.2,663.3,542,663.3L542,663.3z"/>
			</g>
		</g>
		<g>
			<g>
				<linearGradient id="SVGID_13_" gradientUnits="userSpaceOnUse" x1="558.8774" y1="647.575" x2="569.6973" y2="647.575">
					<stop  offset="1.068535e-02" style="stop-color:#67B4E5"/>
					<stop  offset="0.3538" style="stop-color:#35A8E0"/>
					<stop  offset="1" style="stop-color:#0080C8"/>
				</linearGradient>
				<path class="st12" d="M564.3,653c2.8,0,5.5-2.5,5.4-5.4c-0.1-2.9-2.4-5.4-5.4-5.4c-2.8,0-5.5,2.5-5.4,5.4
					C559,650.5,561.3,653,564.3,653L564.3,653z"/>
			</g>
		</g>
		<g>
			<g>
				<linearGradient id="SVGID_14_" gradientUnits="userSpaceOnUse" x1="467.7261" y1="554.5978" x2="478.5459" y2="554.5978">
					<stop  offset="1.068535e-02" style="stop-color:#67B4E5"/>
					<stop  offset="0.3538" style="stop-color:#35A8E0"/>
					<stop  offset="1" style="stop-color:#0080C8"/>
				</linearGradient>
				<path class="st13" d="M473.1,560c2.8,0,5.5-2.5,5.4-5.4c-0.1-2.9-2.4-5.4-5.4-5.4c-2.8,0-5.5,2.5-5.4,5.4
					C467.9,557.5,470.1,560,473.1,560L473.1,560z"/>
			</g>
		</g>
		<g>
			<g>
				<linearGradient id="SVGID_15_" gradientUnits="userSpaceOnUse" x1="569.3127" y1="495.8948" x2="580.1326" y2="495.8948">
					<stop  offset="1.068535e-02" style="stop-color:#67B4E5"/>
					<stop  offset="0.3538" style="stop-color:#35A8E0"/>
					<stop  offset="1" style="stop-color:#0080C8"/>
				</linearGradient>
				<path class="st14" d="M574.7,501.3c2.8,0,5.5-2.5,5.4-5.4c-0.1-2.9-2.4-5.4-5.4-5.4c-2.8,0-5.5,2.5-5.4,5.4
					C569.4,498.8,571.7,501.3,574.7,501.3L574.7,501.3z"/>
			</g>
		</g>
		<g>
			<g>
				<linearGradient id="SVGID_16_" gradientUnits="userSpaceOnUse" x1="664.6571" y1="553.3931" x2="675.4769" y2="553.3931">
					<stop  offset="1.068535e-02" style="stop-color:#67B4E5"/>
					<stop  offset="0.3538" style="stop-color:#35A8E0"/>
					<stop  offset="1" style="stop-color:#0080C8"/>
				</linearGradient>
				<path class="st15" d="M670.1,558.8c2.8,0,5.5-2.5,5.4-5.4c-0.1-2.9-2.4-5.4-5.4-5.4c-2.8,0-5.5,2.5-5.4,5.4
					C664.8,556.3,667,558.8,670.1,558.8L670.1,558.8z"/>
			</g>
		</g>
		<g>
			<g>
				<linearGradient id="SVGID_17_" gradientUnits="userSpaceOnUse" x1="641.6657" y1="485.2256" x2="652.4855" y2="485.2256">
					<stop  offset="1.068535e-02" style="stop-color:#67B4E5"/>
					<stop  offset="0.3538" style="stop-color:#35A8E0"/>
					<stop  offset="1" style="stop-color:#0080C8"/>
				</linearGradient>
				<path class="st16" d="M647.1,490.6c2.8,0,5.5-2.5,5.4-5.4c-0.1-2.9-2.4-5.4-5.4-5.4c-2.8,0-5.5,2.5-5.4,5.4
					C641.8,488.2,644,490.6,647.1,490.6L647.1,490.6z"/>
			</g>
		</g>
		<g>
			<g>
				<linearGradient id="SVGID_18_" gradientUnits="userSpaceOnUse" x1="660.9034" y1="625.3143" x2="671.7232" y2="625.3143">
					<stop  offset="1.068535e-02" style="stop-color:#67B4E5"/>
					<stop  offset="0.3538" style="stop-color:#35A8E0"/>
					<stop  offset="1" style="stop-color:#0080C8"/>
				</linearGradient>
				<path class="st17" d="M666.3,630.7c2.8,0,5.5-2.5,5.4-5.4c-0.1-2.9-2.4-5.4-5.4-5.4c-2.8,0-5.5,2.5-5.4,5.4
					C661,628.2,663.3,630.7,666.3,630.7L666.3,630.7z"/>
			</g>
		</g>
		<g>
			<g>
				<linearGradient id="SVGID_19_" gradientUnits="userSpaceOnUse" x1="619.3123" y1="469.0096" x2="630.132" y2="469.0096">
					<stop  offset="1.068535e-02" style="stop-color:#67B4E5"/>
					<stop  offset="0.3538" style="stop-color:#35A8E0"/>
					<stop  offset="1" style="stop-color:#0080C8"/>
				</linearGradient>
				<path class="st18" d="M624.7,474.4c2.8,0,5.5-2.5,5.4-5.4c-0.1-2.9-2.4-5.4-5.4-5.4c-2.8,0-5.5,2.5-5.4,5.4
					C619.4,471.9,621.7,474.4,624.7,474.4L624.7,474.4z"/>
			</g>
		</g>
	</g>
</g>
<g id="All">
	<g>
		<g>
			<path class="st19" d="M121.5,550.9l7.5,27.1h-5.3l-1.6-6.2h-8l-1.6,6.2h-5.3l7.5-27.1H121.5z M115.1,567.8h5.9l-3-11.6
				L115.1,567.8z"/>
			<path class="st19" d="M141.7,559.2v4.4h-0.8c-2.6,0-3.9,1.1-4.5,1.9V578h-4.7v-13.2l-0.3-5.2h4.2l0.4,2.2
				c1.1-1.5,2.8-2.7,5.2-2.7C141.4,559.2,141.6,559.2,141.7,559.2z"/>
			<path class="st19" d="M155.5,575.9c-1.3,1.5-3.4,2.6-6.3,2.6c-4.1,0-5.8-2.5-5.8-5.4v-0.3c0-4,3-5.2,6.7-5.7l4.9-0.7v-0.1
				c0-2.3-0.8-3.5-3.2-3.5c-2.6,0-3.2,1.4-3.2,3h-4.5v-0.3c0-3.1,1.7-6.2,7.8-6.2c6,0,7.8,2.7,7.8,7v6.6l0.3,5.2h-4.2L155.5,575.9z
				 M155,572.8V569l-4,0.6c-2,0.3-2.9,1.2-2.9,2.6v0.3c0,1.1,0.8,2.2,2.7,2.2C153.1,574.7,154.4,573.6,155,572.8z"/>
			<path class="st19" d="M171.7,574.5c2.4,0,3.4-1.4,3.4-3.2h4.5v0.7c0,3.5-2.6,6.4-8,6.4c-5.9,0-8.5-3.8-8.5-9.1v-1.1
				c0-5.3,2.6-9.1,8.5-9.1c5.5,0,8,3,8,6.7v0.8h-4.5c0-2.1-1.1-3.5-3.4-3.5c-2.8,0-3.9,2-3.9,5.2v1.1
				C167.8,572.5,168.9,574.5,171.7,574.5z"/>
			<path class="st19" d="M187.7,561.5c1.2-1.3,3.1-2.3,5.8-2.3c4.2,0,5.9,2.9,5.9,6.2V578h-4.7v-11.8c0-1.8-0.9-3-3.1-3
				c-2.2,0-3.5,1.2-4,2.1V578H183v-27.7h4.7V561.5z"/>
			<path class="st19" d="M208.5,556.5h-5.2v-4.9h5.2V556.5z M203.6,559.7h4.7V578h-4.7V559.7z"/>
			<path class="st19" d="M224.4,561.3v-11h4.7v22.5l0.3,5.2h-4.2l-0.4-2.3c-1.1,1.6-2.8,2.7-5.5,2.7c-5.3,0-7.3-3.8-7.3-9.1v-1.1
				c0-5.3,2-9.1,7.3-9.1C221.7,559.2,223.3,560.1,224.4,561.3z M224.4,565.2c-0.5-0.9-1.8-2.1-3.8-2.1c-2.7,0-3.8,1.9-3.8,5.2v1.1
				c0,3.2,1.1,5.1,3.8,5.1c2,0,3.2-1.2,3.8-2.1V565.2z"/>
			<path class="st19" d="M232.6,569.4v-1.1c0-5.3,2.7-9.1,8.7-9.1c6.1,0,8.7,3.8,8.7,9.1v1.1c0,5.2-2.7,9.1-8.7,9.1
				C235.3,578.5,232.6,574.6,232.6,569.4z M245.3,569.4v-1.1c0-3.2-1.2-5.2-4-5.2c-2.8,0-4,2-4,5.2v1.1c0,3.2,1.2,5.1,4,5.1
				C244.1,574.5,245.3,572.5,245.3,569.4z"/>
			<path class="st19" d="M265.3,578v-11.8c0-1.8-0.9-3-3.1-3c-2.2,0-3.5,1.2-4,2.1V578h-4.7v-13.2l-0.3-5.2h4.2l0.4,2.4
				c1.2-1.7,3.2-2.9,6.3-2.9c4.2,0,5.9,2.9,5.9,6.2V578H265.3z"/>
			<path class="st19" d="M279.1,556.5h-5.2v-4.9h5.2V556.5z M274.1,559.7h4.7V578h-4.7V559.7z"/>
			<path class="st19" d="M291,574.5c2.4,0,3.4-1.4,3.4-3.2h4.5v0.7c0,3.5-2.6,6.4-8,6.4c-5.9,0-8.5-3.8-8.5-9.1v-1.1
				c0-5.3,2.6-9.1,8.5-9.1c5.5,0,8,3,8,6.7v0.8h-4.5c0-2.1-1.1-3.5-3.4-3.5c-2.8,0-3.9,2-3.9,5.2v1.1
				C287.1,572.5,288.2,574.5,291,574.5z"/>
			<path class="st19" d="M320.8,575.9c-1.3,1.5-3.4,2.6-6.3,2.6c-4.1,0-5.8-2.5-5.8-5.4v-0.3c0-4,3-5.2,6.7-5.7l4.9-0.7v-0.1
				c0-2.3-0.8-3.5-3.2-3.5c-2.6,0-3.2,1.4-3.2,3h-4.5v-0.3c0-3.1,1.7-6.2,7.8-6.2c6,0,7.8,2.7,7.8,7v6.6l0.3,5.2h-4.2L320.8,575.9z
				 M320.4,572.8V569l-4,0.6c-2,0.3-2.9,1.2-2.9,2.6v0.3c0,1.1,0.8,2.2,2.7,2.2C318.4,574.7,319.7,573.6,320.4,572.8z"/>
			<path class="st19" d="M337,574.5c2.4,0,3.4-1.4,3.4-3.2h4.5v0.7c0,3.5-2.6,6.4-8,6.4c-5.9,0-8.5-3.8-8.5-9.1v-1.1
				c0-5.3,2.6-9.1,8.5-9.1c5.5,0,8,3,8,6.7v0.8h-4.5c0-2.1-1.1-3.5-3.4-3.5c-2.8,0-3.9,2-3.9,5.2v1.1
				C333.1,572.5,334.2,574.5,337,574.5z"/>
			<path class="st19" d="M353.3,556.5h-5.2v-4.9h5.2V556.5z M348.4,559.7h4.7V578h-4.7V559.7z"/>
			<path class="st19" d="M369.2,561.3v-11h4.7v22.5l0.3,5.2H370l-0.4-2.3c-1.1,1.6-2.8,2.7-5.5,2.7c-5.3,0-7.3-3.8-7.3-9.1v-1.1
				c0-5.3,2-9.1,7.3-9.1C366.5,559.2,368.1,560.1,369.2,561.3z M369.2,565.2c-0.5-0.9-1.8-2.1-3.8-2.1c-2.7,0-3.8,1.9-3.8,5.2v1.1
				c0,3.2,1.1,5.1,3.8,5.1c2,0,3.2-1.2,3.8-2.1V565.2z"/>
		</g>
	</g>
	<g>
		<g>
			<path class="st20" d="M393.6,430.9v-27h4.9v23h11v4.1H393.6z"/>
			<path class="st20" d="M419.7,430.9h-4.9v-23H408v-4.1h18.4v4.1h-6.8V430.9z"/>
			<path class="st20" d="M436.1,425.6c0-1.6-0.9-2.1-3.7-2.4c-5.4-0.4-7.4-1.8-7.4-5.1v-0.3c0-3.9,3.2-5.8,7.8-5.8
				c5.5,0,7.8,2.5,7.8,6.3v0.2H436c0-1.8-0.9-2.9-3.2-2.9c-2,0-3.1,0.8-3.1,2.2c0,1.4,0.7,2,3.5,2.2c4.8,0.4,7.7,1.5,7.7,5.2v0.2
				c0,3.6-2.7,6-8.1,6c-5.6,0-8.1-2.7-8.1-6.1v-0.1h4.7c0,1.5,0.8,2.7,3.4,2.7C435.1,427.9,436.1,426.9,436.1,425.6z"/>
		</g>
	</g>
	<g>
		<rect x="492.3" y="495" class="st21" width="33.9" height="40.6"/>
		<text transform="matrix(1 0 0 0.95 492.2979 509.5342)" class="st20 st22 st23">LTs</text>
	</g>
	<g>
		<g>
			<path class="st20" d="M654.8,412.1v-0.3c0-4.8,3.6-7.8,9.7-7.8c6.7,0,9.7,3,9.7,9.1v0.8h-4.9c0-4.1-1.4-5.8-4.8-5.8h-0.3
				c-2.7,0-4.4,1.4-4.4,3.5v0.2c0,2.2,1.1,3.5,5.5,4.1c6.2,0.8,9.1,2.9,9.1,7.7v0.4c0,5.1-3.6,8-10,8c-6.5,0-10-3-10-9.2v-0.3h4.9
				c0,3.8,1.9,5.5,4.9,5.5h0.3c3.1,0,4.8-1.6,4.8-3.8v-0.2c0-2.4-1.4-3.6-5.7-4.2C657.6,418.8,654.8,416.6,654.8,412.1z"/>
			<path class="st20" d="M683,431.4h-4.9v-27h8.9c4.4,0,9.5,1.2,9.5,8.1v0.7c0,6.9-5.1,8.1-9.5,8.1h-4V431.4z M687.2,417.2
				c1.9,0,4.4-0.7,4.4-4.2v-0.4c0-3.6-2.5-4.2-4.4-4.2H683v8.8H687.2z"/>
			<path class="st20" d="M715.6,431.4h-4.9l-6.1-18.9l0.1,5.6v13.4h-4.9v-27h7.2l6.1,19l6.1-19h7.2v27h-4.9V418l0.1-5.6L715.6,431.4
				z"/>
			<path class="st20" d="M741.5,426c0-1.6-0.9-2.1-3.7-2.4c-5.4-0.4-7.4-1.8-7.4-5.1v-0.3c0-3.9,3.2-5.8,7.8-5.8
				c5.5,0,7.8,2.5,7.8,6.3v0.2h-4.6c0-1.8-0.9-2.9-3.2-2.9c-2,0-3.1,0.8-3.1,2.2c0,1.4,0.7,2,3.5,2.2c4.8,0.4,7.7,1.5,7.7,5.2v0.2
				c0,3.6-2.7,6-8.1,6c-5.6,0-8.1-2.7-8.1-6.1v-0.1h4.7c0,1.5,0.8,2.7,3.4,2.7C740.5,428.3,741.5,427.4,741.5,426z"/>
		</g>
	</g>
	<g>
		<rect x="492.3" y="495" class="st21" width="33.9" height="40.6"/>
		<text transform="matrix(1 0 0 0.95 492.2979 509.5342)" class="st20 st22 st23">LTs</text>
	</g>
	<g>
		<g>
			<path class="st24" d="M384.8,434.2c-10.7-9.6-18.2-22.4-23.4-35.6c-4.9-12.5-8.1-25.7-9.3-39c-0.5-5.6-0.7-11.2-0.1-16.8
				c0.2-1.5-2.1-1.4-2.3,0c-1.2,11.2,0.4,22.8,2.7,33.8c3,14.1,8,28.1,15.4,40.5c4.2,6.9,9.2,13.4,15.3,18.8
				C384.3,436.8,385.9,435.2,384.8,434.2L384.8,434.2z"/>
		</g>
	</g>
	<g>
		<g>
			<path class="st24" d="M344.3,360.3c2.9-5.6,5.4-11.4,7.5-17.4c-0.7,0-1.5,0-2.2,0c1.8,6.3,3.7,12.5,6.7,18.4
				c0.7,1.3,2.6,0.2,2-1.1c-2.9-5.7-4.7-11.8-6.5-17.8c-0.3-1.1-1.8-1-2.2,0c-2,5.8-4.4,11.4-7.3,16.8
				C341.6,360.4,343.6,361.6,344.3,360.3L344.3,360.3z"/>
		</g>
	</g>
	<g>
		<g>
			<path class="st24" d="M754.8,435.8c11.1-9,18.8-21.7,24.5-34.7c5.1-11.8,8.9-24.3,10.8-37c1.1-7.2,1.3-14.4,0.2-21.7
				c-0.2-1.4-2.4-0.8-2.2,0.6c1.8,12-0.3,24-3.4,35.6c-3.6,13.4-8.7,26.5-16.2,38.2c-4.2,6.5-9.2,12.5-15.2,17.4
				C752.1,435.1,753.7,436.7,754.8,435.8L754.8,435.8z"/>
		</g>
	</g>
	<g>
		<g>
			<path class="st24" d="M797.7,359.1c-2.8-5.4-5.2-11-7.3-16.8c-0.4-1-1.9-1.1-2.2,0c-1.8,6.1-3.6,12.2-6.5,17.8
				c-0.7,1.3,1.3,2.5,2,1.1c3-5.8,4.9-12.1,6.7-18.4c-0.7,0-1.5,0-2.2,0c2.1,6,4.6,11.8,7.5,17.4
				C796.4,361.6,798.4,360.4,797.7,359.1L797.7,359.1z"/>
		</g>
	</g>
	<g>
		<g>
			<path class="st19" d="M410.4,674.4c-6.1,1.3-12.1,2.7-18,4.3c0.5,0.6,0.9,1.2,1.4,1.8c3.6-5.8,6.9-11.8,9.8-17.9
				c0.7-1.4-1.4-2.7-2.1-1.2c-2.9,6.2-6.2,12.2-9.8,17.9c-0.6,0.9,0.4,2.1,1.4,1.8c6-1.6,12-3,18-4.3
				C412.6,676.4,412,674.1,410.4,674.4L410.4,674.4z"/>
		</g>
	</g>
	<g>
		<g>
			<path class="st19" d="M728,677.9c6.1,1.3,12.1,2.7,18,4.3c1,0.3,2-0.9,1.4-1.8c-3.6-5.8-6.9-11.8-9.8-17.9
				c-0.7-1.4-2.8-0.2-2.1,1.2c2.9,6.2,6.2,12.2,9.8,17.9c0.5-0.6,0.9-1.2,1.4-1.8c-6-1.6-12-3-18-4.3
				C727.1,675.2,726.4,677.6,728,677.9L728,677.9z"/>
		</g>
	</g>
	<path class="st19" d="M745.2,441.5c-6.7,3.1-13.5,5.9-20.5,8.4c-1.5,0.5-0.8,2.9,0.7,2.4c5.3-1.9,10.6-4,15.7-6.2
		c-1.7,1.4-3.5,2.8-5.3,4.2c-7.2,5.5-14.8,10.6-22.6,15.4c-11.3,6.9-23.1,13.1-35.2,18.5c-15,6.6-30.6,12-46.5,16
		c-18.2,4.5-36.9,7.1-55.6,7.5c-19.1,0.4-38.2-1.4-56.8-5.4c-16.3-3.5-32.3-8.6-47.8-15c-12.9-5.4-25.5-11.7-37.5-18.9
		c-8.8-5.2-17.3-10.9-25.5-17c-3.3-2.5-6.6-5.1-9.7-7.8c3.6,0.9,7.3,1.7,10.9,2.5c1.5,0.3,2.2-2,0.7-2.4c-6.1-1.3-12.1-2.7-18-4.3
		c-1-0.3-2,0.9-1.4,1.8c3.6,5.8,6.9,11.8,9.8,17.9c0.7,1.4,2.8,0.2,2.1-1.2c-2.2-4.6-4.6-9.2-7.2-13.6c2.3,2.1,4.7,4,7.1,5.9
		c7.2,5.7,14.8,11,22.5,15.9c11.2,7.1,23,13.5,35.1,19.1c14.8,6.8,30.2,12.5,46,16.6c18,4.7,36.5,7.6,55.1,8.3
		c19.3,0.7,38.8-0.9,57.8-4.6c16.8-3.3,33.2-8.2,49.1-14.4c13.3-5.3,26.2-11.5,38.6-18.6c9-5.1,17.7-10.7,26.1-16.8
		c3.3-2.4,6.6-4.8,9.7-7.4c-1,3.2-2,6.5-3,9.7c-0.4,1.5,1.9,2.2,2.4,0.7c1.5-5.3,3.1-10.5,4.9-15.6
		C747.4,441.8,746.1,441.1,745.2,441.5z"/>
	<path class="st24" d="M796,529.5c-2.2-11.2-5.4-22.1-9.6-32.7c-3.5-8.8-7.6-17.4-12.2-25.6c-3.4-5.9-7-11.7-11.1-17.3
		c-1.5-2.1-3.1-4.2-4.7-6.3c3.3,2.1,6.6,4.1,10,5.9c1.3,0.7,2.4-1.3,1.1-2c-5.5-2.9-10.8-6.2-15.8-9.9c-0.8-0.6-2,0.4-1.7,1.3
		c2,6,4,12,4.8,18.3c0.1,0.6,0.5,1.1,1.1,1.1c0.6,0,1.2-0.5,1.1-1.1c-0.6-4.3-1.6-8.5-2.9-12.6c1,1.2,1.9,2.4,2.8,3.6
		c3.6,4.8,6.9,9.8,10,14.9c4.6,7.5,8.6,15.3,12.2,23.4c4.4,9.9,7.9,20.2,10.5,30.8c3,12,4.7,24.4,5,36.8c0.3,12.7-0.8,25.4-3.4,37.8
		c-2.2,10.9-5.5,21.6-9.7,31.9c-3.5,8.7-7.7,17.1-12.4,25.1c-3.4,5.9-7.1,11.6-11.1,17c-0.8,1.1-1.6,2.1-2.4,3.1
		c1.5-3.5,2.9-7.1,4.1-10.7c0.5-1.4-1.7-2-2.2-0.6c-1.9,5.8-4.3,11.4-7,16.9c-0.5,1,0.5,2.1,1.6,1.6c5.6-2.9,11.2-5.9,17.3-7.7
		c1.4-0.4,0.8-2.6-0.6-2.2c-4.2,1.3-8.1,3-12,5c0.3-0.4,0.7-0.8,1-1.3c3.7-4.8,7.1-9.8,10.3-15c4.7-7.6,8.9-15.4,12.5-23.5
		c4.5-9.9,8.1-20.2,10.8-30.8c3.1-12,4.9-24.4,5.3-36.8C799.5,555,798.4,542.1,796,529.5z"/>
	<g>
		<g>
			<path class="st19" d="M745.3,679.1c-2.5-2.3-5.2-4.5-7.9-6.6c-7.2-5.7-14.8-11-22.5-15.9c-11.2-7.1-23-13.5-35.1-19.1
				c-14.8-6.8-30.2-12.5-46-16.6c-18-4.7-36.5-7.6-55.1-8.3c-19.3-0.7-38.8,0.9-57.8,4.6c-16.8,3.3-33.2,8.2-49.1,14.4
				c-13.3,5.3-26.2,11.5-38.6,18.6c-9,5.1-17.7,10.7-26.1,16.8c-4.1,3-8.2,6-11.9,9.3c-0.2,0.1-0.3,0.3-0.5,0.4
				c-1.2,1.1,0.6,2.9,1.8,1.8c2.5-2.2,5.1-4.2,7.7-6.3c7.2-5.5,14.8-10.6,22.6-15.4c11.3-6.9,23.1-13.1,35.2-18.5
				c15-6.6,30.6-12,46.5-16c18.2-4.5,36.9-7.1,55.6-7.5c19.1-0.4,38.2,1.4,56.8,5.4c16.3,3.5,32.3,8.6,47.8,15
				c12.9,5.4,25.5,11.7,37.5,18.9c8.8,5.2,17.3,10.9,25.5,17c3.9,2.9,7.7,5.9,11.3,9.1c0.2,0.1,0.3,0.3,0.5,0.4
				C744.7,682.1,746.6,680.3,745.3,679.1L745.3,679.1z"/>
		</g>
	</g>
	<path class="st25" d="M891,229c-7.5,3.6-15.1,6.7-23,9.3c-1.4,0.5-0.8,2.6,0.6,2.1c6.1-2,12.1-4.4,17.9-7c-0.2,0.3-0.5,0.6-0.7,0.8
		c-2.5,2.9-5.1,5.7-7.7,8.5c-9.7,10.2-20.2,19.7-31.1,28.6c-16.5,13.4-34.2,25.5-52.7,36.2c-23.8,13.8-49,25.4-74.9,34.6
		c-31.5,11.2-64.1,18.9-97.2,23.5c-37.5,5.2-76.5,7.4-114.1,2.5c-33.9-4.4-67-14.4-98.1-28.3c-27.4-12.2-53.5-27.4-78.1-44.6
		c-19-13.3-37.2-28-54.3-43.7c-8.1-7.5-16.1-15.1-23.6-23.2c5.1,2.7,10.3,5.2,15.5,7.7c1.3,0.6,2.4-1.3,1.1-1.9
		c-6.9-3.2-13.7-6.7-20.4-10.3c-0.8-0.4-1.9,0.3-1.6,1.3c2.4,8.4,4.3,16.9,5.8,25.4c0.2,1.4,2.4,0.8,2.1-0.6
		c-1.1-6.8-2.6-13.6-4.4-20.3c4.9,5.3,10,10.4,15.2,15.4c15.2,14.6,31.3,28.3,48.1,41c23.3,17.6,48,33.3,74,46.5
		c29.7,15.1,61.2,26.8,93.8,33.6c36.8,7.7,74.3,7.9,111.7,4.7c35.1-3,69.8-9.4,103.5-19.5c27.8-8.4,54.9-19.3,80.6-32.8
		c20.5-10.7,40.1-23.1,58.5-37c12.8-9.7,25.1-20.1,36.5-31.5c5.2-5.2,10.5-10.5,15-16.3c-2,6.1-3.9,12.2-5.6,18.4
		c-0.4,1.4,1.8,2,2.1,0.6c2.1-7.6,4.5-15.1,7-22.6C893,229.3,891.8,228.7,891,229z"/>
	<g>
		<path class="st26" d="M577.7,526.6h-15.5c-2.3,0-4.1-1.9-4.1-4.1v-31.7c0-2.3,1.9-4.1,4.1-4.1h15.5c2.3,0,4.1,1.9,4.1,4.1v31.7
			C581.9,524.7,580,526.6,577.7,526.6z"/>
		<circle class="st24" cx="570" cy="514.3" r="9"/>
	</g>
	<g>
		<path class="st26" d="M577.7,636.6h-15.5c-2.3,0-4.1-1.9-4.1-4.1v-31.7c0-2.3,1.9-4.1,4.1-4.1h15.5c2.3,0,4.1,1.9,4.1,4.1v31.7
			C581.9,634.7,580,636.6,577.7,636.6z"/>
		<circle class="st24" cx="570" cy="624.3" r="9"/>
	</g>
	<g>
		<path class="st26" d="M457.9,494.1h-15.5c-2.3,0-4.1-1.9-4.1-4.1v-31.7c0-2.3,1.9-4.1,4.1-4.1h15.5c2.3,0,4.1,1.9,4.1,4.1V490
			C462.1,492.3,460.2,494.1,457.9,494.1z"/>
		<circle class="st27" cx="450.3" cy="466.3" r="9"/>
	</g>
	<path class="st26" d="M457.7,668h-15.5c-2.3,0-4.1-1.9-4.1-4.1v-31.7c0-2.3,1.9-4.1,4.1-4.1h15.5c2.3,0,4.1,1.9,4.1,4.1v31.7
		C461.8,666.1,459.9,668,457.7,668z"/>
	<circle class="st27" cx="450.3" cy="639.9" r="9"/>
	<ellipse class="st28" cx="504.6" cy="501.2" rx="38.6" ry="31.6"/>
	<g>
		<g>
			<path class="st19" d="M479.6,512.1v-22h4v18.7h8.9v3.3H479.6z"/>
			<path class="st19" d="M494,501.6v-1.1c0-7.6,2.8-10.8,8.6-10.8c5.8,0,8.6,3.2,8.6,10.8v1.1c0,7.6-2.8,10.8-8.6,10.8
				C496.8,512.4,494,509.3,494,501.6z M502.7,509.1c3.2,0,4.4-2.5,4.4-7.5v-1.1c0-5-1.1-7.5-4.4-7.5h-0.3c-3.2,0-4.4,2.5-4.4,7.5
				v1.1c0,5,1.1,7.5,4.4,7.5H502.7z"/>
			<path class="st19" d="M518.9,500.6l-6-10.6h4.6l4.2,7.9l4.2-7.9h4.6l-6,10.6l6,11.5h-4.4l-4.4-8.8l-4.3,8.8h-4.5L518.9,500.6z"/>
		</g>
	</g>
	<ellipse class="st29" cx="504.6" cy="617.8" rx="38.3" ry="31.3"/>
	<g>
		<g>
			<path class="st19" d="M484.5,625.5h0.3c2.7,0,3.7-1.7,3.7-4.5h4v0.3c0,5.2-2.7,7.4-7.9,7.4c-5.7,0-8.4-3.2-8.4-10.7V617
				c0-7.6,2.7-10.7,8.4-10.7c5.3,0,7.9,2.3,7.9,7.6v1h-4c0-3.5-0.9-5.3-3.7-5.3h-0.3c-3.3,0-4.3,2.5-4.3,7.4v1.1
				C480.1,623,481.1,625.5,484.5,625.5z"/>
			<path class="st19" d="M495.2,618.1V617c0-7.6,2.7-10.7,8.5-10.7c5.7,0,8.5,3.2,8.5,10.7v1.1c0,7.6-2.7,10.7-8.5,10.7
				C498,628.8,495.2,625.6,495.2,618.1z M503.9,625.5c3.2,0,4.3-2.5,4.3-7.4V617c0-4.9-1.1-7.4-4.3-7.4h-0.3c-3.2,0-4.3,2.5-4.3,7.4
				v1.1c0,4.9,1.1,7.4,4.3,7.4H503.9z"/>
			<path class="st19" d="M519.9,617.1l-5.9-10.5h4.6l4.2,7.9l4.1-7.9h4.6l-5.9,10.5l5.9,11.4h-4.4l-4.4-8.7l-4.3,8.7H514
				L519.9,617.1z"/>
		</g>
	</g>
	<g>
		<path class="st26" d="M355.7,333.8h-15.5c-2.3,0-4.1-1.9-4.1-4.1V298c0-2.3,1.9-4.1,4.1-4.1h15.5c2.3,0,4.1,1.9,4.1,4.1v31.7
			C359.9,332,358,333.8,355.7,333.8z"/>
		<circle class="st27" cx="348" cy="305.7" r="9"/>
	</g>
	<g>
		<path class="st26" d="M799.8,336.1h-15.5c-2.3,0-4.1-1.9-4.1-4.1v-31.7c0-2.3,1.9-4.1,4.1-4.1h15.5c2.3,0,4.1,1.9,4.1,4.1V332
			C803.9,334.3,802,336.1,799.8,336.1z"/>
		<circle class="st24" cx="792" cy="323.8" r="9"/>
	</g>
	<path class="st24" d="M796,529.5c-2.2-11.2-5.4-22.1-9.6-32.7c-3.5-8.8-7.6-17.4-12.2-25.6c-3.4-5.9-7-11.7-11.1-17.3
		c-1.5-2.1-3.1-4.2-4.7-6.3c3.3,2.1,6.6,4.1,10,5.9c1.3,0.7,2.4-1.3,1.1-2c-5.5-2.9-10.8-6.2-15.8-9.9c-0.8-0.6-2,0.4-1.7,1.3
		c2,6,4,12,4.8,18.3c0.1,0.6,0.5,1.1,1.1,1.1c0.6,0,1.2-0.5,1.1-1.1c-0.6-4.3-1.6-8.5-2.9-12.6c1,1.2,1.9,2.4,2.8,3.6
		c3.6,4.8,6.9,9.8,10,14.9c4.6,7.5,8.6,15.3,12.2,23.4c4.4,9.9,7.9,20.2,10.5,30.8c3,12,4.7,24.4,5,36.8c0.3,12.7-0.8,25.4-3.4,37.8
		c-2.2,10.9-5.5,21.6-9.7,31.9c-3.5,8.7-7.7,17.1-12.4,25.1c-3.4,5.9-7.1,11.6-11.1,17c-0.8,1.1-1.6,2.1-2.4,3.1
		c1.5-3.5,2.9-7.1,4.1-10.7c0.5-1.4-1.7-2-2.2-0.6c-1.9,5.8-4.3,11.4-7,16.9c-0.5,1,0.5,2.1,1.6,1.6c5.6-2.9,11.2-5.9,17.3-7.7
		c1.4-0.4,0.8-2.6-0.6-2.2c-4.2,1.3-8.1,3-12,5c0.3-0.4,0.7-0.8,1-1.3c3.7-4.8,7.1-9.8,10.3-15c4.7-7.6,8.9-15.4,12.5-23.5
		c4.5-9.9,8.1-20.2,10.8-30.8c3.1-12,4.9-24.4,5.3-36.8C799.5,555,798.4,542.1,796,529.5z"/>
	<path class="st19" d="M459.5,519.1c-5.3,3.7-10.6,7.3-16.5,10c-0.6,0.3-0.8,1.2-0.5,1.8c0.4,0.7,1.1,0.7,1.8,0.5
		c3.9-1.8,7.6-4,11.2-6.4c-12.4,17.6-30.5,30.8-51.4,36.4c-6.4,1.8-12.9,2.7-19.6,2.5c-1.5-0.1-1.5,2.2,0,2.3
		c11.8,0.5,23.6,3.6,34,9.3c7.8,4.3,14.6,9.9,20.9,16c3.1,2.9,6.1,6,9.1,9c-4-1.7-8.1-3.2-12.4-4.2c-1.6-0.4-2.3,2.1-0.7,2.5
		c6.2,1.4,12,3.9,17.8,6.5c1.1,0.5,2.5-0.6,1.8-1.8c-3.1-5.2-5.9-10.7-8.2-16.3c-0.3-0.6-0.9-1.1-1.6-0.9c-0.6,0.2-1.2,0.9-0.9,1.6
		c1.3,3.2,2.8,6.4,4.4,9.5c-5.3-5.4-10.7-10.8-16.7-15.6c-7.4-5.9-15.5-10.6-24.5-13.7c-3.4-1.2-7-2.1-10.5-2.8
		c7.5-1.2,14.8-3.7,21.7-6.8c10.3-4.6,19.6-11.2,27.6-19.2c3.7-3.7,7-7.6,10.1-11.8c-1,3.4-1.8,6.8-2.5,10.3
		c-0.3,1.6,2.2,2.3,2.5,0.7c1.2-6.1,2.9-12.1,5-17.9C461.7,519.5,460.4,518.4,459.5,519.1z"/>
	<g>
		<g>
			<path class="st19" d="M25.6,148.8h-4.9v-27h8.9c4.4,0,9.5,1.2,9.5,8.1v0.7c0,6.9-5.1,8.1-9.5,8.1h-4V148.8z M29.8,134.7
				c1.9,0,4.4-0.7,4.4-4.2V130c0-3.6-2.5-4.2-4.4-4.2h-4.2v8.8H29.8z"/>
			<path class="st19" d="M51.7,130v4.4h-0.8c-2.6,0-3.9,1.1-4.5,1.9v12.5h-4.7v-13.2l-0.3-5.2h4.2l0.4,2.2c1.1-1.5,2.8-2.7,5.2-2.7
				C51.4,130,51.6,130,51.7,130z"/>
			<path class="st19" d="M53.4,140.2V139c0-5.3,2.7-9.1,8.7-9.1c6.1,0,8.7,3.8,8.7,9.1v1.1c0,5.2-2.7,9.1-8.7,9.1
				C56.1,149.2,53.4,145.4,53.4,140.2z M66.2,140.2V139c0-3.2-1.2-5.2-4-5.2c-2.8,0-4,2-4,5.2v1.1c0,3.2,1.2,5.1,4,5.1
				C64.9,145.3,66.2,143.3,66.2,140.2z"/>
			<path class="st19" d="M79.4,127.2h-5.2v-4.9h5.2V127.2z M74.4,130.4h4.7v18.3h-4.7V130.4z"/>
			<path class="st19" d="M95.3,148.8v-11.8c0-1.8-0.9-3-3.1-3c-2.2,0-3.5,1.2-4,2.1v12.8h-4.7v-13.2l-0.3-5.2h4.2l0.4,2.4
				C89,131.2,91,130,94,130c4.2,0,5.9,2.9,5.9,6.2v12.6H95.3z"/>
			<path class="st19" d="M110,130.4h4.6v3.9H110v14.4h-4.7v-14.4h-3v-3.9h3V127c0-4.7,2.8-6.4,6.7-6.4c1.7,0,2.7,0.3,3,0.5v3.7
				c-0.2-0.1-1.2-0.3-1.9-0.3c-2,0-3.1,0.6-3.1,3V130.4z"/>
			<path class="st19" d="M118.2,121.1h4.7v27.7h-4.7V121.1z"/>
			<path class="st19" d="M138.5,146.7c-1.3,1.5-3.4,2.6-6.3,2.6c-4.1,0-5.8-2.5-5.8-5.4v-0.3c0-4,3-5.2,6.7-5.7l4.9-0.7v-0.1
				c0-2.3-0.8-3.5-3.2-3.5c-2.6,0-3.2,1.4-3.2,3h-4.5v-0.3c0-3.1,1.7-6.2,7.8-6.2c6,0,7.8,2.7,7.8,7v6.6l0.3,5.2h-4.2L138.5,146.7z
				 M138.1,143.6v-3.9l-4,0.6c-2,0.3-2.9,1.2-2.9,2.6v0.3c0,1.1,0.8,2.2,2.7,2.2C136.1,145.5,137.4,144.4,138.1,143.6z"/>
			<path class="st19" d="M168.9,148.8v-12.2c0-1.9-0.9-2.7-2.7-2.7c-2,0-3,1.1-3.6,2v12.9h-4.7v-12.2c0-1.9-1-2.7-2.8-2.7
				c-2,0-3,1.1-3.5,2v12.9h-4.7v-13.2l-0.3-5.2h4.2l0.4,2.3c1.2-1.6,3-2.7,5.9-2.7c2.6,0,4.2,1.1,5,2.9c1.1-1.7,3.1-2.9,6-2.9
				c3.9,0,5.7,2.5,5.7,6v12.8H168.9z"/>
			<path class="st19" d="M199.7,148.8v-12.2c0-1.9-0.9-2.7-2.7-2.7c-2,0-3,1.1-3.6,2v12.9h-4.7v-12.2c0-1.9-1-2.7-2.8-2.7
				c-2,0-3,1.1-3.5,2v12.9h-4.7v-13.2l-0.3-5.2h4.2l0.4,2.3c1.2-1.6,3-2.7,5.9-2.7c2.6,0,4.2,1.1,5,2.9c1.1-1.7,3.1-2.9,6-2.9
				c3.9,0,5.7,2.5,5.7,6v12.8H199.7z"/>
			<path class="st19" d="M219.7,146.7c-1.3,1.5-3.4,2.6-6.3,2.6c-4.1,0-5.8-2.5-5.8-5.4v-0.3c0-4,3-5.2,6.7-5.7l4.9-0.7v-0.1
				c0-2.3-0.8-3.5-3.2-3.5c-2.6,0-3.2,1.4-3.2,3h-4.5v-0.3c0-3.1,1.7-6.2,7.8-6.2c6,0,7.8,2.7,7.8,7v6.6l0.3,5.2H220L219.7,146.7z
				 M219.2,143.6v-3.9l-4,0.6c-2,0.3-2.9,1.2-2.9,2.6v0.3c0,1.1,0.8,2.2,2.7,2.2C217.2,145.5,218.6,144.4,219.2,143.6z"/>
			<path class="st19" d="M239.4,130.4v3.9H234v7.9c0,2.5,1.2,3,3.1,3c0.7,0,1.6-0.1,1.9-0.2v3.7c-0.3,0.1-1.3,0.5-3,0.5
				c-4,0-6.7-1.7-6.7-6.4v-8.4h-3v-3.9h3v-5.2h4.7v5.2H239.4z"/>
			<path class="st19" d="M242.1,140.2V139c0-5.3,2.7-9.1,8.7-9.1c6.1,0,8.7,3.8,8.7,9.1v1.1c0,5.2-2.7,9.1-8.7,9.1
				C244.8,149.2,242.1,145.4,242.1,140.2z M254.9,140.2V139c0-3.2-1.2-5.2-4-5.2c-2.8,0-4,2-4,5.2v1.1c0,3.2,1.2,5.1,4,5.1
				C253.6,145.3,254.9,143.3,254.9,140.2z"/>
			<path class="st19" d="M273.1,130v4.4h-0.8c-2.6,0-3.9,1.1-4.5,1.9v12.5h-4.7v-13.2l-0.3-5.2h4.2l0.4,2.2c1.1-1.5,2.8-2.7,5.2-2.7
				C272.8,130,273,130,273.1,130z"/>
			<path class="st19" d="M288.4,130.4h5.1l-6.8,17.4l-2.6,7.8h-5.6l3.1-7.8l-6.8-17.4h5.1l4.2,12.7L288.4,130.4z"/>
			<path class="st19" d="M42.7,192.5v-12.2c0-1.9-0.9-2.7-2.7-2.7c-2,0-3,1.1-3.6,2v12.9h-4.7v-12.2c0-1.9-1-2.7-2.8-2.7
				c-2,0-3,1.1-3.5,2v12.9h-4.7v-13.2l-0.3-5.2h4.2l0.4,2.3c1.2-1.6,3-2.7,5.9-2.7c2.6,0,4.2,1.1,5,2.9c1.1-1.7,3.1-2.9,6-2.9
				c3.9,0,5.7,2.5,5.7,6v12.8H42.7z"/>
			<path class="st19" d="M62.6,190.4c-1.3,1.5-3.4,2.6-6.3,2.6c-4.1,0-5.8-2.5-5.8-5.4v-0.3c0-4,3-5.2,6.7-5.7l4.9-0.7v-0.1
				c0-2.3-0.8-3.5-3.2-3.5c-2.6,0-3.2,1.4-3.2,3h-4.5v-0.3c0-3.1,1.7-6.2,7.8-6.2c6,0,7.8,2.7,7.8,7v6.6l0.3,5.2H63L62.6,190.4z
				 M62.1,187.4v-3.9l-4,0.6c-2,0.3-2.9,1.2-2.9,2.6v0.3c0,1.1,0.8,2.2,2.7,2.2C60.2,189.3,61.5,188.2,62.1,187.4z"/>
			<path class="st19" d="M78.8,189c2.4,0,3.4-1.4,3.4-3.2h4.5v0.7c0,3.5-2.6,6.4-8,6.4c-5.9,0-8.5-3.8-8.5-9.1v-1.1
				c0-5.3,2.6-9.1,8.5-9.1c5.5,0,8,3,8,6.7v0.8h-4.5c0-2.1-1.1-3.5-3.4-3.5c-2.8,0-3.9,2-3.9,5.2v1.1C74.9,187,76,189,78.8,189z"/>
			<path class="st19" d="M100.1,173.7v4.4h-0.8c-2.6,0-3.9,1.1-4.5,1.9v12.5h-4.7v-13.2l-0.3-5.2H94l0.4,2.2
				c1.1-1.5,2.8-2.7,5.2-2.7C99.8,173.7,100,173.7,100.1,173.7z"/>
			<path class="st19" d="M101.8,183.9v-1.1c0-5.3,2.7-9.1,8.7-9.1c6.1,0,8.7,3.8,8.7,9.1v1.1c0,5.2-2.7,9.1-8.7,9.1
				C104.5,193,101.8,189.1,101.8,183.9z M114.6,183.9v-1.1c0-3.2-1.2-5.2-4-5.2c-2.8,0-4,2-4,5.2v1.1c0,3.2,1.2,5.1,4,5.1
				C113.4,189,114.6,187,114.6,183.9z"/>
			<path class="st19" d="M127.5,190.8v8.6h-4.7v-20.1l-0.3-5.2h4.2l0.4,2.3c1.1-1.6,2.8-2.7,5.6-2.7c5.3,0,7.2,3.8,7.2,9.1v1.1
				c0,5.2-1.9,9.1-7.2,9.1C130.2,193,128.6,192.1,127.5,190.8z M127.5,186.9c0.6,0.9,1.8,2.1,3.8,2.1c2.7,0,3.8-1.9,3.8-5.1v-1.1
				c0-3.2-1.1-5.2-3.8-5.2c-2,0-3.2,1.2-3.8,2.1V186.9z"/>
			<path class="st19" d="M148.1,176c1.2-1.3,3.1-2.3,5.8-2.3c4.2,0,5.9,2.9,5.9,6.2v12.6h-4.7v-11.8c0-1.8-0.9-3-3.1-3
				c-2.2,0-3.5,1.2-4,2.1v12.8h-4.7v-27.7h4.7V176z"/>
			<path class="st19" d="M175.1,190.4c-1.3,1.5-3.4,2.6-6.3,2.6c-4.1,0-5.8-2.5-5.8-5.4v-0.3c0-4,3-5.2,6.7-5.7l4.9-0.7v-0.1
				c0-2.3-0.8-3.5-3.2-3.5c-2.6,0-3.2,1.4-3.2,3h-4.5v-0.3c0-3.1,1.7-6.2,7.8-6.2c6,0,7.8,2.7,7.8,7v6.6l0.3,5.2h-4.2L175.1,190.4z
				 M174.6,187.4v-3.9l-4,0.6c-2,0.3-2.9,1.2-2.9,2.6v0.3c0,1.1,0.8,2.2,2.7,2.2C172.7,189.3,174,188.2,174.6,187.4z"/>
			<path class="st19" d="M195,189.7c-1.1,1.2-2.7,2.1-5.1,2.1c-5.2,0-7.3-3.5-7.3-8.6v-0.9c0-4.8,2.1-8.6,7.3-8.6
				c2.8,0,4.5,1.1,5.6,2.7l0.4-2.2h4.2l-0.3,5.2v12.9c0,4.8-2.6,7.6-8.5,7.6c-6.2,0-8.3-3-8.3-6.7v-0.7h4.5c0,2.3,0.9,3.7,3.7,3.7
				c2.7,0,3.9-1.1,3.9-3.9V189.7z M195,179.7c-0.6-0.9-1.8-2.1-3.8-2.1c-2.6,0-3.8,1.9-3.8,4.7v0.9c0,3,1.3,4.7,3.8,4.7
				c2,0,3.2-1.2,3.8-2.1V179.7z"/>
			<path class="st19" d="M207.9,185c0.2,3,1.6,4.5,4.3,4.5c2.6,0,3.9-1.5,3.9-2.8h4.5v0.1c0,3.3-2.9,6.2-8.5,6.2c-6.2,0-9-3.9-9-9.2
				v-0.9c0-5.2,2.9-9.2,8.9-9.2c5.9,0,8.6,3.9,8.6,9.2v2.1H207.9z M207.9,181.7h8c-0.1-2.9-1.4-4.5-4-4.5
				C209.4,177.2,208.1,178.8,207.9,181.7z"/>
			<path class="st19" d="M230.8,179.7c0-8,2.4-12.2,5.4-16.3h5c-3.1,4.4-5.6,9.1-5.6,16.3v0.7c0,7.2,2.5,11.9,5.6,16.3h-5
				c-3-4.1-5.4-8.3-5.4-16.3V179.7z"/>
			<path class="st19" d="M260,192.5h-4.9l-6.1-18.9l0.1,5.6v13.4h-4.9v-27h7.2l6.1,19l6.1-19h7.2v27h-4.9v-13.4l0.1-5.6L260,192.5z"
				/>
			<path class="st19" d="M275.3,192.5v-4.1h6.6v-17.2l-5.2,3.3l-2.4-3.4l8.9-5.7h3.5v23h6.6v4.1H275.3z"/>
			<path class="st19" d="M306.1,180.4c0,8-2.4,12.2-5.4,16.3h-5c3.1-4.4,5.6-9.1,5.6-16.3v-0.7c0-7.2-2.4-11.9-5.6-16.3h5
				c3,4.1,5.4,8.3,5.4,16.3V180.4z"/>
		</g>
	</g>
	<g>
		<g>
			<path class="st19" d="M839.5,148.3h-4.9v-27h8.9c4.4,0,9.5,1.2,9.5,8.1v0.7c0,6.9-5.1,8.1-9.5,8.1h-4V148.3z M843.7,134.2
				c1.9,0,4.4-0.7,4.4-4.2v-0.4c0-3.6-2.5-4.2-4.4-4.2h-4.2v8.8H843.7z"/>
			<path class="st19" d="M865.6,129.6v4.4h-0.8c-2.6,0-3.9,1.1-4.5,1.9v12.5h-4.7v-13.2l-0.3-5.2h4.2l0.4,2.2
				c1.1-1.5,2.8-2.7,5.2-2.7C865.3,129.5,865.5,129.6,865.6,129.6z"/>
			<path class="st19" d="M867.3,139.7v-1.1c0-5.3,2.7-9.1,8.7-9.1c6.1,0,8.7,3.8,8.7,9.1v1.1c0,5.2-2.7,9.1-8.7,9.1
				C870,148.8,867.3,144.9,867.3,139.7z M880.1,139.7v-1.1c0-3.2-1.2-5.2-4-5.2c-2.8,0-4,2-4,5.2v1.1c0,3.2,1.2,5.1,4,5.1
				C878.8,144.8,880.1,142.9,880.1,139.7z"/>
			<path class="st19" d="M898.3,129.6v4.4h-0.8c-2.6,0-3.9,1.1-4.5,1.9v12.5h-4.7v-13.2l-0.3-5.2h4.2l0.4,2.2
				c1.1-1.5,2.8-2.7,5.2-2.7C898,129.5,898.2,129.6,898.3,129.6z"/>
			<path class="st19" d="M904.7,140.8c0.2,3,1.6,4.5,4.3,4.5c2.6,0,3.9-1.5,3.9-2.8h4.5v0.1c0,3.3-2.9,6.2-8.5,6.2
				c-6.2,0-9-3.9-9-9.2v-0.9c0-5.2,2.9-9.2,8.9-9.2c5.9,0,8.6,3.9,8.6,9.2v2.1H904.7z M904.7,137.5h8c-0.1-2.9-1.4-4.5-4-4.5
				C906.2,133,904.9,134.6,904.7,137.5z"/>
			<path class="st19" d="M931.8,143c0-1.6-0.9-2.1-3.7-2.4c-5.4-0.4-7.4-1.8-7.4-5.1v-0.3c0-3.9,3.2-5.8,7.8-5.8
				c5.5,0,7.8,2.5,7.8,6.3v0.2h-4.6c0-1.8-0.9-2.9-3.2-2.9c-2,0-3.1,0.8-3.1,2.2c0,1.4,0.7,2,3.5,2.2c4.8,0.4,7.7,1.5,7.7,5.2v0.2
				c0,3.6-2.7,6-8.1,6c-5.6,0-8.1-2.7-8.1-6.1v-0.1h4.7c0,1.5,0.8,2.7,3.4,2.7C930.7,145.3,931.8,144.3,931.8,143z"/>
			<path class="st19" d="M939.3,139.7v-1.1c0-5.3,2.7-9.1,8.7-9.1s8.7,3.8,8.7,9.1v1.1c0,5.2-2.7,9.1-8.7,9.1
				S939.3,144.9,939.3,139.7z M952.1,139.7v-1.1c0-3.2-1.2-5.2-4-5.2c-2.8,0-4,2-4,5.2v1.1c0,3.2,1.2,5.1,4,5.1
				C950.8,144.8,952.1,142.9,952.1,139.7z"/>
			<path class="st19" d="M960.4,120.6h4.7v27.7h-4.7V120.6z"/>
			<path class="st19" d="M973.9,130v11.8c0,1.8,0.9,3,3.1,3c2.2,0,3.4-1.2,4-2.1V130h4.7v13.2l0.3,5.2h-4.2l-0.4-2.4
				c-1.2,1.7-3.2,2.9-6.3,2.9c-4.2,0-5.9-2.9-5.9-6.3V130H973.9z"/>
			<path class="st19" d="M1001.7,130v3.9h-5.4v7.9c0,2.5,1.2,3,3.1,3c0.7,0,1.6-0.1,1.9-0.2v3.7c-0.3,0.1-1.3,0.5-3,0.5
				c-4,0-6.7-1.7-6.7-6.4v-8.4h-3V130h3v-5.2h4.7v5.2H1001.7z"/>
			<path class="st19" d="M1010.3,126.8h-5.2v-4.9h5.2V126.8z M1005.3,130h4.7v18.3h-4.7V130z"/>
			<path class="st19" d="M1013.6,139.7v-1.1c0-5.3,2.7-9.1,8.7-9.1c6.1,0,8.8,3.8,8.8,9.1v1.1c0,5.2-2.7,9.1-8.8,9.1
				C1016.3,148.8,1013.6,144.9,1013.6,139.7z M1026.3,139.7v-1.1c0-3.2-1.2-5.2-4-5.2c-2.8,0-4,2-4,5.2v1.1c0,3.2,1.2,5.1,4,5.1
				C1025.1,144.8,1026.3,142.9,1026.3,139.7z"/>
			<path class="st19" d="M1046.3,148.3v-11.8c0-1.8-0.9-3-3.1-3c-2.2,0-3.5,1.2-4,2.1v12.8h-4.7v-13.2l-0.3-5.2h4.2l0.4,2.4
				c1.2-1.7,3.2-2.9,6.3-2.9c4.2,0,5.9,2.9,5.9,6.2v12.6H1046.3z"/>
			<path class="st19" d="M856.6,192.1v-12.2c0-1.9-0.9-2.7-2.7-2.7c-2,0-3,1.1-3.6,2v12.9h-4.7v-12.2c0-1.9-1-2.7-2.8-2.7
				c-2,0-3,1.1-3.5,2v12.9h-4.7v-13.2l-0.3-5.2h4.2l0.4,2.3c1.2-1.6,3-2.7,5.9-2.7c2.6,0,4.2,1.1,5,2.9c1.1-1.7,3.1-2.9,6-2.9
				c3.9,0,5.7,2.5,5.7,6v12.8H856.6z"/>
			<path class="st19" d="M876.5,190c-1.3,1.5-3.4,2.6-6.3,2.6c-4.1,0-5.8-2.5-5.8-5.4v-0.3c0-4,3-5.2,6.7-5.7l4.9-0.7v-0.1
				c0-2.3-0.8-3.5-3.2-3.5c-2.6,0-3.2,1.4-3.2,3h-4.5v-0.3c0-3.1,1.7-6.2,7.8-6.2c6,0,7.8,2.7,7.8,7v6.6l0.3,5.2h-4.2L876.5,190z
				 M876.1,186.9V183l-4,0.6c-2,0.3-2.9,1.2-2.9,2.6v0.3c0,1.1,0.8,2.2,2.7,2.2C874.1,188.8,875.4,187.7,876.1,186.9z"/>
			<path class="st19" d="M892.7,188.6c2.4,0,3.4-1.4,3.4-3.2h4.5v0.7c0,3.5-2.6,6.4-8,6.4c-5.9,0-8.5-3.8-8.5-9.1v-1.1
				c0-5.3,2.6-9.1,8.5-9.1c5.5,0,8,3,8,6.7v0.8h-4.5c0-2.1-1.1-3.5-3.4-3.5c-2.8,0-3.9,2-3.9,5.2v1.1
				C888.8,186.6,889.9,188.6,892.7,188.6z"/>
			<path class="st19" d="M914,173.3v4.4h-0.8c-2.6,0-3.9,1.1-4.5,1.9v12.5H904v-13.2l-0.3-5.2h4.2l0.4,2.2c1.1-1.5,2.8-2.7,5.2-2.7
				C913.7,173.3,913.9,173.3,914,173.3z"/>
			<path class="st19" d="M915.7,183.4v-1.1c0-5.3,2.7-9.1,8.7-9.1c6.1,0,8.8,3.8,8.8,9.1v1.1c0,5.2-2.7,9.1-8.8,9.1
				C918.4,192.5,915.7,188.7,915.7,183.4z M928.5,183.4v-1.1c0-3.2-1.2-5.2-4-5.2c-2.8,0-4,2-4,5.2v1.1c0,3.2,1.2,5.1,4,5.1
				C927.3,188.6,928.5,186.6,928.5,183.4z"/>
			<path class="st19" d="M941.4,190.4v8.6h-4.7v-20.1l-0.3-5.2h4.2l0.4,2.3c1.1-1.6,2.8-2.7,5.6-2.7c5.3,0,7.2,3.8,7.2,9.1v1.1
				c0,5.2-1.9,9.1-7.2,9.1C944.1,192.5,942.5,191.6,941.4,190.4z M941.4,186.5c0.6,0.9,1.8,2.1,3.8,2.1c2.7,0,3.8-1.9,3.8-5.1v-1.1
				c0-3.2-1.1-5.2-3.8-5.2c-2,0-3.2,1.2-3.8,2.1V186.5z"/>
			<path class="st19" d="M962,175.6c1.2-1.3,3.1-2.3,5.8-2.3c4.2,0,5.9,2.9,5.9,6.2v12.6H969v-11.8c0-1.8-0.9-3-3.1-3
				c-2.2,0-3.5,1.2-4,2.1v12.8h-4.7v-27.7h4.7V175.6z"/>
			<path class="st19" d="M989,190c-1.3,1.5-3.4,2.6-6.3,2.6c-4.1,0-5.8-2.5-5.8-5.4v-0.3c0-4,3-5.2,6.7-5.7l4.9-0.7v-0.1
				c0-2.3-0.8-3.5-3.2-3.5c-2.6,0-3.2,1.4-3.2,3h-4.5v-0.3c0-3.1,1.7-6.2,7.8-6.2c6,0,7.8,2.7,7.8,7v6.6l0.3,5.2h-4.2L989,190z
				 M988.5,186.9V183l-4,0.6c-2,0.3-2.9,1.2-2.9,2.6v0.3c0,1.1,0.8,2.2,2.7,2.2C986.6,188.8,987.9,187.7,988.5,186.9z"/>
			<path class="st19" d="M1008.9,189.2c-1.1,1.2-2.7,2.1-5.1,2.1c-5.2,0-7.3-3.5-7.3-8.6v-0.9c0-4.8,2.1-8.6,7.3-8.6
				c2.8,0,4.5,1.1,5.6,2.7l0.4-2.2h4.2l-0.3,5.2v12.9c0,4.8-2.6,7.6-8.5,7.6c-6.2,0-8.3-3-8.3-6.7v-0.7h4.5c0,2.3,0.9,3.7,3.7,3.7
				c2.7,0,3.9-1.1,3.9-3.9V189.2z M1008.9,179.3c-0.6-0.9-1.8-2.1-3.8-2.1c-2.6,0-3.8,1.9-3.8,4.7v0.9c0,3,1.3,4.7,3.8,4.7
				c2,0,3.2-1.2,3.8-2.1V179.3z"/>
			<path class="st19" d="M1021.8,184.6c0.2,3,1.6,4.5,4.3,4.5c2.6,0,3.9-1.5,3.9-2.8h4.5v0.1c0,3.3-2.9,6.2-8.5,6.2
				c-6.2,0-9-3.9-9-9.2v-0.9c0-5.2,2.9-9.2,8.9-9.2c5.9,0,8.6,3.9,8.6,9.2v2.1H1021.8z M1021.8,181.2h8c-0.1-2.9-1.4-4.5-4-4.5
				C1023.3,176.8,1022,178.3,1021.8,181.2z"/>
			<path class="st19" d="M1044.7,179.3c0-8,2.4-12.2,5.4-16.3h5c-3.1,4.4-5.6,9.1-5.6,16.3v0.7c0,7.2,2.5,11.9,5.6,16.3h-5
				c-3-4.1-5.4-8.3-5.4-16.3V179.3z"/>
			<path class="st19" d="M1073.9,192.1h-4.9l-6.1-18.9l0.1,5.6v13.4h-4.9v-27h7.2l6.1,19l6.1-19h7.2v27h-4.9v-13.4l0.1-5.6
				L1073.9,192.1z"/>
			<path class="st19" d="M1107.1,188v4.1h-18.4v-2.9l11.4-11.8c1.5-1.6,2.2-2.6,2.2-4.2v-0.3c0-2.7-1.7-4.2-4.2-4.2h-0.3
				c-2.7,0-4.3,1.5-4.3,5.4h-4.8v-0.7c0-5.7,2.9-8.7,9.2-8.7c6.6,0,9.2,3.7,9.2,7.4v0.6c0,3-1,4.6-3.2,7l-8.2,8.5l2.6,0H1107.1z"/>
			<path class="st19" d="M1120,179.9c0,8-2.4,12.2-5.4,16.3h-5c3.1-4.4,5.6-9.1,5.6-16.3v-0.7c0-7.2-2.4-11.9-5.6-16.3h5
				c3,4.1,5.4,8.3,5.4,16.3V179.9z"/>
		</g>
	</g>
	<g>
		<g>
			<path class="st20" d="M354.2,715.6h-4.9v-27h8.9c4.4,0,9.5,1.2,9.5,8.1v0.7c0,6.9-5.1,8.1-9.5,8.1h-4V715.6z M358.4,701.4
				c1.9,0,4.4-0.7,4.4-4.2v-0.4c0-3.6-2.5-4.2-4.4-4.2h-4.2v8.8H358.4z"/>
			<path class="st20" d="M370.1,702.8v-1.4c0-9.3,3.5-13.3,10.6-13.3c6.5,0,9.9,2.8,9.9,9.4v1.2h-4.9c0-4.3-1.2-6.5-4.7-6.5h-0.3
				c-4.2,0-5.6,3.1-5.6,9.2v1.4c0,6.1,1.4,9.2,5.9,9.2h0.3c2,0,3.5-0.6,4.5-1.4v-5.2h-4.1v-4h9v11.5c-1.9,1.6-4.7,3.1-9.6,3.1
				C373.6,716,370.1,712.1,370.1,702.8z"/>
			<path class="st20" d="M405.6,710.2c0-1.6-0.9-2.1-3.7-2.4c-5.4-0.4-7.4-1.8-7.4-5.1v-0.3c0-3.9,3.2-5.8,7.8-5.8
				c5.5,0,7.8,2.5,7.8,6.3v0.2h-4.6c0-1.8-0.9-2.9-3.2-2.9c-2,0-3.1,0.8-3.1,2.2c0,1.4,0.7,2,3.5,2.2c4.8,0.4,7.7,1.5,7.7,5.2v0.2
				c0,3.6-2.7,6-8.1,6c-5.6,0-8.1-2.7-8.1-6.1v-0.1h4.7c0,1.5,0.8,2.7,3.4,2.7C404.5,712.5,405.6,711.6,405.6,710.2z"/>
		</g>
	</g>
	<g>
		<g>
			<path class="st20" d="M724.7,716.6h-4.9v-27h8.9c4.4,0,9.5,1.2,9.5,8.1v0.7c0,6.9-5.1,8.1-9.5,8.1h-4V716.6z M728.9,702.4
				c1.9,0,4.4-0.7,4.4-4.2v-0.4c0-3.6-2.5-4.2-4.4-4.2h-4.2v8.8H728.9z"/>
			<path class="st20" d="M740.5,703.8v-1.4c0-9.3,3.5-13.3,10.6-13.3c6.5,0,9.9,2.8,9.9,9.4v1.2h-4.9c0-4.3-1.2-6.5-4.7-6.5h-0.3
				c-4.2,0-5.6,3.1-5.6,9.2v1.4c0,6.1,1.4,9.2,5.9,9.2h0.3c2,0,3.5-0.6,4.5-1.4v-5.2h-4.1v-4h9v11.5c-1.9,1.6-4.7,3.1-9.6,3.1
				C744.1,717,740.5,713.1,740.5,703.8z"/>
			<path class="st20" d="M782.3,689.6v4.1h-12v7.2h10.2v4h-10.2v7.7h12v4.1h-16.9v-27H782.3z"/>
			<path class="st20" d="M803.9,712.5v4.1h-18.4v-2.9l11.4-11.8c1.5-1.6,2.2-2.6,2.2-4.2v-0.3c0-2.7-1.8-4.2-4.2-4.2h-0.3
				c-2.7,0-4.3,1.5-4.3,5.4h-4.8v-0.7c0-5.7,2.9-8.7,9.2-8.7c6.6,0,9.2,3.7,9.2,7.4v0.6c0,3-1,4.6-3.2,7l-8.2,8.5l2.6,0H803.9z"/>
		</g>
	</g>
</g>
<g id="Red_Arrow">
	<g>
		<linearGradient id="SVGID_20_" gradientUnits="userSpaceOnUse" x1="241.5476" y1="331.5817" x2="134.5952" y2="516.8287">
			<stop  offset="0" style="stop-color:#BD1622;stop-opacity:0.6"/>
			<stop  offset="1" style="stop-color:#BD1622"/>
		</linearGradient>
		<path class="st30" d="M324.2,380.2H141.9c-3.1,0-5.6-2.5-5.6-5.6l0-30.6c0-4.7-5.4-7.2-9-4.4L22.4,422.7c-2.8,2.2-2.8,6.6,0.1,8.8
			l105.1,81.2c3.7,2.8,9,0.2,9-4.4l0-30.5c0-3.1,2.5-5.6,5.6-5.6h182.2c3.1,0,5.6-2.5,5.6-5.6v-80.9
			C329.8,382.6,327.3,380.2,324.2,380.2z"/>
		<g>
			<g>
				<path class="st31" d="M66.4,421.7h-3.8v-20.8h6.8c3.4,0,7.3,1,7.3,6.2v0.5c0,5.3-3.9,6.3-7.3,6.3h-3.1V421.7z M69.6,410.9
					c1.5,0,3.4-0.5,3.4-3.3v-0.3c0-2.7-1.9-3.3-3.4-3.3h-3.2v6.8H69.6z"/>
				<path class="st31" d="M83.2,421.7h-3.8v-20.8h6.8c3.4,0,7.3,1,7.3,6.2v0.5c0,3.3-1.6,5-3.6,5.7l3.6,8.3h-4.1l-3.1-7.8h-3.2
					V421.7z M86.4,410.9c1.5,0,3.4-0.5,3.4-3.3v-0.3c0-2.7-1.9-3.3-3.4-3.3h-3.2v6.8H86.4z"/>
				<path class="st31" d="M95.8,411.9v-1.1c0-7.2,2.6-10.2,8.1-10.2c5.5,0,8.1,3,8.1,10.2v1.1c0,7.2-2.6,10.2-8.1,10.2
					C98.4,422.1,95.8,419.1,95.8,411.9z M104,419c3.1,0,4.1-2.4,4.1-7.1v-1.1c0-4.7-1.1-7.1-4.1-7.1h-0.3c-3.1,0-4.1,2.4-4.1,7.1
					v1.1c0,4.7,1.1,7.1,4.1,7.1H104z"/>
				<path class="st31" d="M118.8,421.7H115v-20.8h3.8V421.7z"/>
				<path class="st31" d="M137.9,421.7h-4l-8.1-14.3l0.1,4.4v9.9h-3.6v-20.8h4l8.1,14.3l-0.1-4.4v-9.9h3.6V421.7z"/>
				<path class="st31" d="M154.1,400.9v3.1H145v5.5h7.7v3.1H145v9.1h-3.8v-20.8H154.1z"/>
				<path class="st31" d="M156.4,421.7v-20.8h3.8v17.7h8.4v3.1H156.4z"/>
				<path class="st31" d="M180.4,400.8l5.8,20.9h-4l-1.2-4.7h-6.2l-1.2,4.7h-4.1l5.8-20.9H180.4z M175.5,413.9h4.6l-2.3-9
					L175.5,413.9z"/>
				<path class="st31" d="M200.5,421.7h-3.8l-4.7-14.6l0.1,4.3v10.3h-3.8v-20.8h5.5l4.7,14.6l4.7-14.6h5.5v20.8H205v-10.3l0.1-4.3
					L200.5,421.7z"/>
				<path class="st31" d="M224.3,421.7h-3.8l-4.7-14.6l0.1,4.3v10.3h-3.8v-20.8h5.5l4.7,14.6l4.7-14.6h5.5v20.8h-3.8v-10.3l0.1-4.3
					L224.3,421.7z"/>
				<path class="st31" d="M245.7,400.8l5.8,20.9h-4l-1.2-4.7h-6.2l-1.2,4.7h-4.1l5.8-20.9H245.7z M240.9,413.9h4.6l-2.3-9
					L240.9,413.9z"/>
				<path class="st31" d="M260,421.7h-3.8v-17.7h-5.2v-3.1h14.2v3.1H260V421.7z"/>
				<path class="st31" d="M266.6,411.9v-1.1c0-7.2,2.6-10.2,8.1-10.2c5.5,0,8.1,3,8.1,10.2v1.1c0,7.2-2.6,10.2-8.1,10.2
					C269.2,422.1,266.6,419.1,266.6,411.9z M274.8,419c3.1,0,4.1-2.4,4.1-7.1v-1.1c0-4.7-1.1-7.1-4.1-7.1h-0.3
					c-3.1,0-4.1,2.4-4.1,7.1v1.1c0,4.7,1.1,7.1,4.1,7.1H274.8z"/>
				<path class="st31" d="M289.4,421.7h-3.8v-20.8h6.8c3.4,0,7.3,1,7.3,6.2v0.5c0,3.3-1.6,5-3.6,5.7l3.6,8.3h-4.1l-3.1-7.8h-3.2
					V421.7z M292.7,410.9c1.5,0,3.4-0.5,3.4-3.3v-0.3c0-2.7-1.9-3.3-3.4-3.3h-3.2v6.8H292.7z"/>
				<path class="st31" d="M311.1,421.7h-3.8v-6.3l-6.3-14.4h4.1l4.1,10l4.1-10h4.1l-6.3,14.4V421.7z"/>
				<path class="st31" d="M62.1,436.5v-0.3c0-3.7,2.7-6,7.5-6c5.2,0,7.5,2.3,7.5,7v0.6h-3.8c0-3.1-1.1-4.5-3.7-4.5h-0.3
					c-2.1,0-3.4,1.1-3.4,2.7v0.2c0,1.7,0.8,2.7,4.3,3.1c4.8,0.6,7,2.2,7,5.9v0.3c0,3.9-2.8,6.2-7.7,6.2c-5,0-7.7-2.3-7.7-7.1v-0.3
					h3.8c0,3,1.4,4.2,3.8,4.2h0.3c2.4,0,3.7-1.2,3.7-2.9v-0.2c0-1.8-1.1-2.8-4.4-3.2C64.3,441.7,62.1,439.9,62.1,436.5z"/>
				<path class="st31" d="M83.9,451.3h-3.8v-20.8h3.8V451.3z"/>
				<path class="st31" d="M87,441.5v-1.1c0-7.2,2.7-10.2,8.2-10.2c5,0,7.6,2.2,7.6,7.2v0.9h-3.8c0-3.3-0.9-5-3.6-5h-0.3
					c-3.2,0-4.3,2.4-4.3,7.1v1.1c0,4.7,1.1,7.1,4.5,7.1h0.3c1.5,0,2.7-0.5,3.5-1v-4h-3.2v-3.1h6.9v8.8c-1.5,1.3-3.6,2.4-7.4,2.4
					C89.7,451.7,87,448.7,87,441.5z"/>
				<path class="st31" d="M121.6,451.3h-4l-8.1-14.3l0.1,4.4v9.9h-3.6v-20.8h4l8.1,14.3l-0.1-4.4v-9.9h3.6V451.3z"/>
				<path class="st31" d="M134.8,430.4l5.8,20.9h-4l-1.2-4.7h-6.2l-1.2,4.7h-4.1l5.8-20.9H134.8z M129.9,443.5h4.6l-2.3-9
					L129.9,443.5z"/>
				<path class="st31" d="M142.8,451.3v-20.8h3.8v17.7h8.4v3.1H142.8z"/>
				<path class="st31" d="M161,451.3h-3.8v-20.8h3.8V451.3z"/>
				<path class="st31" d="M180.1,451.3h-4L168,437l0.1,4.4v9.9h-3.6v-20.8h4l8.1,14.3l-0.1-4.4v-9.9h3.6V451.3z"/>
				<path class="st31" d="M183,441.5v-1.1c0-7.2,2.7-10.2,8.2-10.2c5,0,7.6,2.2,7.6,7.2v0.9h-3.8c0-3.3-0.9-5-3.6-5h-0.3
					c-3.2,0-4.3,2.4-4.3,7.1v1.1c0,4.7,1.1,7.1,4.5,7.1h0.3c1.5,0,2.7-0.5,3.5-1v-4h-3.2v-3.1h6.9v8.8c-1.5,1.3-3.6,2.4-7.3,2.4
					C185.7,451.7,183,448.7,183,441.5z"/>
			</g>
		</g>
	</g>
</g>
<g id="Green_Arrow">
	<g>
		
			<linearGradient id="SVGID_21_" gradientUnits="userSpaceOnUse" x1="-4036.6411" y1="340.9638" x2="-4207.9395" y2="512.2621" gradientTransform="matrix(-1 0 0 1 -3170.8269 0)">
			<stop  offset="0" style="stop-color:#006633;stop-opacity:0.6"/>
			<stop  offset="1" style="stop-color:#006633"/>
		</linearGradient>
		<path class="st32" d="M828.9,380.2h169.4c3.1,0,5.6-2.5,5.6-5.6l0-30.6c0-4.7,5.4-7.2,9-4.4l104.9,83.1c2.8,2.2,2.8,6.6-0.1,8.8
			l-105.1,81.2c-3.7,2.8-9,0.2-9-4.4l0-30.5c0-3.1-2.5-5.6-5.6-5.6H828.9c-3.1,0-5.6-2.5-5.6-5.6v-80.9
			C823.4,382.6,825.9,380.2,828.9,380.2z"/>
		<g>
			<g>
				<path class="st31" d="M853.1,421.7h-3.8v-20.8h6.8c3.4,0,7.3,1,7.3,6.2v0.5c0,5.3-3.9,6.3-7.3,6.3h-3.1V421.7z M856.3,410.9
					c1.5,0,3.4-0.5,3.4-3.3v-0.3c0-2.7-1.9-3.3-3.4-3.3h-3.2v6.8H856.3z"/>
				<path class="st31" d="M869.9,421.7h-3.8v-20.8h6.8c3.4,0,7.3,1,7.3,6.2v0.5c0,3.3-1.6,5-3.6,5.7l3.6,8.3h-4.1l-3.1-7.8h-3.2
					V421.7z M873.1,410.9c1.5,0,3.4-0.5,3.4-3.3v-0.3c0-2.7-1.9-3.3-3.4-3.3h-3.2v6.8H873.1z"/>
				<path class="st31" d="M882.5,411.9v-1.1c0-7.2,2.6-10.2,8.1-10.2c5.5,0,8.1,3,8.1,10.2v1.1c0,7.2-2.6,10.2-8.1,10.2
					C885.1,422.1,882.5,419.1,882.5,411.9z M890.7,419c3.1,0,4.1-2.4,4.1-7.1v-1.1c0-4.7-1.1-7.1-4.1-7.1h-0.3
					c-3.1,0-4.1,2.4-4.1,7.1v1.1c0,4.7,1.1,7.1,4.1,7.1H890.7z"/>
				<path class="st31" d="M905.3,421.7h-3.8v-20.8h6.8c3.4,0,7.3,1,7.3,6.2v0.5c0,3.3-1.6,5-3.6,5.7l3.6,8.3h-4.1l-3.1-7.8h-3.2
					V421.7z M908.6,410.9c1.5,0,3.4-0.5,3.4-3.3v-0.3c0-2.7-1.9-3.3-3.4-3.3h-3.2v6.8H908.6z"/>
				<path class="st31" d="M931.7,400.9v3.1h-9.3v5.5h7.9v3.1h-7.9v5.9h9.3v3.1h-13v-20.8H931.7z"/>
				<path class="st31" d="M934.1,406.9v-0.3c0-3.7,2.7-6,7.5-6c5.2,0,7.5,2.3,7.5,7v0.6h-3.8c0-3.1-1.1-4.5-3.7-4.5h-0.3
					c-2.1,0-3.4,1.1-3.4,2.7v0.2c0,1.7,0.8,2.7,4.3,3.1c4.8,0.6,7,2.2,7,5.9v0.3c0,3.9-2.8,6.2-7.7,6.2c-5,0-7.7-2.3-7.7-7.1v-0.3
					h3.8c0,3,1.4,4.2,3.8,4.2h0.3c2.4,0,3.7-1.2,3.7-2.9v-0.2c0-1.8-1.1-2.8-4.4-3.2C936.2,412,934.1,410.3,934.1,406.9z"/>
				<path class="st31" d="M951.5,411.9v-1.1c0-7.2,2.6-10.2,8.1-10.2c5.5,0,8.1,3,8.1,10.2v1.1c0,7.2-2.6,10.2-8.1,10.2
					C954.1,422.1,951.5,419.1,951.5,411.9z M959.7,419c3.1,0,4.1-2.4,4.1-7.1v-1.1c0-4.7-1.1-7.1-4.1-7.1h-0.3
					c-3.1,0-4.1,2.4-4.1,7.1v1.1c0,4.7,1.1,7.1,4.1,7.1H959.7z"/>
				<path class="st31" d="M970.6,421.7v-20.8h3.8v17.7h8.4v3.1H970.6z"/>
				<path class="st31" d="M984.3,415.2v-14.3h3.8v14.1c0,2.7,1,3.9,3.9,3.9c2.8,0,3.8-1.1,3.8-3.9v-14.1h3.8v14.3
					c0,4.7-2.1,6.9-7.6,6.9C986.4,422.1,984.3,419.9,984.3,415.2z"/>
				<path class="st31" d="M1010.7,421.7h-3.8v-17.7h-5.2v-3.1h14.2v3.1h-5.2V421.7z"/>
				<path class="st31" d="M1022,421.7h-3.8v-20.8h3.8V421.7z"/>
				<path class="st31" d="M1025.1,411.9v-1.1c0-7.2,2.6-10.2,8.1-10.2c5.5,0,8.1,3,8.1,10.2v1.1c0,7.2-2.6,10.2-8.1,10.2
					C1027.7,422.1,1025.1,419.1,1025.1,411.9z M1033.3,419c3.1,0,4.1-2.4,4.1-7.1v-1.1c0-4.7-1.1-7.1-4.1-7.1h-0.3
					c-3.1,0-4.1,2.4-4.1,7.1v1.1c0,4.7,1.1,7.1,4.1,7.1H1033.3z"/>
				<path class="st31" d="M1059.7,421.7h-4l-8.1-14.3l0.1,4.4v9.9h-3.6v-20.8h4l8.1,14.3l-0.1-4.4v-9.9h3.6V421.7z"/>
				<path class="st31" d="M923.2,436.5v-0.3c0-3.7,2.7-6,7.5-6c5.2,0,7.5,2.3,7.5,7v0.6h-3.8c0-3.1-1.1-4.5-3.7-4.5h-0.3
					c-2.1,0-3.4,1.1-3.4,2.7v0.2c0,1.7,0.8,2.7,4.3,3.1c4.8,0.6,7,2.2,7,5.9v0.3c0,3.9-2.8,6.2-7.7,6.2c-5,0-7.7-2.3-7.7-7.1v-0.3
					h3.8c0,3,1.4,4.2,3.8,4.2h0.3c2.4,0,3.7-1.2,3.7-2.9v-0.2c0-1.8-1.1-2.8-4.4-3.2C925.3,441.7,923.2,439.9,923.2,436.5z"/>
				<path class="st31" d="M945,451.3h-3.8v-20.8h3.8V451.3z"/>
				<path class="st31" d="M948.1,441.5v-1.1c0-7.2,2.7-10.2,8.2-10.2c5,0,7.6,2.2,7.6,7.2v0.9h-3.8c0-3.3-0.9-5-3.6-5h-0.3
					c-3.2,0-4.3,2.4-4.3,7.1v1.1c0,4.7,1.1,7.1,4.5,7.1h0.3c1.5,0,2.7-0.5,3.5-1v-4H957v-3.1h6.9v8.8c-1.5,1.3-3.6,2.4-7.4,2.4
					C950.8,451.7,948.1,448.7,948.1,441.5z"/>
				<path class="st31" d="M982.7,451.3h-4l-8.1-14.3l0.1,4.4v9.9h-3.6v-20.8h4l8.1,14.3l-0.1-4.4v-9.9h3.6V451.3z"/>
				<path class="st31" d="M995.8,430.4l5.8,20.9h-4l-1.2-4.7h-6.2l-1.2,4.7h-4.1l5.8-20.9H995.8z M991,443.5h4.6l-2.3-9L991,443.5z"
					/>
				<path class="st31" d="M1003.8,451.3v-20.8h3.8v17.7h8.4v3.1H1003.8z"/>
				<path class="st31" d="M1022,451.3h-3.8v-20.8h3.8V451.3z"/>
				<path class="st31" d="M1041.1,451.3h-4l-8.1-14.3l0.1,4.4v9.9h-3.6v-20.8h4l8.1,14.3l-0.1-4.4v-9.9h3.6V451.3z"/>
				<path class="st31" d="M1044.1,441.5v-1.1c0-7.2,2.7-10.2,8.2-10.2c5,0,7.6,2.2,7.6,7.2v0.9h-3.8c0-3.3-0.9-5-3.6-5h-0.3
					c-3.2,0-4.3,2.4-4.3,7.1v1.1c0,4.7,1.1,7.1,4.5,7.1h0.3c1.5,0,2.7-0.5,3.5-1v-4h-3.2v-3.1h6.9v8.8c-1.5,1.3-3.6,2.4-7.3,2.4
					C1046.8,451.7,1044.1,448.7,1044.1,441.5z"/>
			</g>
		</g>
	</g>
</g>
<g id="M2">
	<g>
		<path class="st33" d="M697.6,32.3c-3.2,1.7-6.3,3.9-9.3,5.8c-11.8,7.5-29,10.1-38.5-0.1c-3.4-3.7-5.3-8.6-8.3-12.7
			c-9.4-13-23.8-4.1-31.1,6.1c-4.5,6.2-8.3,13.3-14.8,17.4c-7.9,5.1-18.2,4.6-27.4,2.7s-18.3-5.1-27.7-5
			c-12.7,0.2-26.4,8.9-26.8,21.5c-0.3,9,6.1,17.1,6.5,26.1c0.8,20.4-27.6,31.4-29.9,51.7c-1.6,14.2,10.1,25.8,16.8,38.4
			c6.4,12,8.5,26.3,5.7,39.6c-1.6,7.9-4.9,15.4-6.2,23.4c-1.3,8-0.2,16.9,5.6,22.5c5.7,5.5,14.5,6.3,22.4,5.7
			c7.9-0.6,15.9-2.4,23.7-1c12.4,2.3,21.8,12.2,31.4,20.4c9.6,8.2,22.3,15.6,34.3,11.7c8.3-2.7,14.1-10.2,21.6-14.6
			c8.2-4.9,18.7-5.8,27.6-2.6c8.4,3,16,9.6,24.9,8.9c10.9-0.8,18-12,28-16.4c7.2-3.2,15.5-2.6,23.3-3.5c7.8-0.9,16.4-4.2,19.3-11.5
			c3.7-9.3-3.8-20-1.1-29.7c2.9-10.5,15.8-14.7,21.9-23.7c5.3-7.8,4.5-19.3-1.9-26.3c-3.5-3.8-8.6-6.6-10.2-11.5
			c-4.1-12.5,17.5-21.8,15-34.8c-1.7-9-13.2-11.5-20.6-16.8c-8.1-5.8-12-16.7-9.5-26.3c2.6-9.7,11.1-19.9,5.9-28.5
			c-3.5-5.8-11.4-6.9-18.2-6.6c-6.8,0.2-14.2,0.9-19.7-3c-9.7-7.1-7.9-25.2-19.2-29.4C706.7,28.5,702,29.9,697.6,32.3z"/>
		<path class="st34" d="M717.2,119.1c-16.9-12.3-36.3-22.7-56.7-27.6c-14.4-3.5-29.9-3.8-43.8,1.4c-14,5.2-25.6,15.6-34.7,27.5
			c-9.9,13.1-17.1,28.5-18.5,44.8c-1.4,16.4,3.1,32.8,10.6,47.5c8.3,16.3,21.2,31.3,38.6,37c18.5,6,38.8,0.6,56.3-7.7
			c23.9-11.2,46.2-28.6,58.2-52.5c10.1-20,11-49.1-5.3-66.1C720.5,121.8,718.9,120.4,717.2,119.1"/>
	</g>
</g>
<g id="M1">
	<g>
		<g>
			
				<linearGradient id="SVGID_22_" gradientUnits="userSpaceOnUse" x1="2441.8845" y1="2336.104" x2="2766.0364" y2="2336.104" gradientTransform="matrix(0.857 -0.5152 0.5152 0.857 -2933.4109 -465.9844)">
				<stop  offset="1.068535e-02" style="stop-color:#67B4E5"/>
				<stop  offset="0.3538" style="stop-color:#35A8E0"/>
				<stop  offset="1" style="stop-color:#0080C8"/>
			</linearGradient>
			<path class="st35" d="M445.2,59.3c7,4.9,14.3,9.9,22.5,12.1c7.9,2.1,16.8,1.4,23-4.3c6.6-6,8.9-17.1,17.7-20.5
				c8.2-3.2,17.1,2.9,22.5,9.9c5.3,7,9.3,15.5,16.8,20.1c16.6,10.2,36.1-2.9,53.3-3.3c16.7-0.3,33.5,14.1,26.4,31.6
				c-1.5,3.7-3.5,7.2-4.5,11c-4.7,18.1,14.3,30.3,23.3,43.1c12.9,18.4,2.3,30.6-7.8,46.7c-8.9,14.2-11.8,32.1-7.9,48.4
				c1.7,7.1,4.5,13.9,5.7,21.1c1.2,7.2,0.3,15.2-4.5,20.6c-5.6,6.2-14.9,7.4-23.2,6.8c-8.3-0.6-16.8-2.5-25-0.9
				c-12.4,2.5-21.6,12.5-31.2,20.7c-9.6,8.3-22.4,15.5-34.3,11.3c-7.4-2.7-12.6-9.2-19.3-13.5c-9.3-6-21.7-7.1-31.9-2.8
				c-7.6,3.2-14.5,9.2-22.7,8.9c-11.3-0.5-18.4-12.4-28.7-17c-7.4-3.3-15.8-2.6-23.8-3.6c-8-1-16.8-4.9-19-12.7
				c-2.5-9.1,5.5-18.8,2.8-27.8c-1.8-5.7-7.3-9.3-11.9-13c-5.6-4.5-10.7-10.1-13-17s-1.2-15.1,3.9-20.2c3.1-3.1,7.4-4.9,9.5-8.7
				c3.5-6.2-0.7-13.8-5.2-19.3c-4.5-5.5-9.8-11.8-8.4-18.7c2.3-11.8,19.9-12.5,27.1-22.2c3.8-5.2,4-12.3,2.5-18.5
				c-1.5-6.3-4.4-12.1-6.2-18.3c-1.1-3.7-1.8-7.8-0.3-11.3c2.3-5.6,9-8,15.1-8.3c6.1-0.2,12.2,1.1,18.1,0
				c16.2-2.8,10.6-21,20.4-29.9c3.8-3.5,10-4.2,14.4-1.6"/>
		</g>
		<g>
			<path class="st36" d="M423.2,177.5c15.9-27.8,44-59.5,78.5-61.5c18.2-1,38.4,9,52,20.5c13.4,11.2,23.1,26.9,26.8,44
				c5.3,24.2-1.3,57.7-23,72.3c-9.8,6.5-21.4,9.9-33,11.3c-36.3,4.3-85.3-11.5-101.6-47.1C417.4,204.8,416.6,189.4,423.2,177.5"/>
		</g>
	</g>
</g>
</svg>
