<?xml version="1.0" encoding="utf-8"?>
<!-- Generator: Adobe Illustrator 23.1.1, SVG Export Plug-In . SVG Version: 6.00 Build 0)  -->
<svg version="1.1" id="Layer_1" xmlns="http://www.w3.org/2000/svg" xmlns:xlink="http://www.w3.org/1999/xlink" x="0px" y="0px"
	 viewBox="0 0 1200 820" style="enable-background:new 0 0 1200 820;" xml:space="preserve">
<style type="text/css">
	.st0{fill:url(#SVGID_1_);}
	.st1{fill:url(#SVGID_2_);}
	.st2{fill:url(#SVGID_3_);}
	.st3{fill:url(#SVGID_4_);}
	.st4{fill:url(#SVGID_5_);}
	.st5{fill:url(#SVGID_6_);}
	.st6{fill:url(#SVGID_7_);}
	.st7{fill:url(#SVGID_8_);}
	.st8{fill:url(#SVGID_9_);}
	.st9{fill:url(#SVGID_10_);}
	.st10{fill:url(#SVGID_11_);}
	.st11{fill:url(#SVGID_12_);}
	.st12{fill:url(#SVGID_13_);}
	.st13{fill:url(#SVGID_14_);}
	.st14{fill:url(#SVGID_15_);}
	.st15{fill:url(#SVGID_16_);}
	.st16{fill:url(#SVGID_17_);}
	.st17{fill:url(#SVGID_18_);}
	.st18{fill:url(#SVGID_19_);}
	.st19{fill:#575756;}
	.st20{fill:#1D70B7;}
	.st21{fill:#94C356;}
	.st22{fill:#585857;}
	.st23{fill:#1D1D1B;}
	.st24{fill:#E5332A;}
	.st25{fill:#FFFFFF;stroke:#575756;stroke-width:1.1066;stroke-miterlimit:10;}
	.st26{enable-background:new    ;}
	.st27{opacity:0.8;fill:url(#SVGID_20_);enable-background:new    ;}
	.st28{fill:#FFFFFF;}
	.st29{opacity:0.8;fill:url(#SVGID_21_);enable-background:new    ;}
	.st30{fill:#92D5F6;}
	.st31{fill:#499FD4;}
	.st32{fill:url(#SVGID_22_);}
	.st33{fill:#27348B;}
</style>
<g id="M3">
	<g>
		<g>
			
				<linearGradient id="SVGID_1_" gradientUnits="userSpaceOnUse" x1="464.0783" y1="640.5033" x2="749.8596" y2="640.5033" gradientTransform="matrix(1 0 0 1 0 -22)">
				<stop  offset="0" style="stop-color:#BCE4FA"/>
				<stop  offset="1" style="stop-color:#83D0F5"/>
			</linearGradient>
			<path class="st0" d="M481.2,662.9c4.2-12.4-5.5-24.7-11.1-36.5c-7.6-16.1-7.9-35.4-1.5-52.1s19.1-30.7,34.6-39.6
				c10.2-5.8,21.8-9.7,30.6-17.5c8.7-7.8,13.9-18.7,21-28.1c7.1-9.3,17.8-17.6,29.4-16c16.8,2.4,25,23.5,41.2,28.7
				c14.4,4.6,29.3-4.9,44.4-5.3c10-0.3,19.7,3.5,28.3,8.5c6.4,3.7,12.6,8.3,16.5,14.6c6.3,10.2,5.7,23.1,5.8,35.1
				c0.1,15.9,1.8,32.3,9.2,46.3c7,13.2,19.2,24.6,20.2,39.6c0.8,12.6-6.6,24.1-13.8,34.5c-12.7,18.5-25.4,37-38.2,55.5
				c-5.1,7.4-10.2,14.9-17,20.7s-15.5,9.9-24.5,9.3c-8.6-0.6-16.2-5.3-24-9c-7.8-3.6-17.1-6.2-24.8-2.4
				c-6.9,3.4-11.1,11.2-18.3,13.9s-15.3-0.4-21.4-5c-6.1-4.6-11.1-10.6-17.4-15c-9.6-6.6-21.7-8.7-33.3-8.5
				c-9,0.2-18.4,1.5-26.7-1.9c-12.2-5-18.5-19.3-18.1-32.5C472.6,687.2,475.7,674.9,481.2,662.9"/>
		</g>
		<g>
			
				<linearGradient id="SVGID_2_" gradientUnits="userSpaceOnUse" x1="529.2332" y1="695.2935" x2="673.0655" y2="612.2518" gradientTransform="matrix(1 0 0 1 0 -22)">
				<stop  offset="1.068535e-02" style="stop-color:#67B4E5"/>
				<stop  offset="0.3538" style="stop-color:#35A8E0"/>
				<stop  offset="1" style="stop-color:#0080C8"/>
			</linearGradient>
			<path class="st1" d="M569.8,617.8c-2.8-12.5-5.8-18.3-14.3-18c-10.4,0.4-20.5,10.8-25.7,18.9c-6.1,9.6-9.1,21.2-7.9,32.6
				c2,19.8,15.7,37.6,33.6,46.1c9.5,4.5,20.5,6.7,30.6,3.6s18.6-12.1,18.9-22.6c0.2-6.4-2.3-13.7,1.9-18.5c2.4-2.8,6.3-3.7,9.9-3.6
				c3.6,0.1,7.2,0.9,10.8,1.1c14.5,0.7,27-10,36.4-21.1c5.6-6.7,10.9-14.2,12.2-22.8c2.7-17.6-10.1-37.3-21.2-49.9
				c-3.4-3.8-7.2-7.5-11.9-9.5c-13.5-5.8-25,7-29.1,18.6c-2.9,8.1-3.7,16.7-5.6,25c-1.9,8.3-5.2,16.8-11.7,22.4
				C589.2,626.5,575,627.9,569.8,617.8"/>
		</g>
		<g>
			<g>
				
					<linearGradient id="SVGID_3_" gradientUnits="userSpaceOnUse" x1="508.5202" y1="594.6" x2="527.9607" y2="594.6" gradientTransform="matrix(1 0 0 1 0 -22)">
					<stop  offset="1.068535e-02" style="stop-color:#67B4E5"/>
					<stop  offset="0.3538" style="stop-color:#35A8E0"/>
					<stop  offset="1" style="stop-color:#0080C8"/>
				</linearGradient>
				<path class="st2" d="M518.2,582.3c5.1,0,9.9-4.5,9.7-9.7c-0.2-5.3-4.3-9.7-9.7-9.7c-5.1,0-9.9,4.5-9.7,9.7
					C508.8,577.9,512.8,582.3,518.2,582.3L518.2,582.3z"/>
			</g>
		</g>
		<g>
			<g>
				
					<linearGradient id="SVGID_4_" gradientUnits="userSpaceOnUse" x1="571.2604" y1="605.8822" x2="580.9396" y2="589.1178" gradientTransform="matrix(1 0 0 1 0 -22)">
					<stop  offset="1.068535e-02" style="stop-color:#67B4E5"/>
					<stop  offset="0.3538" style="stop-color:#35A8E0"/>
					<stop  offset="1" style="stop-color:#0080C8"/>
				</linearGradient>
				<path class="st3" d="M576.1,585.2c5.1,0,9.9-4.5,9.7-9.7c-0.2-5.3-4.3-9.7-9.7-9.7c-5.1,0-9.9,4.5-9.7,9.7
					C566.6,580.8,570.7,585.2,576.1,585.2L576.1,585.2z"/>
			</g>
		</g>
		<g>
			<g>
				
					<linearGradient id="SVGID_5_" gradientUnits="userSpaceOnUse" x1="567.2939" y1="546.6" x2="586.7344" y2="546.6" gradientTransform="matrix(1 0 0 1 0 -22)">
					<stop  offset="1.068535e-02" style="stop-color:#67B4E5"/>
					<stop  offset="0.3538" style="stop-color:#35A8E0"/>
					<stop  offset="1" style="stop-color:#0080C8"/>
				</linearGradient>
				<path class="st4" d="M577,534.3c5.1,0,9.9-4.5,9.7-9.7c-0.2-5.3-4.3-9.7-9.7-9.7c-5.1,0-9.9,4.5-9.7,9.7S571.6,534.3,577,534.3
					L577,534.3z"/>
			</g>
		</g>
		<g>
			<g>
				
					<linearGradient id="SVGID_6_" gradientUnits="userSpaceOnUse" x1="609.6364" y1="551.6" x2="629.077" y2="551.6" gradientTransform="matrix(1 0 0 1 0 -22)">
					<stop  offset="1.068535e-02" style="stop-color:#67B4E5"/>
					<stop  offset="0.3538" style="stop-color:#35A8E0"/>
					<stop  offset="1" style="stop-color:#0080C8"/>
				</linearGradient>
				<path class="st5" d="M619.4,539.3c5.1,0,9.9-4.5,9.7-9.7c-0.2-5.3-4.3-9.7-9.7-9.7c-5.1,0-9.9,4.5-9.7,9.7
					S613.9,539.3,619.4,539.3L619.4,539.3z"/>
			</g>
		</g>
		<g>
			<g>
				
					<linearGradient id="SVGID_7_" gradientUnits="userSpaceOnUse" x1="501.7939" y1="737.5" x2="521.2346" y2="737.5" gradientTransform="matrix(1 0 0 1 0 -22)">
					<stop  offset="1.068535e-02" style="stop-color:#67B4E5"/>
					<stop  offset="0.3538" style="stop-color:#35A8E0"/>
					<stop  offset="1" style="stop-color:#0080C8"/>
				</linearGradient>
				<path class="st6" d="M511.5,725.2c5.1,0,9.9-4.5,9.7-9.7c-0.2-5.3-4.3-9.7-9.7-9.7c-5.1,0-9.9,4.5-9.7,9.7
					C502,720.8,506.1,725.2,511.5,725.2L511.5,725.2z"/>
			</g>
		</g>
		<g>
			<g>
				
					<linearGradient id="SVGID_8_" gradientUnits="userSpaceOnUse" x1="609.6398" y1="743.9" x2="629.0803" y2="743.9" gradientTransform="matrix(1 0 0 1 0 -22)">
					<stop  offset="1.068535e-02" style="stop-color:#67B4E5"/>
					<stop  offset="0.3538" style="stop-color:#35A8E0"/>
					<stop  offset="1" style="stop-color:#0080C8"/>
				</linearGradient>
				<path class="st7" d="M619.4,731.6c5.1,0,9.9-4.5,9.7-9.7c-0.2-5.3-4.3-9.7-9.7-9.7c-5.1,0-9.9,4.5-9.7,9.7
					C609.9,727.2,613.9,731.6,619.4,731.6L619.4,731.6z"/>
			</g>
		</g>
		<g>
			<g>
				
					<linearGradient id="SVGID_9_" gradientUnits="userSpaceOnUse" x1="646.2405" y1="754" x2="665.681" y2="754" gradientTransform="matrix(1 0 0 1 0 -22)">
					<stop  offset="1.068535e-02" style="stop-color:#67B4E5"/>
					<stop  offset="0.3538" style="stop-color:#35A8E0"/>
					<stop  offset="1" style="stop-color:#0080C8"/>
				</linearGradient>
				<path class="st8" d="M656,741.7c5.1,0,9.9-4.5,9.7-9.7c-0.2-5.3-4.3-9.7-9.7-9.7c-5.1,0-9.9,4.5-9.7,9.7S650.5,741.7,656,741.7
					L656,741.7z"/>
			</g>
		</g>
		<g>
			<g>
				
					<linearGradient id="SVGID_10_" gradientUnits="userSpaceOnUse" x1="629.0156" y1="705.2" x2="648.4562" y2="705.2" gradientTransform="matrix(1 0 0 1 0 -22)">
					<stop  offset="1.068535e-02" style="stop-color:#67B4E5"/>
					<stop  offset="0.3538" style="stop-color:#35A8E0"/>
					<stop  offset="1" style="stop-color:#0080C8"/>
				</linearGradient>
				<path class="st9" d="M638.7,692.9c5.1,0,9.9-4.5,9.7-9.7c-0.2-5.3-4.3-9.7-9.7-9.7c-5.1,0-9.9,4.5-9.7,9.7
					C629.3,688.4,633.3,692.9,638.7,692.9L638.7,692.9z"/>
			</g>
		</g>
		<g>
			<g>
				
					<linearGradient id="SVGID_11_" gradientUnits="userSpaceOnUse" x1="690.7381" y1="690.1" x2="710.1786" y2="690.1" gradientTransform="matrix(1 0 0 1 0 -22)">
					<stop  offset="1.068535e-02" style="stop-color:#67B4E5"/>
					<stop  offset="0.3538" style="stop-color:#35A8E0"/>
					<stop  offset="1" style="stop-color:#0080C8"/>
				</linearGradient>
				<path class="st10" d="M700.5,677.8c5.1,0,9.9-4.5,9.7-9.7c-0.2-5.3-4.3-9.7-9.7-9.7c-5.1,0-9.9,4.5-9.7,9.7
					S695,677.8,700.5,677.8L700.5,677.8z"/>
			</g>
		</g>
		<g>
			<g>
				
					<linearGradient id="SVGID_12_" gradientUnits="userSpaceOnUse" x1="553.8257" y1="747.8" x2="568.6687" y2="747.8" gradientTransform="matrix(1 0 0 1 0 -22)">
					<stop  offset="1.068535e-02" style="stop-color:#67B4E5"/>
					<stop  offset="0.3538" style="stop-color:#35A8E0"/>
					<stop  offset="1" style="stop-color:#0080C8"/>
				</linearGradient>
				<path class="st11" d="M561.2,733.2c3.9,0,7.6-3.4,7.4-7.4c-0.2-4-3.3-7.4-7.4-7.4c-3.9,0-7.6,3.4-7.4,7.4
					C554,729.8,557.1,733.2,561.2,733.2L561.2,733.2z"/>
			</g>
		</g>
		<g>
			<g>
				
					<linearGradient id="SVGID_13_" gradientUnits="userSpaceOnUse" x1="579.7905" y1="738.1" x2="591.665" y2="738.1" gradientTransform="matrix(1 0 0 1 0 -22)">
					<stop  offset="1.068535e-02" style="stop-color:#67B4E5"/>
					<stop  offset="0.3538" style="stop-color:#35A8E0"/>
					<stop  offset="1" style="stop-color:#0080C8"/>
				</linearGradient>
				<path class="st12" d="M585.7,722c3.1,0,6.1-2.7,5.9-5.9c-0.1-3.2-2.6-5.9-5.9-5.9c-3.1,0-6.1,2.7-5.9,5.9
					C579.9,719.2,582.4,722,585.7,722L585.7,722z"/>
			</g>
		</g>
		<g>
			<g>
				
					<linearGradient id="SVGID_14_" gradientUnits="userSpaceOnUse" x1="479.7448" y1="636" x2="491.6191" y2="636" gradientTransform="matrix(1 0 0 1 0 -22)">
					<stop  offset="1.068535e-02" style="stop-color:#67B4E5"/>
					<stop  offset="0.3538" style="stop-color:#35A8E0"/>
					<stop  offset="1" style="stop-color:#0080C8"/>
				</linearGradient>
				<path class="st13" d="M485.7,619.9c3.1,0,6.1-2.7,5.9-5.9c-0.1-3.2-2.6-5.9-5.9-5.9c-3.1,0-6.1,2.7-5.9,5.9
					C479.9,617.2,482.4,619.9,485.7,619.9L485.7,619.9z"/>
			</g>
		</g>
		<g>
			<g>
				
					<linearGradient id="SVGID_15_" gradientUnits="userSpaceOnUse" x1="591.2327" y1="571.6" x2="603.1071" y2="571.6" gradientTransform="matrix(1 0 0 1 0 -22)">
					<stop  offset="1.068535e-02" style="stop-color:#67B4E5"/>
					<stop  offset="0.3538" style="stop-color:#35A8E0"/>
					<stop  offset="1" style="stop-color:#0080C8"/>
				</linearGradient>
				<path class="st14" d="M597.2,555.5c3.1,0,6.1-2.7,5.9-5.9c-0.1-3.2-2.6-5.9-5.9-5.9c-3.1,0-6.1,2.7-5.9,5.9
					C591.4,552.8,593.8,555.5,597.2,555.5L597.2,555.5z"/>
			</g>
		</g>
		<g>
			<g>
				
					<linearGradient id="SVGID_16_" gradientUnits="userSpaceOnUse" x1="695.87" y1="634.7" x2="707.7443" y2="634.7" gradientTransform="matrix(1 0 0 1 0 -22)">
					<stop  offset="1.068535e-02" style="stop-color:#67B4E5"/>
					<stop  offset="0.3538" style="stop-color:#35A8E0"/>
					<stop  offset="1" style="stop-color:#0080C8"/>
				</linearGradient>
				<path class="st15" d="M701.8,618.6c3.1,0,6.1-2.7,5.9-5.9c-0.1-3.2-2.6-5.9-5.9-5.9c-3.1,0-6.1,2.7-5.9,5.9
					C696,615.9,698.5,618.6,701.8,618.6L701.8,618.6z"/>
			</g>
		</g>
		<g>
			<g>
				
					<linearGradient id="SVGID_17_" gradientUnits="userSpaceOnUse" x1="670.6376" y1="559.9" x2="682.512" y2="559.9" gradientTransform="matrix(1 0 0 1 0 -22)">
					<stop  offset="1.068535e-02" style="stop-color:#67B4E5"/>
					<stop  offset="0.3538" style="stop-color:#35A8E0"/>
					<stop  offset="1" style="stop-color:#0080C8"/>
				</linearGradient>
				<path class="st16" d="M676.6,543.8c3.1,0,6.1-2.7,5.9-5.9c-0.1-3.2-2.6-5.9-5.9-5.9c-3.1,0-6.1,2.7-5.9,5.9
					C670.8,541.1,673.2,543.8,676.6,543.8L676.6,543.8z"/>
			</g>
		</g>
		<g>
			<g>
				
					<linearGradient id="SVGID_18_" gradientUnits="userSpaceOnUse" x1="691.7504" y1="713.6" x2="703.6248" y2="713.6" gradientTransform="matrix(1 0 0 1 0 -22)">
					<stop  offset="1.068535e-02" style="stop-color:#67B4E5"/>
					<stop  offset="0.3538" style="stop-color:#35A8E0"/>
					<stop  offset="1" style="stop-color:#0080C8"/>
				</linearGradient>
				<path class="st17" d="M697.7,697.5c3.1,0,6.1-2.7,5.9-5.9c-0.1-3.2-2.6-5.9-5.9-5.9c-3.1,0-6.1,2.7-5.9,5.9
					C691.9,694.8,694.4,697.5,697.7,697.5L697.7,697.5z"/>
			</g>
		</g>
		<g>
			<g>
				
					<linearGradient id="SVGID_19_" gradientUnits="userSpaceOnUse" x1="646.1055" y1="542.1" x2="657.9799" y2="542.1" gradientTransform="matrix(1 0 0 1 0 -22)">
					<stop  offset="1.068535e-02" style="stop-color:#67B4E5"/>
					<stop  offset="0.3538" style="stop-color:#35A8E0"/>
					<stop  offset="1" style="stop-color:#0080C8"/>
				</linearGradient>
				<path class="st18" d="M652,526c3.1,0,6.1-2.7,5.9-5.9c-0.1-3.2-2.6-5.9-5.9-5.9c-3.1,0-6.1,2.7-5.9,5.9
					C646.3,523.3,648.7,526,652,526L652,526z"/>
			</g>
		</g>
	</g>
</g>
<g id="All">
	<g>
		<g>
			<path class="st19" d="M282.9,617.3l4.1,14.9h-2.9l-0.9-3.4h-4.4l-0.9,3.4H275l4.1-14.9H282.9z M279.4,626.6h3.3l-1.6-6.4
				L279.4,626.6z"/>
			<path class="st19" d="M294,621.9v2.4h-0.4c-1.4,0-2.1,0.6-2.5,1.1v6.8h-2.6V625l-0.2-2.8h2.3l0.2,1.2c0.6-0.8,1.6-1.5,2.9-1.5
				C293.8,621.9,293.9,621.9,294,621.9z"/>
			<path class="st19" d="M301.6,631c-0.7,0.8-1.9,1.4-3.5,1.4c-2.2,0-3.2-1.3-3.2-3v-0.2c0-2.2,1.6-2.9,3.7-3.2l2.7-0.4l0,0
				c0-1.3-0.4-1.9-1.8-1.9s-1.8,0.8-1.8,1.7h-2.5v-0.2c0-1.7,0.9-3.4,4.3-3.4c3.3,0,4.3,1.5,4.3,3.8v3.6l0.2,2.8h-2.3L301.6,631z
				 M301.3,629.4v-2.1l-2.2,0.3c-1.1,0.2-1.6,0.7-1.6,1.4v0.2c0,0.6,0.4,1.2,1.5,1.2C300.2,630.4,301,629.8,301.3,629.4z"/>
			<path class="st19" d="M310.4,630.3c1.3,0,1.9-0.8,1.9-1.7h2.5v0.4c0,1.9-1.4,3.5-4.4,3.5c-3.3,0-4.7-2.1-4.7-5v-0.6
				c0-2.9,1.4-5,4.7-5c3,0,4.4,1.6,4.4,3.7v0.4h-2.5c0-1.2-0.6-1.9-1.9-1.9c-1.5,0-2.1,1.1-2.1,2.8v0.6
				C308.3,629.2,308.9,630.3,310.4,630.3z"/>
			<path class="st19" d="M319.2,623.2c0.7-0.7,1.7-1.3,3.2-1.3c2.3,0,3.3,1.6,3.3,3.4v6.9h-2.6v-6.5c0-1-0.5-1.7-1.7-1.7
				s-1.9,0.7-2.2,1.2v7h-2.6V617h2.6L319.2,623.2L319.2,623.2z"/>
			<path class="st19" d="M330.7,620.4h-2.8v-2.7h2.8V620.4z M327.9,622.1h2.6v10.1h-2.6V622.1z"/>
			<path class="st19" d="M339.4,623.1V617h2.6v12.3l0.2,2.8h-2.3l-0.2-1.3c-0.6,0.9-1.5,1.5-3,1.5c-2.9,0-4-2.1-4-5v-0.6
				c0-2.9,1.1-5,4-5C337.9,621.9,338.8,622.4,339.4,623.1z M339.4,625.2c-0.3-0.5-1-1.2-2.1-1.2c-1.5,0-2.1,1.1-2.1,2.8v0.6
				c0,1.8,0.6,2.8,2.1,2.8c1.1,0,1.8-0.7,2.1-1.1V625.2z"/>
			<path class="st19" d="M343.8,627.5v-0.6c0-2.9,1.5-5,4.8-5s4.8,2.1,4.8,5v0.6c0,2.9-1.5,5-4.8,5
				C345.3,632.4,343.8,630.3,343.8,627.5z M350.8,627.5v-0.6c0-1.7-0.7-2.8-2.2-2.8s-2.2,1.1-2.2,2.8v0.6c0,1.7,0.7,2.8,2.2,2.8
				C350.2,630.3,350.8,629.2,350.8,627.5z"/>
			<path class="st19" d="M361.8,632.2v-6.5c0-1-0.5-1.7-1.7-1.7s-1.9,0.7-2.2,1.2v7h-2.6V625l-0.2-2.8h2.3l0.2,1.3
				c0.7-0.9,1.8-1.6,3.4-1.6c2.3,0,3.3,1.6,3.3,3.4v6.9L361.8,632.2L361.8,632.2z"/>
			<path class="st19" d="M369.4,620.4h-2.8v-2.7h2.8V620.4z M366.6,622.1h2.6v10.1h-2.6V622.1z"/>
			<path class="st19" d="M375.9,630.3c1.3,0,1.9-0.8,1.9-1.7h2.5v0.4c0,1.9-1.4,3.5-4.4,3.5c-3.3,0-4.7-2.1-4.7-5v-0.6
				c0-2.9,1.4-5,4.7-5c3,0,4.4,1.6,4.4,3.7v0.4h-2.5c0-1.2-0.6-1.9-1.9-1.9c-1.5,0-2.1,1.1-2.1,2.8v0.6
				C373.8,629.2,374.4,630.3,375.9,630.3z"/>
			<path class="st19" d="M392.3,631c-0.7,0.8-1.9,1.4-3.5,1.4c-2.2,0-3.2-1.3-3.2-3v-0.2c0-2.2,1.6-2.9,3.7-3.2l2.7-0.4l0,0
				c0-1.3-0.4-1.9-1.8-1.9s-1.8,0.8-1.8,1.7H386v-0.2c0-1.7,0.9-3.4,4.3-3.4c3.3,0,4.3,1.5,4.3,3.8v3.6l0.2,2.8h-2.3L392.3,631z
				 M392,629.4v-2.1l-2.2,0.3c-1.1,0.2-1.6,0.7-1.6,1.4v0.2c0,0.6,0.4,1.2,1.5,1.2C390.9,630.4,391.7,629.8,392,629.4z"/>
			<path class="st19" d="M401.2,630.3c1.3,0,1.9-0.8,1.9-1.7h2.5v0.4c0,1.9-1.4,3.5-4.4,3.5c-3.3,0-4.7-2.1-4.7-5v-0.6
				c0-2.9,1.4-5,4.7-5c3,0,4.4,1.6,4.4,3.7v0.4H403c0-1.2-0.6-1.9-1.9-1.9c-1.5,0-2.1,1.1-2.1,2.8v0.6
				C399,629.2,399.6,630.3,401.2,630.3z"/>
			<path class="st19" d="M410.1,620.4h-2.8v-2.7h2.8V620.4z M407.4,622.1h2.6v10.1h-2.6V622.1z"/>
			<path class="st19" d="M418.8,623.1V617h2.6v12.3l0.2,2.8h-2.3l-0.2-1.3c-0.6,0.9-1.5,1.5-3,1.5c-2.9,0-4-2.1-4-5v-0.6
				c0-2.9,1.1-5,4-5C417.3,621.9,418.2,622.4,418.8,623.1z M418.8,625.2c-0.3-0.5-1-1.2-2.1-1.2c-1.5,0-2.1,1.1-2.1,2.8v0.6
				c0,1.8,0.6,2.8,2.1,2.8c1.1,0,1.8-0.7,2.1-1.1V625.2z"/>
		</g>
	</g>
	<g>
		<g>
			<path class="st20" d="M380.9,480.4v-14.8h2.7v12.6h6v2.2L380.9,480.4L380.9,480.4z"/>
			<path class="st20" d="M395.3,480.4h-2.7v-12.6h-3.7v-2.2H399v2.2h-3.7V480.4z"/>
			<path class="st20" d="M404.3,477.4c0-0.9-0.5-1.2-2-1.3c-2.9-0.2-4.1-1-4.1-2.8v-0.2c0-2.1,1.8-3.2,4.3-3.2c3,0,4.3,1.3,4.3,3.4
				v0.1h-2.5c0-1-0.5-1.6-1.8-1.6c-1.1,0-1.7,0.5-1.7,1.2s0.4,1.1,1.9,1.2c2.7,0.2,4.2,0.8,4.2,2.8v0.1c0,2-1.5,3.3-4.4,3.3
				c-3.1,0-4.4-1.5-4.4-3.3V477h2.6c0,0.8,0.4,1.5,1.8,1.5C403.7,478.7,404.3,478.2,404.3,477.4z"/>
		</g>
	</g>
	<g>
		<g>
			<path class="st20" d="M779.8,469.8v-0.2c0-2.6,2-4.3,5.3-4.3c3.7,0,5.3,1.7,5.3,5v0.4h-2.7c0-2.2-0.8-3.2-2.6-3.2h-0.2
				c-1.5,0-2.4,0.8-2.4,1.9v0.1c0,1.2,0.6,1.9,3,2.2c3.4,0.4,5,1.6,5,4.2v0.2c0,2.8-2,4.4-5.5,4.4c-3.6,0-5.5-1.7-5.5-5.1v-0.2h2.7
				c0,2.1,1,3,2.7,3h0.2c1.7,0,2.6-0.9,2.6-2.1V476c0-1.3-0.8-2-3.1-2.3C781.3,473.5,779.8,472.2,779.8,469.8z"/>
			<path class="st20" d="M795.2,480.4h-2.7v-14.8h4.9c2.4,0,5.2,0.7,5.2,4.4v0.4c0,3.8-2.8,4.5-5.2,4.5h-2.2V480.4z M797.5,472.6
				c1,0,2.4-0.4,2.4-2.3v-0.2c0-2-1.4-2.3-2.4-2.3h-2.3v4.8H797.5z"/>
			<path class="st20" d="M813.1,480.4h-2.7l-3.3-10.4l0.1,3.1v7.3h-2.7v-14.8h3.9l3.3,10.4l3.3-10.4h3.9v14.8h-2.7V473l0.1-3.1
				L813.1,480.4z"/>
			<path class="st20" d="M827.3,477.4c0-0.9-0.5-1.2-2-1.3c-2.9-0.2-4.1-1-4.1-2.8v-0.2c0-2.1,1.8-3.2,4.3-3.2c3,0,4.3,1.3,4.3,3.4
				v0.1h-2.5c0-1-0.5-1.6-1.8-1.6c-1.1,0-1.7,0.5-1.7,1.2s0.4,1.1,1.9,1.2c2.7,0.2,4.2,0.8,4.2,2.8v0.1c0,2-1.5,3.3-4.4,3.3
				c-3.1,0-4.4-1.5-4.4-3.3V477h2.6c0,0.8,0.4,1.5,1.8,1.5C826.7,478.7,827.3,478.2,827.3,477.4z"/>
		</g>
	</g>
	<g>
		<g>
			<path class="st21" d="M384.4,454.5c-8.5-6.5-14.2-16.1-17.9-25.9c-3.8-10.1-5.9-20.8-6.4-31.5c-0.2-5.1-0.1-10.2,0.6-15.3
				c0.2-1.6-2.2-2.3-2.4-0.7c-1.5,10-0.9,20.2,0.9,30.1c2,11.2,5.7,22.3,11.8,31.9c3.3,5.2,7.3,9.8,12.2,13.5
				C384.5,457.7,385.7,455.5,384.4,454.5L384.4,454.5z"/>
		</g>
	</g>
	<g>
		<g>
			<path class="st21" d="M352.3,400.7c3.2-6.1,5.9-12.5,8.2-19c-0.8,0-1.6,0-2.4,0c2,6.9,4.1,13.8,7.4,20.2c0.7,1.4,2.9,0.2,2.2-1.3
				c-3.2-6.2-5.1-12.9-7.1-19.6c-0.4-1.2-2-1.1-2.4,0c-2.2,6.3-4.9,12.5-8,18.5C349.4,400.9,351.5,402.2,352.3,400.7L352.3,400.7z"
				/>
		</g>
	</g>
	<g>
		<g>
			<path class="st21" d="M816.8,456.7c8.9-6.8,14.8-16.5,18.8-26.8c4.1-10.4,6.3-21.7,6.8-32.8c0.2-5.3,0.1-10.7-0.7-15.9
				c-0.2-1.6-2.7-0.9-2.4,0.7c1.5,9.5,0.8,19.4-0.9,28.8c-1.9,10.7-5.4,21.4-11.2,30.7c-3.1,5-7,9.6-11.6,13.2
				C814.3,455.5,815.5,457.7,816.8,456.7L816.8,456.7z"/>
		</g>
	</g>
	<g>
		<g>
			<path class="st21" d="M849.9,399.5c-3.1-6-5.7-12.1-8-18.5c-0.4-1.1-2-1.2-2.4,0c-2,6.7-3.9,13.4-7.1,19.6
				c-0.7,1.4,1.4,2.7,2.2,1.3c3.3-6.4,5.3-13.3,7.4-20.2c-0.8,0-1.6,0-2.4,0c2.3,6.5,5,12.9,8.2,19
				C848.5,402.2,850.6,400.9,849.9,399.5L849.9,399.5z"/>
		</g>
	</g>
	<g>
		<g>
			<path class="st19" d="M424.9,745.5c-6.6,1.4-13.2,3-19.8,4.7c0.5,0.7,1,1.3,1.5,2c4-6.4,7.6-12.9,10.8-19.7
				c0.7-1.6-1.6-2.9-2.3-1.4c-3.2,6.8-6.8,13.3-10.8,19.7c-0.6,1,0.4,2.3,1.5,2c6.6-1.7,13.2-3.3,19.8-4.7
				C427.3,747.7,426.6,745.1,424.9,745.5L424.9,745.5z"/>
		</g>
	</g>
	<g>
		<g>
			<path class="st19" d="M773.4,749.3c6.6,1.4,13.2,3,19.8,4.7c1.1,0.3,2.2-1,1.5-2c-4-6.4-7.6-12.9-10.8-19.7
				c-0.7-1.6-3.1-0.2-2.3,1.4c3.2,6.8,6.8,13.3,10.8,19.7c0.5-0.7,1-1.3,1.5-2c-6.6-1.7-13.2-3.3-19.8-4.7
				C772.4,746.4,771.7,748.9,773.4,749.3L773.4,749.3z"/>
		</g>
	</g>
	<path class="st19" d="M792.2,489.9c-7.3,3.4-14.8,6.5-22.4,9.2c-1.6,0.6-0.9,3.2,0.7,2.6c5.8-2.1,11.6-4.4,17.3-6.8
		c-1.9,1.6-3.9,3.1-5.8,4.6c-7.9,6.1-16.2,11.7-24.8,16.9c-12.4,7.6-25.3,14.4-38.6,20.2c-16.5,7.3-33.6,13.2-51.1,17.5
		c-20,4.9-40.5,7.8-61,8.2c-20.9,0.5-41.9-1.6-62.4-5.9c-17.9-3.8-35.5-9.4-52.4-16.4c-14.2-5.9-28-12.9-41.2-20.7
		c-9.6-5.7-19-11.9-28-18.7c-3.6-2.7-7.2-5.6-10.7-8.5c4,1,8,1.9,12,2.7c1.7,0.4,2.4-2.2,0.7-2.6c-6.6-1.4-13.2-3-19.8-4.7
		c-1.1-0.3-2.2,1-1.5,2c4,6.4,7.6,12.9,10.8,19.7c0.7,1.6,3.1,0.2,2.3-1.4c-2.4-5.1-5.1-10.1-7.9-14.9c2.5,2.3,5.2,4.4,7.8,6.5
		c7.9,6.2,16.2,12,24.7,17.4c12.3,7.8,25.2,14.8,38.5,20.9c16.3,7.5,33.2,13.7,50.5,18.2c19.7,5.2,40,8.3,60.4,9.1
		c21.2,0.8,42.5-1,63.4-5c18.4-3.6,36.5-8.9,53.9-15.9c14.6-5.8,28.8-12.6,42.4-20.4c9.9-5.6,19.5-11.8,28.7-18.5
		c3.6-2.6,7.2-5.3,10.6-8.1c-1.2,3.5-2.2,7.1-3.2,10.7c-0.5,1.7,2.1,2.4,2.6,0.7c1.6-5.8,3.4-11.5,5.4-17.1
		C794.6,490.2,793.2,489.4,792.2,489.9z"/>
	<path class="st21" d="M848,586.4c-2.4-12.3-6-24.3-10.5-35.9c-3.8-9.7-8.3-19.1-13.4-28.1c-3.7-6.5-7.7-12.9-12.1-19
		c-1.7-2.3-3.4-4.7-5.2-6.9c3.6,2.3,7.2,4.5,11,6.5c1.4,0.8,2.7-1.4,1.3-2.2c-6-3.2-11.8-6.8-17.3-10.8c-0.9-0.6-2.2,0.4-1.8,1.4
		c2.2,6.6,4.4,13.2,5.3,20.1c0.1,0.7,0.5,1.2,1.2,1.2c0.6,0,1.3-0.6,1.2-1.2c-0.6-4.7-1.8-9.3-3.2-13.8c1.1,1.3,2.1,2.7,3.1,3.9
		c4,5.2,7.6,10.7,11,16.3c5,8.3,9.5,16.8,13.4,25.7c4.8,10.9,8.7,22.2,11.5,33.8c3.3,13.2,5.2,26.8,5.5,40.4
		c0.4,13.9-0.9,27.9-3.7,41.5c-2.5,12-6.1,23.7-10.7,35c-3.8,9.5-8.4,18.7-13.6,27.6c-3.7,6.4-7.8,12.7-12.2,18.7
		c-0.9,1.2-1.7,2.3-2.6,3.4c1.7-3.9,3.2-7.8,4.5-11.8c0.5-1.5-1.9-2.2-2.4-0.7c-2.1,6.4-4.7,12.6-7.7,18.6c-0.6,1.1,0.6,2.3,1.7,1.7
		c6.1-3.2,12.3-6.5,19-8.5c1.5-0.5,0.9-2.9-0.7-2.4c-4.6,1.4-8.9,3.3-13.2,5.4c0.4-0.5,0.7-0.9,1.1-1.4c4.1-5.3,7.8-10.8,11.3-16.5
		c5.1-8.3,9.7-16.9,13.7-25.8c4.9-10.9,8.9-22.2,11.9-33.8c3.4-13.2,5.4-26.8,5.8-40.4C851.9,614.4,850.7,600.3,848,586.4z"/>
	<g>
		<g>
			<path class="st19" d="M792.4,750.7c-2.8-2.6-5.7-4.9-8.7-7.2c-7.9-6.2-16.2-12-24.7-17.4c-12.3-7.8-25.2-14.8-38.5-20.9
				c-16.3-7.5-33.2-13.7-50.5-18.2c-19.7-5.2-40-8.3-60.4-9.1c-21.2-0.8-42.5,1-63.4,5c-18.4,3.6-36.5,8.9-53.9,15.9
				c-14.6,5.8-28.8,12.6-42.4,20.4c-9.9,5.6-19.5,11.8-28.7,18.5c-4.4,3.2-9,6.5-13.1,10.2c-0.2,0.2-0.4,0.3-0.5,0.5
				c-1.4,1.2,0.6,3.2,2,2c2.7-2.4,5.6-4.7,8.5-6.9c7.9-6.1,16.2-11.7,24.8-16.9c12.4-7.6,25.3-14.4,38.6-20.2
				c16.5-7.3,33.6-13.2,51.1-17.5c20-4.9,40.5-7.8,61-8.2c20.9-0.5,41.9,1.6,62.4,5.9c17.9,3.8,35.5,9.4,52.4,16.4
				c14.2,5.9,28,12.9,41.2,20.7c9.6,5.7,19,11.9,28,18.7c4.3,3.2,8.4,6.5,12.4,10c0.2,0.2,0.4,0.3,0.5,0.5
				C791.7,753.9,793.8,751.9,792.4,750.7L792.4,750.7z"/>
		</g>
	</g>
	<path class="st22" d="M952.3,256.7c-8.2,3.9-16.6,7.3-25.2,10.2c-1.5,0.5-0.8,2.9,0.6,2.4c6.7-2.2,13.2-4.8,19.7-7.6
		c-0.3,0.3-0.5,0.6-0.8,0.9c-2.7,3.2-5.5,6.3-8.4,9.3c-10.7,11.2-22.2,21.6-34.2,31.4c-18.2,14.8-37.6,28-57.8,39.7
		c-26.1,15.2-53.7,27.8-82.2,37.9c-34.5,12.3-70.3,20.8-106.6,25.8c-41.2,5.7-83.9,8.1-125.3,2.8c-37.2-4.8-73.5-15.8-107.7-31
		c-30.1-13.4-58.7-30-85.7-49c-20.9-14.6-40.8-30.7-59.6-47.9c-8.9-8.2-17.7-16.6-25.8-25.5c5.6,2.9,11.3,5.7,17,8.4
		c1.4,0.7,2.7-1.4,1.2-2.1c-7.6-3.6-15-7.3-22.4-11.3c-0.9-0.5-2.1,0.3-1.8,1.4c2.6,9.2,4.8,18.5,6.3,27.9c0.3,1.5,2.6,0.9,2.4-0.6
		c-1.3-7.5-2.9-15-4.8-22.3c5.3,5.9,11,11.5,16.7,16.9c16.7,16.1,34.4,31,52.8,45c25.5,19.3,52.6,36.6,81.2,51
		c32.6,16.5,67.1,29.4,102.9,36.9c40.4,8.5,81.6,8.7,122.6,5.2c38.5-3.3,76.7-10.3,113.6-21.4c30.5-9.2,60.2-21.2,88.5-36
		c22.4-11.8,44-25.3,64.2-40.6c14.1-10.6,27.5-22.1,40.1-34.5c5.7-5.7,11.5-11.5,16.5-17.9c-2.2,6.7-4.2,13.4-6.1,20.2
		c-0.4,1.5,1.9,2.2,2.4,0.6c2.3-8.3,4.9-16.6,7.6-24.8C954.5,257,953.2,256.3,952.3,256.7z"/>
	<g>
		<path class="st23" d="M608.5,583.3h-17c-2.5,0-4.5-2-4.5-4.5V544c0-2.5,2-4.5,4.5-4.5h17c2.5,0,4.5,2,4.5,4.5v34.8
			C613,581.2,611,583.3,608.5,583.3z"/>
		<circle class="st21" cx="600" cy="569.7" r="9.9"/>
	</g>
	<g>
		<path class="st23" d="M608.5,704h-17c-2.5,0-4.5-2-4.5-4.5v-34.8c0-2.5,2-4.5,4.5-4.5h17c2.5,0,4.5,2,4.5,4.5v34.8
			C613,701.9,611,704,608.5,704z"/>
		<circle class="st21" cx="600" cy="690.4" r="9.9"/>
	</g>
	<g>
		<path class="st23" d="M477,547.6h-17c-2.5,0-4.5-2-4.5-4.5v-34.8c0-2.5,2-4.5,4.5-4.5h17c2.5,0,4.5,2,4.5,4.5v34.8
			C481.6,545.6,479.5,547.6,477,547.6z"/>
		<circle class="st24" cx="468.7" cy="517.1" r="9.9"/>
	</g>
	<path class="st23" d="M476.7,738.4h-17c-2.5,0-4.5-2-4.5-4.5v-34.8c0-2.5,2-4.5,4.5-4.5h17c2.5,0,4.5,2,4.5,4.5v34.8
		C481.2,736.4,479.2,738.4,476.7,738.4z"/>
	<circle class="st24" cx="468.7" cy="707.6" r="9.9"/>
	<ellipse class="st25" cx="528.2" cy="555.4" rx="26" ry="21.2"/>
	<g>
		<g class="st26">
			<path class="st19" d="M511.4,562.7v-14.8h2.7v12.6h6v2.2H511.4z"/>
			<path class="st19" d="M520.9,555.7v-0.8c0-5.1,1.9-7.3,5.8-7.3c3.9,0,5.8,2.1,5.8,7.3v0.8c0,5.1-1.9,7.3-5.8,7.3
				C522.8,562.9,520.9,560.8,520.9,555.7z M526.8,560.7c2.2,0,2.9-1.7,2.9-5.1v-0.8c0-3.3-0.8-5.1-2.9-5.1h-0.2
				c-2.2,0-2.9,1.7-2.9,5.1v0.8c0,3.3,0.8,5.1,2.9,5.1H526.8z"/>
			<path class="st19" d="M537.4,555l-4-7.1h3.1l2.8,5.3l2.8-5.3h3.1l-4,7.1l4,7.7h-3l-3-5.9l-2.9,5.9h-3L537.4,555z"/>
		</g>
	</g>
	<ellipse class="st25" cx="528.2" cy="683.4" rx="26" ry="21.2"/>
	<g>
		<g class="st26">
			<path class="st19" d="M515.2,688.7h0.2c1.8,0,2.5-1.2,2.5-3h2.7v0.2c0,3.5-1.8,5.1-5.4,5.1c-3.9,0-5.7-2.1-5.7-7.3v-0.8
				c0-5.1,1.8-7.3,5.7-7.3c3.6,0,5.4,1.6,5.4,5.2v0.6h-2.7c0-2.4-0.6-3.6-2.5-3.6h-0.2c-2.2,0-2.9,1.7-2.9,5.1v0.8
				C512.3,687,513,688.7,515.2,688.7z"/>
			<path class="st19" d="M522.4,683.7v-0.8c0-5.1,1.9-7.3,5.8-7.3c3.9,0,5.8,2.1,5.8,7.3v0.8c0,5.1-1.9,7.3-5.8,7.3
				C524.2,690.9,522.4,688.8,522.4,683.7z M528.2,688.7c2.2,0,2.9-1.7,2.9-5.1v-0.8c0-3.3-0.8-5.1-2.9-5.1H528
				c-2.2,0-2.9,1.7-2.9,5.1v0.8c0,3.3,0.8,5.1,2.9,5.1H528.2z"/>
			<path class="st19" d="M538.9,683l-4-7.1h3.1l2.8,5.3l2.8-5.3h3.1l-4,7.1l4,7.7h-3l-3-5.9l-2.9,5.9h-3L538.9,683z"/>
		</g>
	</g>
	<g>
		<path class="st23" d="M364.8,371.7h-17c-2.5,0-4.5-2-4.5-4.5v-34.8c0-2.5,2-4.5,4.5-4.5h17c2.5,0,4.5,2,4.5,4.5v34.8
			C369.4,369.7,367.3,371.7,364.8,371.7z"/>
		<circle class="st24" cx="356.3" cy="340.9" r="9.9"/>
	</g>
	<g>
		<path class="st23" d="M852.1,374.2h-17c-2.5,0-4.5-2-4.5-4.5v-34.8c0-2.5,2-4.5,4.5-4.5h17c2.5,0,4.5,2,4.5,4.5v34.8
			C856.7,372.2,854.6,374.2,852.1,374.2z"/>
		<circle class="st21" cx="843.7" cy="360.7" r="9.9"/>
	</g>
	<path class="st21" d="M848,586.4c-2.4-12.3-6-24.3-10.5-35.9c-3.8-9.7-8.3-19.1-13.4-28.1c-3.7-6.5-7.7-12.9-12.1-19
		c-1.7-2.3-3.4-4.7-5.2-6.9c3.6,2.3,7.2,4.5,11,6.5c1.4,0.8,2.7-1.4,1.3-2.2c-6-3.2-11.8-6.8-17.3-10.8c-0.9-0.6-2.2,0.4-1.8,1.4
		c2.2,6.6,4.4,13.2,5.3,20.1c0.1,0.7,0.5,1.2,1.2,1.2c0.6,0,1.3-0.6,1.2-1.2c-0.6-4.7-1.8-9.3-3.2-13.8c1.1,1.3,2.1,2.7,3.1,3.9
		c4,5.2,7.6,10.7,11,16.3c5,8.3,9.5,16.8,13.4,25.7c4.8,10.9,8.7,22.2,11.5,33.8c3.3,13.2,5.2,26.8,5.5,40.4
		c0.4,13.9-0.9,27.9-3.7,41.5c-2.5,12-6.1,23.7-10.7,35c-3.8,9.5-8.4,18.7-13.6,27.6c-3.7,6.4-7.8,12.7-12.2,18.7
		c-0.9,1.2-1.7,2.3-2.6,3.4c1.7-3.9,3.2-7.8,4.5-11.8c0.5-1.5-1.9-2.2-2.4-0.7c-2.1,6.4-4.7,12.6-7.7,18.6c-0.6,1.1,0.6,2.3,1.7,1.7
		c6.1-3.2,12.3-6.5,19-8.5c1.5-0.5,0.9-2.9-0.7-2.4c-4.6,1.4-8.9,3.3-13.2,5.4c0.4-0.5,0.7-0.9,1.1-1.4c4.1-5.3,7.8-10.8,11.3-16.5
		c5.1-8.3,9.7-16.9,13.7-25.8c4.9-10.9,8.9-22.2,11.9-33.8c3.4-13.2,5.4-26.8,5.8-40.4C851.9,614.4,850.7,600.3,848,586.4z"/>
	<path class="st19" d="M510.9,575c-5.8,4-11.6,8.1-18.1,11c-0.7,0.3-0.9,1.3-0.5,1.9c0.4,0.7,1.2,0.8,1.9,0.5
		c4.3-1.9,8.3-4.4,12.3-7c-13.6,19.3-33.5,33.8-56.4,40c-7.1,1.9-14.1,3-21.5,2.7c-1.6-0.1-1.6,2.4,0,2.5c12.9,0.5,25.9,4,37.3,10.3
		c8.5,4.7,16,10.9,23,17.6c3.4,3.2,6.7,6.6,10,9.9c-4.4-1.8-8.9-3.5-13.6-4.6c-1.8-0.4-2.5,2.3-0.8,2.7c6.8,1.6,13.2,4.3,19.5,7.1
		c1.2,0.5,2.7-0.6,1.9-1.9c-3.4-5.8-6.4-11.7-9-17.9c-0.3-0.7-0.9-1.2-1.7-1c-0.7,0.2-1.3,1-1,1.7c1.5,3.6,3.1,7,4.8,10.5
		c-5.9-5.9-11.8-11.9-18.3-17.1c-8.1-6.5-17-11.7-26.9-15.1c-3.8-1.3-7.6-2.3-11.5-3.1c8.2-1.3,16.3-4,23.8-7.5
		c11.3-5.1,21.6-12.3,30.3-21c4-4,7.7-8.4,11-13c-1.1,3.7-2,7.5-2.8,11.3c-0.4,1.8,2.4,2.5,2.7,0.8c1.3-6.7,3.2-13.3,5.4-19.7
		C513.4,575.5,511.9,574.3,510.9,575z"/>
	<g>
		<g>
			<path class="st19" d="M173.7,210.7H171v-14.8h4.9c2.4,0,5.2,0.7,5.2,4.4v0.4c0,3.8-2.8,4.5-5.2,4.5h-2.2V210.7z M176,202.9
				c1,0,2.4-0.4,2.4-2.3v-0.2c0-2-1.4-2.3-2.4-2.3h-2.3v4.8H176z"/>
			<path class="st19" d="M188,200.4v2.4h-0.4c-1.4,0-2.1,0.6-2.5,1.1v6.8h-2.6v-7.2l-0.2-2.8h2.3l0.2,1.2c0.6-0.8,1.6-1.5,2.9-1.5
				C187.9,200.4,188,200.4,188,200.4z"/>
			<path class="st19" d="M189,205.9v-0.6c0-2.9,1.5-5,4.8-5s4.8,2.1,4.8,5v0.6c0,2.9-1.5,5-4.8,5S189,208.8,189,205.9z M196,205.9
				v-0.6c0-1.7-0.7-2.8-2.2-2.8s-2.2,1.1-2.2,2.8v0.6c0,1.7,0.7,2.8,2.2,2.8S196,207.7,196,205.9z"/>
			<path class="st19" d="M203.2,198.9h-2.8v-2.7h2.8V198.9z M200.5,200.6h2.6v10.1h-2.6V200.6z"/>
			<path class="st19" d="M212,210.7v-6.5c0-1-0.5-1.7-1.7-1.7s-1.9,0.7-2.2,1.2v7h-2.6v-7.2l-0.2-2.8h2.3l0.2,1.3
				c0.7-0.9,1.8-1.6,3.4-1.6c2.3,0,3.3,1.6,3.3,3.4v6.9L212,210.7L212,210.7z"/>
			<path class="st19" d="M220,200.6h2.5v2.2H220v7.9h-2.6v-7.9h-1.6v-2.2h1.6v-1.9c0-2.6,1.5-3.5,3.7-3.5c0.9,0,1.5,0.2,1.6,0.2v2.1
				c-0.1-0.1-0.6-0.2-1-0.2c-1.1,0-1.7,0.3-1.7,1.7V200.6z"/>
			<path class="st19" d="M224.6,195.5h2.6v15.2h-2.6V195.5z"/>
			<path class="st19" d="M235.7,209.5c-0.7,0.8-1.9,1.4-3.5,1.4c-2.2,0-3.2-1.3-3.2-3v-0.2c0-2.2,1.6-2.9,3.7-3.2l2.7-0.4l0,0
				c0-1.3-0.4-1.9-1.8-1.9c-1.4,0-1.8,0.8-1.8,1.7h-2.5v-0.2c0-1.7,0.9-3.4,4.3-3.4c3.3,0,4.3,1.5,4.3,3.8v3.6l0.2,2.8h-2.3
				L235.7,209.5z M235.4,207.8v-2.1l-2.2,0.3c-1.1,0.2-1.6,0.7-1.6,1.4v0.2c0,0.6,0.4,1.2,1.5,1.2
				C234.4,208.9,235.1,208.3,235.4,207.8z"/>
			<path class="st19" d="M252.4,210.7V204c0-1-0.5-1.5-1.5-1.5c-1.1,0-1.6,0.6-2,1.1v7.1h-2.6V204c0-1-0.5-1.5-1.5-1.5
				c-1.1,0-1.6,0.6-1.9,1.1v7.1h-2.6v-7.2l-0.2-2.8h2.3l0.2,1.3c0.6-0.9,1.7-1.5,3.2-1.5c1.4,0,2.3,0.6,2.7,1.6
				c0.6-0.9,1.7-1.6,3.3-1.6c2.1,0,3.1,1.4,3.1,3.3v7h-2.5V210.7z"/>
			<path class="st19" d="M269.3,210.7V204c0-1-0.5-1.5-1.5-1.5c-1.1,0-1.6,0.6-2,1.1v7.1h-2.6V204c0-1-0.5-1.5-1.5-1.5
				c-1.1,0-1.6,0.6-1.9,1.1v7.1h-2.6v-7.2l-0.2-2.8h2.3l0.2,1.3c0.6-0.9,1.7-1.5,3.2-1.5c1.4,0,2.3,0.6,2.7,1.6
				c0.6-0.9,1.7-1.6,3.3-1.6c2.1,0,3.1,1.4,3.1,3.3v7h-2.5V210.7z"/>
			<path class="st19" d="M280.2,209.5c-0.7,0.8-1.9,1.4-3.5,1.4c-2.2,0-3.2-1.3-3.2-3v-0.2c0-2.2,1.6-2.9,3.7-3.2l2.7-0.4l0,0
				c0-1.3-0.4-1.9-1.8-1.9s-1.8,0.8-1.8,1.7H274v-0.2c0-1.7,0.9-3.4,4.3-3.4c3.3,0,4.3,1.5,4.3,3.8v3.6l0.2,2.8h-2.3L280.2,209.5z
				 M280,207.8v-2.1l-2.2,0.3c-1.1,0.2-1.6,0.7-1.6,1.4v0.2c0,0.6,0.4,1.2,1.5,1.2C278.9,208.9,279.6,208.3,280,207.8z"/>
			<path class="st19" d="M291,200.6v2.2h-2.9v4.3c0,1.3,0.6,1.6,1.7,1.6c0.4,0,0.9-0.1,1-0.1v2.1c-0.2,0.1-0.7,0.2-1.6,0.2
				c-2.2,0-3.7-0.9-3.7-3.5v-4.6h-1.6v-2.2h1.6v-2.8h2.6v2.8H291z"/>
			<path class="st19" d="M292.5,205.9v-0.6c0-2.9,1.5-5,4.8-5s4.8,2.1,4.8,5v0.6c0,2.9-1.5,5-4.8,5S292.5,208.8,292.5,205.9z
				 M299.5,205.9v-0.6c0-1.7-0.7-2.8-2.2-2.8s-2.2,1.1-2.2,2.8v0.6c0,1.7,0.7,2.8,2.2,2.8C298.9,208.7,299.5,207.7,299.5,205.9z"/>
			<path class="st19" d="M309.5,200.4v2.4h-0.4c-1.4,0-2.1,0.6-2.5,1.1v6.8H304v-7.2l-0.2-2.8h2.3l0.2,1.2c0.6-0.8,1.6-1.5,2.9-1.5
				C309.4,200.4,309.5,200.4,309.5,200.4z"/>
			<path class="st19" d="M317.9,200.6h2.8l-3.7,9.6l-1.4,4.3h-3.1l1.7-4.3l-3.7-9.6h2.8l2.3,7L317.9,200.6z"/>
			<path class="st19" d="M183.1,234.7V228c0-1-0.5-1.5-1.5-1.5c-1.1,0-1.6,0.6-2,1.1v7.1H177V228c0-1-0.5-1.5-1.5-1.5
				c-1.1,0-1.6,0.6-1.9,1.1v7.1H171v-7.2l-0.2-2.8h2.3l0.2,1.3c0.6-0.9,1.7-1.5,3.2-1.5c1.4,0,2.3,0.6,2.7,1.6
				c0.6-0.9,1.7-1.6,3.3-1.6c2.1,0,3.1,1.4,3.1,3.3v7h-2.5V234.7z"/>
			<path class="st19" d="M194,233.5c-0.7,0.8-1.9,1.4-3.5,1.4c-2.2,0-3.2-1.3-3.2-3v-0.2c0-2.2,1.6-2.9,3.7-3.2l2.7-0.4l0,0
				c0-1.3-0.4-1.9-1.8-1.9c-1.4,0-1.8,0.8-1.8,1.7h-2.5v-0.2c0-1.7,0.9-3.4,4.3-3.4c3.3,0,4.3,1.5,4.3,3.8v3.6l0.2,2.8h-2.3
				L194,233.5z M193.8,231.8v-2.1l-2.2,0.3c-1.1,0.2-1.6,0.7-1.6,1.4v0.2c0,0.6,0.4,1.2,1.5,1.2
				C192.7,232.9,193.4,232.3,193.8,231.8z"/>
			<path class="st19" d="M202.9,232.7c1.3,0,1.9-0.8,1.9-1.7h2.5v0.4c0,1.9-1.4,3.5-4.4,3.5c-3.3,0-4.7-2.1-4.7-5v-0.6
				c0-2.9,1.4-5,4.7-5c3,0,4.4,1.6,4.4,3.7v0.4h-2.5c0-1.2-0.6-1.9-1.9-1.9c-1.5,0-2.1,1.1-2.1,2.8v0.6
				C200.8,231.7,201.4,232.7,202.9,232.7z"/>
			<path class="st19" d="M214.6,224.4v2.4h-0.4c-1.4,0-2.1,0.6-2.5,1.1v6.8h-2.6v-7.2l-0.2-2.8h2.3l0.2,1.2c0.6-0.8,1.6-1.5,2.9-1.5
				C214.4,224.4,214.6,224.4,214.6,224.4z"/>
			<path class="st19" d="M215.6,229.9v-0.6c0-2.9,1.5-5,4.8-5s4.8,2.1,4.8,5v0.6c0,2.9-1.5,5-4.8,5
				C217,234.9,215.6,232.8,215.6,229.9z M222.6,229.9v-0.6c0-1.7-0.7-2.8-2.2-2.8s-2.2,1.1-2.2,2.8v0.6c0,1.7,0.7,2.8,2.2,2.8
				C221.9,232.7,222.6,231.7,222.6,229.9z"/>
			<path class="st19" d="M229.6,233.7v4.7H227v-11l-0.2-2.8h2.3l0.2,1.3c0.6-0.9,1.5-1.5,3.1-1.5c2.9,0,4,2.1,4,5v0.6
				c0,2.9-1.1,5-4,5C231.1,234.9,230.2,234.4,229.6,233.7z M229.6,231.6c0.3,0.5,1,1.1,2.1,1.1c1.5,0,2.1-1,2.1-2.8v-0.6
				c0-1.8-0.6-2.8-2.1-2.8c-1.1,0-1.8,0.7-2.1,1.2V231.6z"/>
			<path class="st19" d="M240.9,225.6c0.7-0.7,1.7-1.3,3.2-1.3c2.3,0,3.3,1.6,3.3,3.4v6.9h-2.6v-6.5c0-1-0.5-1.7-1.7-1.7
				s-1.9,0.7-2.2,1.2v7h-2.6v-15.2h2.6V225.6z"/>
			<path class="st19" d="M255.8,233.5c-0.7,0.8-1.9,1.4-3.5,1.4c-2.2,0-3.2-1.3-3.2-3v-0.2c0-2.2,1.6-2.9,3.7-3.2l2.7-0.4l0,0
				c0-1.3-0.4-1.9-1.8-1.9c-1.4,0-1.8,0.8-1.8,1.7h-2.5v-0.2c0-1.7,0.9-3.4,4.3-3.4c3.3,0,4.3,1.5,4.3,3.8v3.6l0.2,2.8H256
				L255.8,233.5z M255.5,231.8v-2.1l-2.2,0.3c-1.1,0.2-1.6,0.7-1.6,1.4v0.2c0,0.6,0.4,1.2,1.5,1.2
				C254.4,232.9,255.2,232.3,255.5,231.8z"/>
			<path class="st19" d="M266.7,233.1c-0.6,0.7-1.5,1.2-2.8,1.2c-2.8,0-4-1.9-4-4.7v-0.5c0-2.6,1.1-4.7,4-4.7c1.5,0,2.5,0.6,3.1,1.5
				l0.2-1.2h2.3l-0.2,2.8v7.1c0,2.6-1.4,4.2-4.7,4.2c-3.4,0-4.5-1.7-4.5-3.7v-0.4h2.5c0,1.3,0.5,2,2,2s2.1-0.6,2.1-2.2V233.1z
				 M266.7,227.7c-0.3-0.5-1-1.2-2.1-1.2c-1.4,0-2.1,1-2.1,2.6v0.5c0,1.7,0.7,2.6,2.1,2.6c1.1,0,1.8-0.7,2.1-1.1V227.7z"/>
			<path class="st19" d="M273.8,230.5c0.1,1.7,0.9,2.5,2.4,2.5c1.4,0,2.2-0.8,2.2-1.6h2.5v0.1c0,1.8-1.6,3.4-4.6,3.4
				c-3.4,0-5-2.2-5-5v-0.5c0-2.9,1.6-5,4.9-5s4.7,2.2,4.7,5v1.2L273.8,230.5L273.8,230.5z M273.8,228.7h4.4
				c-0.1-1.6-0.8-2.5-2.2-2.5C274.6,226.3,273.9,227.1,273.8,228.7z"/>
			<path class="st19" d="M286.3,227.6c0-4.4,1.3-6.7,3-8.9h2.7c-1.7,2.4-3.1,5-3.1,8.9v0.4c0,3.9,1.4,6.5,3.1,8.9h-2.7
				c-1.6-2.2-3-4.5-3-8.9V227.6z"/>
			<path class="st19" d="M302.3,234.7h-2.7l-3.3-10.4l0.1,3.1v7.3h-2.7v-14.8h3.9l3.3,10.4l3.3-10.4h3.9v14.8h-2.7v-7.3l0.1-3.1
				L302.3,234.7z"/>
			<path class="st19" d="M310.7,234.7v-2.2h3.6V223l-2.8,1.8l-1.3-1.8l4.9-3.2h1.9v12.6h3.6v2.2L310.7,234.7L310.7,234.7z"/>
			<path class="st19" d="M327.6,228c0,4.4-1.3,6.7-3,8.9H322c1.7-2.4,3.1-5,3.1-8.9v-0.4c0-3.9-1.3-6.5-3.1-8.9h2.7
				c1.6,2.2,3,4.5,3,8.9v0.4H327.6z"/>
		</g>
	</g>
	<g>
		<g>
			<path class="st19" d="M888.7,210.5H886v-14.8h4.9c2.4,0,5.2,0.7,5.2,4.4v0.4c0,3.8-2.8,4.5-5.2,4.5h-2.2V210.5z M891,202.8
				c1,0,2.4-0.4,2.4-2.3v-0.2c0-2-1.4-2.3-2.4-2.3h-2.3v4.8H891z"/>
			<path class="st19" d="M903,200.2v2.4h-0.4c-1.4,0-2.1,0.6-2.5,1.1v6.8h-2.6v-7.2l-0.2-2.8h2.3l0.2,1.2c0.6-0.8,1.6-1.5,2.9-1.5
				C902.9,200.2,903,200.2,903,200.2z"/>
			<path class="st19" d="M904,205.8v-0.6c0-2.9,1.5-5,4.8-5s4.8,2.1,4.8,5v0.6c0,2.9-1.5,5-4.8,5S904,208.7,904,205.8z M911,205.8
				v-0.6c0-1.7-0.7-2.8-2.2-2.8s-2.2,1.1-2.2,2.8v0.6c0,1.7,0.7,2.8,2.2,2.8S911,207.5,911,205.8z"/>
			<path class="st19" d="M921,200.2v2.4h-0.4c-1.4,0-2.1,0.6-2.5,1.1v6.8h-2.6v-7.2l-0.2-2.8h2.3l0.2,1.2c0.6-0.8,1.6-1.5,2.9-1.5
				C920.8,200.2,920.9,200.2,921,200.2z"/>
			<path class="st19" d="M924.5,206.4c0.1,1.7,0.9,2.5,2.4,2.5c1.4,0,2.2-0.8,2.2-1.6h2.5v0.1c0,1.8-1.6,3.4-4.6,3.4
				c-3.4,0-5-2.2-5-5v-0.5c0-2.9,1.6-5,4.9-5c3.3,0,4.7,2.2,4.7,5v1.2L924.5,206.4L924.5,206.4z M924.5,204.6h4.4
				c-0.1-1.6-0.8-2.5-2.2-2.5S924.6,203,924.5,204.6z"/>
			<path class="st19" d="M939.3,207.6c0-0.9-0.5-1.2-2-1.3c-2.9-0.2-4.1-1-4.1-2.8v-0.2c0-2.1,1.8-3.2,4.3-3.2c3,0,4.3,1.3,4.3,3.4
				v0.1h-2.5c0-1-0.5-1.6-1.8-1.6c-1.1,0-1.7,0.5-1.7,1.2s0.4,1.1,1.9,1.2c2.7,0.2,4.2,0.8,4.2,2.8v0.1c0,2-1.5,3.3-4.4,3.3
				c-3.1,0-4.4-1.5-4.4-3.3v-0.1h2.6c0,0.8,0.4,1.5,1.8,1.5C938.8,208.9,939.3,208.4,939.3,207.6z"/>
			<path class="st19" d="M943.5,205.8v-0.6c0-2.9,1.5-5,4.8-5s4.8,2.1,4.8,5v0.6c0,2.9-1.5,5-4.8,5S943.5,208.7,943.5,205.8z
				 M950.5,205.8v-0.6c0-1.7-0.7-2.8-2.2-2.8s-2.2,1.1-2.2,2.8v0.6c0,1.7,0.7,2.8,2.2,2.8S950.5,207.5,950.5,205.8z"/>
			<path class="st19" d="M955,195.3h2.6v15.2H955V195.3z"/>
			<path class="st19" d="M962.5,200.5v6.5c0,1,0.5,1.7,1.7,1.7s1.9-0.7,2.2-1.1v-7h2.6v7.2l0.2,2.8h-2.3l-0.2-1.3
				c-0.7,0.9-1.8,1.6-3.4,1.6c-2.3,0-3.3-1.6-3.3-3.4v-6.9h2.5V200.5z"/>
			<path class="st19" d="M977.7,200.5v2.2h-2.9v4.3c0,1.3,0.6,1.6,1.7,1.6c0.4,0,0.9-0.1,1-0.1v2.1c-0.2,0.1-0.7,0.2-1.6,0.2
				c-2.2,0-3.7-0.9-3.7-3.5v-4.6h-1.6v-2.2h1.6v-2.8h2.6v2.8H977.7z"/>
			<path class="st19" d="M982.4,198.7h-2.8V196h2.8V198.7z M979.7,200.5h2.6v10.1h-2.6V200.5z"/>
			<path class="st19" d="M984.2,205.8v-0.6c0-2.9,1.5-5,4.8-5s4.8,2.1,4.8,5v0.6c0,2.9-1.5,5-4.8,5S984.2,208.7,984.2,205.8z
				 M991.2,205.8v-0.6c0-1.7-0.7-2.8-2.2-2.8s-2.2,1.1-2.2,2.8v0.6c0,1.7,0.7,2.8,2.2,2.8S991.2,207.5,991.2,205.8z"/>
			<path class="st19" d="M1002.2,210.5V204c0-1-0.5-1.7-1.7-1.7s-1.9,0.7-2.2,1.2v7h-2.6v-7.2l-0.2-2.8h2.3l0.2,1.3
				c0.7-0.9,1.8-1.6,3.4-1.6c2.3,0,3.3,1.6,3.3,3.4v6.9L1002.2,210.5L1002.2,210.5z"/>
			<path class="st19" d="M898.1,234.5v-6.7c0-1-0.5-1.5-1.5-1.5c-1.1,0-1.6,0.6-2,1.1v7.1H892v-6.7c0-1-0.5-1.5-1.5-1.5
				c-1.1,0-1.6,0.6-1.9,1.1v7.1H886v-7.2l-0.2-2.8h2.3l0.2,1.3c0.6-0.9,1.7-1.5,3.2-1.5c1.4,0,2.3,0.6,2.7,1.6
				c0.6-0.9,1.7-1.6,3.3-1.6c2.1,0,3.1,1.4,3.1,3.3v7h-2.5V234.5z"/>
			<path class="st19" d="M909,233.4c-0.7,0.8-1.9,1.4-3.5,1.4c-2.2,0-3.2-1.3-3.2-3v-0.2c0-2.2,1.6-2.9,3.7-3.2l2.7-0.4l0,0
				c0-1.3-0.4-1.9-1.8-1.9c-1.4,0-1.8,0.8-1.8,1.7h-2.5v-0.2c0-1.7,0.9-3.4,4.3-3.4c3.3,0,4.3,1.5,4.3,3.8v3.6l0.2,2.8h-2.3
				L909,233.4z M908.8,231.7v-2.1l-2.2,0.3c-1.1,0.2-1.6,0.7-1.6,1.4v0.2c0,0.6,0.4,1.2,1.5,1.2
				C907.7,232.8,908.4,232.2,908.8,231.7z"/>
			<path class="st19" d="M917.9,232.6c1.3,0,1.9-0.8,1.9-1.7h2.5v0.4c0,1.9-1.4,3.5-4.4,3.5c-3.3,0-4.7-2.1-4.7-5v-0.6
				c0-2.9,1.4-5,4.7-5c3,0,4.4,1.6,4.4,3.7v0.4h-2.5c0-1.2-0.6-1.9-1.9-1.9c-1.5,0-2.1,1.1-2.1,2.8v0.6
				C915.8,231.5,916.4,232.6,917.9,232.6z"/>
			<path class="st19" d="M929.6,224.2v2.4h-0.4c-1.4,0-2.1,0.6-2.5,1.1v6.8h-2.6v-7.2l-0.2-2.8h2.3l0.2,1.2c0.6-0.8,1.6-1.5,2.9-1.5
				C929.4,224.2,929.6,224.2,929.6,224.2z"/>
			<path class="st19" d="M930.6,229.8v-0.6c0-2.9,1.5-5,4.8-5s4.8,2.1,4.8,5v0.6c0,2.9-1.5,5-4.8,5
				C932,234.8,930.6,232.7,930.6,229.8z M937.6,229.8v-0.6c0-1.7-0.7-2.8-2.2-2.8s-2.2,1.1-2.2,2.8v0.6c0,1.7,0.7,2.8,2.2,2.8
				S937.6,231.5,937.6,229.8z"/>
			<path class="st19" d="M944.6,233.6v4.7H942v-11l-0.2-2.8h2.3l0.2,1.3c0.6-0.9,1.5-1.5,3.1-1.5c2.9,0,4,2.1,4,5v0.6
				c0,2.9-1.1,5-4,5C946.1,234.8,945.2,234.3,944.6,233.6z M944.6,231.5c0.3,0.5,1,1.1,2.1,1.1c1.5,0,2.1-1,2.1-2.8v-0.6
				c0-1.8-0.6-2.8-2.1-2.8c-1.1,0-1.8,0.7-2.1,1.2V231.5z"/>
			<path class="st19" d="M955.9,225.5c0.7-0.7,1.7-1.3,3.2-1.3c2.3,0,3.3,1.6,3.3,3.4v6.9h-2.6V228c0-1-0.5-1.7-1.7-1.7
				s-1.9,0.7-2.2,1.2v7h-2.6v-15.2h2.6V225.5z"/>
			<path class="st19" d="M970.8,233.4c-0.7,0.8-1.9,1.4-3.5,1.4c-2.2,0-3.2-1.3-3.2-3v-0.2c0-2.2,1.6-2.9,3.7-3.2l2.7-0.4l0,0
				c0-1.3-0.4-1.9-1.8-1.9c-1.4,0-1.8,0.8-1.8,1.7h-2.5v-0.2c0-1.7,0.9-3.4,4.3-3.4c3.3,0,4.3,1.5,4.3,3.8v3.6l0.2,2.8H971
				L970.8,233.4z M970.5,231.7v-2.1l-2.2,0.3c-1.1,0.2-1.6,0.7-1.6,1.4v0.2c0,0.6,0.4,1.2,1.5,1.2
				C969.4,232.8,970.2,232.2,970.5,231.7z"/>
			<path class="st19" d="M981.7,233c-0.6,0.7-1.5,1.2-2.8,1.2c-2.8,0-4-1.9-4-4.7V229c0-2.6,1.1-4.7,4-4.7c1.5,0,2.5,0.6,3.1,1.5
				l0.2-1.2h2.3l-0.2,2.8v7.1c0,2.6-1.4,4.2-4.7,4.2c-3.4,0-4.5-1.7-4.5-3.7v-0.4h2.5c0,1.3,0.5,2,2,2s2.1-0.6,2.1-2.2L981.7,233
				L981.7,233z M981.7,227.5c-0.3-0.5-1-1.2-2.1-1.2c-1.4,0-2.1,1-2.1,2.6v0.5c0,1.7,0.7,2.6,2.1,2.6c1.1,0,1.8-0.7,2.1-1.1V227.5z"
				/>
			<path class="st19" d="M988.8,230.4c0.1,1.7,0.9,2.5,2.4,2.5c1.4,0,2.2-0.8,2.2-1.6h2.5v0.1c0,1.8-1.6,3.4-4.6,3.4
				c-3.4,0-5-2.2-5-5v-0.5c0-2.9,1.6-5,4.9-5c3.3,0,4.7,2.2,4.7,5v1.2L988.8,230.4L988.8,230.4z M988.8,228.6h4.4
				c-0.1-1.6-0.8-2.5-2.2-2.5S988.9,227,988.8,228.6z"/>
			<path class="st19" d="M1001.3,227.5c0-4.4,1.3-6.7,3-8.9h2.7c-1.7,2.4-3.1,5-3.1,8.9v0.4c0,3.9,1.4,6.5,3.1,8.9h-2.7
				c-1.6-2.2-3-4.5-3-8.9V227.5z"/>
			<path class="st19" d="M1017.3,234.5h-2.7l-3.3-10.4l0.1,3.1v7.3h-2.7v-14.8h3.9l3.3,10.4l3.3-10.4h3.9v14.8h-2.7v-7.3l0.1-3.1
				L1017.3,234.5z"/>
			<path class="st19" d="M1035.5,232.3v2.2h-10.1V233l6.3-6.5c0.8-0.9,1.2-1.4,1.2-2.3V224c0-1.5-1-2.3-2.3-2.3h-0.2
				c-1.5,0-2.3,0.8-2.3,3h-2.6v-0.4c0-3.1,1.6-4.8,5.1-4.8c3.6,0,5.1,2,5.1,4.1v0.3c0,1.7-0.5,2.5-1.8,3.8l-4.5,4.7h1.4h4.7
				L1035.5,232.3L1035.5,232.3z"/>
			<path class="st19" d="M1042.6,227.9c0,4.4-1.3,6.7-3,8.9h-2.7c1.7-2.4,3.1-5,3.1-8.9v-0.4c0-3.9-1.3-6.5-3.1-8.9h2.7
				c1.6,2.2,3,4.5,3,8.9V227.9z"/>
		</g>
	</g>
	<g>
		<g>
			<path class="st20" d="M383.7,775.9H381v-14.8h4.9c2.4,0,5.2,0.7,5.2,4.4v0.4c0,3.8-2.8,4.5-5.2,4.5h-2.2L383.7,775.9L383.7,775.9
				z M386,768.2c1,0,2.4-0.4,2.4-2.3v-0.2c0-2-1.4-2.3-2.4-2.3h-2.3v4.8H386z"/>
			<path class="st20" d="M392.4,768.9v-0.8c0-5.1,1.9-7.3,5.8-7.3c3.6,0,5.4,1.6,5.4,5.2v0.6H401c0-2.4-0.6-3.6-2.6-3.6h-0.2
				c-2.3,0-3.1,1.7-3.1,5.1v0.8c0,3.3,0.8,5.1,3.2,5.1h0.2c1.1,0,1.9-0.3,2.5-0.7v-2.9h-2.3v-2.2h4.9v6.3c-1.1,0.9-2.6,1.7-5.2,1.7
				C394.4,776.2,392.4,774,392.4,768.9z"/>
			<path class="st20" d="M411.9,773c0-0.9-0.5-1.2-2-1.3c-2.9-0.2-4.1-1-4.1-2.8v-0.2c0-2.1,1.8-3.2,4.3-3.2c3,0,4.3,1.3,4.3,3.4
				v0.1h-2.5c0-1-0.5-1.6-1.8-1.6c-1.1,0-1.7,0.5-1.7,1.2s0.4,1.1,1.9,1.2c2.7,0.2,4.2,0.8,4.2,2.8v0.1c0,2-1.5,3.3-4.4,3.3
				c-3.1,0-4.4-1.5-4.4-3.3v-0.1h2.6c0,0.8,0.4,1.5,1.8,1.5C411.3,774.3,411.9,773.8,411.9,773z"/>
		</g>
	</g>
	<g>
		<g>
			<path class="st20" d="M786.1,775.9h-2.7v-14.8h4.9c2.4,0,5.2,0.7,5.2,4.4v0.4c0,3.8-2.8,4.5-5.2,4.5h-2.2V775.9z M788.4,768.2
				c1,0,2.4-0.4,2.4-2.3v-0.2c0-2-1.4-2.3-2.4-2.3h-2.3v4.8H788.4z"/>
			<path class="st20" d="M794.8,768.9v-0.8c0-5.1,1.9-7.3,5.8-7.3c3.6,0,5.4,1.6,5.4,5.2v0.6h-2.7c0-2.4-0.6-3.6-2.6-3.6h-0.2
				c-2.3,0-3.1,1.7-3.1,5.1v0.8c0,3.3,0.8,5.1,3.2,5.1h0.2c1.1,0,1.9-0.3,2.5-0.7v-2.9H801v-2.2h4.9v6.3c-1.1,0.9-2.6,1.7-5.2,1.7
				C796.7,776.2,794.8,774,794.8,768.9z"/>
			<path class="st20" d="M817.7,761.1v2.2h-6.6v3.9h5.6v2.2h-5.6v4.2h6.6v2.2h-9.3V761L817.7,761.1L817.7,761.1z"/>
			<path class="st20" d="M829.5,773.7v2.2h-10.1v-1.6l6.3-6.5c0.8-0.9,1.2-1.4,1.2-2.3v-0.2c0-1.5-1-2.3-2.3-2.3h-0.2
				c-1.5,0-2.3,0.8-2.3,3h-2.6v-0.4c0-3.1,1.6-4.8,5.1-4.8c3.6,0,5.1,2,5.1,4.1v0.3c0,1.7-0.5,2.5-1.8,3.8l-4.5,4.7h1.4H829.5z"/>
		</g>
	</g>
</g>
<g id="Red_Arrow">
	<g>
		
			<linearGradient id="SVGID_20_" gradientUnits="userSpaceOnUse" x1="208.837" y1="361.7586" x2="128.951" y2="500.1252" gradientTransform="matrix(1 0 0 1 0 -22)">
			<stop  offset="0" style="stop-color:#BD1622;stop-opacity:0.6"/>
			<stop  offset="1" style="stop-color:#BD1622"/>
		</linearGradient>
		<path class="st27" d="M286,384.8H101.3c-1.7,0-3.1-1.4-3.1-3.1v-16.8c0-2.6-3-4-5-2.4l-57.6,45.6c-1.6,1.2-1.5,3.6,0,4.8
			l57.7,44.6c2,1.6,4.9,0.1,4.9-2.4v-16.8c0-1.7,1.4-3.1,3.1-3.1H286c1.7,0,3.1-1.4,3.1-3.1v-44.4C289,386.1,287.7,384.8,286,384.8z
			"/>
		<g>
			<g>
				<path class="st28" d="M109.4,407.2H107v-13.3h4.4c2.2,0,4.7,0.6,4.7,4v0.3c0,3.4-2.5,4-4.7,4h-2V407.2z M111.5,400.2
					c0.9,0,2.2-0.3,2.2-2.1v-0.2c0-1.8-1.2-2.1-2.2-2.1h-2.1v4.4L111.5,400.2L111.5,400.2z"/>
				<path class="st28" d="M120.2,407.2h-2.4v-13.3h4.4c2.2,0,4.7,0.6,4.7,4v0.3c0,2.1-1,3.2-2.3,3.7l2.3,5.3h-2.6l-2-5h-2.1V407.2z
					 M122.3,400.2c0.9,0,2.2-0.3,2.2-2.1v-0.2c0-1.8-1.2-2.1-2.2-2.1h-2.1v4.4L122.3,400.2L122.3,400.2z"/>
				<path class="st28" d="M128.3,400.8v-0.7c0-4.6,1.7-6.6,5.2-6.6s5.2,1.9,5.2,6.6v0.7c0,4.6-1.7,6.6-5.2,6.6
					S128.3,405.5,128.3,400.8z M133.6,405.4c2,0,2.6-1.5,2.6-4.5v-0.7c0-3-0.7-4.6-2.6-4.6h-0.2c-2,0-2.6,1.5-2.6,4.6v0.7
					c0,3,0.7,4.5,2.6,4.5H133.6z"/>
				<path class="st28" d="M143.1,407.2h-2.4v-13.3h2.4V407.2z"/>
				<path class="st28" d="M155.4,407.2h-2.6l-5.2-9.2l0.1,2.8v6.4h-2.3v-13.3h2.6l5.2,9.2l-0.1-2.8v-6.4h2.3V407.2z"/>
				<path class="st28" d="M165.8,393.8v2H160v3.5h4.9v2H160v5.8h-2.4v-13.3H165.8z"/>
				<path class="st28" d="M167.3,407.2v-13.3h2.4v11.3h5.4v2H167.3z"/>
				<path class="st28" d="M182.7,393.8l3.7,13.4h-2.6l-0.8-3h-4l-0.8,3h-2.6l3.7-13.4H182.7z M179.6,402.1h2.9l-1.5-5.7L179.6,402.1
					z"/>
				<path class="st28" d="M195.6,407.2h-2.4l-3-9.4l0.1,2.8v6.6h-2.4v-13.3h3.5l3,9.4l3-9.4h3.5v13.3h-2.4v-6.6l0.1-2.8L195.6,407.2
					z"/>
				<path class="st28" d="M210.8,407.2h-2.4l-3-9.4l0.1,2.8v6.6h-2.4v-13.3h3.5l3,9.4l3-9.4h3.5v13.3h-2.4v-6.6l0.1-2.8L210.8,407.2
					z"/>
				<path class="st28" d="M224.6,393.8l3.7,13.4h-2.6l-0.8-3h-4l-0.8,3h-2.6l3.7-13.4H224.6z M221.5,402.1h2.9l-1.5-5.7L221.5,402.1
					z"/>
				<path class="st28" d="M233.8,407.2h-2.4v-11.3h-3.3v-2h9.1v2h-3.3v11.3H233.8z"/>
				<path class="st28" d="M238,400.8v-0.7c0-4.6,1.7-6.6,5.2-6.6s5.2,1.9,5.2,6.6v0.7c0,4.6-1.7,6.6-5.2,6.6
					C239.6,407.4,238,405.5,238,400.8z M243.3,405.4c2,0,2.6-1.5,2.6-4.5v-0.7c0-3-0.7-4.6-2.6-4.6h-0.2c-2,0-2.6,1.5-2.6,4.6v0.7
					c0,3,0.7,4.5,2.6,4.5H243.3z"/>
				<path class="st28" d="M252.7,407.2h-2.4v-13.3h4.4c2.2,0,4.7,0.6,4.7,4v0.3c0,2.1-1,3.2-2.3,3.7l2.3,5.3h-2.6l-2-5h-2.1V407.2z
					 M254.7,400.2c0.9,0,2.2-0.3,2.2-2.1v-0.2c0-1.8-1.2-2.1-2.2-2.1h-2.1v4.4L254.7,400.2L254.7,400.2z"/>
				<path class="st28" d="M266.5,407.2h-2.4v-4.1l-4.1-9.3h2.6l2.6,6.4l2.6-6.4h2.6l-4.1,9.3v4.1H266.5z"/>
				<path class="st28" d="M106.7,416.6v-0.2c0-2.4,1.8-3.9,4.8-3.9c3.3,0,4.8,1.5,4.8,4.5v0.4h-2.4c0-2-0.7-2.9-2.4-2.9h-0.2
					c-1.3,0-2.2,0.7-2.2,1.7v0.1c0,1.1,0.5,1.7,2.7,2c3.1,0.4,4.5,1.4,4.5,3.8v0.2c0,2.5-1.8,4-4.9,4c-3.2,0-4.9-1.5-4.9-4.5v-0.2
					h2.4c0,1.9,0.9,2.7,2.4,2.7h0.2c1.5,0,2.4-0.8,2.4-1.9v-0.1c0-1.2-0.7-1.8-2.8-2.1C108.1,420,106.7,418.9,106.7,416.6z"/>
				<path class="st28" d="M120.7,426.2h-2.4v-13.3h2.4V426.2z"/>
				<path class="st28" d="M122.7,419.8v-0.7c0-4.6,1.7-6.6,5.3-6.6c3.2,0,4.9,1.4,4.9,4.7v0.6h-2.4c0-2.1-0.6-3.2-2.3-3.2H128
					c-2.1,0-2.8,1.5-2.8,4.6v0.7c0,3,0.7,4.5,2.9,4.5h0.2c1,0,1.7-0.3,2.2-0.7v-2.6h-2v-2h4.4v5.7c-1,0.8-2.3,1.6-4.7,1.6
					C124.4,426.4,122.7,424.5,122.7,419.8z"/>
				<path class="st28" d="M144.9,426.2h-2.6l-5.2-9.2l0.1,2.8v6.4h-2.3v-13.3h2.6l5.2,9.2l-0.1-2.8v-6.4h2.3V426.2z"/>
				<path class="st28" d="M153.3,412.8l3.7,13.4h-2.6l-0.8-3h-4l-0.8,3h-2.6l3.7-13.4H153.3z M150.2,421.1h2.9l-1.5-5.7L150.2,421.1
					z"/>
				<path class="st28" d="M158.4,426.2v-13.3h2.4v11.3h5.4v2H158.4z"/>
				<path class="st28" d="M170.1,426.2h-2.4v-13.3h2.4V426.2z"/>
				<path class="st28" d="M182.4,426.2h-2.6l-5.2-9.2l0.1,2.8v6.4h-2.3v-13.3h2.6l5.2,9.2l-0.1-2.8v-6.4h2.3V426.2z"/>
				<path class="st28" d="M184.3,419.8v-0.7c0-4.6,1.7-6.6,5.3-6.6c3.2,0,4.9,1.4,4.9,4.7v0.6H192c0-2.1-0.6-3.2-2.3-3.2h-0.2
					c-2.1,0-2.8,1.5-2.8,4.6v0.7c0,3,0.7,4.5,2.9,4.5h0.2c1,0,1.7-0.3,2.2-0.7v-2.6h-2v-2h4.4v5.7c-1,0.8-2.3,1.6-4.7,1.6
					C186,426.4,184.3,424.5,184.3,419.8z"/>
			</g>
		</g>
	</g>
</g>
<g id="Green_Arrow">
	<g>
		
			<linearGradient id="SVGID_21_" gradientUnits="userSpaceOnUse" x1="-2855.3237" y1="362.2632" x2="-2995.2568" y2="502.1964" gradientTransform="matrix(-1 0 0 1 -1902.8269 -22)">
			<stop  offset="0" style="stop-color:#006633;stop-opacity:0.6"/>
			<stop  offset="1" style="stop-color:#006633"/>
		</linearGradient>
		<path class="st29" d="M909.3,384.8H1094c1.7,0,3.1-1.4,3.1-3.1v-16.8c0-2.6,3-4,5-2.4l57.6,45.6c1.6,1.2,1.5,3.6,0,4.8l-57.7,44.6
			c-2,1.6-4.9,0.1-4.9-2.4v-16.8c0-1.7-1.4-3.1-3.1-3.1H909.3c-1.7,0-3.1-1.4-3.1-3.1v-44.4C906.2,386.1,907.6,384.8,909.3,384.8z"
			/>
		<g>
			<g>
				<path class="st28" d="M955.1,407.2h-2.4v-13.3h4.4c2.2,0,4.7,0.6,4.7,4v0.3c0,3.4-2.5,4-4.7,4h-2V407.2z M957.2,400.2
					c0.9,0,2.2-0.3,2.2-2.1v-0.2c0-1.8-1.2-2.1-2.2-2.1h-2.1v4.4L957.2,400.2L957.2,400.2z"/>
				<path class="st28" d="M965.8,407.2h-2.4v-13.3h4.4c2.2,0,4.7,0.6,4.7,4v0.3c0,2.1-1,3.2-2.3,3.7l2.3,5.3h-2.6l-2-5h-2.1
					L965.8,407.2L965.8,407.2z M967.9,400.2c0.9,0,2.2-0.3,2.2-2.1v-0.2c0-1.8-1.2-2.1-2.2-2.1h-2.1v4.4L967.9,400.2L967.9,400.2z"
					/>
				<path class="st28" d="M973.9,400.8v-0.7c0-4.6,1.7-6.6,5.2-6.6s5.2,1.9,5.2,6.6v0.7c0,4.6-1.7,6.6-5.2,6.6
					S973.9,405.5,973.9,400.8z M979.2,405.4c2,0,2.6-1.5,2.6-4.5v-0.7c0-3-0.7-4.6-2.6-4.6h-0.1c-2,0-2.6,1.5-2.6,4.6v0.7
					C976.5,403.9,977.2,405.4,979.2,405.4L979.2,405.4z"/>
				<path class="st28" d="M988.3,407.2h-2.4v-13.3h4.4c2.2,0,4.7,0.6,4.7,4v0.3c0,2.1-1,3.2-2.3,3.7l2.3,5.3h-2.6l-2-5h-2.1
					L988.3,407.2L988.3,407.2z M990.4,400.2c0.9,0,2.2-0.3,2.2-2.1v-0.2c0-1.8-1.2-2.1-2.2-2.1h-2.1v4.4L990.4,400.2L990.4,400.2z"
					/>
				<path class="st28" d="M1005.2,393.8v2h-5.9v3.5h5v2h-5v3.8h5.9v2h-8.4v-13.3H1005.2z"/>
				<path class="st28" d="M1006.7,397.6v-0.2c0-2.4,1.8-3.9,4.8-3.9c3.3,0,4.8,1.5,4.8,4.5v0.4h-2.4c0-2-0.7-2.9-2.4-2.9h-0.2
					c-1.3,0-2.2,0.7-2.2,1.7v0.1c0,1.1,0.5,1.7,2.7,2c3.1,0.4,4.5,1.4,4.5,3.8v0.2c0,2.5-1.8,4-4.9,4c-3.2,0-4.9-1.5-4.9-4.5v-0.2
					h2.4c0,1.9,0.9,2.7,2.4,2.7h0.2c1.5,0,2.4-0.8,2.4-1.9v-0.1c0-1.2-0.7-1.8-2.8-2.1C1008.1,401,1006.7,399.8,1006.7,397.6z"/>
				<path class="st28" d="M1017.9,400.8v-0.7c0-4.6,1.7-6.6,5.2-6.6c3.5,0,5.2,1.9,5.2,6.6v0.7c0,4.6-1.7,6.6-5.2,6.6
					S1017.9,405.5,1017.9,400.8z M1023.2,405.4c2,0,2.6-1.5,2.6-4.5v-0.7c0-3-0.7-4.6-2.6-4.6h-0.2c-2,0-2.6,1.5-2.6,4.6v0.7
					c0,3,0.7,4.5,2.6,4.5H1023.2z"/>
				<path class="st28" d="M1030.2,407.2v-13.3h2.4v11.3h5.4v2H1030.2z"/>
				<path class="st28" d="M1039,403v-9.2h2.4v9.1c0,1.8,0.7,2.5,2.5,2.5s2.5-0.7,2.5-2.5v-9.1h2.4v9.2c0,3-1.3,4.4-4.9,4.4
					S1039,406,1039,403z"/>
				<path class="st28" d="M1055.9,407.2h-2.4v-11.3h-3.3v-2h9.1v2h-3.3L1055.9,407.2L1055.9,407.2z"/>
				<path class="st28" d="M1063.2,407.2h-2.4v-13.3h2.4V407.2z"/>
				<path class="st28" d="M1065.2,400.8v-0.7c0-4.6,1.7-6.6,5.2-6.6s5.2,1.9,5.2,6.6v0.7c0,4.6-1.7,6.6-5.2,6.6
					C1066.8,407.4,1065.2,405.5,1065.2,400.8z M1070.4,405.4c2,0,2.6-1.5,2.6-4.5v-0.7c0-3-0.7-4.6-2.6-4.6h-0.2
					c-2,0-2.6,1.5-2.6,4.6v0.7c0,3,0.7,4.5,2.6,4.5H1070.4z"/>
				<path class="st28" d="M1087.4,407.2h-2.6l-5.2-9.2l0.1,2.8v6.4h-2.3v-13.3h2.6l5.2,9.2l-0.1-2.8v-6.4h2.3V407.2z"/>
				<path class="st28" d="M999.8,416.6v-0.2c0-2.4,1.8-3.9,4.8-3.9c3.3,0,4.8,1.5,4.8,4.5v0.4h-2.4c0-2-0.7-2.9-2.4-2.9h-0.2
					c-1.3,0-2.2,0.7-2.2,1.7v0.1c0,1.1,0.5,1.7,2.7,2c3.1,0.4,4.5,1.4,4.5,3.8v0.2c0,2.5-1.8,4-4.9,4c-3.2,0-4.9-1.5-4.9-4.5v-0.2
					h2.4c0,1.9,0.9,2.7,2.4,2.7h0.2c1.5,0,2.4-0.8,2.4-1.9v-0.1c0-1.2-0.7-1.8-2.8-2.1C1001.1,420,999.8,418.8,999.8,416.6z"/>
				<path class="st28" d="M1013.7,426.2h-2.4v-13.3h2.4V426.2z"/>
				<path class="st28" d="M1015.7,419.8v-0.7c0-4.6,1.7-6.6,5.3-6.6c3.2,0,4.9,1.4,4.9,4.7v0.6h-2.4c0-2.1-0.6-3.2-2.3-3.2h-0.2
					c-2.1,0-2.8,1.5-2.8,4.6v0.7c0,3,0.7,4.5,2.9,4.5h0.2c1,0,1.7-0.3,2.2-0.7v-2.6h-2v-2h4.4v5.7c-1,0.8-2.3,1.6-4.7,1.6
					C1017.5,426.4,1015.7,424.5,1015.7,419.8z"/>
				<path class="st28" d="M1037.9,426.2h-2.6l-5.2-9.2l0.1,2.8v6.4h-2.3v-13.3h2.6l5.2,9.2l-0.1-2.8v-6.4h2.3V426.2z"/>
				<path class="st28" d="M1046.4,412.8l3.7,13.4h-2.6l-0.8-3h-4l-0.8,3h-2.6l3.7-13.4H1046.4z M1043.2,421.1h2.9l-1.5-5.7
					L1043.2,421.1z"/>
				<path class="st28" d="M1051.5,426.2v-13.3h2.4v11.3h5.4v2H1051.5z"/>
				<path class="st28" d="M1063.2,426.2h-2.4v-13.3h2.4V426.2z"/>
				<path class="st28" d="M1075.4,426.2h-2.6l-5.2-9.2l0.1,2.8v6.4h-2.3v-13.3h2.6l5.2,9.2l-0.1-2.8v-6.4h2.3V426.2z"/>
				<path class="st28" d="M1077.3,419.8v-0.7c0-4.6,1.7-6.6,5.3-6.6c3.2,0,4.9,1.4,4.9,4.7v0.6h-2.4c0-2.1-0.6-3.2-2.3-3.2h-0.2
					c-2.1,0-2.8,1.5-2.8,4.6v0.7c0,3,0.7,4.5,2.9,4.5h0.2c1,0,1.7-0.3,2.2-0.7v-2.6h-2v-2h4.4v5.7c-1,0.8-2.3,1.6-4.7,1.6
					C1079.1,426.4,1077.3,424.5,1077.3,419.8z"/>
			</g>
		</g>
	</g>
</g>
<g id="M2">
	<g>
		<path class="st30" d="M740,40.8c-3.5,1.9-6.9,4.3-10.2,6.4c-12.9,8.2-31.9,11.1-42.3-0.1c-3.8-4.1-5.8-9.4-9.1-13.9
			c-10.4-14.3-26.1-4.5-34.1,6.7c-4.9,6.9-9.1,14.6-16.2,19.1c-8.7,5.6-20,5.1-30.1,3s-20.1-5.6-30.4-5.5
			c-13.9,0.2-29,9.7-29.4,23.6c-0.3,9.9,6.7,18.7,7.1,28.6c0.9,22.4-30.3,34.5-32.8,56.8c-1.7,15.6,11.1,28.3,18.5,42.1
			c7,13.2,9.3,28.8,6.3,43.4c-1.8,8.7-5.4,16.9-6.8,25.6s-0.2,18.6,6.2,24.7c6.3,6,15.9,7,24.6,6.3c8.7-0.7,17.5-2.7,26-1.1
			c13.7,2.5,23.9,13.3,34.5,22.4c10.5,9,24.5,17.2,37.7,12.9c9.1-3,15.5-11.1,23.7-16c9-5.3,20.5-6.4,30.3-2.8
			c9.2,3.3,17.6,10.5,27.3,9.8c12-0.9,19.7-13.2,30.8-18c7.9-3.5,17-2.8,25.6-3.8s18-4.6,21.2-12.7c4-10.3-4.1-22-1.2-32.6
			c3.1-11.6,17.3-16.1,24-26c5.9-8.6,4.9-21.2-2.1-28.8c-3.9-4.2-9.4-7.2-11.2-12.6c-4.5-13.8,19.2-23.9,16.5-38.2
			c-1.9-9.9-14.4-12.6-22.6-18.4c-8.9-6.3-13.2-18.4-10.4-28.9c2.9-10.7,12.2-21.8,6.4-31.3c-3.9-6.4-12.5-7.5-20-7.3
			s-15.6,1-21.6-3.3c-10.7-7.8-8.7-27.6-21.1-32.3C750,36.6,744.9,38.2,740,40.8z"/>
		<path class="st31" d="M761.6,136.1c-18.5-13.5-39.8-24.9-62.3-30.3c-15.8-3.8-32.8-4.1-48,1.5c-15.4,5.7-28.1,17.1-38,30.2
			c-10.8,14.3-18.8,31.3-20.3,49.2c-1.5,18,3.4,36,11.6,52.1c9.1,17.9,23.3,34.4,42.3,40.6c20.3,6.6,42.5,0.7,61.8-8.4
			c26.2-12.3,50.7-31.4,63.9-57.7c11.1-21.9,12.1-53.9-5.8-72.6C765.2,139,763.4,137.5,761.6,136.1"/>
	</g>
</g>
<g id="M1">
	<g>
		<g>
			
				<linearGradient id="SVGID_22_" gradientUnits="userSpaceOnUse" x1="2513.0322" y1="2061.2161" x2="2868.78" y2="2061.2161" gradientTransform="matrix(0.857 -0.5152 0.5152 0.857 -2842.7502 -161.3466)">
				<stop  offset="1.068535e-02" style="stop-color:#67B4E5"/>
				<stop  offset="0.3538" style="stop-color:#35A8E0"/>
				<stop  offset="1" style="stop-color:#0080C8"/>
			</linearGradient>
			<path class="st32" d="M463,70.5c7.6,5.3,15.6,10.9,24.7,13.3c8.6,2.3,18.4,1.5,25.2-4.7c7.2-6.6,9.7-18.8,19.4-22.5
				c9-3.5,18.8,3.2,24.7,10.9s10.2,17,18.5,22.1c18.2,11.2,39.6-3.2,58.5-3.6c18.3-0.4,36.8,15.4,29,34.6c-1.6,4.1-3.8,7.9-4.9,12.1
				c-5.1,19.9,15.7,33.2,25.6,47.3c14.1,20.2,2.5,33.5-8.6,51.3c-9.7,15.6-12.9,35.2-8.7,53.1c1.8,7.8,5,15.2,6.3,23.1
				s0.4,16.7-5,22.6c-6.1,6.8-16.3,8.1-25.5,7.4c-9.1-0.7-18.4-2.8-27.4-1c-13.6,2.7-23.7,13.7-34.2,22.7s-24.6,17-37.6,12.4
				c-8.1-2.9-13.9-10.1-21.1-14.8c-10.3-6.6-23.8-7.8-35.1-3.1c-8.3,3.5-15.9,10.1-24.9,9.7c-12.4-0.5-20.2-13.6-31.5-18.7
				c-8.1-3.6-17.4-2.8-26.2-3.9c-8.8-1.1-18.5-5.4-20.8-13.9c-2.7-10,6.1-20.6,3-30.5c-1.9-6.3-8-10.2-13.1-14.3
				c-6.2-4.9-11.7-11.1-14.2-18.7c-2.5-7.5-1.4-16.6,4.2-22.2c3.4-3.4,8.1-5.4,10.4-9.5c3.8-6.8-0.8-15.1-5.7-21.2
				c-4.9-6-10.7-12.9-9.2-20.6c2.5-12.9,21.9-13.7,29.7-24.3c4.2-5.7,4.3-13.5,2.7-20.4c-1.6-6.9-4.8-13.3-6.8-20.1
				c-1.2-4.1-1.9-8.5-0.3-12.5c2.5-6.2,9.9-8.8,16.5-9.1c6.6-0.3,13.4,1.2,19.9,0c17.8-3.1,11.6-23,22.3-32.8
				c4.2-3.8,10.9-4.6,15.8-1.7"/>
		</g>
		<g>
			<path class="st33" d="M438.9,200.2c17.5-30.5,48.3-65.3,86.1-67.5c20-1.1,42.1,9.9,57.1,22.5c14.7,12.3,25.3,29.5,29.4,48.2
				c5.8,26.5-1.4,63.3-25.3,79.3c-10.7,7.2-23.4,10.9-36.2,12.4c-39.8,4.8-93.6-12.7-111.5-51.7
				C432.5,230.1,431.6,213.2,438.9,200.2"/>
		</g>
	</g>
</g>
</svg>
